G04*
G04 #@! TF.GenerationSoftware,Altium Limited,Altium Designer,21.0.9 (235)*
G04*
G04 Layer_Physical_Order=2*
G04 Layer_Color=16711680*
%FSLAX25Y25*%
%MOIN*%
G70*
G04*
G04 #@! TF.SameCoordinates,33DCC083-78A4-4658-BA73-3189C6140954*
G04*
G04*
G04 #@! TF.FilePolarity,Positive*
G04*
G01*
G75*
G04:AMPARAMS|DCode=25|XSize=78.74mil|YSize=275.59mil|CornerRadius=19.68mil|HoleSize=0mil|Usage=FLASHONLY|Rotation=0.000|XOffset=0mil|YOffset=0mil|HoleType=Round|Shape=RoundedRectangle|*
%AMROUNDEDRECTD25*
21,1,0.07874,0.23622,0,0,0.0*
21,1,0.03937,0.27559,0,0,0.0*
1,1,0.03937,0.01968,-0.11811*
1,1,0.03937,-0.01968,-0.11811*
1,1,0.03937,-0.01968,0.11811*
1,1,0.03937,0.01968,0.11811*
%
%ADD25ROUNDEDRECTD25*%
%ADD26C,0.01575*%
%ADD27C,0.05906*%
%ADD28C,0.06299*%
%ADD29R,0.06299X0.09843*%
%ADD30O,0.06299X0.09843*%
%ADD31C,0.06693*%
%ADD32R,0.06299X0.09843*%
%ADD33O,0.06299X0.09843*%
%ADD34C,0.09843*%
%ADD35R,0.09843X0.06299*%
%ADD36O,0.09843X0.06299*%
%ADD37C,0.01968*%
%ADD38C,0.02756*%
G36*
X223000Y344981D02*
X223431D01*
X224278Y344812D01*
X225075Y344482D01*
X225792Y344003D01*
X226402Y343392D01*
X226882Y342675D01*
X227212Y341878D01*
X227380Y341032D01*
Y340600D01*
X227380Y41920D01*
X226919Y41728D01*
X226669Y41978D01*
X225678Y42550D01*
X224572Y42846D01*
X224500D01*
Y38500D01*
Y34154D01*
X224572D01*
X225678Y34450D01*
X226669Y35022D01*
X226919Y35272D01*
X227380Y35080D01*
X227380Y5300D01*
X227380Y4879D01*
X227216Y4051D01*
X226893Y3272D01*
X226425Y2571D01*
X225829Y1975D01*
X225128Y1507D01*
X224348Y1184D01*
X223522Y1020D01*
X222581D01*
X222481Y1519D01*
X222666Y1596D01*
X223286Y2072D01*
X223762Y2692D01*
X224061Y3414D01*
X224163Y4189D01*
Y15500D01*
X219200D01*
Y16000D01*
X218700D01*
Y30805D01*
X217231D01*
X216457Y30703D01*
X215734Y30404D01*
X215114Y29928D01*
X214638Y29308D01*
X214471Y28903D01*
X213929D01*
X213761Y29308D01*
X213286Y29928D01*
X212666Y30404D01*
X211943Y30703D01*
X211169Y30805D01*
X211022D01*
Y36528D01*
X211022Y36528D01*
X210884Y37226D01*
X210489Y37817D01*
X210489Y37817D01*
X176431Y71875D01*
X176543Y72145D01*
X176685Y73228D01*
Y76772D01*
X176543Y77855D01*
X176125Y78864D01*
X175460Y79731D01*
X174593Y80396D01*
X173583Y80814D01*
X172500Y80957D01*
X171417Y80814D01*
X170407Y80396D01*
X169541Y79731D01*
X168875Y78864D01*
X168457Y77855D01*
X168315Y76772D01*
Y73228D01*
X168457Y72145D01*
X168875Y71136D01*
X169541Y70269D01*
X170407Y69604D01*
X171417Y69186D01*
X172500Y69043D01*
X173583Y69186D01*
X173854Y69297D01*
X207378Y35774D01*
Y30805D01*
X207231D01*
X206457Y30703D01*
X205734Y30404D01*
X205114Y29928D01*
X204639Y29308D01*
X204471Y28903D01*
X203929D01*
X203762Y29308D01*
X203286Y29928D01*
X202666Y30404D01*
X201943Y30703D01*
X201168Y30805D01*
X201022D01*
Y32800D01*
X201022Y32800D01*
X200884Y33497D01*
X200489Y34089D01*
X200489Y34089D01*
X165226Y69351D01*
Y70090D01*
X165460Y70269D01*
X166125Y71136D01*
X166543Y72145D01*
X166685Y73228D01*
Y76772D01*
X166543Y77855D01*
X166125Y78864D01*
X165460Y79731D01*
X164593Y80396D01*
X163583Y80814D01*
X162500Y80957D01*
X161417Y80814D01*
X160407Y80396D01*
X159540Y79731D01*
X158875Y78864D01*
X158457Y77855D01*
X158315Y76772D01*
Y73228D01*
X158457Y72145D01*
X158682Y71602D01*
X158258Y71319D01*
X156646Y72931D01*
X156685Y73228D01*
Y76772D01*
X156543Y77855D01*
X156125Y78864D01*
X155459Y79731D01*
X154593Y80396D01*
X153583Y80814D01*
X152500Y80957D01*
X151417Y80814D01*
X150407Y80396D01*
X149540Y79731D01*
X148875Y78864D01*
X148457Y77855D01*
X148315Y76772D01*
Y73228D01*
X148457Y72145D01*
X148875Y71136D01*
X149540Y70269D01*
X150407Y69604D01*
X151417Y69186D01*
X152500Y69043D01*
X153583Y69186D01*
X154593Y69604D01*
X154721Y69702D01*
X187178Y37245D01*
Y30798D01*
X186457Y30703D01*
X185734Y30404D01*
X185114Y29928D01*
X184639Y29308D01*
X184471Y28903D01*
X183929D01*
X183762Y29308D01*
X183286Y29928D01*
X182666Y30404D01*
X181944Y30703D01*
X181168Y30805D01*
X180822D01*
Y37500D01*
X180822Y37500D01*
X180684Y38197D01*
X180289Y38789D01*
X180289Y38789D01*
X146588Y72489D01*
X146685Y73228D01*
Y76772D01*
X146543Y77855D01*
X146125Y78864D01*
X145459Y79731D01*
X144593Y80396D01*
X143583Y80814D01*
X142500Y80957D01*
X141417Y80814D01*
X140407Y80396D01*
X139541Y79731D01*
X138875Y78864D01*
X138457Y77855D01*
X138315Y76772D01*
Y73228D01*
X138457Y72145D01*
X138875Y71136D01*
X139541Y70269D01*
X140407Y69604D01*
X141417Y69186D01*
X142500Y69043D01*
X143583Y69186D01*
X144399Y69524D01*
X177178Y36745D01*
Y30798D01*
X176456Y30703D01*
X175734Y30404D01*
X175114Y29928D01*
X174638Y29308D01*
X174471Y28903D01*
X173929D01*
X173761Y29308D01*
X173286Y29928D01*
X172666Y30404D01*
X171943Y30703D01*
X171168Y30805D01*
X171022D01*
Y34300D01*
X171022Y34300D01*
X170884Y34997D01*
X170489Y35589D01*
X170489Y35589D01*
X135611Y70466D01*
X136125Y71136D01*
X136543Y72145D01*
X136685Y73228D01*
Y76772D01*
X136543Y77855D01*
X136125Y78864D01*
X135459Y79731D01*
X134593Y80396D01*
X133583Y80814D01*
X132500Y80957D01*
X131417Y80814D01*
X130407Y80396D01*
X129541Y79731D01*
X128875Y78864D01*
X128457Y77855D01*
X128315Y76772D01*
Y73228D01*
X128457Y72145D01*
X128875Y71136D01*
X129541Y70269D01*
X130407Y69604D01*
X131417Y69186D01*
X131906Y69121D01*
X132115Y68807D01*
X167378Y33545D01*
Y30805D01*
X167232D01*
X166456Y30703D01*
X166088Y30550D01*
X165866Y30459D01*
X165624Y30869D01*
X165802Y31047D01*
X166182Y31428D01*
X166441Y32052D01*
X165000D01*
Y30611D01*
X165183Y30687D01*
X165397Y30776D01*
X165649Y30339D01*
X165455Y30190D01*
X165114Y29928D01*
X164638Y29308D01*
X164471Y28903D01*
X163929D01*
X163761Y29308D01*
X163286Y29928D01*
X162666Y30404D01*
X161943Y30703D01*
X161169Y30805D01*
X161022D01*
Y36528D01*
X161022Y36528D01*
X160884Y37226D01*
X160489Y37817D01*
X160489Y37817D01*
X126431Y71875D01*
X126543Y72145D01*
X126685Y73228D01*
Y76772D01*
X126543Y77855D01*
X126125Y78864D01*
X125460Y79731D01*
X124593Y80396D01*
X123583Y80814D01*
X122500Y80957D01*
X121417Y80814D01*
X120407Y80396D01*
X119541Y79731D01*
X118875Y78864D01*
X118457Y77855D01*
X118315Y76772D01*
Y73228D01*
X118430Y72355D01*
X117956Y72121D01*
X116997Y73080D01*
X116685Y73289D01*
Y76772D01*
X116543Y77855D01*
X116125Y78864D01*
X115460Y79731D01*
X114593Y80396D01*
X113583Y80814D01*
X112500Y80957D01*
X111417Y80814D01*
X110407Y80396D01*
X109540Y79731D01*
X108875Y78864D01*
X108457Y77855D01*
X108315Y76772D01*
Y73228D01*
X108457Y72145D01*
X108875Y71136D01*
X109540Y70269D01*
X110407Y69604D01*
X111417Y69186D01*
X112500Y69043D01*
X113583Y69186D01*
X114593Y69604D01*
X115004Y69919D01*
X147378Y37545D01*
Y30805D01*
X147231D01*
X146457Y30703D01*
X145734Y30404D01*
X145114Y29928D01*
X144639Y29308D01*
X144471Y28903D01*
X143929D01*
X143762Y29308D01*
X143286Y29928D01*
X142666Y30404D01*
X141944Y30703D01*
X141168Y30805D01*
X141022D01*
Y36528D01*
X141022Y36528D01*
X140884Y37226D01*
X140489Y37817D01*
X140489Y37817D01*
X106431Y71875D01*
X106543Y72145D01*
X106685Y73228D01*
Y76772D01*
X106543Y77855D01*
X106125Y78864D01*
X105459Y79731D01*
X104593Y80396D01*
X103583Y80814D01*
X102500Y80957D01*
X101417Y80814D01*
X100407Y80396D01*
X99541Y79731D01*
X98875Y78864D01*
X98457Y77855D01*
X98315Y76772D01*
Y73228D01*
X98457Y72145D01*
X98875Y71136D01*
X99541Y70269D01*
X100407Y69604D01*
X101417Y69186D01*
X102500Y69043D01*
X103583Y69186D01*
X103853Y69297D01*
X125760Y47392D01*
X125568Y46929D01*
X123964D01*
X123712Y47181D01*
X122838Y47543D01*
X121892D01*
X121018Y47181D01*
X120349Y46512D01*
X119987Y45638D01*
Y44692D01*
X120176Y44238D01*
X119898Y43822D01*
X105700D01*
X105700Y43822D01*
X105003Y43684D01*
X104411Y43289D01*
X104411Y43289D01*
X97911Y36789D01*
X97516Y36197D01*
X97378Y35500D01*
X97378Y35500D01*
Y30805D01*
X97232D01*
X96457Y30703D01*
X95734Y30404D01*
X95114Y29928D01*
X94639Y29308D01*
X94471Y28903D01*
X93929D01*
X93761Y29308D01*
X93286Y29928D01*
X92666Y30404D01*
X91943Y30703D01*
X91168Y30805D01*
X91022D01*
Y68869D01*
X91361Y69209D01*
X91417Y69186D01*
X92500Y69043D01*
X93583Y69186D01*
X94593Y69604D01*
X95460Y70269D01*
X96125Y71136D01*
X96543Y72145D01*
X96685Y73228D01*
Y76772D01*
X96543Y77855D01*
X96125Y78864D01*
X95460Y79731D01*
X94593Y80396D01*
X93583Y80814D01*
X92500Y80957D01*
X91417Y80814D01*
X90407Y80396D01*
X89540Y79731D01*
X88875Y78864D01*
X88457Y77855D01*
X88315Y76772D01*
Y73228D01*
X88457Y72145D01*
X88658Y71660D01*
X87911Y70913D01*
X87516Y70322D01*
X87378Y69624D01*
X87378Y69624D01*
Y30805D01*
X87231D01*
X86457Y30703D01*
X85734Y30404D01*
X85114Y29928D01*
X84639Y29308D01*
X84471Y28903D01*
X83929D01*
X83762Y29308D01*
X83286Y29928D01*
X82666Y30404D01*
X81943Y30703D01*
X81169Y30805D01*
X81022D01*
Y67701D01*
X81022Y67701D01*
X80884Y68399D01*
X80764Y68579D01*
X81031Y69079D01*
X86650D01*
Y80921D01*
X78350D01*
Y71782D01*
X77889Y71590D01*
X73597Y75881D01*
Y88743D01*
X73597Y88743D01*
X73458Y89441D01*
X73063Y90032D01*
X73063Y90032D01*
X67707Y95389D01*
X67898Y95850D01*
X68046D01*
X69102Y96133D01*
X70048Y96680D01*
X70820Y97452D01*
X71367Y98398D01*
X71650Y99454D01*
Y99500D01*
X67500D01*
Y100000D01*
X67000D01*
Y104150D01*
X66954D01*
X65898Y103867D01*
X64952Y103321D01*
X64179Y102548D01*
X63633Y101602D01*
X63350Y100546D01*
Y100398D01*
X62888Y100207D01*
X55306Y107789D01*
X55396Y107907D01*
X55814Y108917D01*
X55957Y110000D01*
X55814Y111083D01*
X55396Y112093D01*
X54731Y112960D01*
X53864Y113625D01*
X52855Y114043D01*
X51772Y114185D01*
X48228D01*
X47145Y114043D01*
X46136Y113625D01*
X45322Y113001D01*
X44829Y113109D01*
X44822Y113111D01*
Y116889D01*
X44829Y116891D01*
X45322Y116999D01*
X46136Y116375D01*
X47145Y115957D01*
X48228Y115815D01*
X51772D01*
X52855Y115957D01*
X53864Y116375D01*
X54731Y117041D01*
X55396Y117907D01*
X55814Y118917D01*
X55957Y120000D01*
X55928Y120218D01*
X56293Y120559D01*
X56391Y120540D01*
X56392Y120540D01*
X129417D01*
X129417Y120540D01*
X130114Y120678D01*
X130705Y121074D01*
X131601Y121969D01*
X133063D01*
X133063Y121969D01*
X133760Y122108D01*
X134352Y122503D01*
X141147Y129297D01*
X141417Y129185D01*
X142500Y129043D01*
X143583Y129185D01*
X144593Y129604D01*
X145459Y130269D01*
X146125Y131136D01*
X146543Y132145D01*
X146685Y133228D01*
Y136772D01*
X146543Y137855D01*
X146125Y138864D01*
X145459Y139731D01*
X144593Y140396D01*
X143583Y140814D01*
X142500Y140957D01*
X141417Y140814D01*
X140407Y140396D01*
X139541Y139731D01*
X138875Y138864D01*
X138457Y137855D01*
X138315Y136772D01*
Y133228D01*
X138457Y132145D01*
X138569Y131875D01*
X132308Y125614D01*
X130846D01*
X130846Y125614D01*
X130148Y125475D01*
X129557Y125080D01*
X129557Y125080D01*
X128662Y124185D01*
X94968D01*
X94690Y124600D01*
X94878Y125055D01*
Y126001D01*
X94516Y126875D01*
X93847Y127543D01*
X92973Y127905D01*
X92027D01*
X91153Y127543D01*
X90960Y127350D01*
X57622D01*
X55843Y129130D01*
X55957Y130000D01*
X55814Y131083D01*
X55396Y132093D01*
X54731Y132959D01*
X53864Y133625D01*
X52855Y134043D01*
X51772Y134185D01*
X48228D01*
X47145Y134043D01*
X46136Y133625D01*
X45269Y132959D01*
X44604Y132093D01*
X44186Y131083D01*
X44043Y130000D01*
X44186Y128917D01*
X44604Y127907D01*
X45263Y127047D01*
X45269Y127038D01*
X45223Y126445D01*
X44895Y126226D01*
X44895Y126226D01*
X41711Y123042D01*
X41316Y122451D01*
X41178Y121754D01*
X41178Y121754D01*
Y76500D01*
X41178Y76500D01*
X41316Y75803D01*
X41678Y75262D01*
Y69364D01*
X41178Y68980D01*
X40546Y69150D01*
X40500D01*
Y65000D01*
Y60850D01*
X40546D01*
X41602Y61133D01*
X42548Y61680D01*
X42849Y61981D01*
X43311Y61790D01*
Y55989D01*
X42849Y55797D01*
X42669Y55978D01*
X41678Y56550D01*
X40572Y56846D01*
X39428D01*
X38322Y56550D01*
X37331Y55978D01*
X36522Y55169D01*
X35950Y54178D01*
X35654Y53072D01*
Y51928D01*
X35950Y50822D01*
X36522Y49831D01*
X37331Y49022D01*
X38322Y48450D01*
X39428Y48154D01*
X39683D01*
X39875Y47692D01*
X39505Y47322D01*
X23000D01*
X23000Y47322D01*
X22303Y47184D01*
X21711Y46789D01*
X21711Y46789D01*
X17911Y42989D01*
X17516Y42397D01*
X17378Y41700D01*
X17378Y41700D01*
Y30805D01*
X17232D01*
X16456Y30703D01*
X15734Y30404D01*
X15114Y29928D01*
X14638Y29308D01*
X14471Y28903D01*
X13929D01*
X13761Y29308D01*
X13286Y29928D01*
X12666Y30404D01*
X11943Y30703D01*
X11169Y30805D01*
X9700D01*
Y16000D01*
X9200D01*
Y15500D01*
X4237D01*
Y4189D01*
X4339Y3414D01*
X4639Y2692D01*
X5114Y2072D01*
X5734Y1596D01*
X5919Y1519D01*
X5819Y1020D01*
X4878D01*
X4051Y1184D01*
X3272Y1507D01*
X2571Y1975D01*
X1975Y2571D01*
X1507Y3272D01*
X1184Y4051D01*
X1020Y4878D01*
X1020Y5300D01*
Y36768D01*
X1519Y36902D01*
X2022Y36031D01*
X2831Y35222D01*
X3822Y34650D01*
X4928Y34354D01*
X5000D01*
Y38700D01*
Y43046D01*
X4928D01*
X3822Y42750D01*
X2831Y42178D01*
X2022Y41369D01*
X1519Y40499D01*
X1020Y40633D01*
Y340700D01*
X1020Y341122D01*
X1184Y341949D01*
X1507Y342728D01*
X1975Y343429D01*
X2571Y344025D01*
X3272Y344493D01*
X4051Y344816D01*
X4878Y344980D01*
X5300Y344980D01*
X139200Y344981D01*
X223000Y344981D01*
D02*
G37*
G36*
X46136Y96375D02*
X47145Y95957D01*
X48228Y95815D01*
X51772D01*
X52855Y95957D01*
X53125Y96069D01*
X67378Y81817D01*
Y75136D01*
X66878Y74929D01*
X66624Y75182D01*
X66000Y75441D01*
Y73500D01*
Y71559D01*
X66624Y71818D01*
X66878Y72071D01*
X67378Y71864D01*
Y30805D01*
X67232D01*
X66457Y30703D01*
X65734Y30404D01*
X65114Y29928D01*
X64639Y29308D01*
X64471Y28903D01*
X63929D01*
X63762Y29308D01*
X63286Y29928D01*
X62666Y30404D01*
X61943Y30703D01*
X61168Y30805D01*
X61022D01*
Y38804D01*
X62363Y40145D01*
X62363Y40145D01*
X62758Y40736D01*
X62897Y41434D01*
X62897Y41434D01*
Y80697D01*
X62897Y80697D01*
X62758Y81394D01*
X62363Y81985D01*
X62363Y81985D01*
X55703Y88647D01*
X55814Y88917D01*
X55957Y90000D01*
X55814Y91083D01*
X55396Y92093D01*
X54731Y92959D01*
X53864Y93625D01*
X52855Y94043D01*
X51772Y94185D01*
X48228D01*
X47145Y94043D01*
X46136Y93625D01*
X45322Y93001D01*
X44829Y93109D01*
X44822Y93111D01*
Y96889D01*
X44829Y96891D01*
X45322Y96999D01*
X46136Y96375D01*
D02*
G37*
G36*
X157378Y35774D02*
Y30805D01*
X157231D01*
X156456Y30703D01*
X155734Y30404D01*
X155114Y29928D01*
X154639Y29308D01*
X154471Y28903D01*
X153929D01*
X153761Y29308D01*
X153286Y29928D01*
X152666Y30404D01*
X151944Y30703D01*
X151169Y30805D01*
X151022D01*
Y38300D01*
X151022Y38300D01*
X150884Y38997D01*
X150489Y39589D01*
X121393Y68684D01*
X121626Y69158D01*
X122500Y69043D01*
X123583Y69186D01*
X123854Y69297D01*
X157378Y35774D01*
D02*
G37*
G36*
X56678Y72048D02*
Y56782D01*
X56216Y56590D01*
X56124Y56682D01*
X55500Y56941D01*
Y55000D01*
Y53059D01*
X56124Y53318D01*
X56216Y53409D01*
X56678Y53218D01*
Y43255D01*
X54206Y40784D01*
X53716Y40881D01*
X53528Y41335D01*
X52859Y42004D01*
X51985Y42366D01*
X51039D01*
X50165Y42004D01*
X49971Y41811D01*
X34188D01*
X34188Y41811D01*
X33491Y41672D01*
X32900Y41277D01*
X32900Y41277D01*
X27911Y36289D01*
X27516Y35697D01*
X27378Y35000D01*
X27378Y35000D01*
Y30805D01*
X27231D01*
X26456Y30703D01*
X25734Y30404D01*
X25114Y29928D01*
X24638Y29308D01*
X24471Y28903D01*
X23929D01*
X23762Y29308D01*
X23286Y29928D01*
X22666Y30404D01*
X21944Y30703D01*
X21169Y30805D01*
X21022D01*
Y40945D01*
X23755Y43678D01*
X40260D01*
X40260Y43678D01*
X40958Y43816D01*
X41549Y44211D01*
X46422Y49085D01*
X46422Y49085D01*
X46818Y49676D01*
X46956Y50374D01*
X46956Y50374D01*
Y66848D01*
X46956Y66848D01*
X46818Y67545D01*
X46422Y68137D01*
X46422Y68137D01*
X45322Y69237D01*
Y75850D01*
X52876D01*
X56678Y72048D01*
D02*
G37*
G36*
X77378Y66947D02*
Y30805D01*
X77232D01*
X76457Y30703D01*
X75734Y30404D01*
X75114Y29928D01*
X74638Y29308D01*
X74471Y28903D01*
X73929D01*
X73761Y29308D01*
X73286Y29928D01*
X72666Y30404D01*
X71943Y30703D01*
X71169Y30805D01*
X71022D01*
Y72648D01*
X71484Y72840D01*
X77378Y66947D01*
D02*
G37*
%LPC*%
G36*
X207000Y340391D02*
Y335000D01*
X210685D01*
Y336272D01*
X210543Y337355D01*
X210125Y338364D01*
X209459Y339231D01*
X208593Y339896D01*
X207583Y340315D01*
X207000Y340391D01*
D02*
G37*
G36*
X206000D02*
X205417Y340315D01*
X204407Y339896D01*
X203540Y339231D01*
X202875Y338364D01*
X202457Y337355D01*
X202315Y336272D01*
Y335000D01*
X206000D01*
Y340391D01*
D02*
G37*
G36*
X197000D02*
Y335000D01*
X200685D01*
Y336272D01*
X200543Y337355D01*
X200125Y338364D01*
X199460Y339231D01*
X198593Y339896D01*
X197583Y340315D01*
X197000Y340391D01*
D02*
G37*
G36*
X196000D02*
X195417Y340315D01*
X194407Y339896D01*
X193541Y339231D01*
X192875Y338364D01*
X192457Y337355D01*
X192315Y336272D01*
Y335000D01*
X196000D01*
Y340391D01*
D02*
G37*
G36*
X187000D02*
Y335000D01*
X190685D01*
Y336272D01*
X190543Y337355D01*
X190125Y338364D01*
X189460Y339231D01*
X188593Y339896D01*
X187583Y340315D01*
X187000Y340391D01*
D02*
G37*
G36*
X186000D02*
X185417Y340315D01*
X184407Y339896D01*
X183540Y339231D01*
X182875Y338364D01*
X182457Y337355D01*
X182315Y336272D01*
Y335000D01*
X186000D01*
Y340391D01*
D02*
G37*
G36*
X177000D02*
Y335000D01*
X180685D01*
Y336272D01*
X180543Y337355D01*
X180125Y338364D01*
X179460Y339231D01*
X178593Y339896D01*
X177583Y340315D01*
X177000Y340391D01*
D02*
G37*
G36*
X176000D02*
X175417Y340315D01*
X174407Y339896D01*
X173540Y339231D01*
X172875Y338364D01*
X172457Y337355D01*
X172315Y336272D01*
Y335000D01*
X176000D01*
Y340391D01*
D02*
G37*
G36*
X167000D02*
Y335000D01*
X170685D01*
Y336272D01*
X170543Y337355D01*
X170125Y338364D01*
X169459Y339231D01*
X168593Y339896D01*
X167583Y340315D01*
X167000Y340391D01*
D02*
G37*
G36*
X166000D02*
X165417Y340315D01*
X164407Y339896D01*
X163540Y339231D01*
X162875Y338364D01*
X162457Y337355D01*
X162315Y336272D01*
Y335000D01*
X166000D01*
Y340391D01*
D02*
G37*
G36*
X157000D02*
Y335000D01*
X160685D01*
Y336272D01*
X160543Y337355D01*
X160125Y338364D01*
X159459Y339231D01*
X158593Y339896D01*
X157583Y340315D01*
X157000Y340391D01*
D02*
G37*
G36*
X156000D02*
X155417Y340315D01*
X154407Y339896D01*
X153541Y339231D01*
X152875Y338364D01*
X152457Y337355D01*
X152315Y336272D01*
Y335000D01*
X156000D01*
Y340391D01*
D02*
G37*
G36*
X147000D02*
Y335000D01*
X150685D01*
Y336272D01*
X150543Y337355D01*
X150125Y338364D01*
X149460Y339231D01*
X148593Y339896D01*
X147583Y340315D01*
X147000Y340391D01*
D02*
G37*
G36*
X146000D02*
X145417Y340315D01*
X144407Y339896D01*
X143541Y339231D01*
X142875Y338364D01*
X142457Y337355D01*
X142315Y336272D01*
Y335000D01*
X146000D01*
Y340391D01*
D02*
G37*
G36*
X137000D02*
Y335000D01*
X140685D01*
Y336272D01*
X140543Y337355D01*
X140125Y338364D01*
X139460Y339231D01*
X138593Y339896D01*
X137583Y340315D01*
X137000Y340391D01*
D02*
G37*
G36*
X136000D02*
X135417Y340315D01*
X134407Y339896D01*
X133540Y339231D01*
X132875Y338364D01*
X132457Y337355D01*
X132315Y336272D01*
Y335000D01*
X136000D01*
Y340391D01*
D02*
G37*
G36*
X127000D02*
Y335000D01*
X130685D01*
Y336272D01*
X130543Y337355D01*
X130125Y338364D01*
X129460Y339231D01*
X128593Y339896D01*
X127583Y340315D01*
X127000Y340391D01*
D02*
G37*
G36*
X126000D02*
X125417Y340315D01*
X124407Y339896D01*
X123540Y339231D01*
X122875Y338364D01*
X122457Y337355D01*
X122315Y336272D01*
Y335000D01*
X126000D01*
Y340391D01*
D02*
G37*
G36*
X210685Y334000D02*
X207000D01*
Y328609D01*
X207583Y328685D01*
X208593Y329104D01*
X209459Y329769D01*
X210125Y330636D01*
X210543Y331645D01*
X210685Y332728D01*
Y334000D01*
D02*
G37*
G36*
X206000D02*
X202315D01*
Y332728D01*
X202457Y331645D01*
X202875Y330636D01*
X203540Y329769D01*
X204407Y329104D01*
X205417Y328685D01*
X206000Y328609D01*
Y334000D01*
D02*
G37*
G36*
X200685D02*
X197000D01*
Y328609D01*
X197583Y328685D01*
X198593Y329104D01*
X199460Y329769D01*
X200125Y330636D01*
X200543Y331645D01*
X200685Y332728D01*
Y334000D01*
D02*
G37*
G36*
X196000D02*
X192315D01*
Y332728D01*
X192457Y331645D01*
X192875Y330636D01*
X193541Y329769D01*
X194407Y329104D01*
X195417Y328685D01*
X196000Y328609D01*
Y334000D01*
D02*
G37*
G36*
X190685D02*
X187000D01*
Y328609D01*
X187583Y328685D01*
X188593Y329104D01*
X189460Y329769D01*
X190125Y330636D01*
X190543Y331645D01*
X190685Y332728D01*
Y334000D01*
D02*
G37*
G36*
X186000D02*
X182315D01*
Y332728D01*
X182457Y331645D01*
X182875Y330636D01*
X183540Y329769D01*
X184407Y329104D01*
X185417Y328685D01*
X186000Y328609D01*
Y334000D01*
D02*
G37*
G36*
X180685D02*
X177000D01*
Y328609D01*
X177583Y328685D01*
X178593Y329104D01*
X179460Y329769D01*
X180125Y330636D01*
X180543Y331645D01*
X180685Y332728D01*
Y334000D01*
D02*
G37*
G36*
X176000D02*
X172315D01*
Y332728D01*
X172457Y331645D01*
X172875Y330636D01*
X173540Y329769D01*
X174407Y329104D01*
X175417Y328685D01*
X176000Y328609D01*
Y334000D01*
D02*
G37*
G36*
X170685D02*
X167000D01*
Y328609D01*
X167583Y328685D01*
X168593Y329104D01*
X169459Y329769D01*
X170125Y330636D01*
X170543Y331645D01*
X170685Y332728D01*
Y334000D01*
D02*
G37*
G36*
X166000D02*
X162315D01*
Y332728D01*
X162457Y331645D01*
X162875Y330636D01*
X163540Y329769D01*
X164407Y329104D01*
X165417Y328685D01*
X166000Y328609D01*
Y334000D01*
D02*
G37*
G36*
X160685D02*
X157000D01*
Y328609D01*
X157583Y328685D01*
X158593Y329104D01*
X159459Y329769D01*
X160125Y330636D01*
X160543Y331645D01*
X160685Y332728D01*
Y334000D01*
D02*
G37*
G36*
X156000D02*
X152315D01*
Y332728D01*
X152457Y331645D01*
X152875Y330636D01*
X153541Y329769D01*
X154407Y329104D01*
X155417Y328685D01*
X156000Y328609D01*
Y334000D01*
D02*
G37*
G36*
X150685D02*
X147000D01*
Y328609D01*
X147583Y328685D01*
X148593Y329104D01*
X149460Y329769D01*
X150125Y330636D01*
X150543Y331645D01*
X150685Y332728D01*
Y334000D01*
D02*
G37*
G36*
X146000D02*
X142315D01*
Y332728D01*
X142457Y331645D01*
X142875Y330636D01*
X143541Y329769D01*
X144407Y329104D01*
X145417Y328685D01*
X146000Y328609D01*
Y334000D01*
D02*
G37*
G36*
X140685D02*
X137000D01*
Y328609D01*
X137583Y328685D01*
X138593Y329104D01*
X139460Y329769D01*
X140125Y330636D01*
X140543Y331645D01*
X140685Y332728D01*
Y334000D01*
D02*
G37*
G36*
X136000D02*
X132315D01*
Y332728D01*
X132457Y331645D01*
X132875Y330636D01*
X133540Y329769D01*
X134407Y329104D01*
X135417Y328685D01*
X136000Y328609D01*
Y334000D01*
D02*
G37*
G36*
X130685D02*
X127000D01*
Y328609D01*
X127583Y328685D01*
X128593Y329104D01*
X129460Y329769D01*
X130125Y330636D01*
X130543Y331645D01*
X130685Y332728D01*
Y334000D01*
D02*
G37*
G36*
X126000D02*
X122315D01*
Y332728D01*
X122457Y331645D01*
X122875Y330636D01*
X123540Y329769D01*
X124407Y329104D01*
X125417Y328685D01*
X126000Y328609D01*
Y334000D01*
D02*
G37*
G36*
X216500Y340457D02*
X215417Y340315D01*
X214407Y339896D01*
X213541Y339231D01*
X212875Y338364D01*
X212457Y337355D01*
X212315Y336272D01*
Y332728D01*
X212457Y331645D01*
X212875Y330636D01*
X213541Y329769D01*
X214407Y329104D01*
X215417Y328685D01*
X216500Y328543D01*
X217583Y328685D01*
X218593Y329104D01*
X219460Y329769D01*
X220125Y330636D01*
X220543Y331645D01*
X220685Y332728D01*
Y336272D01*
X220543Y337355D01*
X220125Y338364D01*
X219460Y339231D01*
X218593Y339896D01*
X217583Y340315D01*
X216500Y340457D01*
D02*
G37*
G36*
X42000D02*
X40917Y340315D01*
X39907Y339896D01*
X39040Y339231D01*
X38375Y338364D01*
X37957Y337355D01*
X37815Y336272D01*
Y332728D01*
X37957Y331645D01*
X38375Y330636D01*
X39040Y329769D01*
X39907Y329104D01*
X40917Y328685D01*
X42000Y328543D01*
X43083Y328685D01*
X44093Y329104D01*
X44960Y329769D01*
X45625Y330636D01*
X46043Y331645D01*
X46185Y332728D01*
Y336272D01*
X46043Y337355D01*
X45625Y338364D01*
X44960Y339231D01*
X44093Y339896D01*
X43083Y340315D01*
X42000Y340457D01*
D02*
G37*
G36*
X32000D02*
X30917Y340315D01*
X29907Y339896D01*
X29041Y339231D01*
X28375Y338364D01*
X27957Y337355D01*
X27815Y336272D01*
Y332728D01*
X27957Y331645D01*
X28375Y330636D01*
X29041Y329769D01*
X29907Y329104D01*
X30917Y328685D01*
X32000Y328543D01*
X33083Y328685D01*
X34093Y329104D01*
X34960Y329769D01*
X35625Y330636D01*
X36043Y331645D01*
X36185Y332728D01*
Y336272D01*
X36043Y337355D01*
X35625Y338364D01*
X34960Y339231D01*
X34093Y339896D01*
X33083Y340315D01*
X32000Y340457D01*
D02*
G37*
G36*
X22000D02*
X20917Y340315D01*
X19907Y339896D01*
X19040Y339231D01*
X18375Y338364D01*
X17957Y337355D01*
X17815Y336272D01*
Y332728D01*
X17957Y331645D01*
X18375Y330636D01*
X19040Y329769D01*
X19907Y329104D01*
X20917Y328685D01*
X22000Y328543D01*
X23083Y328685D01*
X24093Y329104D01*
X24960Y329769D01*
X25625Y330636D01*
X26043Y331645D01*
X26185Y332728D01*
Y336272D01*
X26043Y337355D01*
X25625Y338364D01*
X24960Y339231D01*
X24093Y339896D01*
X23083Y340315D01*
X22000Y340457D01*
D02*
G37*
G36*
X12000D02*
X10917Y340315D01*
X9907Y339896D01*
X9041Y339231D01*
X8375Y338364D01*
X7957Y337355D01*
X7815Y336272D01*
Y332728D01*
X7957Y331645D01*
X8375Y330636D01*
X9041Y329769D01*
X9907Y329104D01*
X10917Y328685D01*
X12000Y328543D01*
X13083Y328685D01*
X14093Y329104D01*
X14960Y329769D01*
X15625Y330636D01*
X16043Y331645D01*
X16185Y332728D01*
Y336272D01*
X16043Y337355D01*
X15625Y338364D01*
X14960Y339231D01*
X14093Y339896D01*
X13083Y340315D01*
X12000Y340457D01*
D02*
G37*
G36*
X109189Y333264D02*
X109106D01*
Y327842D01*
X114528D01*
Y327926D01*
X114300Y329070D01*
X113854Y330147D01*
X113206Y331117D01*
X112381Y331942D01*
X111411Y332590D01*
X110334Y333036D01*
X109189Y333264D01*
D02*
G37*
G36*
X59977D02*
X59894D01*
Y327842D01*
X65315D01*
Y327926D01*
X65087Y329070D01*
X64641Y330147D01*
X63993Y331117D01*
X63168Y331942D01*
X62199Y332590D01*
X61121Y333036D01*
X59977Y333264D01*
D02*
G37*
G36*
X58894D02*
X58811D01*
X57666Y333036D01*
X56589Y332590D01*
X55619Y331942D01*
X54794Y331117D01*
X54146Y330147D01*
X53700Y329070D01*
X53472Y327926D01*
Y327842D01*
X58894D01*
Y333264D01*
D02*
G37*
G36*
X108106D02*
X108023D01*
X106879Y333036D01*
X105801Y332590D01*
X104832Y331942D01*
X104007Y331117D01*
X103359Y330147D01*
X102913Y329070D01*
X102685Y327926D01*
Y327842D01*
X108106D01*
Y333264D01*
D02*
G37*
G36*
X86500Y325941D02*
Y324500D01*
X87941D01*
X87682Y325124D01*
X87124Y325682D01*
X86500Y325941D01*
D02*
G37*
G36*
X85500D02*
X84876Y325682D01*
X84318Y325124D01*
X84059Y324500D01*
X85500D01*
Y325941D01*
D02*
G37*
G36*
X87941Y323500D02*
X86500D01*
Y322059D01*
X87124Y322318D01*
X87682Y322876D01*
X87941Y323500D01*
D02*
G37*
G36*
X85500D02*
X84059D01*
X84318Y322876D01*
X84876Y322318D01*
X85500Y322059D01*
Y323500D01*
D02*
G37*
G36*
X114528Y326842D02*
X109106D01*
Y321421D01*
X109189D01*
X110334Y321649D01*
X111411Y322095D01*
X112381Y322743D01*
X113206Y323568D01*
X113854Y324538D01*
X114300Y325615D01*
X114528Y326759D01*
Y326842D01*
D02*
G37*
G36*
X108106D02*
X102685D01*
Y326759D01*
X102913Y325615D01*
X103359Y324538D01*
X104007Y323568D01*
X104832Y322743D01*
X105801Y322095D01*
X106879Y321649D01*
X108023Y321421D01*
X108106D01*
Y326842D01*
D02*
G37*
G36*
X65315D02*
X59894D01*
Y321421D01*
X59977D01*
X61121Y321649D01*
X62199Y322095D01*
X63168Y322743D01*
X63993Y323568D01*
X64641Y324538D01*
X65087Y325615D01*
X65315Y326759D01*
Y326842D01*
D02*
G37*
G36*
X58894D02*
X53472D01*
Y326759D01*
X53700Y325615D01*
X54146Y324538D01*
X54794Y323568D01*
X55619Y322743D01*
X56589Y322095D01*
X57666Y321649D01*
X58811Y321421D01*
X58894D01*
Y326842D01*
D02*
G37*
G36*
X109189Y313579D02*
X108023D01*
X106879Y313351D01*
X105801Y312905D01*
X104832Y312257D01*
X104007Y311432D01*
X103359Y310462D01*
X102952Y309480D01*
X65048D01*
X64641Y310462D01*
X63993Y311432D01*
X63168Y312257D01*
X62199Y312905D01*
X61121Y313351D01*
X59977Y313579D01*
X58811D01*
X57666Y313351D01*
X56589Y312905D01*
X55619Y312257D01*
X54794Y311432D01*
X54146Y310462D01*
X53700Y309385D01*
X53472Y308241D01*
Y307074D01*
X53700Y305930D01*
X54146Y304853D01*
X54794Y303883D01*
X55619Y303058D01*
X56589Y302410D01*
X57666Y301964D01*
X58811Y301736D01*
X59977D01*
X61121Y301964D01*
X62199Y302410D01*
X63168Y303058D01*
X63993Y303883D01*
X64641Y304853D01*
X65048Y305835D01*
X102952D01*
X103359Y304853D01*
X104007Y303883D01*
X104832Y303058D01*
X105801Y302410D01*
X106879Y301964D01*
X108023Y301736D01*
X109189D01*
X110334Y301964D01*
X111411Y302410D01*
X112381Y303058D01*
X113206Y303883D01*
X113854Y304853D01*
X114300Y305930D01*
X114528Y307074D01*
Y308241D01*
X114300Y309385D01*
X113854Y310462D01*
X113206Y311432D01*
X112381Y312257D01*
X111411Y312905D01*
X110334Y313351D01*
X109189Y313579D01*
D02*
G37*
G36*
X22000Y310457D02*
X20917Y310314D01*
X19907Y309896D01*
X19040Y309231D01*
X18375Y308364D01*
X17957Y307355D01*
X17821Y306322D01*
X16150D01*
Y310421D01*
X7850D01*
Y298579D01*
X16150D01*
Y302678D01*
X17821D01*
X17957Y301645D01*
X18375Y300636D01*
X19040Y299769D01*
X19907Y299104D01*
X20917Y298686D01*
X22000Y298543D01*
X23083Y298686D01*
X24093Y299104D01*
X24960Y299769D01*
X25625Y300636D01*
X26043Y301645D01*
X26185Y302728D01*
Y306272D01*
X26043Y307355D01*
X25625Y308364D01*
X24960Y309231D01*
X24093Y309896D01*
X23083Y310314D01*
X22000Y310457D01*
D02*
G37*
G36*
X95500Y303177D02*
Y301736D01*
X96941D01*
X96682Y302360D01*
X96124Y302918D01*
X95500Y303177D01*
D02*
G37*
G36*
X94500D02*
X93876Y302918D01*
X93318Y302360D01*
X93059Y301736D01*
X94500D01*
Y303177D01*
D02*
G37*
G36*
X96941Y300736D02*
X95500D01*
Y299296D01*
X96124Y299554D01*
X96682Y300112D01*
X96941Y300736D01*
D02*
G37*
G36*
X94500D02*
X93059D01*
X93318Y300112D01*
X93876Y299554D01*
X94500Y299296D01*
Y300736D01*
D02*
G37*
G36*
X130650Y310421D02*
X122350D01*
Y298579D01*
X130650D01*
Y310421D01*
D02*
G37*
G36*
X216500Y310457D02*
X215417Y310314D01*
X214407Y309896D01*
X213541Y309231D01*
X212875Y308364D01*
X212457Y307355D01*
X212315Y306272D01*
Y302728D01*
X212457Y301645D01*
X212875Y300636D01*
X213541Y299769D01*
X214407Y299104D01*
X215417Y298686D01*
X216500Y298543D01*
X217583Y298686D01*
X218593Y299104D01*
X219460Y299769D01*
X220125Y300636D01*
X220543Y301645D01*
X220685Y302728D01*
Y306272D01*
X220543Y307355D01*
X220125Y308364D01*
X219460Y309231D01*
X218593Y309896D01*
X217583Y310314D01*
X216500Y310457D01*
D02*
G37*
G36*
X206500D02*
X205417Y310314D01*
X204407Y309896D01*
X203540Y309231D01*
X202875Y308364D01*
X202457Y307355D01*
X202315Y306272D01*
Y302728D01*
X202457Y301645D01*
X202875Y300636D01*
X203540Y299769D01*
X204407Y299104D01*
X205417Y298686D01*
X206500Y298543D01*
X207583Y298686D01*
X208593Y299104D01*
X209459Y299769D01*
X210125Y300636D01*
X210543Y301645D01*
X210685Y302728D01*
Y306272D01*
X210543Y307355D01*
X210125Y308364D01*
X209459Y309231D01*
X208593Y309896D01*
X207583Y310314D01*
X206500Y310457D01*
D02*
G37*
G36*
X196500D02*
X195417Y310314D01*
X194407Y309896D01*
X193541Y309231D01*
X192875Y308364D01*
X192457Y307355D01*
X192315Y306272D01*
Y302728D01*
X192457Y301645D01*
X192875Y300636D01*
X193541Y299769D01*
X194407Y299104D01*
X195417Y298686D01*
X196500Y298543D01*
X197583Y298686D01*
X198593Y299104D01*
X199460Y299769D01*
X200125Y300636D01*
X200543Y301645D01*
X200685Y302728D01*
Y306272D01*
X200543Y307355D01*
X200125Y308364D01*
X199460Y309231D01*
X198593Y309896D01*
X197583Y310314D01*
X196500Y310457D01*
D02*
G37*
G36*
X186500D02*
X185417Y310314D01*
X184407Y309896D01*
X183540Y309231D01*
X182875Y308364D01*
X182457Y307355D01*
X182315Y306272D01*
Y302728D01*
X182457Y301645D01*
X182875Y300636D01*
X183540Y299769D01*
X184407Y299104D01*
X185417Y298686D01*
X186500Y298543D01*
X187583Y298686D01*
X188593Y299104D01*
X189460Y299769D01*
X190125Y300636D01*
X190543Y301645D01*
X190685Y302728D01*
Y306272D01*
X190543Y307355D01*
X190125Y308364D01*
X189460Y309231D01*
X188593Y309896D01*
X187583Y310314D01*
X186500Y310457D01*
D02*
G37*
G36*
X176500D02*
X175417Y310314D01*
X174407Y309896D01*
X173540Y309231D01*
X172875Y308364D01*
X172457Y307355D01*
X172315Y306272D01*
Y302728D01*
X172457Y301645D01*
X172875Y300636D01*
X173540Y299769D01*
X174407Y299104D01*
X175417Y298686D01*
X176500Y298543D01*
X177583Y298686D01*
X178593Y299104D01*
X179460Y299769D01*
X180125Y300636D01*
X180543Y301645D01*
X180685Y302728D01*
Y306272D01*
X180543Y307355D01*
X180125Y308364D01*
X179460Y309231D01*
X178593Y309896D01*
X177583Y310314D01*
X176500Y310457D01*
D02*
G37*
G36*
X166500D02*
X165417Y310314D01*
X164407Y309896D01*
X163540Y309231D01*
X162875Y308364D01*
X162457Y307355D01*
X162315Y306272D01*
Y302728D01*
X162457Y301645D01*
X162875Y300636D01*
X163540Y299769D01*
X164407Y299104D01*
X165417Y298686D01*
X166500Y298543D01*
X167583Y298686D01*
X168593Y299104D01*
X169459Y299769D01*
X170125Y300636D01*
X170543Y301645D01*
X170685Y302728D01*
Y306272D01*
X170543Y307355D01*
X170125Y308364D01*
X169459Y309231D01*
X168593Y309896D01*
X167583Y310314D01*
X166500Y310457D01*
D02*
G37*
G36*
X156500D02*
X155417Y310314D01*
X154407Y309896D01*
X153541Y309231D01*
X152875Y308364D01*
X152457Y307355D01*
X152315Y306272D01*
Y302728D01*
X152457Y301645D01*
X152875Y300636D01*
X153541Y299769D01*
X154407Y299104D01*
X155417Y298686D01*
X156500Y298543D01*
X157583Y298686D01*
X158593Y299104D01*
X159459Y299769D01*
X160125Y300636D01*
X160543Y301645D01*
X160685Y302728D01*
Y306272D01*
X160543Y307355D01*
X160125Y308364D01*
X159459Y309231D01*
X158593Y309896D01*
X157583Y310314D01*
X156500Y310457D01*
D02*
G37*
G36*
X146500D02*
X145417Y310314D01*
X144407Y309896D01*
X143541Y309231D01*
X142875Y308364D01*
X142457Y307355D01*
X142315Y306272D01*
Y302728D01*
X142457Y301645D01*
X142875Y300636D01*
X143541Y299769D01*
X144407Y299104D01*
X145417Y298686D01*
X146500Y298543D01*
X147583Y298686D01*
X148593Y299104D01*
X149460Y299769D01*
X150125Y300636D01*
X150543Y301645D01*
X150685Y302728D01*
Y306272D01*
X150543Y307355D01*
X150125Y308364D01*
X149460Y309231D01*
X148593Y309896D01*
X147583Y310314D01*
X146500Y310457D01*
D02*
G37*
G36*
X136500D02*
X135417Y310314D01*
X134407Y309896D01*
X133540Y309231D01*
X132875Y308364D01*
X132457Y307355D01*
X132315Y306272D01*
Y302728D01*
X132457Y301645D01*
X132875Y300636D01*
X133540Y299769D01*
X134407Y299104D01*
X135417Y298686D01*
X136500Y298543D01*
X137583Y298686D01*
X138593Y299104D01*
X139460Y299769D01*
X140125Y300636D01*
X140543Y301645D01*
X140685Y302728D01*
Y306272D01*
X140543Y307355D01*
X140125Y308364D01*
X139460Y309231D01*
X138593Y309896D01*
X137583Y310314D01*
X136500Y310457D01*
D02*
G37*
G36*
X42000D02*
X40917Y310314D01*
X39907Y309896D01*
X39040Y309231D01*
X38375Y308364D01*
X37957Y307355D01*
X37815Y306272D01*
Y302728D01*
X37957Y301645D01*
X38375Y300636D01*
X39040Y299769D01*
X39907Y299104D01*
X40917Y298686D01*
X42000Y298543D01*
X43083Y298686D01*
X44093Y299104D01*
X44960Y299769D01*
X45625Y300636D01*
X46043Y301645D01*
X46185Y302728D01*
Y306272D01*
X46043Y307355D01*
X45625Y308364D01*
X44960Y309231D01*
X44093Y309896D01*
X43083Y310314D01*
X42000Y310457D01*
D02*
G37*
G36*
X32000D02*
X30917Y310314D01*
X29907Y309896D01*
X29041Y309231D01*
X28375Y308364D01*
X27957Y307355D01*
X27815Y306272D01*
Y302728D01*
X27957Y301645D01*
X28375Y300636D01*
X29041Y299769D01*
X29907Y299104D01*
X30917Y298686D01*
X32000Y298543D01*
X33083Y298686D01*
X34093Y299104D01*
X34960Y299769D01*
X35625Y300636D01*
X36043Y301645D01*
X36185Y302728D01*
Y306272D01*
X36043Y307355D01*
X35625Y308364D01*
X34960Y309231D01*
X34093Y309896D01*
X33083Y310314D01*
X32000Y310457D01*
D02*
G37*
G36*
X115500Y298941D02*
Y297500D01*
X116941D01*
X116682Y298124D01*
X116124Y298682D01*
X115500Y298941D01*
D02*
G37*
G36*
X114500D02*
X113876Y298682D01*
X113318Y298124D01*
X113059Y297500D01*
X114500D01*
Y298941D01*
D02*
G37*
G36*
X116941Y296500D02*
X115500D01*
Y295059D01*
X116124Y295318D01*
X116682Y295876D01*
X116941Y296500D01*
D02*
G37*
G36*
X114500D02*
X113059D01*
X113318Y295876D01*
X113876Y295318D01*
X114500Y295059D01*
Y296500D01*
D02*
G37*
G36*
X53000Y294441D02*
Y293000D01*
X54441D01*
X54182Y293624D01*
X53624Y294182D01*
X53000Y294441D01*
D02*
G37*
G36*
X52000D02*
X51376Y294182D01*
X50818Y293624D01*
X50559Y293000D01*
X52000D01*
Y294441D01*
D02*
G37*
G36*
X212000Y292441D02*
Y291000D01*
X213441D01*
X213182Y291624D01*
X212624Y292182D01*
X212000Y292441D01*
D02*
G37*
G36*
X211000D02*
X210376Y292182D01*
X209818Y291624D01*
X209559Y291000D01*
X211000D01*
Y292441D01*
D02*
G37*
G36*
X54441Y292000D02*
X53000D01*
Y290559D01*
X53624Y290818D01*
X54182Y291376D01*
X54441Y292000D01*
D02*
G37*
G36*
X52000D02*
X50559D01*
X50818Y291376D01*
X51376Y290818D01*
X52000Y290559D01*
Y292000D01*
D02*
G37*
G36*
X213441Y290000D02*
X212000D01*
Y288559D01*
X212624Y288818D01*
X213182Y289376D01*
X213441Y290000D01*
D02*
G37*
G36*
X211000D02*
X209559D01*
X209818Y289376D01*
X210376Y288818D01*
X211000Y288559D01*
Y290000D01*
D02*
G37*
G36*
X16500Y289441D02*
Y288000D01*
X17941D01*
X17682Y288624D01*
X17124Y289182D01*
X16500Y289441D01*
D02*
G37*
G36*
X15500D02*
X14876Y289182D01*
X14318Y288624D01*
X14059Y288000D01*
X15500D01*
Y289441D01*
D02*
G37*
G36*
X172525Y287209D02*
Y285768D01*
X173965D01*
X173707Y286392D01*
X173149Y286950D01*
X172525Y287209D01*
D02*
G37*
G36*
X171525D02*
X170901Y286950D01*
X170343Y286392D01*
X170084Y285768D01*
X171525D01*
Y287209D01*
D02*
G37*
G36*
X17941Y287000D02*
X16500D01*
Y285559D01*
X17124Y285818D01*
X17682Y286376D01*
X17941Y287000D01*
D02*
G37*
G36*
X15500D02*
X14059D01*
X14318Y286376D01*
X14876Y285818D01*
X15500Y285559D01*
Y287000D01*
D02*
G37*
G36*
X171525Y284768D02*
X170084D01*
X170343Y284144D01*
X170589Y283898D01*
X170306Y283474D01*
X169483Y283815D01*
X168400Y283957D01*
X167317Y283815D01*
X166307Y283396D01*
X165440Y282731D01*
X164775Y281864D01*
X164357Y280855D01*
X164215Y279772D01*
Y276228D01*
X164357Y275145D01*
X164775Y274136D01*
X165440Y273269D01*
X166307Y272604D01*
X167317Y272185D01*
X168400Y272043D01*
X169483Y272185D01*
X170493Y272604D01*
X171360Y273269D01*
X172025Y274136D01*
X172443Y275145D01*
X172585Y276228D01*
Y279772D01*
X172443Y280855D01*
X172025Y281864D01*
X171360Y282731D01*
X171010Y282999D01*
X171262Y283436D01*
X171525Y283327D01*
Y284768D01*
D02*
G37*
G36*
X173965D02*
X172525D01*
Y283327D01*
X173149Y283586D01*
X173707Y284144D01*
X173965Y284768D01*
D02*
G37*
G36*
X123900Y279941D02*
Y278500D01*
X125341D01*
X125082Y279124D01*
X124524Y279682D01*
X123900Y279941D01*
D02*
G37*
G36*
X122900D02*
X122276Y279682D01*
X121718Y279124D01*
X121459Y278500D01*
X122900D01*
Y279941D01*
D02*
G37*
G36*
X125341Y277500D02*
X123900D01*
Y276059D01*
X124524Y276318D01*
X125082Y276876D01*
X125341Y277500D01*
D02*
G37*
G36*
X122900D02*
X121459D01*
X121718Y276876D01*
X122276Y276318D01*
X122900Y276059D01*
Y277500D01*
D02*
G37*
G36*
X208400Y283957D02*
X207317Y283815D01*
X206307Y283396D01*
X205440Y282731D01*
X204775Y281864D01*
X204357Y280855D01*
X204215Y279772D01*
Y276228D01*
X204357Y275145D01*
X204775Y274136D01*
X205440Y273269D01*
X206307Y272604D01*
X207317Y272185D01*
X208400Y272043D01*
X209483Y272185D01*
X210493Y272604D01*
X211360Y273269D01*
X212025Y274136D01*
X212443Y275145D01*
X212585Y276228D01*
Y279772D01*
X212443Y280855D01*
X212025Y281864D01*
X211360Y282731D01*
X210493Y283396D01*
X209483Y283815D01*
X208400Y283957D01*
D02*
G37*
G36*
X198400D02*
X197317Y283815D01*
X196307Y283396D01*
X195440Y282731D01*
X194775Y281864D01*
X194357Y280855D01*
X194215Y279772D01*
Y276228D01*
X194357Y275145D01*
X194775Y274136D01*
X195440Y273269D01*
X196307Y272604D01*
X197317Y272185D01*
X198400Y272043D01*
X199483Y272185D01*
X200493Y272604D01*
X201360Y273269D01*
X202025Y274136D01*
X202443Y275145D01*
X202585Y276228D01*
Y279772D01*
X202443Y280855D01*
X202025Y281864D01*
X201360Y282731D01*
X200493Y283396D01*
X199483Y283815D01*
X198400Y283957D01*
D02*
G37*
G36*
X188400D02*
X187317Y283815D01*
X186307Y283396D01*
X185441Y282731D01*
X184775Y281864D01*
X184357Y280855D01*
X184215Y279772D01*
Y276228D01*
X184357Y275145D01*
X184775Y274136D01*
X185441Y273269D01*
X186307Y272604D01*
X187317Y272185D01*
X188400Y272043D01*
X189483Y272185D01*
X190493Y272604D01*
X191359Y273269D01*
X192025Y274136D01*
X192443Y275145D01*
X192585Y276228D01*
Y279772D01*
X192443Y280855D01*
X192025Y281864D01*
X191359Y282731D01*
X190493Y283396D01*
X189483Y283815D01*
X188400Y283957D01*
D02*
G37*
G36*
X178400D02*
X177317Y283815D01*
X176307Y283396D01*
X175441Y282731D01*
X174775Y281864D01*
X174357Y280855D01*
X174215Y279772D01*
Y276228D01*
X174357Y275145D01*
X174775Y274136D01*
X175441Y273269D01*
X176307Y272604D01*
X177317Y272185D01*
X178400Y272043D01*
X179483Y272185D01*
X180493Y272604D01*
X181360Y273269D01*
X182025Y274136D01*
X182443Y275145D01*
X182585Y276228D01*
Y279772D01*
X182443Y280855D01*
X182025Y281864D01*
X181360Y282731D01*
X180493Y283396D01*
X179483Y283815D01*
X178400Y283957D01*
D02*
G37*
G36*
X158400D02*
X157317Y283815D01*
X156307Y283396D01*
X155440Y282731D01*
X154775Y281864D01*
X154357Y280855D01*
X154215Y279772D01*
Y276228D01*
X154357Y275145D01*
X154775Y274136D01*
X155440Y273269D01*
X156307Y272604D01*
X157317Y272185D01*
X158400Y272043D01*
X159483Y272185D01*
X160493Y272604D01*
X161360Y273269D01*
X162025Y274136D01*
X162443Y275145D01*
X162585Y276228D01*
Y279772D01*
X162443Y280855D01*
X162025Y281864D01*
X161360Y282731D01*
X160493Y283396D01*
X159483Y283815D01*
X158400Y283957D01*
D02*
G37*
G36*
X148400D02*
X147317Y283815D01*
X146307Y283396D01*
X145440Y282731D01*
X144775Y281864D01*
X144357Y280855D01*
X144215Y279772D01*
Y276228D01*
X144357Y275145D01*
X144775Y274136D01*
X145440Y273269D01*
X146307Y272604D01*
X147317Y272185D01*
X148400Y272043D01*
X149483Y272185D01*
X150493Y272604D01*
X151359Y273269D01*
X152025Y274136D01*
X152443Y275145D01*
X152585Y276228D01*
Y279772D01*
X152443Y280855D01*
X152025Y281864D01*
X151359Y282731D01*
X150493Y283396D01*
X149483Y283815D01*
X148400Y283957D01*
D02*
G37*
G36*
X138400D02*
X137317Y283815D01*
X136307Y283396D01*
X135441Y282731D01*
X134775Y281864D01*
X134357Y280855D01*
X134215Y279772D01*
Y276228D01*
X134357Y275145D01*
X134775Y274136D01*
X135441Y273269D01*
X136307Y272604D01*
X137317Y272185D01*
X138400Y272043D01*
X139483Y272185D01*
X140493Y272604D01*
X141359Y273269D01*
X142025Y274136D01*
X142443Y275145D01*
X142585Y276228D01*
Y279772D01*
X142443Y280855D01*
X142025Y281864D01*
X141359Y282731D01*
X140493Y283396D01*
X139483Y283815D01*
X138400Y283957D01*
D02*
G37*
G36*
X86500D02*
X85417Y283815D01*
X84407Y283396D01*
X83540Y282731D01*
X82875Y281864D01*
X82457Y280855D01*
X82315Y279772D01*
Y276228D01*
X82457Y275145D01*
X82875Y274136D01*
X83540Y273269D01*
X84407Y272604D01*
X84569Y272537D01*
X84469Y272037D01*
X78531D01*
X78431Y272537D01*
X78593Y272604D01*
X79460Y273269D01*
X80125Y274136D01*
X80543Y275145D01*
X80685Y276228D01*
Y279772D01*
X80543Y280855D01*
X80125Y281864D01*
X79460Y282731D01*
X78593Y283396D01*
X77583Y283815D01*
X76500Y283957D01*
X75417Y283815D01*
X74407Y283396D01*
X73541Y282731D01*
X72875Y281864D01*
X72457Y280855D01*
X72315Y279772D01*
Y276228D01*
X72457Y275145D01*
X72875Y274136D01*
X73541Y273269D01*
X74407Y272604D01*
X74569Y272537D01*
X74469Y272037D01*
X68531D01*
X68431Y272537D01*
X68593Y272604D01*
X69459Y273269D01*
X70125Y274136D01*
X70543Y275145D01*
X70685Y276228D01*
Y279772D01*
X70543Y280855D01*
X70125Y281864D01*
X69459Y282731D01*
X68593Y283396D01*
X67583Y283815D01*
X66500Y283957D01*
X65417Y283815D01*
X64407Y283396D01*
X63541Y282731D01*
X62875Y281864D01*
X62457Y280855D01*
X62315Y279772D01*
Y276228D01*
X62457Y275145D01*
X62875Y274136D01*
X63541Y273269D01*
X64407Y272604D01*
X64569Y272537D01*
X64469Y272037D01*
X58531D01*
X58431Y272537D01*
X58593Y272604D01*
X59460Y273269D01*
X60125Y274136D01*
X60543Y275145D01*
X60685Y276228D01*
Y279772D01*
X60543Y280855D01*
X60125Y281864D01*
X59460Y282731D01*
X58593Y283396D01*
X57583Y283815D01*
X56500Y283957D01*
X55417Y283815D01*
X54407Y283396D01*
X53540Y282731D01*
X52875Y281864D01*
X52457Y280855D01*
X52315Y279772D01*
Y276228D01*
X52457Y275145D01*
X52875Y274136D01*
X53540Y273269D01*
X54407Y272604D01*
X54569Y272537D01*
X54469Y272037D01*
X48531D01*
X48431Y272537D01*
X48593Y272604D01*
X49459Y273269D01*
X50125Y274136D01*
X50543Y275145D01*
X50685Y276228D01*
Y279772D01*
X50543Y280855D01*
X50125Y281864D01*
X49459Y282731D01*
X48593Y283396D01*
X47583Y283815D01*
X46500Y283957D01*
X45417Y283815D01*
X44407Y283396D01*
X43540Y282731D01*
X42875Y281864D01*
X42457Y280855D01*
X42315Y279772D01*
Y276228D01*
X42457Y275145D01*
X42875Y274136D01*
X43540Y273269D01*
X44407Y272604D01*
X44569Y272537D01*
X44469Y272037D01*
X38531D01*
X38431Y272537D01*
X38593Y272604D01*
X39459Y273269D01*
X40125Y274136D01*
X40543Y275145D01*
X40685Y276228D01*
Y279772D01*
X40543Y280855D01*
X40125Y281864D01*
X39459Y282731D01*
X38593Y283396D01*
X37583Y283815D01*
X36500Y283957D01*
X35417Y283815D01*
X34407Y283396D01*
X33540Y282731D01*
X32875Y281864D01*
X32457Y280855D01*
X32315Y279772D01*
Y276228D01*
X32457Y275145D01*
X32875Y274136D01*
X33540Y273269D01*
X34407Y272604D01*
X34569Y272537D01*
X34469Y272037D01*
X28531D01*
X28431Y272537D01*
X28593Y272604D01*
X29460Y273269D01*
X30125Y274136D01*
X30543Y275145D01*
X30685Y276228D01*
Y279772D01*
X30543Y280855D01*
X30125Y281864D01*
X29460Y282731D01*
X28593Y283396D01*
X27583Y283815D01*
X26500Y283957D01*
X25417Y283815D01*
X24407Y283396D01*
X23540Y282731D01*
X22875Y281864D01*
X22457Y280855D01*
X22315Y279772D01*
Y276228D01*
X22457Y275145D01*
X22875Y274136D01*
X23540Y273269D01*
X24407Y272604D01*
X24569Y272537D01*
X24469Y272037D01*
X12467D01*
X12046Y272150D01*
X10954D01*
X9898Y271867D01*
X8952Y271321D01*
X8179Y270548D01*
X7633Y269602D01*
X7350Y268546D01*
Y267454D01*
X7633Y266398D01*
X8179Y265452D01*
X8952Y264680D01*
X9898Y264133D01*
X10954Y263850D01*
X12046D01*
X12840Y264063D01*
X122433D01*
X122854Y263950D01*
X123946D01*
X125002Y264233D01*
X125948Y264779D01*
X126720Y265552D01*
X127267Y266498D01*
X127550Y267554D01*
Y268646D01*
X127267Y269702D01*
X126720Y270648D01*
X125948Y271421D01*
X125002Y271967D01*
X123946Y272250D01*
X122854D01*
X122060Y272037D01*
X88531D01*
X88431Y272537D01*
X88593Y272604D01*
X89460Y273269D01*
X90125Y274136D01*
X90543Y275145D01*
X90685Y276228D01*
Y279772D01*
X90543Y280855D01*
X90125Y281864D01*
X89460Y282731D01*
X88593Y283396D01*
X87583Y283815D01*
X86500Y283957D01*
D02*
G37*
G36*
X51000Y260441D02*
Y259000D01*
X52441D01*
X52182Y259624D01*
X51624Y260182D01*
X51000Y260441D01*
D02*
G37*
G36*
X50000D02*
X49376Y260182D01*
X48818Y259624D01*
X48559Y259000D01*
X50000D01*
Y260441D01*
D02*
G37*
G36*
X123946Y262250D02*
X123900D01*
Y258600D01*
X127550D01*
Y258646D01*
X127267Y259702D01*
X126720Y260648D01*
X125948Y261420D01*
X125002Y261967D01*
X123946Y262250D01*
D02*
G37*
G36*
X122900D02*
X122854D01*
X121798Y261967D01*
X120852Y261420D01*
X120080Y260648D01*
X119533Y259702D01*
X119250Y258646D01*
Y258600D01*
X122900D01*
Y262250D01*
D02*
G37*
G36*
X12046Y262150D02*
X12000D01*
Y258500D01*
X15650D01*
Y258546D01*
X15367Y259602D01*
X14820Y260548D01*
X14048Y261320D01*
X13102Y261867D01*
X12046Y262150D01*
D02*
G37*
G36*
X11000D02*
X10954D01*
X9898Y261867D01*
X8952Y261320D01*
X8179Y260548D01*
X7633Y259602D01*
X7350Y258546D01*
Y258500D01*
X11000D01*
Y262150D01*
D02*
G37*
G36*
X52441Y258000D02*
X51000D01*
Y256559D01*
X51624Y256818D01*
X52182Y257376D01*
X52441Y258000D01*
D02*
G37*
G36*
X50000D02*
X48559D01*
X48818Y257376D01*
X49376Y256818D01*
X50000Y256559D01*
Y258000D01*
D02*
G37*
G36*
X127550Y257600D02*
X123900D01*
Y253950D01*
X123946D01*
X125002Y254233D01*
X125948Y254780D01*
X126720Y255552D01*
X127267Y256498D01*
X127550Y257554D01*
Y257600D01*
D02*
G37*
G36*
X122900D02*
X119250D01*
Y257554D01*
X119533Y256498D01*
X120080Y255552D01*
X120852Y254780D01*
X121798Y254233D01*
X122854Y253950D01*
X122900D01*
Y257600D01*
D02*
G37*
G36*
X15650Y257500D02*
X12000D01*
Y253850D01*
X12046D01*
X13102Y254133D01*
X14048Y254679D01*
X14820Y255452D01*
X15367Y256398D01*
X15650Y257454D01*
Y257500D01*
D02*
G37*
G36*
X11000D02*
X7350D01*
Y257454D01*
X7633Y256398D01*
X8179Y255452D01*
X8952Y254679D01*
X9898Y254133D01*
X10954Y253850D01*
X11000D01*
Y257500D01*
D02*
G37*
G36*
X208900Y253891D02*
Y248500D01*
X212585D01*
Y249772D01*
X212443Y250855D01*
X212025Y251864D01*
X211360Y252731D01*
X210493Y253396D01*
X209483Y253815D01*
X208900Y253891D01*
D02*
G37*
G36*
X178900D02*
Y248500D01*
X182585D01*
Y249772D01*
X182443Y250855D01*
X182025Y251864D01*
X181360Y252731D01*
X180493Y253396D01*
X179483Y253815D01*
X178900Y253891D01*
D02*
G37*
G36*
X87000D02*
Y248500D01*
X90685D01*
Y249772D01*
X90543Y250855D01*
X90125Y251864D01*
X89460Y252731D01*
X88593Y253396D01*
X87583Y253815D01*
X87000Y253891D01*
D02*
G37*
G36*
X207900D02*
X207317Y253815D01*
X206307Y253396D01*
X205440Y252731D01*
X204775Y251864D01*
X204357Y250855D01*
X204215Y249772D01*
Y248500D01*
X207900D01*
Y253891D01*
D02*
G37*
G36*
X177900D02*
X177317Y253815D01*
X176307Y253396D01*
X175441Y252731D01*
X174775Y251864D01*
X174357Y250855D01*
X174215Y249772D01*
Y248500D01*
X177900D01*
Y253891D01*
D02*
G37*
G36*
X86000D02*
X85417Y253815D01*
X84407Y253396D01*
X83540Y252731D01*
X82875Y251864D01*
X82457Y250855D01*
X82315Y249772D01*
Y248500D01*
X86000D01*
Y253891D01*
D02*
G37*
G36*
X212585Y247500D02*
X208900D01*
Y242109D01*
X209483Y242185D01*
X210493Y242604D01*
X211360Y243269D01*
X212025Y244136D01*
X212443Y245145D01*
X212585Y246228D01*
Y247500D01*
D02*
G37*
G36*
X182585D02*
X178900D01*
Y242109D01*
X179483Y242185D01*
X180493Y242604D01*
X181360Y243269D01*
X182025Y244136D01*
X182443Y245145D01*
X182585Y246228D01*
Y247500D01*
D02*
G37*
G36*
X207900D02*
X204215D01*
Y246228D01*
X204357Y245145D01*
X204775Y244136D01*
X205440Y243269D01*
X206307Y242604D01*
X207317Y242185D01*
X207900Y242109D01*
Y247500D01*
D02*
G37*
G36*
X177900D02*
X174215D01*
Y246228D01*
X174357Y245145D01*
X174775Y244136D01*
X175441Y243269D01*
X176307Y242604D01*
X177317Y242185D01*
X177900Y242109D01*
Y247500D01*
D02*
G37*
G36*
X142550Y253921D02*
X134250D01*
Y242079D01*
X142550D01*
Y253921D01*
D02*
G37*
G36*
X30650D02*
X22350D01*
Y242079D01*
X30650D01*
Y253921D01*
D02*
G37*
G36*
X198400Y253957D02*
X197317Y253815D01*
X196307Y253396D01*
X195440Y252731D01*
X194775Y251864D01*
X194357Y250855D01*
X194215Y249772D01*
Y246228D01*
X194357Y245145D01*
X194775Y244136D01*
X195440Y243269D01*
X196307Y242604D01*
X197317Y242185D01*
X198400Y242043D01*
X199483Y242185D01*
X200493Y242604D01*
X201360Y243269D01*
X202025Y244136D01*
X202443Y245145D01*
X202585Y246228D01*
Y249772D01*
X202443Y250855D01*
X202025Y251864D01*
X201360Y252731D01*
X200493Y253396D01*
X199483Y253815D01*
X198400Y253957D01*
D02*
G37*
G36*
X188400D02*
X187317Y253815D01*
X186307Y253396D01*
X185441Y252731D01*
X184775Y251864D01*
X184357Y250855D01*
X184215Y249772D01*
Y246228D01*
X184357Y245145D01*
X184775Y244136D01*
X185441Y243269D01*
X186307Y242604D01*
X187317Y242185D01*
X188400Y242043D01*
X189483Y242185D01*
X190493Y242604D01*
X191359Y243269D01*
X192025Y244136D01*
X192443Y245145D01*
X192585Y246228D01*
Y249772D01*
X192443Y250855D01*
X192025Y251864D01*
X191359Y252731D01*
X190493Y253396D01*
X189483Y253815D01*
X188400Y253957D01*
D02*
G37*
G36*
X168400D02*
X167317Y253815D01*
X166307Y253396D01*
X165440Y252731D01*
X164775Y251864D01*
X164357Y250855D01*
X164215Y249772D01*
Y246228D01*
X164357Y245145D01*
X164775Y244136D01*
X165440Y243269D01*
X166307Y242604D01*
X167317Y242185D01*
X168400Y242043D01*
X169483Y242185D01*
X170493Y242604D01*
X171360Y243269D01*
X172025Y244136D01*
X172443Y245145D01*
X172585Y246228D01*
Y249772D01*
X172443Y250855D01*
X172025Y251864D01*
X171360Y252731D01*
X170493Y253396D01*
X169483Y253815D01*
X168400Y253957D01*
D02*
G37*
G36*
X158400D02*
X157317Y253815D01*
X156307Y253396D01*
X155440Y252731D01*
X154775Y251864D01*
X154357Y250855D01*
X154215Y249772D01*
Y246228D01*
X154357Y245145D01*
X154775Y244136D01*
X155440Y243269D01*
X156307Y242604D01*
X157317Y242185D01*
X158400Y242043D01*
X159483Y242185D01*
X160493Y242604D01*
X161360Y243269D01*
X162025Y244136D01*
X162443Y245145D01*
X162585Y246228D01*
Y249772D01*
X162443Y250855D01*
X162025Y251864D01*
X161360Y252731D01*
X160493Y253396D01*
X159483Y253815D01*
X158400Y253957D01*
D02*
G37*
G36*
X148400D02*
X147317Y253815D01*
X146307Y253396D01*
X145440Y252731D01*
X144775Y251864D01*
X144357Y250855D01*
X144215Y249772D01*
Y246228D01*
X144357Y245145D01*
X144775Y244136D01*
X145440Y243269D01*
X146307Y242604D01*
X147317Y242185D01*
X148400Y242043D01*
X149483Y242185D01*
X150493Y242604D01*
X151359Y243269D01*
X152025Y244136D01*
X152443Y245145D01*
X152585Y246228D01*
Y249772D01*
X152443Y250855D01*
X152025Y251864D01*
X151359Y252731D01*
X150493Y253396D01*
X149483Y253815D01*
X148400Y253957D01*
D02*
G37*
G36*
X66500D02*
X65417Y253815D01*
X64407Y253396D01*
X63541Y252731D01*
X62875Y251864D01*
X62457Y250855D01*
X62315Y249772D01*
Y246228D01*
X62457Y245145D01*
X62875Y244136D01*
X63541Y243269D01*
X64407Y242604D01*
X65417Y242185D01*
X66500Y242043D01*
X67583Y242185D01*
X68593Y242604D01*
X69459Y243269D01*
X70125Y244136D01*
X70543Y245145D01*
X70685Y246228D01*
Y249772D01*
X70543Y250855D01*
X70125Y251864D01*
X69459Y252731D01*
X68593Y253396D01*
X67583Y253815D01*
X66500Y253957D01*
D02*
G37*
G36*
X56500D02*
X55417Y253815D01*
X54407Y253396D01*
X53540Y252731D01*
X52875Y251864D01*
X52457Y250855D01*
X52315Y249772D01*
Y246228D01*
X52457Y245145D01*
X52875Y244136D01*
X53540Y243269D01*
X54407Y242604D01*
X55417Y242185D01*
X56500Y242043D01*
X57583Y242185D01*
X58593Y242604D01*
X59460Y243269D01*
X60125Y244136D01*
X60543Y245145D01*
X60685Y246228D01*
Y249772D01*
X60543Y250855D01*
X60125Y251864D01*
X59460Y252731D01*
X58593Y253396D01*
X57583Y253815D01*
X56500Y253957D01*
D02*
G37*
G36*
X46500D02*
X45417Y253815D01*
X44407Y253396D01*
X43540Y252731D01*
X42875Y251864D01*
X42457Y250855D01*
X42315Y249772D01*
Y246228D01*
X42457Y245145D01*
X42875Y244136D01*
X43540Y243269D01*
X44407Y242604D01*
X45417Y242185D01*
X46500Y242043D01*
X47583Y242185D01*
X48593Y242604D01*
X49459Y243269D01*
X50125Y244136D01*
X50543Y245145D01*
X50685Y246228D01*
Y249772D01*
X50543Y250855D01*
X50125Y251864D01*
X49459Y252731D01*
X48593Y253396D01*
X47583Y253815D01*
X46500Y253957D01*
D02*
G37*
G36*
X36500D02*
X35417Y253815D01*
X34407Y253396D01*
X33540Y252731D01*
X32875Y251864D01*
X32457Y250855D01*
X32315Y249772D01*
Y246228D01*
X32457Y245145D01*
X32875Y244136D01*
X33540Y243269D01*
X34407Y242604D01*
X35417Y242185D01*
X36500Y242043D01*
X37583Y242185D01*
X38593Y242604D01*
X39459Y243269D01*
X40125Y244136D01*
X40543Y245145D01*
X40685Y246228D01*
Y249772D01*
X40543Y250855D01*
X40125Y251864D01*
X39459Y252731D01*
X38593Y253396D01*
X37583Y253815D01*
X36500Y253957D01*
D02*
G37*
G36*
X76500D02*
X75417Y253815D01*
X74407Y253396D01*
X73541Y252731D01*
X72875Y251864D01*
X72457Y250855D01*
X72315Y249772D01*
Y246228D01*
X72457Y245145D01*
X72875Y244136D01*
X73541Y243269D01*
X74407Y242604D01*
X75417Y242185D01*
X76500Y242043D01*
X77583Y242185D01*
X77854Y242298D01*
X79312Y240840D01*
X79120Y240377D01*
X46055D01*
X46055Y240378D01*
X45358Y240239D01*
X44767Y239844D01*
X44766Y239844D01*
X41801Y236878D01*
X41527D01*
X40653Y236516D01*
X39984Y235847D01*
X39622Y234973D01*
Y234027D01*
X39984Y233153D01*
X40653Y232484D01*
X41527Y232122D01*
X42473D01*
X43347Y232484D01*
X44016Y233153D01*
X44378Y234027D01*
Y234301D01*
X46810Y236733D01*
X70032D01*
X70310Y236317D01*
X70121Y235863D01*
Y234917D01*
X70336Y234399D01*
X70418Y233981D01*
X70125Y233702D01*
X69841Y233513D01*
X69841Y233513D01*
X60684Y224355D01*
X60289Y223764D01*
X60150Y223067D01*
X60150Y223067D01*
Y220956D01*
X53125Y213931D01*
X52855Y214043D01*
X51772Y214185D01*
X48228D01*
X47145Y214043D01*
X46136Y213625D01*
X45269Y212960D01*
X44604Y212093D01*
X44186Y211083D01*
X44043Y210000D01*
X44186Y208917D01*
X44604Y207907D01*
X45269Y207041D01*
X46136Y206375D01*
X47145Y205957D01*
X48228Y205815D01*
X51772D01*
X52855Y205957D01*
X53864Y206375D01*
X54731Y207041D01*
X55396Y207907D01*
X55814Y208917D01*
X55957Y210000D01*
X55814Y211083D01*
X55703Y211353D01*
X63261Y218912D01*
X63261Y218912D01*
X63656Y219503D01*
X63795Y220201D01*
X63795Y220201D01*
Y222052D01*
X64000Y222227D01*
X64587Y222090D01*
X64650Y221937D01*
X65319Y221268D01*
X65773Y221080D01*
X65871Y220590D01*
X58211Y212930D01*
X57816Y212339D01*
X57678Y211641D01*
X57678Y211641D01*
Y194307D01*
X57216Y194115D01*
X55105Y196226D01*
X54777Y196445D01*
X54731Y197038D01*
X54737Y197047D01*
X55396Y197907D01*
X55814Y198917D01*
X55957Y200000D01*
X55814Y201083D01*
X55396Y202093D01*
X54731Y202959D01*
X53864Y203625D01*
X52855Y204043D01*
X51772Y204185D01*
X48228D01*
X47145Y204043D01*
X46136Y203625D01*
X45269Y202959D01*
X44604Y202093D01*
X44186Y201083D01*
X44043Y200000D01*
X44186Y198917D01*
X44604Y197907D01*
X45269Y197040D01*
X46136Y196375D01*
X47145Y195957D01*
X48185Y195820D01*
X48316Y195162D01*
X48635Y194685D01*
X48457Y194185D01*
X48228D01*
X47145Y194043D01*
X46136Y193625D01*
X45269Y192959D01*
X44604Y192093D01*
X44186Y191083D01*
X44043Y190000D01*
X44186Y188917D01*
X44604Y187907D01*
X45269Y187040D01*
X46136Y186375D01*
X47145Y185957D01*
X48228Y185815D01*
X51772D01*
X52855Y185957D01*
X53864Y186375D01*
X54386Y186776D01*
X54886Y186529D01*
Y183471D01*
X54386Y183224D01*
X53864Y183625D01*
X52855Y184043D01*
X51772Y184185D01*
X48228D01*
X47145Y184043D01*
X46136Y183625D01*
X45269Y182959D01*
X44604Y182093D01*
X44186Y181083D01*
X44043Y180000D01*
X44186Y178917D01*
X44604Y177907D01*
X45269Y177041D01*
X46136Y176375D01*
X47145Y175957D01*
X48228Y175815D01*
X48457D01*
X48635Y175315D01*
X48316Y174838D01*
X48179Y174150D01*
X44079D01*
Y165850D01*
X47023D01*
X47204Y165350D01*
X46522Y164669D01*
X45950Y163678D01*
X45654Y162572D01*
Y161428D01*
X45950Y160322D01*
X46522Y159331D01*
X47331Y158522D01*
X48322Y157950D01*
X48445Y157917D01*
X51681Y154681D01*
X52507Y154047D01*
X53468Y153649D01*
X54500Y153513D01*
X54500Y153513D01*
X78350D01*
Y151579D01*
X86650D01*
Y163421D01*
X78350D01*
Y161487D01*
X56151D01*
X54083Y163555D01*
X54050Y163678D01*
X53478Y164669D01*
X52796Y165350D01*
X52977Y165850D01*
X55921D01*
Y168178D01*
X92730D01*
X96405Y164503D01*
X96405Y164503D01*
X96996Y164108D01*
X97694Y163969D01*
X140063D01*
X140063Y163969D01*
X140760Y164108D01*
X141352Y164503D01*
X143647Y166797D01*
X143917Y166685D01*
X145000Y166543D01*
X146083Y166685D01*
X147093Y167104D01*
X147959Y167769D01*
X148625Y168636D01*
X149043Y169645D01*
X149185Y170728D01*
Y174272D01*
X149043Y175355D01*
X148625Y176364D01*
X147959Y177231D01*
X147093Y177896D01*
X146083Y178314D01*
X145000Y178457D01*
X143917Y178314D01*
X142907Y177896D01*
X142041Y177231D01*
X141375Y176364D01*
X140957Y175355D01*
X140815Y174272D01*
Y170728D01*
X140957Y169645D01*
X141069Y169375D01*
X139308Y167614D01*
X138471D01*
X138224Y168114D01*
X138625Y168636D01*
X139043Y169645D01*
X139185Y170728D01*
Y174272D01*
X139043Y175355D01*
X138625Y176364D01*
X137960Y177231D01*
X137093Y177896D01*
X136083Y178314D01*
X135000Y178457D01*
X133917Y178314D01*
X132907Y177896D01*
X132041Y177231D01*
X131375Y176364D01*
X130957Y175355D01*
X130821Y174322D01*
X129150D01*
Y178421D01*
X120850D01*
Y167614D01*
X98449D01*
X94774Y171289D01*
X94182Y171684D01*
X93485Y171822D01*
X93485Y171822D01*
X78392D01*
X78185Y172322D01*
X78516Y172653D01*
X78878Y173527D01*
Y174473D01*
X78516Y175347D01*
X77847Y176016D01*
X76973Y176378D01*
X76027D01*
X75153Y176016D01*
X74959Y175822D01*
X69773D01*
X67707Y177889D01*
X67898Y178350D01*
X68046D01*
X69102Y178633D01*
X70048Y179180D01*
X70820Y179952D01*
X71367Y180898D01*
X71650Y181954D01*
Y182000D01*
X67500D01*
Y182500D01*
X67000D01*
Y186650D01*
X66954D01*
X65898Y186367D01*
X64952Y185820D01*
X64847Y185716D01*
X64385Y185907D01*
Y189093D01*
X64847Y189284D01*
X64952Y189180D01*
X65898Y188633D01*
X66954Y188350D01*
X68046D01*
X68654Y188513D01*
X80712D01*
X80822Y188450D01*
X81928Y188154D01*
X83072D01*
X84178Y188450D01*
X84288Y188513D01*
X108846D01*
X109454Y188350D01*
X110546D01*
X111602Y188633D01*
X112548Y189180D01*
X113321Y189952D01*
X113635Y190497D01*
X119804Y196666D01*
X124064D01*
X125000Y196543D01*
X126083Y196686D01*
X127093Y197104D01*
X127960Y197769D01*
X128625Y198636D01*
X129043Y199645D01*
X129185Y200728D01*
Y204272D01*
X129043Y205355D01*
X128625Y206364D01*
X127960Y207231D01*
X127093Y207896D01*
X126083Y208314D01*
X125000Y208457D01*
X123917Y208314D01*
X122907Y207896D01*
X122040Y207231D01*
X121375Y206364D01*
X120957Y205355D01*
X120863Y204640D01*
X118153D01*
X118153Y204640D01*
X117121Y204504D01*
X116160Y204106D01*
X115334Y203472D01*
X115334Y203472D01*
X108349Y196487D01*
X84288D01*
X84178Y196550D01*
X83072Y196846D01*
X81928D01*
X80822Y196550D01*
X80712Y196487D01*
X68654D01*
X68046Y196650D01*
X66954D01*
X65898Y196367D01*
X64952Y195820D01*
X64847Y195716D01*
X64385Y195907D01*
Y210308D01*
X74572Y220495D01*
X74957Y220216D01*
X74594Y219342D01*
Y218396D01*
X74957Y217522D01*
X75040Y217439D01*
Y214384D01*
X75040Y214384D01*
X75178Y213687D01*
X75573Y213096D01*
X83458Y205211D01*
X83458Y205211D01*
X84049Y204816D01*
X84746Y204678D01*
X95960D01*
X96153Y204484D01*
X97027Y204122D01*
X97973D01*
X98847Y204484D01*
X99516Y205153D01*
X99878Y206027D01*
Y206973D01*
X99516Y207847D01*
X98847Y208516D01*
X97973Y208878D01*
X97027D01*
X96153Y208516D01*
X95960Y208322D01*
X85501D01*
X82752Y211072D01*
X82931Y211600D01*
X83583Y211685D01*
X84593Y212104D01*
X85460Y212769D01*
X86125Y213636D01*
X86543Y214645D01*
X86685Y215728D01*
Y219272D01*
X86543Y220355D01*
X86125Y221364D01*
X85501Y222178D01*
X85609Y222671D01*
X85611Y222678D01*
X89389D01*
X89391Y222671D01*
X89499Y222178D01*
X88875Y221364D01*
X88457Y220355D01*
X88315Y219272D01*
Y215728D01*
X88457Y214645D01*
X88875Y213636D01*
X89540Y212769D01*
X90407Y212104D01*
X91417Y211685D01*
X92500Y211543D01*
X93583Y211685D01*
X94593Y212104D01*
X95460Y212769D01*
X96125Y213636D01*
X96543Y214645D01*
X96685Y215728D01*
Y219272D01*
X96543Y220355D01*
X96125Y221364D01*
X95501Y222178D01*
X95609Y222671D01*
X95611Y222678D01*
X99389D01*
X99391Y222671D01*
X99499Y222178D01*
X98875Y221364D01*
X98457Y220355D01*
X98315Y219272D01*
Y215728D01*
X98457Y214645D01*
X98875Y213636D01*
X99541Y212769D01*
X100407Y212104D01*
X101417Y211685D01*
X102500Y211543D01*
X103583Y211685D01*
X104593Y212104D01*
X105459Y212769D01*
X106125Y213636D01*
X106543Y214645D01*
X106685Y215728D01*
Y219272D01*
X106543Y220355D01*
X106125Y221364D01*
X105501Y222178D01*
X105609Y222671D01*
X105611Y222678D01*
X109389D01*
X109391Y222671D01*
X109499Y222178D01*
X108875Y221364D01*
X108457Y220355D01*
X108315Y219272D01*
Y215728D01*
X108457Y214645D01*
X108875Y213636D01*
X109540Y212769D01*
X110407Y212104D01*
X111417Y211685D01*
X112500Y211543D01*
X113583Y211685D01*
X114593Y212104D01*
X115460Y212769D01*
X116125Y213636D01*
X116543Y214645D01*
X116685Y215728D01*
Y219272D01*
X116543Y220355D01*
X116125Y221364D01*
X115501Y222178D01*
X115609Y222671D01*
X115611Y222678D01*
X119389D01*
X119391Y222671D01*
X119499Y222178D01*
X118875Y221364D01*
X118457Y220355D01*
X118315Y219272D01*
Y215728D01*
X118457Y214645D01*
X118875Y213636D01*
X119541Y212769D01*
X120407Y212104D01*
X121417Y211685D01*
X122500Y211543D01*
X123583Y211685D01*
X124593Y212104D01*
X125460Y212769D01*
X126125Y213636D01*
X126543Y214645D01*
X126685Y215728D01*
Y219272D01*
X126543Y220355D01*
X126125Y221364D01*
X125501Y222178D01*
X125609Y222671D01*
X125611Y222678D01*
X129389D01*
X129391Y222671D01*
X129499Y222178D01*
X128875Y221364D01*
X128457Y220355D01*
X128315Y219272D01*
Y215728D01*
X128457Y214645D01*
X128875Y213636D01*
X129541Y212769D01*
X130407Y212104D01*
X131417Y211685D01*
X132500Y211543D01*
X133583Y211685D01*
X134593Y212104D01*
X135459Y212769D01*
X136125Y213636D01*
X136543Y214645D01*
X136685Y215728D01*
Y219272D01*
X136543Y220355D01*
X136125Y221364D01*
X135501Y222178D01*
X135609Y222671D01*
X135611Y222678D01*
X139389D01*
X139391Y222671D01*
X139499Y222178D01*
X138875Y221364D01*
X138457Y220355D01*
X138315Y219272D01*
Y215728D01*
X138457Y214645D01*
X138875Y213636D01*
X139541Y212769D01*
X140407Y212104D01*
X141417Y211685D01*
X142500Y211543D01*
X143583Y211685D01*
X144593Y212104D01*
X145459Y212769D01*
X146125Y213636D01*
X146543Y214645D01*
X146685Y215728D01*
Y219272D01*
X146543Y220355D01*
X146125Y221364D01*
X145501Y222178D01*
X145609Y222671D01*
X145611Y222678D01*
X149389D01*
X149391Y222671D01*
X149499Y222178D01*
X148875Y221364D01*
X148457Y220355D01*
X148315Y219272D01*
Y215728D01*
X148457Y214645D01*
X148875Y213636D01*
X149540Y212769D01*
X150407Y212104D01*
X151417Y211685D01*
X152500Y211543D01*
X153583Y211685D01*
X154593Y212104D01*
X155459Y212769D01*
X156125Y213636D01*
X156543Y214645D01*
X156685Y215728D01*
Y219272D01*
X156543Y220355D01*
X156125Y221364D01*
X155501Y222178D01*
X155609Y222671D01*
X155611Y222678D01*
X158959D01*
X159153Y222484D01*
X159279Y221891D01*
X158875Y221364D01*
X158457Y220355D01*
X158315Y219272D01*
Y215728D01*
X158457Y214645D01*
X158875Y213636D01*
X159540Y212769D01*
X160407Y212104D01*
X161417Y211685D01*
X162500Y211543D01*
X163583Y211685D01*
X164593Y212104D01*
X165460Y212769D01*
X166125Y213636D01*
X166543Y214645D01*
X166685Y215728D01*
Y219272D01*
X166543Y220355D01*
X166125Y221364D01*
X165460Y222231D01*
X164593Y222896D01*
X163583Y223314D01*
X163042Y223386D01*
X162792Y223819D01*
X162878Y224027D01*
Y224973D01*
X162569Y225719D01*
X163210Y225984D01*
X163879Y226653D01*
X164241Y227527D01*
Y228473D01*
X163879Y229347D01*
X163210Y230016D01*
X162336Y230378D01*
X161390D01*
X160516Y230016D01*
X160124Y229624D01*
X124133D01*
X123855Y230040D01*
X124043Y230494D01*
Y231440D01*
X123681Y232314D01*
X123150Y232845D01*
X123681Y233376D01*
X124043Y234250D01*
Y235196D01*
X123681Y236070D01*
X123012Y236739D01*
X122138Y237101D01*
X121245D01*
X120852Y237460D01*
X120878Y237522D01*
Y238468D01*
X120516Y239342D01*
X119847Y240011D01*
X118973Y240373D01*
X118027D01*
X117153Y240011D01*
X116960Y239817D01*
X107598D01*
X104835Y242580D01*
X104244Y242975D01*
X103546Y243114D01*
X103546Y243114D01*
X89971D01*
X89724Y243614D01*
X90125Y244136D01*
X90543Y245145D01*
X90685Y246228D01*
Y247500D01*
X86500D01*
Y248000D01*
D01*
Y247500D01*
X82315D01*
Y246228D01*
X82457Y245145D01*
X82875Y244136D01*
X83276Y243614D01*
X83029Y243114D01*
X82192D01*
X80431Y244875D01*
X80543Y245145D01*
X80685Y246228D01*
Y249772D01*
X80543Y250855D01*
X80125Y251864D01*
X79460Y252731D01*
X78593Y253396D01*
X77583Y253815D01*
X76500Y253957D01*
D02*
G37*
G36*
X211917Y233941D02*
Y232500D01*
X213357D01*
X213099Y233124D01*
X212541Y233682D01*
X211917Y233941D01*
D02*
G37*
G36*
X210917D02*
X210293Y233682D01*
X209735Y233124D01*
X209476Y232500D01*
X210917D01*
Y233941D01*
D02*
G37*
G36*
X51772Y234185D02*
X50500D01*
Y230500D01*
X55891D01*
X55814Y231083D01*
X55396Y232093D01*
X54731Y232960D01*
X53864Y233625D01*
X52855Y234043D01*
X51772Y234185D01*
D02*
G37*
G36*
X49500D02*
X48228D01*
X47145Y234043D01*
X46136Y233625D01*
X45269Y232960D01*
X44604Y232093D01*
X44186Y231083D01*
X44109Y230500D01*
X49500D01*
Y234185D01*
D02*
G37*
G36*
X213357Y231500D02*
X211917D01*
Y230059D01*
X212541Y230318D01*
X213099Y230876D01*
X213357Y231500D01*
D02*
G37*
G36*
X210917D02*
X209476D01*
X209735Y230876D01*
X210293Y230318D01*
X210917Y230059D01*
Y231500D01*
D02*
G37*
G36*
X55891Y229500D02*
X50500D01*
Y225815D01*
X51772D01*
X52855Y225957D01*
X53864Y226375D01*
X54731Y227041D01*
X55396Y227907D01*
X55814Y228917D01*
X55891Y229500D01*
D02*
G37*
G36*
X49500D02*
X44109D01*
X44186Y228917D01*
X44604Y227907D01*
X45269Y227041D01*
X46136Y226375D01*
X47145Y225957D01*
X48228Y225815D01*
X49500D01*
Y229500D01*
D02*
G37*
G36*
X21772Y234185D02*
X18228D01*
X17145Y234043D01*
X16136Y233625D01*
X15269Y232960D01*
X14604Y232093D01*
X14186Y231083D01*
X14043Y230000D01*
X14186Y228917D01*
X14604Y227907D01*
X15269Y227041D01*
X16136Y226375D01*
X17145Y225957D01*
X18228Y225815D01*
X21772D01*
X22855Y225957D01*
X23864Y226375D01*
X24731Y227041D01*
X25396Y227907D01*
X25815Y228917D01*
X25957Y230000D01*
X25815Y231083D01*
X25396Y232093D01*
X24731Y232960D01*
X23864Y233625D01*
X22855Y234043D01*
X21772Y234185D01*
D02*
G37*
G36*
Y224185D02*
X20500D01*
Y220500D01*
X25891D01*
X25815Y221083D01*
X25396Y222093D01*
X24731Y222959D01*
X23864Y223625D01*
X22855Y224043D01*
X21772Y224185D01*
D02*
G37*
G36*
X19500D02*
X18228D01*
X17145Y224043D01*
X16136Y223625D01*
X15269Y222959D01*
X14604Y222093D01*
X14186Y221083D01*
X14109Y220500D01*
X19500D01*
Y224185D01*
D02*
G37*
G36*
X51772D02*
X48228D01*
X47145Y224043D01*
X46136Y223625D01*
X45269Y222959D01*
X44604Y222093D01*
X44186Y221083D01*
X44043Y220000D01*
X44186Y218917D01*
X44604Y217907D01*
X45269Y217040D01*
X46136Y216375D01*
X47145Y215957D01*
X48228Y215815D01*
X51772D01*
X52855Y215957D01*
X53864Y216375D01*
X54731Y217040D01*
X55396Y217907D01*
X55814Y218917D01*
X55957Y220000D01*
X55814Y221083D01*
X55396Y222093D01*
X54731Y222959D01*
X53864Y223625D01*
X52855Y224043D01*
X51772Y224185D01*
D02*
G37*
G36*
X25891Y219500D02*
X20500D01*
Y215815D01*
X21772D01*
X22855Y215957D01*
X23864Y216375D01*
X24731Y217040D01*
X25396Y217907D01*
X25815Y218917D01*
X25891Y219500D01*
D02*
G37*
G36*
X19500D02*
X14109D01*
X14186Y218917D01*
X14604Y217907D01*
X15269Y217040D01*
X16136Y216375D01*
X17145Y215957D01*
X18228Y215815D01*
X19500D01*
Y219500D01*
D02*
G37*
G36*
X212500Y223457D02*
X211417Y223314D01*
X210407Y222896D01*
X209541Y222231D01*
X208875Y221364D01*
X208457Y220355D01*
X208315Y219272D01*
Y215728D01*
X208457Y214645D01*
X208875Y213636D01*
X209541Y212769D01*
X210407Y212104D01*
X211417Y211685D01*
X212500Y211543D01*
X213583Y211685D01*
X214593Y212104D01*
X215459Y212769D01*
X216125Y213636D01*
X216543Y214645D01*
X216685Y215728D01*
Y219272D01*
X216543Y220355D01*
X216125Y221364D01*
X215459Y222231D01*
X214593Y222896D01*
X213583Y223314D01*
X212500Y223457D01*
D02*
G37*
G36*
X202500D02*
X201417Y223314D01*
X200407Y222896D01*
X199540Y222231D01*
X198875Y221364D01*
X198457Y220355D01*
X198315Y219272D01*
Y215728D01*
X198457Y214645D01*
X198875Y213636D01*
X199540Y212769D01*
X200407Y212104D01*
X201417Y211685D01*
X202500Y211543D01*
X203583Y211685D01*
X204593Y212104D01*
X205459Y212769D01*
X206125Y213636D01*
X206543Y214645D01*
X206685Y215728D01*
Y219272D01*
X206543Y220355D01*
X206125Y221364D01*
X205459Y222231D01*
X204593Y222896D01*
X203583Y223314D01*
X202500Y223457D01*
D02*
G37*
G36*
X192500D02*
X191417Y223314D01*
X190407Y222896D01*
X189541Y222231D01*
X188875Y221364D01*
X188457Y220355D01*
X188315Y219272D01*
Y215728D01*
X188457Y214645D01*
X188875Y213636D01*
X189541Y212769D01*
X190407Y212104D01*
X191417Y211685D01*
X192500Y211543D01*
X193583Y211685D01*
X194593Y212104D01*
X195459Y212769D01*
X196125Y213636D01*
X196543Y214645D01*
X196685Y215728D01*
Y219272D01*
X196543Y220355D01*
X196125Y221364D01*
X195459Y222231D01*
X194593Y222896D01*
X193583Y223314D01*
X192500Y223457D01*
D02*
G37*
G36*
X182500D02*
X181417Y223314D01*
X180407Y222896D01*
X179541Y222231D01*
X178875Y221364D01*
X178457Y220355D01*
X178315Y219272D01*
Y215728D01*
X178457Y214645D01*
X178875Y213636D01*
X179541Y212769D01*
X180407Y212104D01*
X181417Y211685D01*
X182500Y211543D01*
X183583Y211685D01*
X184593Y212104D01*
X185459Y212769D01*
X186125Y213636D01*
X186543Y214645D01*
X186685Y215728D01*
Y219272D01*
X186543Y220355D01*
X186125Y221364D01*
X185459Y222231D01*
X184593Y222896D01*
X183583Y223314D01*
X182500Y223457D01*
D02*
G37*
G36*
X172500D02*
X171417Y223314D01*
X170407Y222896D01*
X169541Y222231D01*
X168875Y221364D01*
X168457Y220355D01*
X168315Y219272D01*
Y215728D01*
X168457Y214645D01*
X168875Y213636D01*
X169541Y212769D01*
X170407Y212104D01*
X171417Y211685D01*
X172500Y211543D01*
X173583Y211685D01*
X174593Y212104D01*
X175460Y212769D01*
X176125Y213636D01*
X176543Y214645D01*
X176685Y215728D01*
Y219272D01*
X176543Y220355D01*
X176125Y221364D01*
X175460Y222231D01*
X174593Y222896D01*
X173583Y223314D01*
X172500Y223457D01*
D02*
G37*
G36*
X21772Y214185D02*
X20500D01*
Y210500D01*
X25891D01*
X25815Y211083D01*
X25396Y212093D01*
X24731Y212960D01*
X23864Y213625D01*
X22855Y214043D01*
X21772Y214185D01*
D02*
G37*
G36*
X19500D02*
X18228D01*
X17145Y214043D01*
X16136Y213625D01*
X15269Y212960D01*
X14604Y212093D01*
X14186Y211083D01*
X14109Y210500D01*
X19500D01*
Y214185D01*
D02*
G37*
G36*
X25891Y209500D02*
X20500D01*
Y205815D01*
X21772D01*
X22855Y205957D01*
X23864Y206375D01*
X24731Y207041D01*
X25396Y207907D01*
X25815Y208917D01*
X25891Y209500D01*
D02*
G37*
G36*
X19500D02*
X14109D01*
X14186Y208917D01*
X14604Y207907D01*
X15269Y207041D01*
X16136Y206375D01*
X17145Y205957D01*
X18228Y205815D01*
X19500D01*
Y209500D01*
D02*
G37*
G36*
X107952Y207094D02*
Y205653D01*
X109393D01*
X109134Y206277D01*
X108576Y206835D01*
X107952Y207094D01*
D02*
G37*
G36*
X106952D02*
X106328Y206835D01*
X105770Y206277D01*
X105511Y205653D01*
X106952D01*
Y207094D01*
D02*
G37*
G36*
X109393Y204653D02*
X107952D01*
Y203212D01*
X108576Y203471D01*
X109134Y204029D01*
X109393Y204653D01*
D02*
G37*
G36*
X106952D02*
X105511D01*
X105770Y204029D01*
X106328Y203471D01*
X106952Y203212D01*
Y204653D01*
D02*
G37*
G36*
X175500Y208391D02*
Y203000D01*
X179185D01*
Y204272D01*
X179043Y205355D01*
X178625Y206364D01*
X177960Y207231D01*
X177093Y207896D01*
X176083Y208314D01*
X175500Y208391D01*
D02*
G37*
G36*
X165500D02*
Y203000D01*
X169185D01*
Y204272D01*
X169043Y205355D01*
X168625Y206364D01*
X167959Y207231D01*
X167093Y207896D01*
X166083Y208314D01*
X165500Y208391D01*
D02*
G37*
G36*
X145500D02*
Y203000D01*
X149185D01*
Y204272D01*
X149043Y205355D01*
X148625Y206364D01*
X147959Y207231D01*
X147093Y207896D01*
X146083Y208314D01*
X145500Y208391D01*
D02*
G37*
G36*
X135500D02*
Y203000D01*
X139185D01*
Y204272D01*
X139043Y205355D01*
X138625Y206364D01*
X137960Y207231D01*
X137093Y207896D01*
X136083Y208314D01*
X135500Y208391D01*
D02*
G37*
G36*
X174500D02*
X173917Y208314D01*
X172907Y207896D01*
X172040Y207231D01*
X171375Y206364D01*
X170957Y205355D01*
X170815Y204272D01*
Y203000D01*
X174500D01*
Y208391D01*
D02*
G37*
G36*
X164500D02*
X163917Y208314D01*
X162907Y207896D01*
X162040Y207231D01*
X161375Y206364D01*
X160957Y205355D01*
X160815Y204272D01*
Y203000D01*
X164500D01*
Y208391D01*
D02*
G37*
G36*
X144500D02*
X143917Y208314D01*
X142907Y207896D01*
X142041Y207231D01*
X141375Y206364D01*
X140957Y205355D01*
X140815Y204272D01*
Y203000D01*
X144500D01*
Y208391D01*
D02*
G37*
G36*
X134500D02*
X133917Y208314D01*
X132907Y207896D01*
X132041Y207231D01*
X131375Y206364D01*
X130957Y205355D01*
X130815Y204272D01*
Y203000D01*
X134500D01*
Y208391D01*
D02*
G37*
G36*
X91000Y203441D02*
Y202000D01*
X92441D01*
X92182Y202624D01*
X91624Y203182D01*
X91000Y203441D01*
D02*
G37*
G36*
X90000D02*
X89376Y203182D01*
X88818Y202624D01*
X88559Y202000D01*
X90000D01*
Y203441D01*
D02*
G37*
G36*
X92441Y201000D02*
X91000D01*
Y199559D01*
X91624Y199818D01*
X92182Y200376D01*
X92441Y201000D01*
D02*
G37*
G36*
X90000D02*
X88559D01*
X88818Y200376D01*
X89376Y199818D01*
X90000Y199559D01*
Y201000D01*
D02*
G37*
G36*
X179185Y202000D02*
X175500D01*
Y196609D01*
X176083Y196686D01*
X177093Y197104D01*
X177960Y197769D01*
X178625Y198636D01*
X179043Y199645D01*
X179185Y200728D01*
Y202000D01*
D02*
G37*
G36*
X169185D02*
X165500D01*
Y196609D01*
X166083Y196686D01*
X167093Y197104D01*
X167959Y197769D01*
X168625Y198636D01*
X169043Y199645D01*
X169185Y200728D01*
Y202000D01*
D02*
G37*
G36*
X149185D02*
X145500D01*
Y196609D01*
X146083Y196686D01*
X147093Y197104D01*
X147959Y197769D01*
X148625Y198636D01*
X149043Y199645D01*
X149185Y200728D01*
Y202000D01*
D02*
G37*
G36*
X139185D02*
X135500D01*
Y196609D01*
X136083Y196686D01*
X137093Y197104D01*
X137960Y197769D01*
X138625Y198636D01*
X139043Y199645D01*
X139185Y200728D01*
Y202000D01*
D02*
G37*
G36*
X174500D02*
X170815D01*
Y200728D01*
X170957Y199645D01*
X171375Y198636D01*
X172040Y197769D01*
X172907Y197104D01*
X173917Y196686D01*
X174500Y196609D01*
Y202000D01*
D02*
G37*
G36*
X164500D02*
X160815D01*
Y200728D01*
X160957Y199645D01*
X161375Y198636D01*
X162040Y197769D01*
X162907Y197104D01*
X163917Y196686D01*
X164500Y196609D01*
Y202000D01*
D02*
G37*
G36*
X144500D02*
X140815D01*
Y200728D01*
X140957Y199645D01*
X141375Y198636D01*
X142041Y197769D01*
X142907Y197104D01*
X143917Y196686D01*
X144500Y196609D01*
Y202000D01*
D02*
G37*
G36*
X134500D02*
X130815D01*
Y200728D01*
X130957Y199645D01*
X131375Y198636D01*
X132041Y197769D01*
X132907Y197104D01*
X133917Y196686D01*
X134500Y196609D01*
Y202000D01*
D02*
G37*
G36*
X185000Y208457D02*
X183917Y208314D01*
X182907Y207896D01*
X182041Y207231D01*
X181375Y206364D01*
X180957Y205355D01*
X180815Y204272D01*
Y200728D01*
X180957Y199645D01*
X181375Y198636D01*
X182041Y197769D01*
X182907Y197104D01*
X183917Y196686D01*
X185000Y196543D01*
X186083Y196686D01*
X187093Y197104D01*
X187960Y197769D01*
X188625Y198636D01*
X189043Y199645D01*
X189185Y200728D01*
Y204272D01*
X189043Y205355D01*
X188625Y206364D01*
X187960Y207231D01*
X187093Y207896D01*
X186083Y208314D01*
X185000Y208457D01*
D02*
G37*
G36*
X155000D02*
X153917Y208314D01*
X152907Y207896D01*
X152041Y207231D01*
X151375Y206364D01*
X150957Y205355D01*
X150815Y204272D01*
Y200728D01*
X150957Y199645D01*
X151375Y198636D01*
X152041Y197769D01*
X152907Y197104D01*
X153917Y196686D01*
X155000Y196543D01*
X156083Y196686D01*
X157093Y197104D01*
X157959Y197769D01*
X158625Y198636D01*
X159043Y199645D01*
X159185Y200728D01*
Y204272D01*
X159043Y205355D01*
X158625Y206364D01*
X157959Y207231D01*
X157093Y207896D01*
X156083Y208314D01*
X155000Y208457D01*
D02*
G37*
G36*
X21772Y204185D02*
X18228D01*
X17145Y204043D01*
X16136Y203625D01*
X15269Y202959D01*
X14604Y202093D01*
X14186Y201083D01*
X14043Y200000D01*
X14186Y198917D01*
X14604Y197907D01*
X15269Y197040D01*
X16136Y196375D01*
X17145Y195957D01*
X18228Y195815D01*
X21772D01*
X22855Y195957D01*
X23864Y196375D01*
X24731Y197040D01*
X25396Y197907D01*
X25815Y198917D01*
X25957Y200000D01*
X25815Y201083D01*
X25396Y202093D01*
X24731Y202959D01*
X23864Y203625D01*
X22855Y204043D01*
X21772Y204185D01*
D02*
G37*
G36*
Y194185D02*
X18228D01*
X17145Y194043D01*
X16136Y193625D01*
X15269Y192959D01*
X14604Y192093D01*
X14186Y191083D01*
X14043Y190000D01*
X14186Y188917D01*
X14604Y187907D01*
X15269Y187040D01*
X16136Y186375D01*
X17145Y185957D01*
X18228Y185815D01*
X21772D01*
X22855Y185957D01*
X23864Y186375D01*
X24731Y187040D01*
X25396Y187907D01*
X25815Y188917D01*
X25957Y190000D01*
X25815Y191083D01*
X25396Y192093D01*
X24731Y192959D01*
X23864Y193625D01*
X22855Y194043D01*
X21772Y194185D01*
D02*
G37*
G36*
X110546Y186650D02*
X110500D01*
Y183000D01*
X114150D01*
Y183046D01*
X113867Y184102D01*
X113321Y185048D01*
X112548Y185820D01*
X111602Y186367D01*
X110546Y186650D01*
D02*
G37*
G36*
X68046D02*
X68000D01*
Y183000D01*
X71650D01*
Y183046D01*
X71367Y184102D01*
X70820Y185048D01*
X70048Y185820D01*
X69102Y186367D01*
X68046Y186650D01*
D02*
G37*
G36*
X109500D02*
X109454D01*
X108398Y186367D01*
X107452Y185820D01*
X106679Y185048D01*
X106133Y184102D01*
X105850Y183046D01*
Y183000D01*
X109500D01*
Y186650D01*
D02*
G37*
G36*
X114150Y182000D02*
X110500D01*
Y178350D01*
X110546D01*
X111602Y178633D01*
X112548Y179180D01*
X113321Y179952D01*
X113867Y180898D01*
X114150Y181954D01*
Y182000D01*
D02*
G37*
G36*
X109500D02*
X105850D01*
Y181954D01*
X106133Y180898D01*
X106679Y179952D01*
X107452Y179180D01*
X108398Y178633D01*
X109454Y178350D01*
X109500D01*
Y182000D01*
D02*
G37*
G36*
X91000Y178941D02*
Y177500D01*
X92441D01*
X92182Y178124D01*
X91624Y178682D01*
X91000Y178941D01*
D02*
G37*
G36*
X90000D02*
X89376Y178682D01*
X88818Y178124D01*
X88559Y177500D01*
X90000D01*
Y178941D01*
D02*
G37*
G36*
X21772Y184185D02*
X18228D01*
X17145Y184043D01*
X16136Y183625D01*
X15269Y182959D01*
X14604Y182093D01*
X14186Y181083D01*
X14043Y180000D01*
X14186Y178917D01*
X14604Y177907D01*
X15269Y177041D01*
X16136Y176375D01*
X17145Y175957D01*
X18228Y175815D01*
X21772D01*
X22855Y175957D01*
X23864Y176375D01*
X24731Y177041D01*
X25396Y177907D01*
X25815Y178917D01*
X25957Y180000D01*
X25815Y181083D01*
X25396Y182093D01*
X24731Y182959D01*
X23864Y183625D01*
X22855Y184043D01*
X21772Y184185D01*
D02*
G37*
G36*
X92441Y176500D02*
X91000D01*
Y175059D01*
X91624Y175318D01*
X92182Y175876D01*
X92441Y176500D01*
D02*
G37*
G36*
X90000D02*
X88559D01*
X88818Y175876D01*
X89376Y175318D01*
X90000Y175059D01*
Y176500D01*
D02*
G37*
G36*
X165000Y178457D02*
X163917Y178314D01*
X162907Y177896D01*
X162040Y177231D01*
X161375Y176364D01*
X160957Y175355D01*
X160821Y174322D01*
X159179D01*
X159043Y175355D01*
X158625Y176364D01*
X157959Y177231D01*
X157093Y177896D01*
X156083Y178314D01*
X155000Y178457D01*
X153917Y178314D01*
X152907Y177896D01*
X152041Y177231D01*
X151375Y176364D01*
X150957Y175355D01*
X150815Y174272D01*
Y170728D01*
X150957Y169645D01*
X151375Y168636D01*
X152041Y167769D01*
X152907Y167104D01*
X153917Y166685D01*
X155000Y166543D01*
X156083Y166685D01*
X157093Y167104D01*
X157959Y167769D01*
X158625Y168636D01*
X159043Y169645D01*
X159179Y170678D01*
X160821D01*
X160957Y169645D01*
X161375Y168636D01*
X162040Y167769D01*
X162907Y167104D01*
X163917Y166685D01*
X165000Y166543D01*
X166083Y166685D01*
X167093Y167104D01*
X167959Y167769D01*
X168625Y168636D01*
X169043Y169645D01*
X169185Y170728D01*
Y174272D01*
X169043Y175355D01*
X168625Y176364D01*
X167959Y177231D01*
X167093Y177896D01*
X166083Y178314D01*
X165000Y178457D01*
D02*
G37*
G36*
X185500Y178391D02*
Y173000D01*
X189185D01*
Y174272D01*
X189043Y175355D01*
X188625Y176364D01*
X187960Y177231D01*
X187093Y177896D01*
X186083Y178314D01*
X185500Y178391D01*
D02*
G37*
G36*
X110907Y174441D02*
Y173000D01*
X112348D01*
X112090Y173624D01*
X111531Y174182D01*
X110907Y174441D01*
D02*
G37*
G36*
X109907D02*
X109283Y174182D01*
X108725Y173624D01*
X108467Y173000D01*
X109907D01*
Y174441D01*
D02*
G37*
G36*
X184500Y178391D02*
X183917Y178314D01*
X182907Y177896D01*
X182041Y177231D01*
X181375Y176364D01*
X180957Y175355D01*
X180815Y174272D01*
Y173000D01*
X184500D01*
Y178391D01*
D02*
G37*
G36*
X112348Y172000D02*
X110907D01*
Y170559D01*
X111531Y170818D01*
X112090Y171376D01*
X112348Y172000D01*
D02*
G37*
G36*
X109907D02*
X108467D01*
X108725Y171376D01*
X109283Y170818D01*
X109907Y170559D01*
Y172000D01*
D02*
G37*
G36*
X203000Y169941D02*
Y168500D01*
X204441D01*
X204182Y169124D01*
X203624Y169682D01*
X203000Y169941D01*
D02*
G37*
G36*
X202000D02*
X201376Y169682D01*
X200818Y169124D01*
X200559Y168500D01*
X202000D01*
Y169941D01*
D02*
G37*
G36*
X10500Y168716D02*
Y167276D01*
X11941D01*
X11682Y167900D01*
X11124Y168458D01*
X10500Y168716D01*
D02*
G37*
G36*
X9500D02*
X8876Y168458D01*
X8318Y167900D01*
X8059Y167276D01*
X9500D01*
Y168716D01*
D02*
G37*
G36*
X189185Y172000D02*
X185500D01*
Y166609D01*
X186083Y166685D01*
X187093Y167104D01*
X187960Y167769D01*
X188625Y168636D01*
X189043Y169645D01*
X189185Y170728D01*
Y172000D01*
D02*
G37*
G36*
X184500D02*
X180815D01*
Y170728D01*
X180957Y169645D01*
X181375Y168636D01*
X182041Y167769D01*
X182907Y167104D01*
X183917Y166685D01*
X184500Y166609D01*
Y172000D01*
D02*
G37*
G36*
X175000Y178457D02*
X173917Y178314D01*
X172907Y177896D01*
X172040Y177231D01*
X171375Y176364D01*
X170957Y175355D01*
X170815Y174272D01*
Y170728D01*
X170957Y169645D01*
X171375Y168636D01*
X172040Y167769D01*
X172907Y167104D01*
X173917Y166685D01*
X175000Y166543D01*
X176083Y166685D01*
X177093Y167104D01*
X177960Y167769D01*
X178625Y168636D01*
X179043Y169645D01*
X179185Y170728D01*
Y174272D01*
X179043Y175355D01*
X178625Y176364D01*
X177960Y177231D01*
X177093Y177896D01*
X176083Y178314D01*
X175000Y178457D01*
D02*
G37*
G36*
X204441Y167500D02*
X203000D01*
Y166059D01*
X203624Y166318D01*
X204182Y166876D01*
X204441Y167500D01*
D02*
G37*
G36*
X202000D02*
X200559D01*
X200818Y166876D01*
X201376Y166318D01*
X202000Y166059D01*
Y167500D01*
D02*
G37*
G36*
X21772Y174185D02*
X18228D01*
X17145Y174043D01*
X16136Y173625D01*
X15269Y172959D01*
X14604Y172093D01*
X14186Y171083D01*
X14043Y170000D01*
X14186Y168917D01*
X14604Y167907D01*
X15269Y167041D01*
X16136Y166375D01*
X17145Y165957D01*
X18228Y165815D01*
X21772D01*
X22855Y165957D01*
X23864Y166375D01*
X24731Y167041D01*
X25396Y167907D01*
X25815Y168917D01*
X25957Y170000D01*
X25815Y171083D01*
X25396Y172093D01*
X24731Y172959D01*
X23864Y173625D01*
X22855Y174043D01*
X21772Y174185D01*
D02*
G37*
G36*
X11941Y166276D02*
X10500D01*
Y164835D01*
X11124Y165094D01*
X11682Y165652D01*
X11941Y166276D01*
D02*
G37*
G36*
X9500D02*
X8059D01*
X8318Y165652D01*
X8876Y165094D01*
X9500Y164835D01*
Y166276D01*
D02*
G37*
G36*
X213000Y163391D02*
Y158000D01*
X216685D01*
Y159272D01*
X216543Y160355D01*
X216125Y161364D01*
X215459Y162231D01*
X214593Y162896D01*
X213583Y163314D01*
X213000Y163391D01*
D02*
G37*
G36*
X212000D02*
X211417Y163314D01*
X210407Y162896D01*
X209541Y162231D01*
X208875Y161364D01*
X208457Y160355D01*
X208315Y159272D01*
Y158000D01*
X212000D01*
Y163391D01*
D02*
G37*
G36*
X40546Y159150D02*
X40500D01*
Y155500D01*
X44150D01*
Y155546D01*
X43867Y156602D01*
X43321Y157548D01*
X42548Y158320D01*
X41602Y158867D01*
X40546Y159150D01*
D02*
G37*
G36*
X39500D02*
X39454D01*
X38398Y158867D01*
X37452Y158320D01*
X36680Y157548D01*
X36133Y156602D01*
X35850Y155546D01*
Y155500D01*
X39500D01*
Y159150D01*
D02*
G37*
G36*
X216685Y157000D02*
X213000D01*
Y151609D01*
X213583Y151686D01*
X214593Y152104D01*
X215459Y152769D01*
X216125Y153636D01*
X216543Y154645D01*
X216685Y155728D01*
Y157000D01*
D02*
G37*
G36*
X212000D02*
X208315D01*
Y155728D01*
X208457Y154645D01*
X208875Y153636D01*
X209541Y152769D01*
X210407Y152104D01*
X211417Y151686D01*
X212000Y151609D01*
Y157000D01*
D02*
G37*
G36*
X202500Y163457D02*
X201417Y163314D01*
X200407Y162896D01*
X199540Y162231D01*
X198875Y161364D01*
X198457Y160355D01*
X198315Y159272D01*
Y155728D01*
X198457Y154645D01*
X198875Y153636D01*
X199540Y152769D01*
X200407Y152104D01*
X201417Y151686D01*
X202500Y151543D01*
X203583Y151686D01*
X204593Y152104D01*
X205459Y152769D01*
X206125Y153636D01*
X206543Y154645D01*
X206685Y155728D01*
Y159272D01*
X206543Y160355D01*
X206125Y161364D01*
X205459Y162231D01*
X204593Y162896D01*
X203583Y163314D01*
X202500Y163457D01*
D02*
G37*
G36*
X192500D02*
X191417Y163314D01*
X190407Y162896D01*
X189541Y162231D01*
X188875Y161364D01*
X188457Y160355D01*
X188315Y159272D01*
Y155728D01*
X188457Y154645D01*
X188875Y153636D01*
X189541Y152769D01*
X190407Y152104D01*
X191417Y151686D01*
X192500Y151543D01*
X193583Y151686D01*
X194593Y152104D01*
X195459Y152769D01*
X196125Y153636D01*
X196543Y154645D01*
X196685Y155728D01*
Y159272D01*
X196543Y160355D01*
X196125Y161364D01*
X195459Y162231D01*
X194593Y162896D01*
X193583Y163314D01*
X192500Y163457D01*
D02*
G37*
G36*
X182500D02*
X181417Y163314D01*
X180407Y162896D01*
X179541Y162231D01*
X178875Y161364D01*
X178457Y160355D01*
X178315Y159272D01*
Y155728D01*
X178457Y154645D01*
X178875Y153636D01*
X179541Y152769D01*
X180407Y152104D01*
X181417Y151686D01*
X182500Y151543D01*
X183583Y151686D01*
X184593Y152104D01*
X185459Y152769D01*
X186125Y153636D01*
X186543Y154645D01*
X186685Y155728D01*
Y159272D01*
X186543Y160355D01*
X186125Y161364D01*
X185459Y162231D01*
X184593Y162896D01*
X183583Y163314D01*
X182500Y163457D01*
D02*
G37*
G36*
X172500D02*
X171417Y163314D01*
X170407Y162896D01*
X169541Y162231D01*
X168875Y161364D01*
X168457Y160355D01*
X168315Y159272D01*
Y155728D01*
X168457Y154645D01*
X168875Y153636D01*
X169541Y152769D01*
X170407Y152104D01*
X171417Y151686D01*
X172500Y151543D01*
X173583Y151686D01*
X174593Y152104D01*
X175460Y152769D01*
X176125Y153636D01*
X176543Y154645D01*
X176685Y155728D01*
Y159272D01*
X176543Y160355D01*
X176125Y161364D01*
X175460Y162231D01*
X174593Y162896D01*
X173583Y163314D01*
X172500Y163457D01*
D02*
G37*
G36*
X162500D02*
X161417Y163314D01*
X160407Y162896D01*
X159540Y162231D01*
X158875Y161364D01*
X158457Y160355D01*
X158315Y159272D01*
Y155728D01*
X158457Y154645D01*
X158875Y153636D01*
X159540Y152769D01*
X160407Y152104D01*
X161417Y151686D01*
X162500Y151543D01*
X163583Y151686D01*
X164593Y152104D01*
X165460Y152769D01*
X166125Y153636D01*
X166543Y154645D01*
X166685Y155728D01*
Y159272D01*
X166543Y160355D01*
X166125Y161364D01*
X165460Y162231D01*
X164593Y162896D01*
X163583Y163314D01*
X162500Y163457D01*
D02*
G37*
G36*
X152500D02*
X151417Y163314D01*
X150407Y162896D01*
X149540Y162231D01*
X148875Y161364D01*
X148457Y160355D01*
X148315Y159272D01*
Y155728D01*
X148457Y154645D01*
X148875Y153636D01*
X149540Y152769D01*
X150407Y152104D01*
X151417Y151686D01*
X152500Y151543D01*
X153583Y151686D01*
X154593Y152104D01*
X155459Y152769D01*
X156125Y153636D01*
X156543Y154645D01*
X156685Y155728D01*
Y159272D01*
X156543Y160355D01*
X156125Y161364D01*
X155459Y162231D01*
X154593Y162896D01*
X153583Y163314D01*
X152500Y163457D01*
D02*
G37*
G36*
X142500D02*
X141417Y163314D01*
X140407Y162896D01*
X139541Y162231D01*
X138875Y161364D01*
X138457Y160355D01*
X138315Y159272D01*
Y155728D01*
X138457Y154645D01*
X138875Y153636D01*
X139541Y152769D01*
X140407Y152104D01*
X141417Y151686D01*
X142500Y151543D01*
X143583Y151686D01*
X144593Y152104D01*
X145459Y152769D01*
X146125Y153636D01*
X146543Y154645D01*
X146685Y155728D01*
Y159272D01*
X146543Y160355D01*
X146125Y161364D01*
X145459Y162231D01*
X144593Y162896D01*
X143583Y163314D01*
X142500Y163457D01*
D02*
G37*
G36*
X132500D02*
X131417Y163314D01*
X130407Y162896D01*
X129541Y162231D01*
X128875Y161364D01*
X128457Y160355D01*
X128315Y159272D01*
Y155728D01*
X128457Y154645D01*
X128875Y153636D01*
X129541Y152769D01*
X130407Y152104D01*
X131417Y151686D01*
X132500Y151543D01*
X133583Y151686D01*
X134593Y152104D01*
X135459Y152769D01*
X136125Y153636D01*
X136543Y154645D01*
X136685Y155728D01*
Y159272D01*
X136543Y160355D01*
X136125Y161364D01*
X135459Y162231D01*
X134593Y162896D01*
X133583Y163314D01*
X132500Y163457D01*
D02*
G37*
G36*
X122500D02*
X121417Y163314D01*
X120407Y162896D01*
X119541Y162231D01*
X118875Y161364D01*
X118457Y160355D01*
X118315Y159272D01*
Y155728D01*
X118457Y154645D01*
X118875Y153636D01*
X119541Y152769D01*
X120407Y152104D01*
X121417Y151686D01*
X122500Y151543D01*
X123583Y151686D01*
X124593Y152104D01*
X125460Y152769D01*
X126125Y153636D01*
X126543Y154645D01*
X126685Y155728D01*
Y159272D01*
X126543Y160355D01*
X126125Y161364D01*
X125460Y162231D01*
X124593Y162896D01*
X123583Y163314D01*
X122500Y163457D01*
D02*
G37*
G36*
X112500D02*
X111417Y163314D01*
X110407Y162896D01*
X109540Y162231D01*
X108875Y161364D01*
X108457Y160355D01*
X108315Y159272D01*
Y155728D01*
X108457Y154645D01*
X108875Y153636D01*
X109540Y152769D01*
X110407Y152104D01*
X111417Y151686D01*
X112500Y151543D01*
X113583Y151686D01*
X114593Y152104D01*
X115460Y152769D01*
X116125Y153636D01*
X116543Y154645D01*
X116685Y155728D01*
Y159272D01*
X116543Y160355D01*
X116125Y161364D01*
X115460Y162231D01*
X114593Y162896D01*
X113583Y163314D01*
X112500Y163457D01*
D02*
G37*
G36*
X102500D02*
X101417Y163314D01*
X100407Y162896D01*
X99541Y162231D01*
X98875Y161364D01*
X98457Y160355D01*
X98315Y159272D01*
Y155728D01*
X98457Y154645D01*
X98875Y153636D01*
X99541Y152769D01*
X100407Y152104D01*
X101417Y151686D01*
X102500Y151543D01*
X103583Y151686D01*
X104593Y152104D01*
X105459Y152769D01*
X106125Y153636D01*
X106543Y154645D01*
X106685Y155728D01*
Y159272D01*
X106543Y160355D01*
X106125Y161364D01*
X105459Y162231D01*
X104593Y162896D01*
X103583Y163314D01*
X102500Y163457D01*
D02*
G37*
G36*
X92500D02*
X91417Y163314D01*
X90407Y162896D01*
X89540Y162231D01*
X88875Y161364D01*
X88457Y160355D01*
X88315Y159272D01*
Y155728D01*
X88457Y154645D01*
X88875Y153636D01*
X89540Y152769D01*
X90407Y152104D01*
X91417Y151686D01*
X92500Y151543D01*
X93583Y151686D01*
X94593Y152104D01*
X95460Y152769D01*
X96125Y153636D01*
X96543Y154645D01*
X96685Y155728D01*
Y159272D01*
X96543Y160355D01*
X96125Y161364D01*
X95460Y162231D01*
X94593Y162896D01*
X93583Y163314D01*
X92500Y163457D01*
D02*
G37*
G36*
X44150Y154500D02*
X40500D01*
Y150850D01*
X40546D01*
X41602Y151133D01*
X42548Y151680D01*
X43321Y152452D01*
X43867Y153398D01*
X44150Y154454D01*
Y154500D01*
D02*
G37*
G36*
X39500D02*
X35850D01*
Y154454D01*
X36133Y153398D01*
X36680Y152452D01*
X37452Y151680D01*
X38398Y151133D01*
X39454Y150850D01*
X39500D01*
Y154500D01*
D02*
G37*
G36*
X30546Y159150D02*
X29454D01*
X28398Y158867D01*
X27452Y158320D01*
X26680Y157548D01*
X26133Y156602D01*
X25850Y155546D01*
Y154454D01*
X26133Y153398D01*
X26680Y152452D01*
X27452Y151680D01*
X28398Y151133D01*
X29454Y150850D01*
X30546D01*
X31602Y151133D01*
X32548Y151680D01*
X33321Y152452D01*
X33867Y153398D01*
X34150Y154454D01*
Y155546D01*
X33867Y156602D01*
X33321Y157548D01*
X32548Y158320D01*
X31602Y158867D01*
X30546Y159150D01*
D02*
G37*
G36*
X89000Y149941D02*
Y148500D01*
X90441D01*
X90182Y149124D01*
X89624Y149682D01*
X89000Y149941D01*
D02*
G37*
G36*
X88000D02*
X87376Y149682D01*
X86818Y149124D01*
X86559Y148500D01*
X88000D01*
Y149941D01*
D02*
G37*
G36*
X20222D02*
Y148500D01*
X21662D01*
X21404Y149124D01*
X20846Y149682D01*
X20222Y149941D01*
D02*
G37*
G36*
X19222D02*
X18598Y149682D01*
X18039Y149124D01*
X17781Y148500D01*
X19222D01*
Y149941D01*
D02*
G37*
G36*
X90441Y147500D02*
X89000D01*
Y146059D01*
X89624Y146318D01*
X90182Y146876D01*
X90441Y147500D01*
D02*
G37*
G36*
X88000D02*
X86559D01*
X86818Y146876D01*
X87376Y146318D01*
X88000Y146059D01*
Y147500D01*
D02*
G37*
G36*
X21662D02*
X20222D01*
Y146059D01*
X20846Y146318D01*
X21404Y146876D01*
X21662Y147500D01*
D02*
G37*
G36*
X19222D02*
X17781D01*
X18039Y146876D01*
X18598Y146318D01*
X19222Y146059D01*
Y147500D01*
D02*
G37*
G36*
X51772Y144185D02*
X50500D01*
Y140500D01*
X55891D01*
X55814Y141083D01*
X55396Y142093D01*
X54731Y142959D01*
X53864Y143625D01*
X52855Y144043D01*
X51772Y144185D01*
D02*
G37*
G36*
X10500Y141941D02*
Y140500D01*
X11941D01*
X11682Y141124D01*
X11124Y141682D01*
X10500Y141941D01*
D02*
G37*
G36*
X9500D02*
X8876Y141682D01*
X8318Y141124D01*
X8059Y140500D01*
X9500D01*
Y141941D01*
D02*
G37*
G36*
X49500Y144185D02*
X48228D01*
X47145Y144043D01*
X46136Y143625D01*
X45269Y142959D01*
X44604Y142093D01*
X44186Y141083D01*
X44109Y140500D01*
X49500D01*
Y144185D01*
D02*
G37*
G36*
X11941Y139500D02*
X10500D01*
Y138059D01*
X11124Y138318D01*
X11682Y138876D01*
X11941Y139500D01*
D02*
G37*
G36*
X9500D02*
X8059D01*
X8318Y138876D01*
X8876Y138318D01*
X9500Y138059D01*
Y139500D01*
D02*
G37*
G36*
X71000Y137755D02*
Y136315D01*
X72441D01*
X72182Y136939D01*
X71624Y137497D01*
X71000Y137755D01*
D02*
G37*
G36*
X70000D02*
X69376Y137497D01*
X68818Y136939D01*
X68559Y136315D01*
X70000D01*
Y137755D01*
D02*
G37*
G36*
X55891Y139500D02*
X50500D01*
Y135815D01*
X51772D01*
X52855Y135957D01*
X53864Y136375D01*
X54731Y137040D01*
X55396Y137907D01*
X55814Y138917D01*
X55891Y139500D01*
D02*
G37*
G36*
X49500D02*
X44109D01*
X44186Y138917D01*
X44604Y137907D01*
X45269Y137040D01*
X46136Y136375D01*
X47145Y135957D01*
X48228Y135815D01*
X49500D01*
Y139500D01*
D02*
G37*
G36*
X13764Y165531D02*
X12818D01*
X11944Y165169D01*
X11275Y164500D01*
X10913Y163626D01*
Y162680D01*
X11275Y161806D01*
X11469Y161612D01*
Y146709D01*
X11469Y146709D01*
X11608Y146011D01*
X12003Y145420D01*
X14919Y142504D01*
X14604Y142093D01*
X14186Y141083D01*
X14043Y140000D01*
X14186Y138917D01*
X14604Y137907D01*
X15269Y137040D01*
X16136Y136375D01*
X17145Y135957D01*
X18228Y135815D01*
X21772D01*
X22855Y135957D01*
X23864Y136375D01*
X24731Y137040D01*
X25396Y137907D01*
X25815Y138917D01*
X25957Y140000D01*
X25815Y141083D01*
X25396Y142093D01*
X24731Y142959D01*
X23864Y143625D01*
X22855Y144043D01*
X21772Y144185D01*
X18392D01*
X15114Y147464D01*
Y161612D01*
X15307Y161806D01*
X15669Y162680D01*
Y163626D01*
X15307Y164500D01*
X14638Y165169D01*
X13764Y165531D01*
D02*
G37*
G36*
X72441Y135315D02*
X71000D01*
Y133874D01*
X71624Y134132D01*
X72182Y134691D01*
X72441Y135315D01*
D02*
G37*
G36*
X70000D02*
X68559D01*
X68818Y134691D01*
X69376Y134132D01*
X70000Y133874D01*
Y135315D01*
D02*
G37*
G36*
X212500Y140957D02*
X211417Y140814D01*
X210407Y140396D01*
X209541Y139731D01*
X208875Y138864D01*
X208457Y137855D01*
X208315Y136772D01*
Y133228D01*
X208457Y132145D01*
X208875Y131136D01*
X209541Y130269D01*
X210407Y129604D01*
X211417Y129185D01*
X212500Y129043D01*
X213583Y129185D01*
X214593Y129604D01*
X215459Y130269D01*
X216125Y131136D01*
X216543Y132145D01*
X216685Y133228D01*
Y136772D01*
X216543Y137855D01*
X216125Y138864D01*
X215459Y139731D01*
X214593Y140396D01*
X213583Y140814D01*
X212500Y140957D01*
D02*
G37*
G36*
X202500D02*
X201417Y140814D01*
X200407Y140396D01*
X199540Y139731D01*
X198875Y138864D01*
X198457Y137855D01*
X198315Y136772D01*
Y133228D01*
X198457Y132145D01*
X198875Y131136D01*
X199540Y130269D01*
X200407Y129604D01*
X201417Y129185D01*
X202500Y129043D01*
X203583Y129185D01*
X204593Y129604D01*
X205459Y130269D01*
X206125Y131136D01*
X206543Y132145D01*
X206685Y133228D01*
Y136772D01*
X206543Y137855D01*
X206125Y138864D01*
X205459Y139731D01*
X204593Y140396D01*
X203583Y140814D01*
X202500Y140957D01*
D02*
G37*
G36*
X192500D02*
X191417Y140814D01*
X190407Y140396D01*
X189541Y139731D01*
X188875Y138864D01*
X188457Y137855D01*
X188315Y136772D01*
Y133228D01*
X188457Y132145D01*
X188875Y131136D01*
X189541Y130269D01*
X190407Y129604D01*
X191417Y129185D01*
X192500Y129043D01*
X193583Y129185D01*
X194593Y129604D01*
X195459Y130269D01*
X196125Y131136D01*
X196543Y132145D01*
X196685Y133228D01*
Y136772D01*
X196543Y137855D01*
X196125Y138864D01*
X195459Y139731D01*
X194593Y140396D01*
X193583Y140814D01*
X192500Y140957D01*
D02*
G37*
G36*
X182500D02*
X181417Y140814D01*
X180407Y140396D01*
X179541Y139731D01*
X178875Y138864D01*
X178457Y137855D01*
X178315Y136772D01*
Y133228D01*
X178457Y132145D01*
X178875Y131136D01*
X179541Y130269D01*
X180407Y129604D01*
X181417Y129185D01*
X182500Y129043D01*
X183583Y129185D01*
X184593Y129604D01*
X185459Y130269D01*
X186125Y131136D01*
X186543Y132145D01*
X186685Y133228D01*
Y136772D01*
X186543Y137855D01*
X186125Y138864D01*
X185459Y139731D01*
X184593Y140396D01*
X183583Y140814D01*
X182500Y140957D01*
D02*
G37*
G36*
X172500D02*
X171417Y140814D01*
X170407Y140396D01*
X169541Y139731D01*
X168875Y138864D01*
X168457Y137855D01*
X168315Y136772D01*
Y133228D01*
X168457Y132145D01*
X168875Y131136D01*
X169541Y130269D01*
X170407Y129604D01*
X171417Y129185D01*
X172500Y129043D01*
X173583Y129185D01*
X174593Y129604D01*
X175460Y130269D01*
X176125Y131136D01*
X176543Y132145D01*
X176685Y133228D01*
Y136772D01*
X176543Y137855D01*
X176125Y138864D01*
X175460Y139731D01*
X174593Y140396D01*
X173583Y140814D01*
X172500Y140957D01*
D02*
G37*
G36*
X162500D02*
X161417Y140814D01*
X160407Y140396D01*
X159540Y139731D01*
X158875Y138864D01*
X158457Y137855D01*
X158315Y136772D01*
Y133228D01*
X158457Y132145D01*
X158875Y131136D01*
X159540Y130269D01*
X160407Y129604D01*
X161417Y129185D01*
X162500Y129043D01*
X163583Y129185D01*
X164593Y129604D01*
X165460Y130269D01*
X166125Y131136D01*
X166543Y132145D01*
X166685Y133228D01*
Y136772D01*
X166543Y137855D01*
X166125Y138864D01*
X165460Y139731D01*
X164593Y140396D01*
X163583Y140814D01*
X162500Y140957D01*
D02*
G37*
G36*
X152500D02*
X151417Y140814D01*
X150407Y140396D01*
X149540Y139731D01*
X148875Y138864D01*
X148457Y137855D01*
X148315Y136772D01*
Y133228D01*
X148457Y132145D01*
X148875Y131136D01*
X149540Y130269D01*
X150407Y129604D01*
X151417Y129185D01*
X152500Y129043D01*
X153583Y129185D01*
X154593Y129604D01*
X155459Y130269D01*
X156125Y131136D01*
X156543Y132145D01*
X156685Y133228D01*
Y136772D01*
X156543Y137855D01*
X156125Y138864D01*
X155459Y139731D01*
X154593Y140396D01*
X153583Y140814D01*
X152500Y140957D01*
D02*
G37*
G36*
X132500D02*
X131417Y140814D01*
X130407Y140396D01*
X129541Y139731D01*
X128875Y138864D01*
X128457Y137855D01*
X128315Y136772D01*
Y133228D01*
X128457Y132145D01*
X128875Y131136D01*
X129541Y130269D01*
X130407Y129604D01*
X131417Y129185D01*
X132500Y129043D01*
X133583Y129185D01*
X134593Y129604D01*
X135459Y130269D01*
X136125Y131136D01*
X136543Y132145D01*
X136685Y133228D01*
Y136772D01*
X136543Y137855D01*
X136125Y138864D01*
X135459Y139731D01*
X134593Y140396D01*
X133583Y140814D01*
X132500Y140957D01*
D02*
G37*
G36*
X122500D02*
X121417Y140814D01*
X120407Y140396D01*
X119541Y139731D01*
X118875Y138864D01*
X118457Y137855D01*
X118315Y136772D01*
Y133228D01*
X118457Y132145D01*
X118875Y131136D01*
X119541Y130269D01*
X120407Y129604D01*
X121417Y129185D01*
X122500Y129043D01*
X123583Y129185D01*
X124593Y129604D01*
X125460Y130269D01*
X126125Y131136D01*
X126543Y132145D01*
X126685Y133228D01*
Y136772D01*
X126543Y137855D01*
X126125Y138864D01*
X125460Y139731D01*
X124593Y140396D01*
X123583Y140814D01*
X122500Y140957D01*
D02*
G37*
G36*
X112500D02*
X111417Y140814D01*
X110407Y140396D01*
X109540Y139731D01*
X108875Y138864D01*
X108457Y137855D01*
X108315Y136772D01*
Y133228D01*
X108457Y132145D01*
X108875Y131136D01*
X109540Y130269D01*
X110407Y129604D01*
X111417Y129185D01*
X112500Y129043D01*
X113583Y129185D01*
X114593Y129604D01*
X115460Y130269D01*
X116125Y131136D01*
X116543Y132145D01*
X116685Y133228D01*
Y136772D01*
X116543Y137855D01*
X116125Y138864D01*
X115460Y139731D01*
X114593Y140396D01*
X113583Y140814D01*
X112500Y140957D01*
D02*
G37*
G36*
X102500D02*
X101417Y140814D01*
X100407Y140396D01*
X99541Y139731D01*
X98875Y138864D01*
X98457Y137855D01*
X98315Y136772D01*
Y133228D01*
X98457Y132145D01*
X98875Y131136D01*
X99541Y130269D01*
X100407Y129604D01*
X101417Y129185D01*
X102500Y129043D01*
X103583Y129185D01*
X104593Y129604D01*
X105459Y130269D01*
X106125Y131136D01*
X106543Y132145D01*
X106685Y133228D01*
Y136772D01*
X106543Y137855D01*
X106125Y138864D01*
X105459Y139731D01*
X104593Y140396D01*
X103583Y140814D01*
X102500Y140957D01*
D02*
G37*
G36*
X92500D02*
X91417Y140814D01*
X90407Y140396D01*
X89540Y139731D01*
X88875Y138864D01*
X88457Y137855D01*
X88315Y136772D01*
Y133228D01*
X88457Y132145D01*
X88875Y131136D01*
X89540Y130269D01*
X90407Y129604D01*
X91417Y129185D01*
X92500Y129043D01*
X93583Y129185D01*
X94593Y129604D01*
X95460Y130269D01*
X96125Y131136D01*
X96543Y132145D01*
X96685Y133228D01*
Y136772D01*
X96543Y137855D01*
X96125Y138864D01*
X95460Y139731D01*
X94593Y140396D01*
X93583Y140814D01*
X92500Y140957D01*
D02*
G37*
G36*
X82500D02*
X81417Y140814D01*
X80407Y140396D01*
X79540Y139731D01*
X78875Y138864D01*
X78457Y137855D01*
X78315Y136772D01*
Y133228D01*
X78457Y132145D01*
X78875Y131136D01*
X79540Y130269D01*
X80407Y129604D01*
X81417Y129185D01*
X82500Y129043D01*
X83583Y129185D01*
X84593Y129604D01*
X85460Y130269D01*
X86125Y131136D01*
X86543Y132145D01*
X86685Y133228D01*
Y136772D01*
X86543Y137855D01*
X86125Y138864D01*
X85460Y139731D01*
X84593Y140396D01*
X83583Y140814D01*
X82500Y140957D01*
D02*
G37*
G36*
X21772Y134185D02*
X18228D01*
X17145Y134043D01*
X16136Y133625D01*
X15269Y132959D01*
X14604Y132093D01*
X14186Y131083D01*
X14043Y130000D01*
X14186Y128917D01*
X14604Y127907D01*
X15269Y127041D01*
X16136Y126375D01*
X17145Y125957D01*
X18228Y125815D01*
X21772D01*
X22855Y125957D01*
X23864Y126375D01*
X24731Y127041D01*
X25396Y127907D01*
X25815Y128917D01*
X25957Y130000D01*
X25815Y131083D01*
X25396Y132093D01*
X24731Y132959D01*
X23864Y133625D01*
X22855Y134043D01*
X21772Y134185D01*
D02*
G37*
G36*
X66398Y119848D02*
Y118407D01*
X67839D01*
X67580Y119031D01*
X67022Y119589D01*
X66398Y119848D01*
D02*
G37*
G36*
X65398D02*
X64774Y119589D01*
X64216Y119031D01*
X63958Y118407D01*
X65398D01*
Y119848D01*
D02*
G37*
G36*
X67839Y117407D02*
X66398D01*
Y115967D01*
X67022Y116225D01*
X67580Y116783D01*
X67839Y117407D01*
D02*
G37*
G36*
X65398D02*
X63958D01*
X64216Y116783D01*
X64774Y116225D01*
X65398Y115967D01*
Y117407D01*
D02*
G37*
G36*
X21772Y124185D02*
X18228D01*
X17145Y124043D01*
X16136Y123625D01*
X15269Y122959D01*
X14604Y122093D01*
X14186Y121083D01*
X14043Y120000D01*
X14186Y118917D01*
X14604Y117907D01*
X15269Y117041D01*
X16136Y116375D01*
X17145Y115957D01*
X18228Y115815D01*
X21772D01*
X22855Y115957D01*
X23864Y116375D01*
X24731Y117041D01*
X25396Y117907D01*
X25815Y118917D01*
X25957Y120000D01*
X25815Y121083D01*
X25396Y122093D01*
X24731Y122959D01*
X23864Y123625D01*
X22855Y124043D01*
X21772Y124185D01*
D02*
G37*
G36*
X68046Y114150D02*
X66954D01*
X65898Y113867D01*
X64952Y113321D01*
X64179Y112548D01*
X63633Y111602D01*
X63350Y110546D01*
Y109454D01*
X63633Y108398D01*
X64179Y107452D01*
X64952Y106679D01*
X65898Y106133D01*
X66954Y105850D01*
X68046D01*
X69102Y106133D01*
X70048Y106679D01*
X70820Y107452D01*
X71367Y108398D01*
X71650Y109454D01*
Y110546D01*
X71367Y111602D01*
X70820Y112548D01*
X70048Y113321D01*
X69102Y113867D01*
X68046Y114150D01*
D02*
G37*
G36*
X21772Y114185D02*
X18228D01*
X17145Y114043D01*
X16136Y113625D01*
X15269Y112960D01*
X14604Y112093D01*
X14186Y111083D01*
X14043Y110000D01*
X14186Y108917D01*
X14604Y107907D01*
X15269Y107041D01*
X16136Y106375D01*
X17145Y105957D01*
X18228Y105815D01*
X21772D01*
X22855Y105957D01*
X23864Y106375D01*
X24731Y107041D01*
X25396Y107907D01*
X25815Y108917D01*
X25957Y110000D01*
X25815Y111083D01*
X25396Y112093D01*
X24731Y112960D01*
X23864Y113625D01*
X22855Y114043D01*
X21772Y114185D01*
D02*
G37*
G36*
X68046Y104150D02*
X68000D01*
Y100500D01*
X71650D01*
Y100546D01*
X71367Y101602D01*
X70820Y102548D01*
X70048Y103321D01*
X69102Y103867D01*
X68046Y104150D01*
D02*
G37*
G36*
X21772Y104185D02*
X18228D01*
X17145Y104043D01*
X16136Y103625D01*
X15269Y102960D01*
X14604Y102093D01*
X14186Y101083D01*
X14043Y100000D01*
X14186Y98917D01*
X14604Y97907D01*
X15269Y97040D01*
X16136Y96375D01*
X17145Y95957D01*
X18228Y95815D01*
X21772D01*
X22855Y95957D01*
X23864Y96375D01*
X24731Y97040D01*
X25396Y97907D01*
X25815Y98917D01*
X25957Y100000D01*
X25815Y101083D01*
X25396Y102093D01*
X24731Y102960D01*
X23864Y103625D01*
X22855Y104043D01*
X21772Y104185D01*
D02*
G37*
G36*
Y94185D02*
X18228D01*
X17145Y94043D01*
X16136Y93625D01*
X15269Y92959D01*
X14604Y92093D01*
X14186Y91083D01*
X14043Y90000D01*
X14186Y88917D01*
X14604Y87907D01*
X15269Y87041D01*
X16136Y86375D01*
X17145Y85957D01*
X18228Y85815D01*
X21772D01*
X22855Y85957D01*
X23864Y86375D01*
X24731Y87041D01*
X25396Y87907D01*
X25815Y88917D01*
X25957Y90000D01*
X25815Y91083D01*
X25396Y92093D01*
X24731Y92959D01*
X23864Y93625D01*
X22855Y94043D01*
X21772Y94185D01*
D02*
G37*
G36*
Y84185D02*
X18228D01*
X17145Y84043D01*
X16136Y83625D01*
X15269Y82960D01*
X14604Y82093D01*
X14186Y81083D01*
X14043Y80000D01*
X14186Y78917D01*
X14604Y77907D01*
X15269Y77040D01*
X16136Y76375D01*
X17145Y75957D01*
X18228Y75815D01*
X21772D01*
X22855Y75957D01*
X23864Y76375D01*
X24731Y77040D01*
X25396Y77907D01*
X25815Y78917D01*
X25957Y80000D01*
X25815Y81083D01*
X25396Y82093D01*
X24731Y82960D01*
X23864Y83625D01*
X22855Y84043D01*
X21772Y84185D01*
D02*
G37*
G36*
X213000Y80891D02*
Y75500D01*
X216685D01*
Y76772D01*
X216543Y77855D01*
X216125Y78864D01*
X215459Y79731D01*
X214593Y80396D01*
X213583Y80814D01*
X213000Y80891D01*
D02*
G37*
G36*
X212000D02*
X211417Y80814D01*
X210407Y80396D01*
X209541Y79731D01*
X208875Y78864D01*
X208457Y77855D01*
X208315Y76772D01*
Y75500D01*
X212000D01*
Y80891D01*
D02*
G37*
G36*
X216685Y74500D02*
X213000D01*
Y69109D01*
X213583Y69186D01*
X214593Y69604D01*
X215459Y70269D01*
X216125Y71136D01*
X216543Y72145D01*
X216685Y73228D01*
Y74500D01*
D02*
G37*
G36*
X212000D02*
X208315D01*
Y73228D01*
X208457Y72145D01*
X208875Y71136D01*
X209541Y70269D01*
X210407Y69604D01*
X211417Y69186D01*
X212000Y69109D01*
Y74500D01*
D02*
G37*
G36*
X144000Y68441D02*
Y67000D01*
X145441D01*
X145182Y67624D01*
X144624Y68182D01*
X144000Y68441D01*
D02*
G37*
G36*
X143000D02*
X142376Y68182D01*
X141818Y67624D01*
X141559Y67000D01*
X143000D01*
Y68441D01*
D02*
G37*
G36*
X39500Y69150D02*
X39454D01*
X38398Y68867D01*
X37452Y68321D01*
X36680Y67548D01*
X36133Y66602D01*
X35850Y65546D01*
Y65500D01*
X39500D01*
Y69150D01*
D02*
G37*
G36*
X145441Y66000D02*
X144000D01*
Y64559D01*
X144624Y64818D01*
X145182Y65376D01*
X145441Y66000D01*
D02*
G37*
G36*
X143000D02*
X141559D01*
X141818Y65376D01*
X142376Y64818D01*
X143000Y64559D01*
Y66000D01*
D02*
G37*
G36*
X176000Y65941D02*
Y64500D01*
X177441D01*
X177182Y65124D01*
X176624Y65682D01*
X176000Y65941D01*
D02*
G37*
G36*
X175000D02*
X174376Y65682D01*
X173818Y65124D01*
X173559Y64500D01*
X175000D01*
Y65941D01*
D02*
G37*
G36*
X202500Y80957D02*
X201417Y80814D01*
X200407Y80396D01*
X199540Y79731D01*
X198875Y78864D01*
X198457Y77855D01*
X198315Y76772D01*
Y73228D01*
X198457Y72145D01*
X198875Y71136D01*
X199540Y70269D01*
X200407Y69604D01*
X200678Y69492D01*
Y63500D01*
X200678Y63500D01*
X200775Y63009D01*
X200314Y62763D01*
X194322Y68755D01*
Y69492D01*
X194593Y69604D01*
X195459Y70269D01*
X196125Y71136D01*
X196543Y72145D01*
X196685Y73228D01*
Y76772D01*
X196543Y77855D01*
X196125Y78864D01*
X195459Y79731D01*
X194593Y80396D01*
X193583Y80814D01*
X192500Y80957D01*
X191417Y80814D01*
X190407Y80396D01*
X189541Y79731D01*
X188875Y78864D01*
X188457Y77855D01*
X188315Y76772D01*
Y73228D01*
X188457Y72145D01*
X188875Y71136D01*
X189541Y70269D01*
X190407Y69604D01*
X190678Y69492D01*
Y68221D01*
X190178Y68014D01*
X186397Y71794D01*
X186543Y72145D01*
X186685Y73228D01*
Y76772D01*
X186543Y77855D01*
X186125Y78864D01*
X185459Y79731D01*
X184593Y80396D01*
X183583Y80814D01*
X182500Y80957D01*
X181417Y80814D01*
X180407Y80396D01*
X179541Y79731D01*
X178875Y78864D01*
X178457Y77855D01*
X178315Y76772D01*
Y73228D01*
X178457Y72145D01*
X178875Y71136D01*
X179541Y70269D01*
X180407Y69604D01*
X181417Y69186D01*
X182500Y69043D01*
X183583Y69186D01*
X183773Y69264D01*
X210122Y42915D01*
Y42527D01*
X210484Y41653D01*
X211153Y40984D01*
X212027Y40622D01*
X212973D01*
X213847Y40984D01*
X214516Y41653D01*
X214878Y42527D01*
Y43473D01*
X214516Y44347D01*
X213847Y45016D01*
X213332Y45229D01*
Y45771D01*
X213847Y45984D01*
X214516Y46653D01*
X214878Y47527D01*
Y48473D01*
X214516Y49347D01*
X213847Y50016D01*
X212973Y50378D01*
X212864D01*
X212677Y50622D01*
X212915Y51122D01*
X212973D01*
X213847Y51484D01*
X214516Y52153D01*
X214878Y53027D01*
Y53973D01*
X214516Y54847D01*
X213847Y55516D01*
X212973Y55878D01*
X212699D01*
X204322Y64255D01*
Y69492D01*
X204593Y69604D01*
X205459Y70269D01*
X206125Y71136D01*
X206543Y72145D01*
X206685Y73228D01*
Y76772D01*
X206543Y77855D01*
X206125Y78864D01*
X205459Y79731D01*
X204593Y80396D01*
X203583Y80814D01*
X202500Y80957D01*
D02*
G37*
G36*
X177441Y63500D02*
X176000D01*
Y62059D01*
X176624Y62318D01*
X177182Y62876D01*
X177441Y63500D01*
D02*
G37*
G36*
X175000D02*
X173559D01*
X173818Y62876D01*
X174376Y62318D01*
X175000Y62059D01*
Y63500D01*
D02*
G37*
G36*
X39500Y64500D02*
X35850D01*
Y64454D01*
X36133Y63398D01*
X36680Y62452D01*
X37452Y61680D01*
X38398Y61133D01*
X39454Y60850D01*
X39500D01*
Y64500D01*
D02*
G37*
G36*
X30546Y69150D02*
X29454D01*
X28398Y68867D01*
X27452Y68321D01*
X26680Y67548D01*
X26133Y66602D01*
X25850Y65546D01*
Y64454D01*
X26133Y63398D01*
X26680Y62452D01*
X27452Y61680D01*
X28398Y61133D01*
X29454Y60850D01*
X30546D01*
X31602Y61133D01*
X32548Y61680D01*
X33321Y62452D01*
X33867Y63398D01*
X34150Y64454D01*
Y65546D01*
X33867Y66602D01*
X33321Y67548D01*
X32548Y68321D01*
X31602Y68867D01*
X30546Y69150D01*
D02*
G37*
G36*
X180913Y60934D02*
Y59494D01*
X182354D01*
X182096Y60118D01*
X181537Y60676D01*
X180913Y60934D01*
D02*
G37*
G36*
X179913D02*
X179289Y60676D01*
X178731Y60118D01*
X178473Y59494D01*
X179913D01*
Y60934D01*
D02*
G37*
G36*
X182354Y58494D02*
X180913D01*
Y57053D01*
X181537Y57312D01*
X182096Y57870D01*
X182354Y58494D01*
D02*
G37*
G36*
X179913D02*
X178473D01*
X178731Y57870D01*
X179289Y57312D01*
X179913Y57053D01*
Y58494D01*
D02*
G37*
G36*
X14000Y56441D02*
Y55000D01*
X15441D01*
X15182Y55624D01*
X14624Y56182D01*
X14000Y56441D01*
D02*
G37*
G36*
X13000D02*
X12376Y56182D01*
X11818Y55624D01*
X11559Y55000D01*
X13000D01*
Y56441D01*
D02*
G37*
G36*
X15441Y54000D02*
X14000D01*
Y52559D01*
X14624Y52818D01*
X15182Y53376D01*
X15441Y54000D01*
D02*
G37*
G36*
X13000D02*
X11559D01*
X11818Y53376D01*
X12376Y52818D01*
X13000Y52559D01*
Y54000D01*
D02*
G37*
G36*
X187937Y53941D02*
Y52500D01*
X189378D01*
X189119Y53124D01*
X188561Y53682D01*
X187937Y53941D01*
D02*
G37*
G36*
X186937D02*
X186313Y53682D01*
X185755Y53124D01*
X185496Y52500D01*
X186937D01*
Y53941D01*
D02*
G37*
G36*
X189378Y51500D02*
X187937D01*
Y50059D01*
X188561Y50318D01*
X189119Y50876D01*
X189378Y51500D01*
D02*
G37*
G36*
X186937D02*
X185496D01*
X185755Y50876D01*
X186313Y50318D01*
X186937Y50059D01*
Y51500D01*
D02*
G37*
G36*
X6072Y43046D02*
X6000D01*
Y39200D01*
X9847D01*
Y39272D01*
X9550Y40378D01*
X8978Y41369D01*
X8169Y42178D01*
X7178Y42750D01*
X6072Y43046D01*
D02*
G37*
G36*
X223500Y42846D02*
X223428D01*
X222322Y42550D01*
X221331Y41978D01*
X220522Y41169D01*
X219950Y40178D01*
X219654Y39072D01*
Y39000D01*
X223500D01*
Y42846D01*
D02*
G37*
G36*
X173786Y37714D02*
Y36274D01*
X175226D01*
X174968Y36898D01*
X174410Y37456D01*
X173786Y37714D01*
D02*
G37*
G36*
X172786D02*
X172162Y37456D01*
X171604Y36898D01*
X171345Y36274D01*
X172786D01*
Y37714D01*
D02*
G37*
G36*
X9847Y38200D02*
X6000D01*
Y34354D01*
X6072D01*
X7178Y34650D01*
X8169Y35222D01*
X8978Y36031D01*
X9550Y37022D01*
X9847Y38128D01*
Y38200D01*
D02*
G37*
G36*
X223500Y38000D02*
X219654D01*
Y37928D01*
X219950Y36822D01*
X220522Y35831D01*
X221331Y35022D01*
X222322Y34450D01*
X223428Y34154D01*
X223500D01*
Y38000D01*
D02*
G37*
G36*
X175226Y35274D02*
X173786D01*
Y33833D01*
X174410Y34091D01*
X174968Y34650D01*
X175226Y35274D01*
D02*
G37*
G36*
X172786D02*
X171345D01*
X171604Y34650D01*
X172162Y34091D01*
X172786Y33833D01*
Y35274D01*
D02*
G37*
G36*
X94971Y35141D02*
Y33700D01*
X96411D01*
X96153Y34324D01*
X95595Y34882D01*
X94971Y35141D01*
D02*
G37*
G36*
X93971D02*
X93347Y34882D01*
X92788Y34324D01*
X92530Y33700D01*
X93971D01*
Y35141D01*
D02*
G37*
G36*
X145000Y34887D02*
Y33446D01*
X146441D01*
X146182Y34070D01*
X145624Y34628D01*
X145000Y34887D01*
D02*
G37*
G36*
X144000D02*
X143376Y34628D01*
X142818Y34070D01*
X142559Y33446D01*
X144000D01*
Y34887D01*
D02*
G37*
G36*
X165000Y34492D02*
Y33052D01*
X166441D01*
X166182Y33676D01*
X165624Y34234D01*
X165000Y34492D01*
D02*
G37*
G36*
X164000D02*
X163376Y34234D01*
X162818Y33676D01*
X162559Y33052D01*
X164000D01*
Y34492D01*
D02*
G37*
G36*
X96411Y32700D02*
X94971D01*
Y31259D01*
X95595Y31518D01*
X96153Y32076D01*
X96411Y32700D01*
D02*
G37*
G36*
X93971D02*
X92530D01*
X92788Y32076D01*
X93347Y31518D01*
X93971Y31259D01*
Y32700D01*
D02*
G37*
G36*
X146441Y32446D02*
X145000D01*
Y31006D01*
X145624Y31264D01*
X146182Y31822D01*
X146441Y32446D01*
D02*
G37*
G36*
X144000D02*
X142559D01*
X142818Y31822D01*
X143376Y31264D01*
X144000Y31006D01*
Y32446D01*
D02*
G37*
G36*
X164000Y32052D02*
X162559D01*
X162818Y31428D01*
X163376Y30869D01*
X164000Y30611D01*
Y32052D01*
D02*
G37*
G36*
X221168Y30805D02*
X219700D01*
Y16500D01*
X224163D01*
Y27811D01*
X224061Y28586D01*
X223762Y29308D01*
X223286Y29928D01*
X222666Y30404D01*
X221943Y30703D01*
X221168Y30805D01*
D02*
G37*
G36*
X8700D02*
X7231D01*
X6457Y30703D01*
X5734Y30404D01*
X5114Y29928D01*
X4639Y29308D01*
X4339Y28586D01*
X4237Y27811D01*
Y16500D01*
X8700D01*
Y30805D01*
D02*
G37*
G36*
X65000Y75441D02*
X64376Y75182D01*
X63818Y74624D01*
X63559Y74000D01*
X65000D01*
Y75441D01*
D02*
G37*
G36*
Y73000D02*
X63559D01*
X63818Y72376D01*
X64376Y71818D01*
X65000Y71559D01*
Y73000D01*
D02*
G37*
G36*
X155000Y34887D02*
Y33446D01*
X156441D01*
X156182Y34070D01*
X155624Y34628D01*
X155000Y34887D01*
D02*
G37*
G36*
X154000D02*
X153376Y34628D01*
X152818Y34070D01*
X152559Y33446D01*
X154000D01*
Y34887D01*
D02*
G37*
G36*
X156441Y32446D02*
X155000D01*
Y31006D01*
X155624Y31264D01*
X156182Y31822D01*
X156441Y32446D01*
D02*
G37*
G36*
X154000D02*
X152559D01*
X152818Y31822D01*
X153376Y31264D01*
X154000Y31006D01*
Y32446D01*
D02*
G37*
G36*
X54500Y56941D02*
X53876Y56682D01*
X53318Y56124D01*
X53059Y55500D01*
X54500D01*
Y56941D01*
D02*
G37*
G36*
Y54500D02*
X53059D01*
X53318Y53876D01*
X53876Y53318D01*
X54500Y53059D01*
Y54500D01*
D02*
G37*
G36*
X27000Y42941D02*
Y41500D01*
X28441D01*
X28182Y42124D01*
X27624Y42682D01*
X27000Y42941D01*
D02*
G37*
G36*
X26000D02*
X25376Y42682D01*
X24818Y42124D01*
X24559Y41500D01*
X26000D01*
Y42941D01*
D02*
G37*
G36*
X28441Y40500D02*
X27000D01*
Y39059D01*
X27624Y39318D01*
X28182Y39876D01*
X28441Y40500D01*
D02*
G37*
G36*
X26000D02*
X24559D01*
X24818Y39876D01*
X25376Y39318D01*
X26000Y39059D01*
Y40500D01*
D02*
G37*
G36*
X74097Y67626D02*
Y66185D01*
X75538D01*
X75279Y66809D01*
X74721Y67368D01*
X74097Y67626D01*
D02*
G37*
G36*
X73097D02*
X72473Y67368D01*
X71915Y66809D01*
X71657Y66185D01*
X73097D01*
Y67626D01*
D02*
G37*
G36*
X75538Y65185D02*
X74097D01*
Y63745D01*
X74721Y64003D01*
X75279Y64561D01*
X75538Y65185D01*
D02*
G37*
G36*
X73097D02*
X71657D01*
X71915Y64561D01*
X72473Y64003D01*
X73097Y63745D01*
Y65185D01*
D02*
G37*
%LPD*%
D25*
X29200Y16000D02*
D03*
X19200D02*
D03*
X69200D02*
D03*
X59200D02*
D03*
X49200D02*
D03*
X99200D02*
D03*
X89200D02*
D03*
X129200D02*
D03*
X119200D02*
D03*
X159200D02*
D03*
X149200D02*
D03*
X189200D02*
D03*
X179200D02*
D03*
X219200D02*
D03*
X209200D02*
D03*
X79200D02*
D03*
X39200D02*
D03*
X9200D02*
D03*
X199200D02*
D03*
X169200D02*
D03*
X139200D02*
D03*
X109200D02*
D03*
D26*
X163404Y68596D02*
Y74096D01*
X199200Y16000D02*
Y32800D01*
X163404Y68596D02*
X199200Y32800D01*
X162500Y75000D02*
X163404Y74096D01*
X112500Y74507D02*
X115215Y71791D01*
X115708D02*
X149200Y38300D01*
X115215Y71791D02*
X115708D01*
X149200Y16000D02*
Y38300D01*
X112500Y74507D02*
Y75000D01*
X133404Y70096D02*
Y74096D01*
X169200Y16000D02*
Y34300D01*
X132500Y75000D02*
X133404Y74096D01*
Y70096D02*
X169200Y34300D01*
X56867Y125528D02*
X92500D01*
X52395Y130000D02*
X56867Y125528D01*
X56391Y122362D02*
X129417D01*
X130846Y123791D01*
X53817Y124937D02*
X56391Y122362D01*
X50000Y130000D02*
X52395D01*
X43000Y121754D02*
X46183Y124937D01*
X53817D01*
X125000Y172500D02*
X135000D01*
X130846Y123791D02*
X133063D01*
X142000Y132728D01*
Y135000D01*
X142500D01*
X23000Y45500D02*
X40260D01*
X45134Y50374D02*
Y66848D01*
X43500Y68482D02*
X45134Y66848D01*
X43500Y68482D02*
Y76000D01*
X40260Y45500D02*
X45134Y50374D01*
X43000Y76500D02*
X43500Y76000D01*
X43000Y76500D02*
Y121754D01*
X29200Y35000D02*
X34188Y39988D01*
X51512D01*
X122365Y45165D02*
X122424Y45107D01*
X126893D01*
X132379Y39621D01*
X124326Y42000D02*
X127563Y38763D01*
X99200Y35500D02*
X105700Y42000D01*
X124326D01*
X123349Y38500D02*
X127525Y34324D01*
X114500Y38500D02*
X123349D01*
X109200Y33200D02*
X114500Y38500D01*
X99200Y16000D02*
Y35500D01*
X109200Y16000D02*
Y33200D01*
X127525Y34280D02*
Y34324D01*
X119200Y16000D02*
Y31512D01*
X122139Y34086D02*
X122365Y34312D01*
X121774Y34086D02*
X122139D01*
X119200Y31512D02*
X121774Y34086D01*
X129200Y31447D02*
X132379Y34626D01*
Y39621D01*
X129200Y16000D02*
Y31447D01*
X17324Y142182D02*
X19507Y140000D01*
X17324Y142182D02*
Y142676D01*
X19507Y140000D02*
X20000D01*
X13291Y146709D02*
X17324Y142676D01*
X13291Y146709D02*
Y163153D01*
X59500Y175063D02*
Y211641D01*
X73784Y225925D01*
X96449Y233405D02*
X97630Y232224D01*
X71130Y232224D02*
X77547D01*
X61972Y223067D02*
X71130Y232224D01*
X77547D02*
X78728Y233405D01*
X98709Y232224D02*
X99967Y230967D01*
X42000Y234500D02*
X46055Y238555D01*
X99427D01*
X72499Y235390D02*
X76436D01*
X77027Y235980D01*
X78728Y233405D02*
X96449D01*
X77027Y235980D02*
X98361D01*
X97630Y232224D02*
X98709D01*
X79204Y230240D02*
X95138D01*
X77464Y228500D02*
X79204Y230240D01*
X99630Y238352D02*
X100680D01*
X98361Y235980D02*
X98790Y235551D01*
X99427Y238555D02*
X99630Y238352D01*
X79680Y227075D02*
X119131D01*
X119858Y227801D01*
X78530Y225925D02*
X79680Y227075D01*
X98790Y235551D02*
X99024D01*
X100680Y238352D02*
X100906Y238126D01*
X80746Y224500D02*
X160500D01*
X79597Y223350D02*
X80746Y224500D01*
X62563Y180455D02*
Y211063D01*
Y180455D02*
X69018Y174000D01*
X76500D01*
X62563Y211063D02*
X74850Y223350D01*
X92500Y72924D02*
Y75000D01*
X89200Y16000D02*
Y69624D01*
X92500Y72924D01*
X49200Y33200D02*
X58500Y42500D01*
X61075Y41434D02*
Y80697D01*
X59200Y39559D02*
X61075Y41434D01*
X58500Y42500D02*
Y72803D01*
X51303Y80000D02*
X58500Y72803D01*
X59200Y16000D02*
Y39559D01*
X51772Y90000D02*
X61075Y80697D01*
X50000Y80000D02*
X51303D01*
X29200Y16000D02*
Y35000D01*
X49200Y16000D02*
Y33200D01*
X50000Y90000D02*
X51772D01*
X19200Y41700D02*
X23000Y45500D01*
X19200Y16000D02*
Y41700D01*
X71775Y75127D02*
X79200Y67701D01*
X71775Y75127D02*
Y88743D01*
X79200Y16000D02*
Y67701D01*
X50518Y110000D02*
X71775Y88743D01*
X50000Y110000D02*
X50518D01*
X51772Y100000D02*
X69200Y82572D01*
X50000Y100000D02*
X51772D01*
X69200Y16000D02*
Y82572D01*
X99024Y235551D02*
X99852Y234723D01*
X81437Y241291D02*
X103546D01*
X106843Y237995D01*
X76500Y246228D02*
X81437Y241291D01*
X71882Y228500D02*
X77464D01*
X73784Y225925D02*
X78530D01*
X74850Y223350D02*
X79597D01*
X66666Y223284D02*
X71882Y228500D01*
X53817Y194937D02*
X56709Y192045D01*
Y177955D02*
Y192045D01*
X51772Y210000D02*
X61972Y220201D01*
Y223067D01*
X76862Y218759D02*
X76972Y218869D01*
X76862Y214384D02*
X84746Y206500D01*
X76862Y214384D02*
Y218759D01*
X99967Y230967D02*
X121665D01*
X99852Y234723D02*
X121665D01*
X119858Y227801D02*
X161664D01*
X161863Y228000D01*
X172500Y73228D02*
Y75000D01*
X209200Y16000D02*
X209200Y16000D01*
X172500Y73228D02*
X209200Y36528D01*
Y16000D02*
Y36528D01*
X189000Y16200D02*
Y38000D01*
X152500Y74500D02*
X189000Y38000D01*
Y16200D02*
X189200Y16000D01*
X152500Y74500D02*
Y75000D01*
X142500Y74000D02*
Y75000D01*
X179000Y16200D02*
Y37500D01*
Y16200D02*
X179200Y16000D01*
X142500Y74000D02*
X179000Y37500D01*
X122500Y73228D02*
Y75000D01*
X159200Y16000D02*
Y36528D01*
X122500Y73228D02*
X159200Y36528D01*
X102500Y73228D02*
X139200Y36528D01*
Y16000D02*
Y36528D01*
X102500Y73228D02*
Y75000D01*
X182500Y73114D02*
X212500Y43114D01*
Y43000D02*
Y43114D01*
X182500Y73114D02*
Y75000D01*
X192500Y68000D02*
Y75000D01*
Y68000D02*
X212500Y48000D01*
X202500Y63500D02*
Y75000D01*
Y63500D02*
X212500Y53500D01*
X59394Y307658D02*
X108606D01*
X76500Y246228D02*
Y248000D01*
X106843Y237995D02*
X118500D01*
X84746Y206500D02*
X97500D01*
X97694Y165791D02*
X140063D01*
X93485Y170000D02*
X97694Y165791D01*
X140063D02*
X145000Y170728D01*
Y172500D01*
X155000D02*
X165000D01*
X50000Y170000D02*
X93485D01*
X50000Y210000D02*
X51772D01*
X50923Y175063D02*
X53817D01*
X50000Y174141D02*
X50923Y175063D01*
X53817D02*
X56709Y177955D01*
X50923Y194937D02*
X53817D01*
X50000Y195860D02*
X50923Y194937D01*
X50000Y195860D02*
Y200000D01*
Y170000D02*
Y174141D01*
X12000Y304500D02*
X22000D01*
D27*
X38260Y66847D02*
Y130076D01*
Y66847D02*
X40000Y65106D01*
Y64956D02*
Y65106D01*
X5500Y55500D02*
X30544D01*
X40000Y64956D01*
X38260Y130076D02*
X40000Y131816D01*
X54500Y157500D02*
X82500D01*
X50000Y162000D02*
X54500Y157500D01*
X82500Y192500D02*
X110000D01*
X67500D02*
X82500D01*
X118153Y200653D02*
X124818D01*
X125000Y200835D01*
X110000Y192500D02*
X118153Y200653D01*
X125000Y200835D02*
Y202500D01*
X145000Y182500D02*
X176816D01*
X110000D02*
X145000D01*
Y202500D01*
X135000D02*
X145000D01*
X165000D02*
X175000D01*
Y184316D02*
X176816Y182500D01*
X175000Y184316D02*
Y202500D01*
X67500Y182500D02*
X110000D01*
X40000Y155000D02*
Y221816D01*
Y131816D02*
Y155000D01*
X11550Y268050D02*
X123350D01*
X11500Y268000D02*
X11550Y268050D01*
X123350D02*
X123400Y268100D01*
X40000Y221816D02*
X48184Y230000D01*
X38184Y220000D02*
X40000Y221816D01*
X20000Y220000D02*
X38184D01*
X20000Y210000D02*
Y220000D01*
X5500Y55500D02*
Y252593D01*
Y38700D02*
Y55500D01*
X78316Y258000D02*
X78416Y258100D01*
X123400D01*
X86500Y248000D02*
Y249816D01*
X78316Y258000D02*
X86500Y249816D01*
X11500Y258000D02*
X78316D01*
X5500Y252593D02*
X5987D01*
X11394Y258000D01*
X11500D01*
X9200Y16000D02*
Y35000D01*
X5500Y38700D02*
X9200Y35000D01*
X40000Y131816D02*
X48184Y140000D01*
X50000D01*
X48184Y230000D02*
X50000D01*
X224000Y100000D02*
Y182500D01*
Y38500D02*
Y100000D01*
X189316D02*
X224000D01*
X212500Y75000D02*
Y76816D01*
X67500Y100000D02*
X189316D01*
X212500Y76816D01*
X224000Y182500D02*
Y258500D01*
X189316Y182500D02*
X224000D01*
X212500Y157500D02*
Y159316D01*
X189316Y182500D02*
X212500Y159316D01*
X176816Y182500D02*
X189316D01*
X176816D02*
X185000Y174316D01*
Y172500D02*
Y174316D01*
X224000Y258500D02*
Y315184D01*
X200116Y258100D02*
X223600D01*
X224000Y258500D01*
X200116Y258100D02*
X208400Y249816D01*
X170116Y258100D02*
X200116D01*
X208400Y248000D02*
Y249816D01*
X178400Y248000D02*
Y249816D01*
X170116Y258100D02*
X178400Y249816D01*
X123400Y258100D02*
X170116D01*
X59394Y327343D02*
X108606D01*
X109672D02*
X116829Y334500D01*
X126500D01*
X108606Y327343D02*
X109672D01*
X219000Y16200D02*
Y33500D01*
Y16200D02*
X219200Y16000D01*
X219000Y33500D02*
X224000Y38500D01*
X206500Y332684D02*
X224000Y315184D01*
X206500Y332684D02*
Y334500D01*
X196500D02*
X206500D01*
X186500D02*
X196500D01*
X176500D02*
X186500D01*
X166500D02*
X176500D01*
X156500D02*
X166500D01*
X146500D02*
X156500D01*
X136500D02*
X146500D01*
X126500D02*
X136500D01*
D28*
X110000Y192500D02*
D03*
Y182500D02*
D03*
X123400Y268100D02*
D03*
Y258100D02*
D03*
X11500Y268000D02*
D03*
Y258000D02*
D03*
X30000Y155000D02*
D03*
X40000D02*
D03*
X67500Y110000D02*
D03*
Y100000D02*
D03*
Y192500D02*
D03*
Y182500D02*
D03*
X30000Y65000D02*
D03*
X40000D02*
D03*
D29*
X82500Y75000D02*
D03*
Y157500D02*
D03*
X26500Y248000D02*
D03*
X138400D02*
D03*
X125000Y172500D02*
D03*
D30*
X92500Y75000D02*
D03*
X102500D02*
D03*
X112500D02*
D03*
X122500D02*
D03*
X132500D02*
D03*
X142500D02*
D03*
X152500D02*
D03*
X162500D02*
D03*
X172500D02*
D03*
X182500D02*
D03*
X192500D02*
D03*
X202500D02*
D03*
X212500D02*
D03*
X82500Y135000D02*
D03*
X92500D02*
D03*
X102500D02*
D03*
X112500D02*
D03*
X122500D02*
D03*
X132500D02*
D03*
X142500D02*
D03*
X152500D02*
D03*
X162500D02*
D03*
X172500D02*
D03*
X182500D02*
D03*
X192500D02*
D03*
X202500D02*
D03*
X212500D02*
D03*
X92500Y157500D02*
D03*
X102500D02*
D03*
X112500D02*
D03*
X122500D02*
D03*
X132500D02*
D03*
X142500D02*
D03*
X152500D02*
D03*
X162500D02*
D03*
X172500D02*
D03*
X182500D02*
D03*
X192500D02*
D03*
X202500D02*
D03*
X212500D02*
D03*
X82500Y217500D02*
D03*
X92500D02*
D03*
X102500D02*
D03*
X112500D02*
D03*
X122500D02*
D03*
X132500D02*
D03*
X142500D02*
D03*
X152500D02*
D03*
X162500D02*
D03*
X172500D02*
D03*
X182500D02*
D03*
X192500D02*
D03*
X202500D02*
D03*
X212500D02*
D03*
X36500Y248000D02*
D03*
X46500D02*
D03*
X56500D02*
D03*
X66500D02*
D03*
X76500D02*
D03*
X86500D02*
D03*
X26500Y278000D02*
D03*
X36500D02*
D03*
X46500D02*
D03*
X56500D02*
D03*
X66500D02*
D03*
X76500D02*
D03*
X86500D02*
D03*
X138400D02*
D03*
X148400D02*
D03*
Y248000D02*
D03*
X158400D02*
D03*
X168400D02*
D03*
X178400D02*
D03*
X188400D02*
D03*
X198400D02*
D03*
X158400Y278000D02*
D03*
X168400D02*
D03*
X178400D02*
D03*
X188400D02*
D03*
X198400D02*
D03*
X208400D02*
D03*
Y248000D02*
D03*
X135000Y172500D02*
D03*
X145000D02*
D03*
X155000D02*
D03*
X165000D02*
D03*
X175000D02*
D03*
X185000D02*
D03*
X125000Y202500D02*
D03*
X135000D02*
D03*
X145000D02*
D03*
X155000D02*
D03*
X165000D02*
D03*
X175000D02*
D03*
X185000D02*
D03*
D31*
X40000Y52500D02*
D03*
X50000Y162000D02*
D03*
X82500Y192500D02*
D03*
X5500Y38700D02*
D03*
X224000Y38500D02*
D03*
D32*
X12000Y304500D02*
D03*
X126500D02*
D03*
D33*
X22000D02*
D03*
X32000D02*
D03*
X42000D02*
D03*
Y334500D02*
D03*
X32000D02*
D03*
X22000D02*
D03*
X12000D02*
D03*
X126500D02*
D03*
X136500D02*
D03*
X146500D02*
D03*
X156500D02*
D03*
X166500D02*
D03*
X176500D02*
D03*
X186500D02*
D03*
X196500D02*
D03*
X206500D02*
D03*
X216500D02*
D03*
Y304500D02*
D03*
X206500D02*
D03*
X196500D02*
D03*
X186500D02*
D03*
X176500D02*
D03*
X166500D02*
D03*
X156500D02*
D03*
X146500D02*
D03*
X136500D02*
D03*
D34*
X108606Y307658D02*
D03*
X59394D02*
D03*
X108606Y327343D02*
D03*
X59394D02*
D03*
D35*
X50000Y170000D02*
D03*
Y80000D02*
D03*
D36*
Y180000D02*
D03*
Y190000D02*
D03*
Y200000D02*
D03*
Y210000D02*
D03*
Y220000D02*
D03*
Y230000D02*
D03*
X20000Y170000D02*
D03*
Y180000D02*
D03*
Y190000D02*
D03*
Y200000D02*
D03*
Y210000D02*
D03*
Y220000D02*
D03*
Y230000D02*
D03*
X50000Y90000D02*
D03*
Y100000D02*
D03*
Y110000D02*
D03*
Y120000D02*
D03*
Y130000D02*
D03*
Y140000D02*
D03*
X20000Y80000D02*
D03*
Y90000D02*
D03*
Y100000D02*
D03*
Y110000D02*
D03*
Y120000D02*
D03*
Y130000D02*
D03*
Y140000D02*
D03*
D37*
X180413Y58994D02*
D03*
X154500Y32946D02*
D03*
X175500Y64000D02*
D03*
X94471Y33200D02*
D03*
X173286Y35774D02*
D03*
X143500Y66500D02*
D03*
X187437Y52000D02*
D03*
X164500Y32552D02*
D03*
X144500Y32946D02*
D03*
X202500Y168000D02*
D03*
X115000Y297000D02*
D03*
X211417Y232000D02*
D03*
X211500Y290500D02*
D03*
X172025Y285268D02*
D03*
X123400Y278000D02*
D03*
X86000Y324000D02*
D03*
X95000Y301236D02*
D03*
X50500Y258500D02*
D03*
X52500Y292500D02*
D03*
X16000Y287500D02*
D03*
X55000Y55000D02*
D03*
X26500Y41000D02*
D03*
X13500Y54500D02*
D03*
X10000Y166776D02*
D03*
X19722Y148000D02*
D03*
X10000Y140000D02*
D03*
X110407Y172500D02*
D03*
X107452Y205153D02*
D03*
X90500Y201500D02*
D03*
Y177000D02*
D03*
X88500Y148000D02*
D03*
X70500Y135815D02*
D03*
X65898Y117907D02*
D03*
X73597Y65685D02*
D03*
X65500Y73500D02*
D03*
D38*
X92500Y125528D02*
D03*
X51512Y39988D02*
D03*
X122365Y45165D02*
D03*
X127563Y38763D02*
D03*
X122365Y34312D02*
D03*
X127525Y34280D02*
D03*
X13291Y163153D02*
D03*
X72499Y235390D02*
D03*
X95138Y230240D02*
D03*
X76500Y174000D02*
D03*
X59500Y175063D02*
D03*
X100906Y238126D02*
D03*
X66666Y223284D02*
D03*
X76972Y218869D02*
D03*
X160500Y224500D02*
D03*
X161863Y228000D02*
D03*
X121665Y230967D02*
D03*
Y234723D02*
D03*
X212500Y43000D02*
D03*
Y48000D02*
D03*
Y53500D02*
D03*
X118500Y237995D02*
D03*
X97500Y206500D02*
D03*
X42000Y234500D02*
D03*
M02*
