M48
;Layer_Color=9474304
;FILE_FORMAT=2:5
INCH,LZ
;TYPE=PLATED
T1F00S00C0.01181
T2F00S00C0.01968
T3F00S00C0.03000
T4F00S00C0.03150
T5F00S00C0.03937
T6F00S00C0.04724
%
T01
X00362Y0043508
X00547Y00425
X0053817Y00325
X00727Y0046763
X0059125Y0065666
X00932Y0115
X00942Y01435
Y01735
X01277Y0187417
X01392Y01825
X01577Y01855
X01587Y0086
X01542Y0033
X01642
X01737
X01842
X01442
X01337Y0033474
X00102Y0095846
X00297Y02
X00192Y031278
X00452Y02655
X0058117Y0229
X01157Y02545
X02142Y01945
T02
X02092Y0044787
Y00545
X0209315Y0062885
X02127Y01685
Y0175
X00912Y0104165
X0100575Y0048928
X01127Y0055
X011794Y0047375
X0114184Y0035335
X00837Y003276
X00692Y0054
X0062974Y0048
X00587Y00475
X0053817Y0047128
X00392Y00405
X00192Y0048
X00167Y00545
X00272Y00615
X0084719Y0198981
X00882Y02335
X00742Y0229
X0068962Y0225238
X01132Y0225
X01162Y0229
X01187Y02335
X0099035Y0245254
X01012Y02805
X02072Y0279
X0209263Y0223
T03
X00192Y0301
X00292
Y0331
X00192
X00392
X00492
Y0301
X00392
X01292
X01392
X01492
X01592
X01692
X01792
Y0331
X01692
X01592
X01492
X01392
X01292
X01892
X01992
X02092
X02192
Y0301
X02092
X01992
X01892
T04
X01942Y0071
X02042
X02142
Y0131
X02042
X01942
Y0156
X02042
X02142
X01842
X01742
X01642
X01542
X01442
X01342
X01242
X01142
X01042
X00942
X00842
Y0131
X00942
X01042
X01142
X01242
X01342
X01442
X01542
X01642
X01742
X01842
Y0171
X01742
X01642
X01542
X01442
X01342
X01242
X01042Y0181
X00692
X00492
Y0171
Y0161
X00392Y0146
X00492Y0131
Y0121
Y0111
Y0101
Y0091
Y0081
Y0071
X00842
X00942
X01042
X01142
X01242
X01342
X01442
X01542
X01642
X01742
X01842
X00692Y0096
Y0106
X00192Y0111
Y0121
Y0131
X00292Y0146
X00192Y0161
Y0171
Y0181
Y0101
Y0091
Y0081
Y0071
Y0191
Y0201
Y0211
Y0221
X00292Y0236
Y0251
X00192
Y0281
X00292
X00392
X00492
X00592
X00692
X00792
X00942Y0271
Y0261
X00792Y0251
X00692
X00592
X00492
X00392
Y0236
X00492Y0221
Y0211
Y0201
Y0191
X00692
X01042
Y0216
X00942
X00842
X01142
X01242
X01342
X01442
X01542
X01642
X01742
X01842
Y0201
X01742
X01642
X01542
X01442
X01342
X01242
X01292Y0251
X01392
X01492
X01592
X01692
X01792
Y0281
X01692
X01592
X01492
X01392
X01292
X01892
X01992
X02142Y0271
Y0261
X01992Y0251
X01892
X01942Y0216
X02042
X02142
T05
X02227Y00485
X00492Y00555
X0031208Y0048337
X00062Y00485
T06
X0064594Y0306157
Y0325842
X0113806
Y0306157
M30
