G04*
G04 #@! TF.GenerationSoftware,Altium Limited,Altium Designer,21.0.9 (235)*
G04*
G04 Layer_Color=32896*
%FSLAX25Y25*%
%MOIN*%
G70*
G04*
G04 #@! TF.SameCoordinates,B9488A90-FA10-4CA6-9237-5EE1817F1098*
G04*
G04*
G04 #@! TF.FilePolarity,Positive*
G04*
G01*
G75*
G36*
X156599Y118990D02*
X156704D01*
Y118886D01*
X156808D01*
Y118781D01*
Y118677D01*
X156913D01*
Y118572D01*
Y118468D01*
X157017D01*
Y118363D01*
Y118259D01*
Y118155D01*
X157122D01*
Y118050D01*
Y117946D01*
Y117841D01*
X157226D01*
Y117737D01*
Y117632D01*
Y117528D01*
Y117423D01*
Y117319D01*
X157331D01*
Y117214D01*
Y117110D01*
Y117005D01*
Y116901D01*
Y116797D01*
Y116692D01*
Y116588D01*
Y116483D01*
Y116379D01*
X157226D01*
Y116274D01*
Y116170D01*
Y116065D01*
Y115961D01*
Y115856D01*
Y115752D01*
X157122D01*
Y115647D01*
Y115543D01*
Y115438D01*
Y115334D01*
X157017D01*
Y115230D01*
Y115125D01*
X156913D01*
Y115021D01*
Y114916D01*
X156808D01*
Y114812D01*
Y114707D01*
X156704D01*
Y114603D01*
Y114498D01*
X156599D01*
Y114394D01*
X156286D01*
Y114498D01*
X156182D01*
Y114603D01*
Y114707D01*
X156077D01*
Y114812D01*
X156182D01*
Y114916D01*
Y115021D01*
X156286D01*
Y115125D01*
Y115230D01*
X156390D01*
Y115334D01*
Y115438D01*
X156495D01*
Y115543D01*
Y115647D01*
X156599D01*
Y115752D01*
Y115856D01*
Y115961D01*
X156704D01*
Y116065D01*
Y116170D01*
Y116274D01*
Y116379D01*
Y116483D01*
Y116588D01*
Y116692D01*
Y116797D01*
Y116901D01*
Y117005D01*
Y117110D01*
Y117214D01*
Y117319D01*
Y117423D01*
Y117528D01*
X156599D01*
Y117632D01*
Y117737D01*
Y117841D01*
Y117946D01*
X156495D01*
Y118050D01*
Y118155D01*
X156390D01*
Y118259D01*
Y118363D01*
X156286D01*
Y118468D01*
Y118572D01*
X156182D01*
Y118677D01*
Y118781D01*
Y118886D01*
Y118990D01*
X156286D01*
Y119095D01*
X156599D01*
Y118990D01*
D02*
G37*
G36*
X145526D02*
Y118886D01*
X145631D01*
Y118781D01*
Y118677D01*
Y118572D01*
X145526D01*
Y118468D01*
X145422D01*
Y118363D01*
X145317D01*
Y118259D01*
Y118155D01*
X145213D01*
Y118050D01*
Y117946D01*
X145109D01*
Y117841D01*
Y117737D01*
Y117632D01*
Y117528D01*
X145004D01*
Y117423D01*
Y117319D01*
Y117214D01*
Y117110D01*
Y117005D01*
Y116901D01*
Y116797D01*
Y116692D01*
Y116588D01*
Y116483D01*
Y116379D01*
Y116274D01*
Y116170D01*
Y116065D01*
X145109D01*
Y115961D01*
Y115856D01*
Y115752D01*
Y115647D01*
X145213D01*
Y115543D01*
Y115438D01*
X145317D01*
Y115334D01*
Y115230D01*
X145422D01*
Y115125D01*
Y115021D01*
X145526D01*
Y114916D01*
X145631D01*
Y114812D01*
Y114707D01*
Y114603D01*
X145526D01*
Y114498D01*
X145422D01*
Y114394D01*
X145109D01*
Y114498D01*
X145004D01*
Y114603D01*
Y114707D01*
X144900D01*
Y114812D01*
Y114916D01*
X144795D01*
Y115021D01*
X144691D01*
Y115125D01*
Y115230D01*
Y115334D01*
X144586D01*
Y115438D01*
Y115543D01*
Y115647D01*
X144482D01*
Y115752D01*
Y115856D01*
Y115961D01*
Y116065D01*
Y116170D01*
Y116274D01*
Y116379D01*
Y116483D01*
Y116588D01*
Y116692D01*
Y116797D01*
Y116901D01*
Y117005D01*
Y117110D01*
Y117214D01*
X144377D01*
Y117319D01*
X144482D01*
Y117423D01*
Y117528D01*
Y117632D01*
Y117737D01*
Y117841D01*
X144586D01*
Y117946D01*
Y118050D01*
Y118155D01*
X144691D01*
Y118259D01*
Y118363D01*
X144795D01*
Y118468D01*
Y118572D01*
Y118677D01*
X144900D01*
Y118781D01*
Y118886D01*
X145004D01*
Y118990D01*
X145109D01*
Y119095D01*
X145526D01*
Y118990D01*
D02*
G37*
G36*
X158584Y120975D02*
Y120870D01*
X158689D01*
Y120766D01*
X158793D01*
Y120662D01*
Y120557D01*
X158897D01*
Y120453D01*
Y120348D01*
X159002D01*
Y120244D01*
Y120139D01*
X159106D01*
Y120035D01*
Y119930D01*
X159211D01*
Y119826D01*
Y119721D01*
Y119617D01*
Y119512D01*
X159315D01*
Y119408D01*
Y119304D01*
X159420D01*
Y119199D01*
Y119095D01*
Y118990D01*
X159524D01*
Y118886D01*
Y118781D01*
Y118677D01*
Y118572D01*
Y118468D01*
X159629D01*
Y118363D01*
Y118259D01*
Y118155D01*
Y118050D01*
Y117946D01*
X159733D01*
Y117841D01*
Y117737D01*
Y117632D01*
Y117528D01*
Y117423D01*
Y117319D01*
Y117214D01*
Y117110D01*
Y117005D01*
Y116901D01*
Y116797D01*
Y116692D01*
Y116588D01*
Y116483D01*
Y116379D01*
Y116274D01*
Y116170D01*
Y116065D01*
Y115961D01*
Y115856D01*
Y115752D01*
Y115647D01*
X159629D01*
Y115543D01*
Y115438D01*
Y115334D01*
Y115230D01*
Y115125D01*
Y115021D01*
X159524D01*
Y114916D01*
Y114812D01*
Y114707D01*
Y114603D01*
X159420D01*
Y114498D01*
Y114394D01*
Y114289D01*
X159315D01*
Y114185D01*
Y114081D01*
Y113976D01*
Y113872D01*
X159211D01*
Y113767D01*
Y113663D01*
Y113558D01*
X159106D01*
Y113454D01*
Y113349D01*
X159002D01*
Y113245D01*
Y113140D01*
X158897D01*
Y113036D01*
Y112931D01*
X158793D01*
Y112827D01*
X158689D01*
Y112723D01*
Y112618D01*
X158584D01*
Y112514D01*
X158480D01*
Y112409D01*
X158166D01*
Y112514D01*
X158062D01*
Y112618D01*
Y112723D01*
Y112827D01*
Y112931D01*
X158166D01*
Y113036D01*
Y113140D01*
X158271D01*
Y113245D01*
Y113349D01*
X158375D01*
Y113454D01*
X158480D01*
Y113558D01*
Y113663D01*
X158584D01*
Y113767D01*
Y113872D01*
X158689D01*
Y113976D01*
Y114081D01*
Y114185D01*
X158793D01*
Y114289D01*
Y114394D01*
Y114498D01*
X158897D01*
Y114603D01*
Y114707D01*
Y114812D01*
X159002D01*
Y114916D01*
Y115021D01*
Y115125D01*
Y115230D01*
Y115334D01*
X159106D01*
Y115438D01*
Y115543D01*
Y115647D01*
Y115752D01*
Y115856D01*
Y115961D01*
Y116065D01*
X159211D01*
Y116170D01*
Y116274D01*
Y116379D01*
Y116483D01*
Y116588D01*
Y116692D01*
Y116797D01*
Y116901D01*
Y117005D01*
Y117110D01*
Y117214D01*
Y117319D01*
Y117423D01*
Y117528D01*
Y117632D01*
X159106D01*
Y117737D01*
Y117841D01*
Y117946D01*
Y118050D01*
Y118155D01*
Y118259D01*
X159002D01*
Y118363D01*
Y118468D01*
Y118572D01*
Y118677D01*
Y118781D01*
X158897D01*
Y118886D01*
Y118990D01*
X158793D01*
Y119095D01*
Y119199D01*
Y119304D01*
X158689D01*
Y119408D01*
Y119512D01*
Y119617D01*
X158584D01*
Y119721D01*
Y119826D01*
X158480D01*
Y119930D01*
Y120035D01*
X158375D01*
Y120139D01*
Y120244D01*
X158271D01*
Y120348D01*
X158166D01*
Y120453D01*
Y120557D01*
X158062D01*
Y120662D01*
Y120766D01*
Y120870D01*
Y120975D01*
Y121079D01*
X158584D01*
Y120975D01*
D02*
G37*
G36*
X143542D02*
X143646D01*
Y120870D01*
Y120766D01*
Y120662D01*
X143542D01*
Y120557D01*
Y120453D01*
X143437D01*
Y120348D01*
Y120244D01*
X143333D01*
Y120139D01*
X143228D01*
Y120035D01*
Y119930D01*
X143124D01*
Y119826D01*
Y119721D01*
X143019D01*
Y119617D01*
Y119512D01*
Y119408D01*
X142915D01*
Y119304D01*
Y119199D01*
X142810D01*
Y119095D01*
Y118990D01*
Y118886D01*
X142706D01*
Y118781D01*
Y118677D01*
Y118572D01*
Y118468D01*
X142602D01*
Y118363D01*
Y118259D01*
Y118155D01*
Y118050D01*
Y117946D01*
X142497D01*
Y117841D01*
Y117737D01*
Y117632D01*
Y117528D01*
Y117423D01*
Y117319D01*
Y117214D01*
Y117110D01*
Y117005D01*
Y116901D01*
Y116797D01*
Y116692D01*
Y116588D01*
Y116483D01*
Y116379D01*
Y116274D01*
Y116170D01*
Y116065D01*
Y115961D01*
Y115856D01*
Y115752D01*
Y115647D01*
X142602D01*
Y115543D01*
Y115438D01*
Y115334D01*
Y115230D01*
Y115125D01*
Y115021D01*
X142706D01*
Y114916D01*
Y114812D01*
Y114707D01*
X142810D01*
Y114603D01*
Y114498D01*
Y114394D01*
X142915D01*
Y114289D01*
Y114185D01*
Y114081D01*
X143019D01*
Y113976D01*
Y113872D01*
X143124D01*
Y113767D01*
Y113663D01*
X143228D01*
Y113558D01*
Y113454D01*
X143333D01*
Y113349D01*
Y113245D01*
X143437D01*
Y113140D01*
X143542D01*
Y113036D01*
Y112931D01*
X143646D01*
Y112827D01*
Y112723D01*
Y112618D01*
Y112514D01*
X143542D01*
Y112409D01*
X143124D01*
Y112514D01*
Y112618D01*
X143019D01*
Y112723D01*
X142915D01*
Y112827D01*
Y112931D01*
X142810D01*
Y113036D01*
X142706D01*
Y113140D01*
Y113245D01*
X142602D01*
Y113349D01*
Y113454D01*
X142497D01*
Y113558D01*
Y113663D01*
Y113767D01*
X142393D01*
Y113872D01*
Y113976D01*
Y114081D01*
X142288D01*
Y114185D01*
Y114289D01*
Y114394D01*
X142184D01*
Y114498D01*
Y114603D01*
Y114707D01*
Y114812D01*
X142079D01*
Y114916D01*
Y115021D01*
Y115125D01*
Y115230D01*
Y115334D01*
X141975D01*
Y115438D01*
Y115543D01*
Y115647D01*
Y115752D01*
Y115856D01*
Y115961D01*
Y116065D01*
X141870D01*
Y116170D01*
Y116274D01*
Y116379D01*
Y116483D01*
Y116588D01*
Y116692D01*
Y116797D01*
Y116901D01*
Y117005D01*
Y117110D01*
Y117214D01*
Y117319D01*
Y117423D01*
Y117528D01*
X141975D01*
Y117632D01*
Y117737D01*
Y117841D01*
Y117946D01*
Y118050D01*
Y118155D01*
Y118259D01*
X142079D01*
Y118363D01*
Y118468D01*
Y118572D01*
Y118677D01*
Y118781D01*
X142184D01*
Y118886D01*
Y118990D01*
Y119095D01*
Y119199D01*
X142288D01*
Y119304D01*
Y119408D01*
Y119512D01*
X142393D01*
Y119617D01*
Y119721D01*
Y119826D01*
X142497D01*
Y119930D01*
Y120035D01*
X142602D01*
Y120139D01*
Y120244D01*
X142706D01*
Y120348D01*
Y120453D01*
Y120557D01*
X142810D01*
Y120662D01*
X142915D01*
Y120766D01*
X143019D01*
Y120870D01*
Y120975D01*
X143124D01*
Y121079D01*
X143542D01*
Y120975D01*
D02*
G37*
G36*
X160569Y123064D02*
X160673D01*
Y122960D01*
X160778D01*
Y122855D01*
X160882D01*
Y122751D01*
X160987D01*
Y122646D01*
Y122542D01*
X161091D01*
Y122437D01*
Y122333D01*
X161196D01*
Y122229D01*
X161300D01*
Y122124D01*
Y122020D01*
Y121915D01*
X161405D01*
Y121811D01*
Y121706D01*
X161509D01*
Y121602D01*
Y121497D01*
X161614D01*
Y121393D01*
Y121288D01*
Y121184D01*
X161718D01*
Y121079D01*
Y120975D01*
X161822D01*
Y120870D01*
Y120766D01*
Y120662D01*
X161927D01*
Y120557D01*
Y120453D01*
Y120348D01*
Y120244D01*
X162031D01*
Y120139D01*
Y120035D01*
Y119930D01*
Y119826D01*
X162136D01*
Y119721D01*
Y119617D01*
Y119512D01*
Y119408D01*
Y119304D01*
X162240D01*
Y119199D01*
Y119095D01*
Y118990D01*
Y118886D01*
Y118781D01*
X162345D01*
Y118677D01*
Y118572D01*
Y118468D01*
Y118363D01*
Y118259D01*
Y118155D01*
Y118050D01*
X162449D01*
Y117946D01*
Y117841D01*
Y117737D01*
Y117632D01*
Y117528D01*
Y117423D01*
Y117319D01*
Y117214D01*
Y117110D01*
Y117005D01*
Y116901D01*
Y116797D01*
Y116692D01*
Y116588D01*
Y116483D01*
Y116379D01*
Y116274D01*
Y116170D01*
Y116065D01*
Y115961D01*
Y115856D01*
Y115752D01*
Y115647D01*
Y115543D01*
X162345D01*
Y115438D01*
Y115334D01*
Y115230D01*
Y115125D01*
Y115021D01*
Y114916D01*
Y114812D01*
Y114707D01*
X162240D01*
Y114603D01*
Y114498D01*
Y114394D01*
Y114289D01*
Y114185D01*
X162136D01*
Y114081D01*
Y113976D01*
Y113872D01*
Y113767D01*
X162031D01*
Y113663D01*
Y113558D01*
Y113454D01*
Y113349D01*
X161927D01*
Y113245D01*
Y113140D01*
Y113036D01*
X161822D01*
Y112931D01*
X161927D01*
Y112827D01*
X161822D01*
Y112723D01*
Y112618D01*
Y112514D01*
X161718D01*
Y112409D01*
Y112305D01*
X161614D01*
Y112200D01*
Y112096D01*
X161509D01*
Y111991D01*
Y111887D01*
X161405D01*
Y111782D01*
Y111678D01*
Y111573D01*
X161300D01*
Y111469D01*
Y111364D01*
X161196D01*
Y111260D01*
X161091D01*
Y111156D01*
Y111051D01*
X160987D01*
Y110947D01*
Y110842D01*
X160882D01*
Y110738D01*
Y110633D01*
X160778D01*
Y110529D01*
X160673D01*
Y110424D01*
X160256D01*
Y110529D01*
Y110633D01*
X160151D01*
Y110738D01*
Y110842D01*
X160256D01*
Y110947D01*
Y111051D01*
X160360D01*
Y111156D01*
Y111260D01*
X160464D01*
Y111364D01*
X160569D01*
Y111469D01*
Y111573D01*
X160673D01*
Y111678D01*
Y111782D01*
X160778D01*
Y111887D01*
Y111991D01*
X160882D01*
Y112096D01*
Y112200D01*
X160987D01*
Y112305D01*
Y112409D01*
X161091D01*
Y112514D01*
Y112618D01*
X161196D01*
Y112723D01*
Y112827D01*
X161300D01*
Y112931D01*
Y113036D01*
Y113140D01*
Y113245D01*
X161405D01*
Y113349D01*
Y113454D01*
Y113558D01*
Y113663D01*
X161509D01*
Y113767D01*
Y113872D01*
Y113976D01*
X161614D01*
Y114081D01*
Y114185D01*
Y114289D01*
Y114394D01*
Y114498D01*
X161718D01*
Y114603D01*
Y114707D01*
Y114812D01*
Y114916D01*
Y115021D01*
Y115125D01*
X161822D01*
Y115230D01*
Y115334D01*
Y115438D01*
Y115543D01*
Y115647D01*
Y115752D01*
Y115856D01*
Y115961D01*
Y116065D01*
Y116170D01*
X161927D01*
Y116274D01*
Y116379D01*
Y116483D01*
Y116588D01*
Y116692D01*
Y116797D01*
Y116901D01*
Y117005D01*
Y117110D01*
Y117214D01*
Y117319D01*
Y117423D01*
X161822D01*
Y117528D01*
Y117632D01*
Y117737D01*
Y117841D01*
Y117946D01*
Y118050D01*
Y118155D01*
Y118259D01*
Y118363D01*
Y118468D01*
X161718D01*
Y118572D01*
Y118677D01*
Y118781D01*
Y118886D01*
Y118990D01*
X161614D01*
Y119095D01*
Y119199D01*
Y119304D01*
Y119408D01*
Y119512D01*
X161509D01*
Y119617D01*
Y119721D01*
Y119826D01*
X161405D01*
Y119930D01*
Y120035D01*
Y120139D01*
Y120244D01*
Y120348D01*
Y120453D01*
X161300D01*
Y120557D01*
Y120662D01*
X161196D01*
Y120766D01*
Y120870D01*
Y120975D01*
X161091D01*
Y121079D01*
Y121184D01*
X160987D01*
Y121288D01*
Y121393D01*
Y121497D01*
X160882D01*
Y121602D01*
X160778D01*
Y121706D01*
Y121811D01*
X160673D01*
Y121915D01*
Y122020D01*
X160569D01*
Y122124D01*
X160464D01*
Y122229D01*
Y122333D01*
X160360D01*
Y122437D01*
X160256D01*
Y122542D01*
Y122646D01*
Y122751D01*
X160151D01*
Y122855D01*
X160256D01*
Y122960D01*
Y123064D01*
X160360D01*
Y123169D01*
X160569D01*
Y123064D01*
D02*
G37*
G36*
X141348D02*
X141452D01*
Y122960D01*
Y122855D01*
Y122751D01*
Y122646D01*
X141348D01*
Y122542D01*
Y122437D01*
X141244D01*
Y122333D01*
X141139D01*
Y122229D01*
Y122124D01*
X141035D01*
Y122020D01*
Y121915D01*
X140930D01*
Y121811D01*
X140826D01*
Y121706D01*
Y121602D01*
X140721D01*
Y121497D01*
Y121393D01*
X140617D01*
Y121288D01*
Y121184D01*
X140512D01*
Y121079D01*
Y120975D01*
X140408D01*
Y120870D01*
Y120766D01*
Y120662D01*
Y120557D01*
X140303D01*
Y120453D01*
Y120348D01*
Y120244D01*
X140199D01*
Y120139D01*
Y120035D01*
Y119930D01*
Y119826D01*
X140094D01*
Y119721D01*
Y119617D01*
Y119512D01*
X139990D01*
Y119408D01*
Y119304D01*
Y119199D01*
Y119095D01*
X139885D01*
Y118990D01*
Y118886D01*
Y118781D01*
Y118677D01*
X139781D01*
Y118572D01*
Y118468D01*
Y118363D01*
Y118259D01*
Y118155D01*
Y118050D01*
Y117946D01*
Y117841D01*
X139677D01*
Y117737D01*
Y117632D01*
Y117528D01*
Y117423D01*
Y117319D01*
Y117214D01*
Y117110D01*
Y117005D01*
Y116901D01*
Y116797D01*
Y116692D01*
Y116588D01*
Y116483D01*
Y116379D01*
Y116274D01*
Y116170D01*
Y116065D01*
Y115961D01*
Y115856D01*
Y115752D01*
X139781D01*
Y115647D01*
Y115543D01*
Y115438D01*
Y115334D01*
Y115230D01*
Y115125D01*
Y115021D01*
X139885D01*
Y114916D01*
Y114812D01*
Y114707D01*
Y114603D01*
Y114498D01*
X139990D01*
Y114394D01*
Y114289D01*
Y114185D01*
Y114081D01*
Y113976D01*
X140094D01*
Y113872D01*
Y113767D01*
Y113663D01*
X140199D01*
Y113558D01*
Y113454D01*
Y113349D01*
Y113245D01*
X140303D01*
Y113140D01*
Y113036D01*
X140408D01*
Y112931D01*
Y112827D01*
Y112723D01*
X140512D01*
Y112618D01*
Y112514D01*
Y112409D01*
Y112305D01*
X140617D01*
Y112200D01*
X140721D01*
Y112096D01*
Y111991D01*
X140826D01*
Y111887D01*
Y111782D01*
X140930D01*
Y111678D01*
X141035D01*
Y111573D01*
Y111469D01*
Y111364D01*
X141139D01*
Y111260D01*
X141244D01*
Y111156D01*
X141348D01*
Y111051D01*
Y110947D01*
X141452D01*
Y110842D01*
Y110738D01*
Y110633D01*
Y110529D01*
X141348D01*
Y110424D01*
X141244D01*
Y110320D01*
X141139D01*
Y110424D01*
X140930D01*
Y110529D01*
X140826D01*
Y110633D01*
Y110738D01*
X140721D01*
Y110842D01*
Y110947D01*
X140617D01*
Y111051D01*
X140512D01*
Y111156D01*
Y111260D01*
X140408D01*
Y111364D01*
Y111469D01*
X140303D01*
Y111573D01*
X140199D01*
Y111678D01*
Y111782D01*
Y111887D01*
X140094D01*
Y111991D01*
Y112096D01*
X139990D01*
Y112200D01*
Y112305D01*
X139885D01*
Y112409D01*
Y112514D01*
Y112618D01*
X139781D01*
Y112723D01*
Y112827D01*
Y112931D01*
X139677D01*
Y113036D01*
Y113140D01*
Y113245D01*
X139572D01*
Y113349D01*
Y113454D01*
Y113558D01*
X139468D01*
Y113663D01*
Y113767D01*
Y113872D01*
Y113976D01*
Y114081D01*
X139363D01*
Y114185D01*
Y114289D01*
Y114394D01*
Y114498D01*
X139259D01*
Y114603D01*
Y114707D01*
Y114812D01*
Y114916D01*
Y115021D01*
Y115125D01*
Y115230D01*
X139154D01*
Y115334D01*
Y115438D01*
Y115543D01*
Y115647D01*
Y115752D01*
Y115856D01*
Y115961D01*
Y116065D01*
Y116170D01*
Y116274D01*
Y116379D01*
Y116483D01*
Y116588D01*
Y116692D01*
Y116797D01*
Y116901D01*
Y117005D01*
Y117110D01*
Y117214D01*
Y117319D01*
Y117423D01*
Y117528D01*
Y117632D01*
Y117737D01*
Y117841D01*
Y117946D01*
Y118050D01*
Y118155D01*
Y118259D01*
Y118363D01*
X139259D01*
Y118468D01*
Y118572D01*
Y118677D01*
Y118781D01*
Y118886D01*
Y118990D01*
X139363D01*
Y119095D01*
Y119199D01*
Y119304D01*
Y119408D01*
Y119512D01*
X139468D01*
Y119617D01*
Y119721D01*
Y119826D01*
Y119930D01*
X139572D01*
Y120035D01*
Y120139D01*
Y120244D01*
X139677D01*
Y120348D01*
Y120453D01*
Y120557D01*
X139781D01*
Y120662D01*
Y120766D01*
Y120870D01*
Y120975D01*
X139885D01*
Y121079D01*
Y121184D01*
X139990D01*
Y121288D01*
Y121393D01*
Y121497D01*
X140094D01*
Y121602D01*
Y121706D01*
X140199D01*
Y121811D01*
Y121915D01*
X140303D01*
Y122020D01*
Y122124D01*
X140408D01*
Y122229D01*
Y122333D01*
X140512D01*
Y122437D01*
Y122542D01*
X140617D01*
Y122646D01*
X140721D01*
Y122751D01*
Y122855D01*
X140826D01*
Y122960D01*
X140930D01*
Y123064D01*
X141035D01*
Y123169D01*
X141348D01*
Y123064D01*
D02*
G37*
G36*
X121814Y96218D02*
Y96113D01*
X121709D01*
Y96009D01*
Y95904D01*
Y95800D01*
Y95695D01*
X121605D01*
Y95591D01*
Y95486D01*
Y95382D01*
Y95278D01*
X121500D01*
Y95173D01*
Y95069D01*
Y94964D01*
Y94860D01*
X121396D01*
Y94755D01*
Y94651D01*
Y94546D01*
X121291D01*
Y94442D01*
Y94337D01*
Y94233D01*
X121187D01*
Y94128D01*
Y94024D01*
Y93919D01*
Y93815D01*
X121082D01*
Y93711D01*
Y93606D01*
Y93502D01*
X120978D01*
Y93397D01*
Y93293D01*
Y93188D01*
X120874D01*
Y93084D01*
Y92979D01*
Y92875D01*
Y92770D01*
X120769D01*
Y92666D01*
Y92562D01*
Y92457D01*
Y92353D01*
Y92248D01*
X120665D01*
Y92144D01*
Y92039D01*
Y91935D01*
X120560D01*
Y91830D01*
Y91726D01*
Y91621D01*
X120456D01*
Y91517D01*
Y91412D01*
Y91308D01*
Y91203D01*
X120351D01*
Y91099D01*
Y90995D01*
Y90890D01*
X120247D01*
Y90786D01*
Y90681D01*
Y90577D01*
Y90472D01*
X120142D01*
Y90368D01*
Y90263D01*
Y90159D01*
X120038D01*
Y90054D01*
Y89950D01*
Y89846D01*
X119933D01*
Y89741D01*
Y89637D01*
Y89532D01*
Y89428D01*
Y89323D01*
X119829D01*
Y89219D01*
Y89114D01*
Y89010D01*
X119725D01*
Y88905D01*
Y88801D01*
Y88696D01*
Y88592D01*
X119620D01*
Y88487D01*
Y88383D01*
Y88279D01*
X119516D01*
Y88174D01*
Y88070D01*
Y87965D01*
Y87861D01*
X119411D01*
Y87756D01*
Y87652D01*
Y87547D01*
X119307D01*
Y87443D01*
Y87338D01*
Y87234D01*
X119202D01*
Y87129D01*
Y87025D01*
Y86921D01*
Y86816D01*
X119098D01*
Y86712D01*
Y86607D01*
Y86503D01*
X118993D01*
Y86398D01*
Y86294D01*
Y86189D01*
Y86085D01*
Y85980D01*
X118889D01*
Y85876D01*
Y85772D01*
Y85667D01*
Y85563D01*
X118784D01*
Y85458D01*
Y85354D01*
Y85249D01*
X118680D01*
Y85145D01*
Y85040D01*
Y84936D01*
X118575D01*
Y84831D01*
Y84727D01*
Y84622D01*
X118471D01*
Y84518D01*
Y84413D01*
Y84309D01*
Y84205D01*
X118367D01*
Y84100D01*
Y83996D01*
Y83891D01*
X118262D01*
Y83787D01*
Y83682D01*
Y83578D01*
X118158D01*
Y83473D01*
Y83369D01*
Y83264D01*
Y83160D01*
X118053D01*
Y83056D01*
Y82951D01*
Y82847D01*
Y82742D01*
Y82638D01*
X117949D01*
Y82533D01*
Y82429D01*
Y82324D01*
X117844D01*
Y82220D01*
Y82115D01*
Y82011D01*
X117740D01*
Y81906D01*
Y81802D01*
Y81697D01*
Y81593D01*
X117635D01*
Y81489D01*
Y81384D01*
Y81280D01*
X117531D01*
Y81175D01*
Y81071D01*
Y80966D01*
Y80862D01*
X117426D01*
Y80757D01*
Y80653D01*
Y80549D01*
X117322D01*
Y80444D01*
Y80339D01*
Y80235D01*
Y80131D01*
X117217D01*
Y80026D01*
Y79922D01*
Y79817D01*
X113875D01*
Y79922D01*
Y80026D01*
Y80131D01*
X113770D01*
Y80235D01*
Y80339D01*
Y80444D01*
X113666D01*
Y80549D01*
Y80653D01*
Y80757D01*
Y80862D01*
X113561D01*
Y80966D01*
Y81071D01*
Y81175D01*
X113457D01*
Y81280D01*
Y81384D01*
Y81489D01*
Y81593D01*
X113352D01*
Y81697D01*
Y81802D01*
Y81906D01*
X113248D01*
Y82011D01*
Y82115D01*
Y82220D01*
X113143D01*
Y82324D01*
Y82429D01*
Y82533D01*
Y82638D01*
Y82742D01*
Y82847D01*
X113039D01*
Y82951D01*
Y83056D01*
Y83160D01*
X112935D01*
Y83264D01*
Y83369D01*
Y83473D01*
Y83578D01*
X112830D01*
Y83682D01*
Y83787D01*
Y83891D01*
X112726D01*
Y83996D01*
Y84100D01*
Y84205D01*
Y84309D01*
X112621D01*
Y84413D01*
Y84518D01*
Y84622D01*
X112517D01*
Y84727D01*
Y84831D01*
Y84936D01*
X112412D01*
Y85040D01*
Y85145D01*
Y85249D01*
Y85354D01*
X112308D01*
Y85458D01*
Y85563D01*
Y85667D01*
Y85772D01*
Y85876D01*
X112203D01*
Y85980D01*
Y86085D01*
Y86189D01*
Y86294D01*
X112099D01*
Y86398D01*
Y86503D01*
Y86607D01*
X111994D01*
Y86712D01*
Y86816D01*
Y86921D01*
Y87025D01*
X111890D01*
Y87129D01*
Y87234D01*
Y87338D01*
X111785D01*
Y87443D01*
Y87547D01*
Y87652D01*
Y87756D01*
X111681D01*
Y87861D01*
Y87965D01*
Y88070D01*
X111576D01*
Y88174D01*
Y88279D01*
Y88383D01*
X111472D01*
Y88487D01*
Y88592D01*
Y88696D01*
Y88801D01*
X111368D01*
Y88905D01*
Y89010D01*
Y89114D01*
Y89219D01*
Y89323D01*
X111263D01*
Y89428D01*
Y89532D01*
Y89637D01*
Y89741D01*
X111159D01*
Y89846D01*
Y89950D01*
Y90054D01*
X111054D01*
Y90159D01*
Y90263D01*
X110845D01*
Y90159D01*
Y90054D01*
Y89950D01*
X110741D01*
Y89846D01*
Y89741D01*
Y89637D01*
X110636D01*
Y89532D01*
Y89428D01*
Y89323D01*
Y89219D01*
X110532D01*
Y89114D01*
Y89010D01*
Y88905D01*
X110427D01*
Y88801D01*
Y88696D01*
Y88592D01*
Y88487D01*
X110323D01*
Y88383D01*
Y88279D01*
Y88174D01*
Y88070D01*
X110219D01*
Y87965D01*
Y87861D01*
Y87756D01*
X110114D01*
Y87652D01*
Y87547D01*
Y87443D01*
Y87338D01*
X110010D01*
Y87234D01*
X110114D01*
Y87129D01*
X110010D01*
Y87025D01*
Y86921D01*
Y86816D01*
X109905D01*
Y86712D01*
Y86607D01*
Y86503D01*
Y86398D01*
X109801D01*
Y86294D01*
Y86189D01*
Y86085D01*
X109696D01*
Y85980D01*
Y85876D01*
Y85772D01*
Y85667D01*
X109592D01*
Y85563D01*
Y85458D01*
Y85354D01*
Y85249D01*
X109487D01*
Y85145D01*
Y85040D01*
Y84936D01*
X109383D01*
Y84831D01*
Y84727D01*
Y84622D01*
Y84518D01*
X109278D01*
Y84413D01*
Y84309D01*
Y84205D01*
X109174D01*
Y84100D01*
Y83996D01*
Y83891D01*
Y83787D01*
X109070D01*
Y83682D01*
X109174D01*
Y83578D01*
X109070D01*
Y83473D01*
Y83369D01*
Y83264D01*
X108965D01*
Y83160D01*
Y83056D01*
Y82951D01*
Y82847D01*
X108861D01*
Y82742D01*
Y82638D01*
Y82533D01*
X108756D01*
Y82429D01*
Y82324D01*
Y82220D01*
Y82115D01*
X108652D01*
Y82011D01*
Y81906D01*
Y81802D01*
Y81697D01*
X108547D01*
Y81593D01*
Y81489D01*
Y81384D01*
X108443D01*
Y81280D01*
Y81175D01*
Y81071D01*
Y80966D01*
X108338D01*
Y80862D01*
Y80757D01*
Y80653D01*
X108234D01*
Y80549D01*
Y80444D01*
Y80339D01*
Y80235D01*
Y80131D01*
Y80026D01*
X108129D01*
Y79922D01*
Y79817D01*
X104891D01*
Y79922D01*
Y80026D01*
Y80131D01*
X104787D01*
Y80235D01*
Y80339D01*
Y80444D01*
Y80549D01*
X104682D01*
Y80653D01*
Y80757D01*
Y80862D01*
X104578D01*
Y80966D01*
Y81071D01*
Y81175D01*
X104473D01*
Y81280D01*
Y81384D01*
Y81489D01*
X104369D01*
Y81593D01*
Y81697D01*
Y81802D01*
Y81906D01*
X104264D01*
Y82011D01*
Y82115D01*
Y82220D01*
X104160D01*
Y82324D01*
Y82429D01*
Y82533D01*
Y82638D01*
Y82742D01*
X104055D01*
Y82847D01*
Y82951D01*
Y83056D01*
X103951D01*
Y83160D01*
Y83264D01*
Y83369D01*
X103846D01*
Y83473D01*
Y83578D01*
Y83682D01*
Y83787D01*
X103742D01*
Y83891D01*
Y83996D01*
X103638D01*
Y84100D01*
Y84205D01*
Y84309D01*
Y84413D01*
X103533D01*
Y84518D01*
Y84622D01*
Y84727D01*
X103428D01*
Y84831D01*
Y84936D01*
Y85040D01*
X103324D01*
Y85145D01*
Y85249D01*
Y85354D01*
X103220D01*
Y85458D01*
X103324D01*
Y85563D01*
X103220D01*
Y85667D01*
Y85772D01*
Y85876D01*
X103115D01*
Y85980D01*
Y86085D01*
Y86189D01*
Y86294D01*
X103011D01*
Y86398D01*
Y86503D01*
X102906D01*
Y86607D01*
Y86712D01*
Y86816D01*
Y86921D01*
X102802D01*
Y87025D01*
Y87129D01*
Y87234D01*
X102697D01*
Y87338D01*
Y87443D01*
Y87547D01*
X102593D01*
Y87652D01*
Y87756D01*
Y87861D01*
Y87965D01*
X102488D01*
Y88070D01*
Y88174D01*
Y88279D01*
Y88383D01*
X102384D01*
Y88487D01*
Y88592D01*
Y88696D01*
Y88801D01*
X102279D01*
Y88905D01*
Y89010D01*
Y89114D01*
X102175D01*
Y89219D01*
Y89323D01*
Y89428D01*
X102071D01*
Y89532D01*
Y89637D01*
Y89741D01*
X101966D01*
Y89846D01*
Y89950D01*
Y90054D01*
X101862D01*
Y90159D01*
Y90263D01*
Y90368D01*
Y90472D01*
X101757D01*
Y90577D01*
Y90681D01*
Y90786D01*
X101653D01*
Y90890D01*
Y90995D01*
Y91099D01*
X101548D01*
Y91203D01*
Y91308D01*
Y91412D01*
X101444D01*
Y91517D01*
X101548D01*
Y91621D01*
X101444D01*
Y91726D01*
Y91830D01*
Y91935D01*
X101339D01*
Y92039D01*
Y92144D01*
Y92248D01*
X101235D01*
Y92353D01*
Y92457D01*
Y92562D01*
Y92666D01*
X101130D01*
Y92770D01*
Y92875D01*
Y92979D01*
X101026D01*
Y93084D01*
Y93188D01*
Y93293D01*
X100921D01*
Y93397D01*
Y93502D01*
Y93606D01*
X100817D01*
Y93711D01*
Y93815D01*
Y93919D01*
X100713D01*
Y94024D01*
Y94128D01*
Y94233D01*
Y94337D01*
X100608D01*
Y94442D01*
Y94546D01*
Y94651D01*
X100504D01*
Y94755D01*
Y94860D01*
Y94964D01*
Y95069D01*
Y95173D01*
X100399D01*
Y95278D01*
Y95382D01*
Y95486D01*
X100295D01*
Y95591D01*
Y95695D01*
Y95800D01*
X100190D01*
Y95904D01*
Y96009D01*
Y96113D01*
X100086D01*
Y96218D01*
Y96322D01*
X103220D01*
Y96218D01*
Y96113D01*
Y96009D01*
Y95904D01*
X103324D01*
Y95800D01*
Y95695D01*
Y95591D01*
X103428D01*
Y95486D01*
Y95382D01*
Y95278D01*
X103533D01*
Y95173D01*
Y95069D01*
Y94964D01*
Y94860D01*
X103638D01*
Y94755D01*
Y94651D01*
Y94546D01*
X103742D01*
Y94442D01*
Y94337D01*
Y94233D01*
Y94128D01*
X103846D01*
Y94024D01*
Y93919D01*
Y93815D01*
Y93711D01*
X103951D01*
Y93606D01*
Y93502D01*
Y93397D01*
Y93293D01*
X104055D01*
Y93188D01*
Y93084D01*
Y92979D01*
X104160D01*
Y92875D01*
Y92770D01*
Y92666D01*
Y92562D01*
X104264D01*
Y92457D01*
Y92353D01*
Y92248D01*
X104369D01*
Y92144D01*
Y92039D01*
Y91935D01*
X104473D01*
Y91830D01*
Y91726D01*
Y91621D01*
Y91517D01*
X104578D01*
Y91412D01*
Y91308D01*
Y91203D01*
X104682D01*
Y91099D01*
Y90995D01*
Y90890D01*
Y90786D01*
Y90681D01*
X104787D01*
Y90577D01*
Y90472D01*
Y90368D01*
X104891D01*
Y90263D01*
Y90159D01*
Y90054D01*
Y89950D01*
X104996D01*
Y89846D01*
Y89741D01*
Y89637D01*
X105100D01*
Y89532D01*
Y89428D01*
Y89323D01*
Y89219D01*
X105204D01*
Y89114D01*
Y89010D01*
Y88905D01*
X105309D01*
Y88801D01*
Y88696D01*
Y88592D01*
X105413D01*
Y88487D01*
Y88383D01*
Y88279D01*
Y88174D01*
X105518D01*
Y88070D01*
Y87965D01*
Y87861D01*
X105622D01*
Y87756D01*
X105518D01*
Y87652D01*
X105622D01*
Y87547D01*
Y87443D01*
Y87338D01*
X105727D01*
Y87234D01*
Y87129D01*
Y87025D01*
Y86921D01*
X105831D01*
Y86816D01*
Y86712D01*
Y86607D01*
X105936D01*
Y86503D01*
Y86398D01*
Y86294D01*
X106040D01*
Y86189D01*
Y86085D01*
Y85980D01*
X106144D01*
Y85876D01*
Y85772D01*
Y85667D01*
Y85563D01*
X106249D01*
Y85458D01*
Y85354D01*
Y85249D01*
Y85145D01*
X106353D01*
Y85040D01*
Y84936D01*
Y84831D01*
X106458D01*
Y84727D01*
X106353D01*
Y84622D01*
X106562D01*
Y84727D01*
X106667D01*
Y84831D01*
Y84936D01*
X106771D01*
Y85040D01*
Y85145D01*
Y85249D01*
X106876D01*
Y85354D01*
Y85458D01*
Y85563D01*
Y85667D01*
Y85772D01*
Y85876D01*
X106980D01*
Y85980D01*
Y86085D01*
Y86189D01*
X107085D01*
Y86294D01*
Y86398D01*
Y86503D01*
Y86607D01*
X107189D01*
Y86712D01*
Y86816D01*
Y86921D01*
Y87025D01*
X107294D01*
Y87129D01*
Y87234D01*
Y87338D01*
X107398D01*
Y87443D01*
Y87547D01*
Y87652D01*
Y87756D01*
X107502D01*
Y87861D01*
Y87965D01*
Y88070D01*
Y88174D01*
X107607D01*
Y88279D01*
Y88383D01*
Y88487D01*
Y88592D01*
X107711D01*
Y88696D01*
Y88801D01*
Y88905D01*
Y89010D01*
Y89114D01*
X107816D01*
Y89219D01*
Y89323D01*
Y89428D01*
Y89532D01*
X107920D01*
Y89637D01*
Y89741D01*
Y89846D01*
X108025D01*
Y89950D01*
Y90054D01*
Y90159D01*
Y90263D01*
X108129D01*
Y90368D01*
Y90472D01*
Y90577D01*
Y90681D01*
X108234D01*
Y90786D01*
Y90890D01*
Y90995D01*
X108338D01*
Y91099D01*
Y91203D01*
Y91308D01*
Y91412D01*
X108443D01*
Y91517D01*
Y91621D01*
Y91726D01*
Y91830D01*
X108547D01*
Y91935D01*
Y92039D01*
Y92144D01*
Y92248D01*
Y92353D01*
X108652D01*
Y92457D01*
Y92562D01*
Y92666D01*
Y92770D01*
X108756D01*
Y92875D01*
Y92979D01*
Y93084D01*
Y93188D01*
X108861D01*
Y93293D01*
Y93397D01*
Y93502D01*
X108965D01*
Y93606D01*
Y93711D01*
Y93815D01*
Y93919D01*
X109070D01*
Y94024D01*
Y94128D01*
Y94233D01*
Y94337D01*
X109174D01*
Y94442D01*
Y94546D01*
Y94651D01*
X109278D01*
Y94755D01*
Y94860D01*
Y94964D01*
Y95069D01*
X109383D01*
Y95173D01*
Y95278D01*
Y95382D01*
Y95486D01*
X109487D01*
Y95591D01*
Y95695D01*
Y95800D01*
Y95904D01*
Y96009D01*
X109592D01*
Y96113D01*
Y96218D01*
Y96322D01*
X112203D01*
Y96218D01*
Y96113D01*
Y96009D01*
X112308D01*
Y95904D01*
Y95800D01*
Y95695D01*
X112412D01*
Y95591D01*
Y95486D01*
Y95382D01*
Y95278D01*
X112517D01*
Y95173D01*
Y95069D01*
Y94964D01*
X112621D01*
Y94860D01*
Y94755D01*
Y94651D01*
Y94546D01*
X112726D01*
Y94442D01*
Y94337D01*
Y94233D01*
X112830D01*
Y94128D01*
Y94024D01*
Y93919D01*
Y93815D01*
Y93711D01*
X112935D01*
Y93606D01*
Y93502D01*
Y93397D01*
Y93293D01*
X113039D01*
Y93188D01*
Y93084D01*
Y92979D01*
X113143D01*
Y92875D01*
Y92770D01*
Y92666D01*
Y92562D01*
X113248D01*
Y92457D01*
Y92353D01*
Y92248D01*
X113352D01*
Y92144D01*
Y92039D01*
Y91935D01*
X113457D01*
Y91830D01*
Y91726D01*
Y91621D01*
Y91517D01*
X113561D01*
Y91412D01*
Y91308D01*
Y91203D01*
Y91099D01*
Y90995D01*
X113666D01*
Y90890D01*
Y90786D01*
Y90681D01*
Y90577D01*
X113770D01*
Y90472D01*
Y90368D01*
Y90263D01*
X113875D01*
Y90159D01*
Y90054D01*
Y89950D01*
X113979D01*
Y89846D01*
Y89741D01*
Y89637D01*
Y89532D01*
X114084D01*
Y89428D01*
Y89323D01*
Y89219D01*
X114188D01*
Y89114D01*
Y89010D01*
Y88905D01*
Y88801D01*
X114293D01*
Y88696D01*
Y88592D01*
Y88487D01*
X114397D01*
Y88383D01*
Y88279D01*
Y88174D01*
Y88070D01*
X114501D01*
Y87965D01*
Y87861D01*
Y87756D01*
Y87652D01*
Y87547D01*
X114606D01*
Y87443D01*
Y87338D01*
Y87234D01*
X114710D01*
Y87129D01*
Y87025D01*
Y86921D01*
Y86816D01*
X114815D01*
Y86712D01*
Y86607D01*
Y86503D01*
X114919D01*
Y86398D01*
Y86294D01*
Y86189D01*
Y86085D01*
X115024D01*
Y85980D01*
Y85876D01*
Y85772D01*
X115128D01*
Y85667D01*
Y85563D01*
Y85458D01*
Y85354D01*
X115233D01*
Y85249D01*
Y85145D01*
Y85040D01*
X115337D01*
Y84936D01*
Y84831D01*
Y84727D01*
X115442D01*
Y84622D01*
X115546D01*
Y84727D01*
X115650D01*
Y84831D01*
Y84936D01*
Y85040D01*
Y85145D01*
X115755D01*
Y85249D01*
Y85354D01*
Y85458D01*
X115859D01*
Y85563D01*
X115755D01*
Y85667D01*
X115859D01*
Y85772D01*
Y85876D01*
Y85980D01*
X115964D01*
Y86085D01*
Y86189D01*
Y86294D01*
Y86398D01*
X116068D01*
Y86503D01*
Y86607D01*
Y86712D01*
Y86816D01*
X116173D01*
Y86921D01*
Y87025D01*
Y87129D01*
X116277D01*
Y87234D01*
Y87338D01*
Y87443D01*
Y87547D01*
X116382D01*
Y87652D01*
Y87756D01*
Y87861D01*
X116486D01*
Y87965D01*
Y88070D01*
Y88174D01*
Y88279D01*
X116591D01*
Y88383D01*
Y88487D01*
Y88592D01*
Y88696D01*
Y88801D01*
X116695D01*
Y88905D01*
Y89010D01*
X116800D01*
Y89114D01*
X116695D01*
Y89219D01*
X116800D01*
Y89323D01*
Y89428D01*
Y89532D01*
X116904D01*
Y89637D01*
Y89741D01*
Y89846D01*
Y89950D01*
X117008D01*
Y90054D01*
Y90159D01*
Y90263D01*
Y90368D01*
X117113D01*
Y90472D01*
Y90577D01*
Y90681D01*
X117217D01*
Y90786D01*
Y90890D01*
Y90995D01*
Y91099D01*
X117322D01*
Y91203D01*
Y91308D01*
Y91412D01*
X117426D01*
Y91517D01*
Y91621D01*
Y91726D01*
Y91830D01*
X117531D01*
Y91935D01*
Y92039D01*
Y92144D01*
Y92248D01*
Y92353D01*
X117635D01*
Y92457D01*
Y92562D01*
Y92666D01*
Y92770D01*
X117740D01*
Y92875D01*
Y92979D01*
Y93084D01*
Y93188D01*
X117844D01*
Y93293D01*
Y93397D01*
Y93502D01*
X117949D01*
Y93606D01*
Y93711D01*
Y93815D01*
Y93919D01*
X118053D01*
Y94024D01*
Y94128D01*
Y94233D01*
X118158D01*
Y94337D01*
Y94442D01*
Y94546D01*
Y94651D01*
X118262D01*
Y94755D01*
Y94860D01*
Y94964D01*
Y95069D01*
X118367D01*
Y95173D01*
Y95278D01*
Y95382D01*
X118471D01*
Y95486D01*
Y95591D01*
Y95695D01*
Y95800D01*
X118575D01*
Y95904D01*
Y96009D01*
Y96113D01*
Y96218D01*
Y96322D01*
X121814D01*
Y96218D01*
D02*
G37*
G36*
X191803Y95904D02*
Y95800D01*
Y95695D01*
Y95591D01*
Y95486D01*
Y95382D01*
Y95278D01*
Y95173D01*
Y95069D01*
Y94964D01*
Y94860D01*
Y94755D01*
Y94651D01*
Y94546D01*
Y94442D01*
Y94337D01*
Y94233D01*
Y94128D01*
Y94024D01*
Y93919D01*
Y93815D01*
Y93711D01*
Y93606D01*
Y93502D01*
Y93397D01*
Y93293D01*
Y93188D01*
Y93084D01*
Y92979D01*
Y92875D01*
Y92770D01*
Y92666D01*
Y92562D01*
Y92457D01*
Y92353D01*
Y92248D01*
Y92144D01*
Y92039D01*
Y91935D01*
Y91830D01*
Y91726D01*
Y91621D01*
Y91517D01*
Y91412D01*
Y91308D01*
Y91203D01*
Y91099D01*
Y90995D01*
Y90890D01*
Y90786D01*
Y90681D01*
Y90577D01*
Y90472D01*
Y90368D01*
Y90263D01*
Y90159D01*
Y90054D01*
Y89950D01*
Y89846D01*
Y89741D01*
Y89637D01*
Y89532D01*
Y89428D01*
Y89323D01*
Y89219D01*
Y89114D01*
Y89010D01*
Y88905D01*
Y88801D01*
Y88696D01*
Y88592D01*
Y88487D01*
Y88383D01*
Y88279D01*
Y88174D01*
Y88070D01*
Y87965D01*
Y87861D01*
Y87756D01*
Y87652D01*
Y87547D01*
Y87443D01*
Y87338D01*
Y87234D01*
Y87129D01*
Y87025D01*
Y86921D01*
Y86816D01*
Y86712D01*
Y86607D01*
Y86503D01*
Y86398D01*
Y86294D01*
Y86189D01*
Y86085D01*
Y85980D01*
Y85876D01*
Y85772D01*
Y85667D01*
Y85563D01*
Y85458D01*
Y85354D01*
Y85249D01*
Y85145D01*
Y85040D01*
Y84936D01*
Y84831D01*
Y84727D01*
Y84622D01*
Y84518D01*
Y84413D01*
Y84309D01*
Y84205D01*
Y84100D01*
Y83996D01*
Y83891D01*
Y83787D01*
Y83682D01*
Y83578D01*
Y83473D01*
Y83369D01*
Y83264D01*
Y83160D01*
Y83056D01*
Y82951D01*
Y82847D01*
Y82742D01*
Y82638D01*
Y82533D01*
Y82429D01*
Y82324D01*
Y82220D01*
Y82115D01*
Y82011D01*
Y81906D01*
Y81802D01*
Y81697D01*
Y81593D01*
Y81489D01*
Y81384D01*
Y81280D01*
Y81175D01*
Y81071D01*
Y80966D01*
Y80862D01*
Y80757D01*
Y80653D01*
Y80549D01*
Y80444D01*
Y80339D01*
Y80235D01*
Y80131D01*
Y80026D01*
Y79922D01*
Y79817D01*
X180939D01*
Y79922D01*
X180521D01*
Y80026D01*
X180208D01*
Y80131D01*
X179894D01*
Y80235D01*
X179790D01*
Y80339D01*
X179581D01*
Y80444D01*
X179476D01*
Y80549D01*
X179372D01*
Y80653D01*
X179267D01*
Y80757D01*
Y80862D01*
X179163D01*
Y80966D01*
X179059D01*
Y81071D01*
Y81175D01*
X178954D01*
Y81280D01*
Y81384D01*
Y81489D01*
X178850D01*
Y81593D01*
Y81697D01*
Y81802D01*
Y81906D01*
Y82011D01*
X178745D01*
Y82115D01*
Y82220D01*
Y82324D01*
Y82429D01*
Y82533D01*
Y82638D01*
Y82742D01*
Y82847D01*
Y82951D01*
Y83056D01*
Y83160D01*
Y83264D01*
Y83369D01*
Y83473D01*
Y83578D01*
Y83682D01*
Y83787D01*
Y83891D01*
Y83996D01*
Y84100D01*
Y84205D01*
Y84309D01*
Y84413D01*
Y84518D01*
Y84622D01*
Y84727D01*
Y84831D01*
Y84936D01*
Y85040D01*
Y85145D01*
Y85249D01*
Y85354D01*
Y85458D01*
Y85563D01*
Y85667D01*
Y85772D01*
Y85876D01*
Y85980D01*
Y86085D01*
Y86189D01*
Y86294D01*
Y86398D01*
Y86503D01*
Y86607D01*
Y86712D01*
Y86816D01*
Y86921D01*
Y87025D01*
Y87129D01*
Y87234D01*
Y87338D01*
Y87443D01*
Y87547D01*
Y87652D01*
Y87756D01*
Y87861D01*
Y87965D01*
Y88070D01*
Y88174D01*
Y88279D01*
Y88383D01*
Y88487D01*
Y88592D01*
Y88696D01*
Y88801D01*
Y88905D01*
Y89010D01*
Y89114D01*
Y89219D01*
Y89323D01*
Y89428D01*
Y89532D01*
Y89637D01*
Y89741D01*
Y89846D01*
Y89950D01*
Y90054D01*
Y90159D01*
Y90263D01*
Y90368D01*
Y90472D01*
Y90577D01*
Y90681D01*
Y90786D01*
Y90890D01*
Y90995D01*
Y91099D01*
Y91203D01*
Y91308D01*
Y91412D01*
Y91517D01*
Y91621D01*
Y91726D01*
Y91830D01*
Y91935D01*
Y92039D01*
Y92144D01*
Y92248D01*
Y92353D01*
Y92457D01*
Y92562D01*
Y92666D01*
Y92770D01*
Y92875D01*
Y92979D01*
Y93084D01*
Y93188D01*
Y93293D01*
Y93397D01*
Y93502D01*
Y93606D01*
Y93711D01*
X178850D01*
Y93815D01*
Y93919D01*
Y94024D01*
X178954D01*
Y94128D01*
Y94233D01*
Y94337D01*
X179059D01*
Y94442D01*
Y94546D01*
X179163D01*
Y94651D01*
X179267D01*
Y94755D01*
Y94860D01*
X179372D01*
Y94964D01*
X179476D01*
Y95069D01*
X179581D01*
Y95173D01*
X179685D01*
Y95278D01*
X179790D01*
Y95382D01*
X179999D01*
Y95486D01*
X180103D01*
Y95591D01*
X180312D01*
Y95695D01*
X180521D01*
Y95800D01*
X180730D01*
Y95904D01*
X181148D01*
Y96009D01*
X191803D01*
Y95904D01*
D02*
G37*
G36*
X175716Y95800D02*
Y95695D01*
Y95591D01*
Y95486D01*
Y95382D01*
Y95278D01*
Y95173D01*
Y95069D01*
Y94964D01*
Y94860D01*
Y94755D01*
Y94651D01*
Y94546D01*
Y94442D01*
Y94337D01*
Y94233D01*
Y94128D01*
Y94024D01*
Y93919D01*
Y93815D01*
Y93711D01*
Y93606D01*
Y93502D01*
Y93397D01*
Y93293D01*
Y93188D01*
Y93084D01*
Y92979D01*
Y92875D01*
Y92770D01*
Y92666D01*
Y92562D01*
Y92457D01*
Y92353D01*
Y92248D01*
Y92144D01*
Y92039D01*
Y91935D01*
Y91830D01*
Y91726D01*
Y91621D01*
Y91517D01*
Y91412D01*
Y91308D01*
Y91203D01*
Y91099D01*
Y90995D01*
Y90890D01*
Y90786D01*
Y90681D01*
Y90577D01*
Y90472D01*
Y90368D01*
Y90263D01*
Y90159D01*
Y90054D01*
Y89950D01*
Y89846D01*
Y89741D01*
Y89637D01*
Y89532D01*
Y89428D01*
Y89323D01*
Y89219D01*
Y89114D01*
Y89010D01*
Y88905D01*
Y88801D01*
Y88696D01*
Y88592D01*
Y88487D01*
Y88383D01*
Y88279D01*
Y88174D01*
Y88070D01*
Y87965D01*
Y87861D01*
Y87756D01*
Y87652D01*
Y87547D01*
Y87443D01*
Y87338D01*
Y87234D01*
Y87129D01*
Y87025D01*
Y86921D01*
Y86816D01*
Y86712D01*
Y86607D01*
Y86503D01*
Y86398D01*
Y86294D01*
Y86189D01*
Y86085D01*
Y85980D01*
Y85876D01*
Y85772D01*
Y85667D01*
Y85563D01*
Y85458D01*
Y85354D01*
Y85249D01*
Y85145D01*
Y85040D01*
Y84936D01*
Y84831D01*
Y84727D01*
Y84622D01*
Y84518D01*
Y84413D01*
Y84309D01*
Y84205D01*
Y84100D01*
Y83996D01*
Y83891D01*
Y83787D01*
Y83682D01*
Y83578D01*
Y83473D01*
Y83369D01*
Y83264D01*
Y83160D01*
Y83056D01*
Y82951D01*
Y82847D01*
Y82742D01*
Y82638D01*
Y82533D01*
Y82429D01*
Y82324D01*
Y82220D01*
Y82115D01*
Y82011D01*
Y81906D01*
Y81802D01*
Y81697D01*
Y81593D01*
Y81489D01*
Y81384D01*
Y81280D01*
Y81175D01*
Y81071D01*
Y80966D01*
Y80862D01*
Y80757D01*
Y80653D01*
Y80549D01*
Y80444D01*
Y80339D01*
Y80235D01*
Y80131D01*
Y80026D01*
Y79922D01*
Y79817D01*
X165270D01*
Y79922D01*
Y80026D01*
Y80131D01*
Y80235D01*
Y80339D01*
Y80444D01*
Y80549D01*
Y80653D01*
Y80757D01*
Y80862D01*
Y80966D01*
Y81071D01*
Y81175D01*
Y81280D01*
Y81384D01*
Y81489D01*
Y81593D01*
Y81697D01*
Y81802D01*
Y81906D01*
Y82011D01*
Y82115D01*
Y82220D01*
Y82324D01*
Y82429D01*
Y82533D01*
X172686D01*
Y82638D01*
Y82742D01*
Y82847D01*
Y82951D01*
Y83056D01*
Y83160D01*
Y83264D01*
Y83369D01*
Y83473D01*
Y83578D01*
Y83682D01*
Y83787D01*
Y83891D01*
Y83996D01*
Y84100D01*
Y84205D01*
Y84309D01*
Y84413D01*
Y84518D01*
Y84622D01*
Y84727D01*
Y84831D01*
Y84936D01*
Y85040D01*
Y85145D01*
Y85249D01*
Y85354D01*
Y85458D01*
Y85563D01*
Y85667D01*
Y85772D01*
Y85876D01*
Y85980D01*
Y86085D01*
Y86189D01*
Y86294D01*
Y86398D01*
Y86503D01*
Y86607D01*
Y86712D01*
Y86816D01*
Y86921D01*
Y87025D01*
Y87129D01*
Y87234D01*
Y87338D01*
Y87443D01*
Y87547D01*
Y87652D01*
Y87756D01*
Y87861D01*
Y87965D01*
Y88070D01*
Y88174D01*
Y88279D01*
Y88383D01*
Y88487D01*
Y88592D01*
Y88696D01*
Y88801D01*
Y88905D01*
Y89010D01*
Y89114D01*
Y89219D01*
Y89323D01*
Y89428D01*
Y89532D01*
Y89637D01*
Y89741D01*
Y89846D01*
Y89950D01*
Y90054D01*
Y90159D01*
Y90263D01*
Y90368D01*
Y90472D01*
Y90577D01*
Y90681D01*
Y90786D01*
Y90890D01*
Y90995D01*
Y91099D01*
Y91203D01*
Y91308D01*
Y91412D01*
Y91517D01*
Y91621D01*
Y91726D01*
Y91830D01*
Y91935D01*
Y92039D01*
Y92144D01*
Y92248D01*
Y92353D01*
Y92457D01*
Y92562D01*
Y92666D01*
Y92770D01*
Y92875D01*
Y92979D01*
Y93084D01*
Y93188D01*
Y93293D01*
Y93397D01*
Y93502D01*
Y93606D01*
Y93711D01*
Y93815D01*
Y93919D01*
Y94024D01*
Y94128D01*
Y94233D01*
Y94337D01*
Y94442D01*
Y94546D01*
Y94651D01*
Y94755D01*
Y94860D01*
Y94964D01*
Y95069D01*
Y95173D01*
Y95278D01*
Y95382D01*
Y95486D01*
Y95591D01*
Y95695D01*
Y95800D01*
Y95904D01*
X175716D01*
Y95800D01*
D02*
G37*
G36*
X152003Y120139D02*
X152421D01*
Y120035D01*
X152734D01*
Y119930D01*
X152943D01*
Y119826D01*
X153152D01*
Y119721D01*
X153257D01*
Y119617D01*
X153465D01*
Y119512D01*
X153570D01*
Y119408D01*
X153779D01*
Y119304D01*
X153883D01*
Y119199D01*
X153988D01*
Y119095D01*
X154092D01*
Y118990D01*
X154197D01*
Y118886D01*
Y118781D01*
X154301D01*
Y118677D01*
X154406D01*
Y118572D01*
X154510D01*
Y118468D01*
Y118363D01*
X154615D01*
Y118259D01*
X154719D01*
Y118155D01*
Y118050D01*
X154824D01*
Y117946D01*
X154719D01*
Y117841D01*
X154824D01*
Y117737D01*
Y117632D01*
Y117528D01*
X154928D01*
Y117423D01*
Y117319D01*
Y117214D01*
Y117110D01*
X155032D01*
Y117005D01*
Y116901D01*
Y116797D01*
Y116692D01*
Y116588D01*
Y116483D01*
X154928D01*
Y116379D01*
Y116274D01*
Y116170D01*
Y116065D01*
Y115961D01*
X154824D01*
Y115856D01*
Y115752D01*
Y115647D01*
Y115543D01*
X154719D01*
Y115438D01*
Y115334D01*
Y115230D01*
X154615D01*
Y115125D01*
X154510D01*
Y115021D01*
Y114916D01*
X154406D01*
Y114812D01*
Y114707D01*
X154197D01*
Y114603D01*
Y114498D01*
X154092D01*
Y114394D01*
X153988D01*
Y114289D01*
X153883D01*
Y114185D01*
X153779D01*
Y114081D01*
X153570D01*
Y113976D01*
X153465D01*
Y113872D01*
X153361D01*
Y113767D01*
X153152D01*
Y113663D01*
X152943D01*
Y113558D01*
X152839D01*
Y113454D01*
Y113349D01*
Y113245D01*
X152943D01*
Y113140D01*
X153048D01*
Y113036D01*
Y112931D01*
X153152D01*
Y112827D01*
X153257D01*
Y112723D01*
Y112618D01*
X153361D01*
Y112514D01*
Y112409D01*
X153465D01*
Y112305D01*
Y112200D01*
X153570D01*
Y112096D01*
X153674D01*
Y111991D01*
Y111887D01*
Y111782D01*
X153779D01*
Y111678D01*
Y111573D01*
X153883D01*
Y111469D01*
Y111364D01*
X153988D01*
Y111260D01*
Y111156D01*
Y111051D01*
X154092D01*
Y110947D01*
Y110842D01*
Y110738D01*
X154197D01*
Y110633D01*
Y110529D01*
X154301D01*
Y110424D01*
Y110320D01*
Y110215D01*
X154406D01*
Y110111D01*
Y110006D01*
Y109902D01*
X154510D01*
Y109798D01*
Y109693D01*
Y109589D01*
X154615D01*
Y109484D01*
Y109380D01*
Y109275D01*
X154719D01*
Y109171D01*
Y109066D01*
Y108962D01*
X154824D01*
Y108858D01*
Y108753D01*
Y108649D01*
Y108544D01*
X154928D01*
Y108440D01*
Y108335D01*
Y108231D01*
X155032D01*
Y108126D01*
Y108022D01*
Y107917D01*
X155137D01*
Y107813D01*
Y107708D01*
Y107604D01*
X155241D01*
Y107500D01*
Y107395D01*
X155346D01*
Y107290D01*
Y107186D01*
Y107082D01*
X155450D01*
Y106977D01*
Y106873D01*
Y106768D01*
X155555D01*
Y106664D01*
Y106559D01*
Y106455D01*
X155659D01*
Y106350D01*
Y106246D01*
Y106141D01*
Y106037D01*
X155764D01*
Y105932D01*
Y105828D01*
Y105724D01*
X155868D01*
Y105619D01*
Y105515D01*
Y105410D01*
X155973D01*
Y105306D01*
Y105201D01*
Y105097D01*
X156077D01*
Y104992D01*
Y104888D01*
X156182D01*
Y104783D01*
Y104679D01*
Y104575D01*
X156286D01*
Y104470D01*
Y104366D01*
Y104261D01*
X156390D01*
Y104157D01*
Y104052D01*
Y103948D01*
X156495D01*
Y103843D01*
Y103739D01*
Y103634D01*
X156599D01*
Y103530D01*
Y103426D01*
Y103321D01*
Y103217D01*
X156704D01*
Y103112D01*
Y103008D01*
Y102903D01*
X156808D01*
Y102799D01*
Y102694D01*
Y102590D01*
X156913D01*
Y102485D01*
Y102381D01*
Y102276D01*
X157017D01*
Y102172D01*
Y102067D01*
X157122D01*
Y101963D01*
Y101859D01*
Y101754D01*
X157226D01*
Y101650D01*
Y101545D01*
Y101441D01*
X157331D01*
Y101336D01*
Y101232D01*
Y101127D01*
X157435D01*
Y101023D01*
Y100918D01*
Y100814D01*
Y100709D01*
X157539D01*
Y100605D01*
Y100501D01*
Y100396D01*
X157644D01*
Y100292D01*
Y100187D01*
Y100083D01*
X157748D01*
Y99978D01*
Y99874D01*
Y99769D01*
X157853D01*
Y99665D01*
Y99560D01*
Y99456D01*
X157957D01*
Y99352D01*
Y99247D01*
X158062D01*
Y99143D01*
Y99038D01*
Y98934D01*
X158166D01*
Y98829D01*
Y98725D01*
Y98620D01*
X158271D01*
Y98516D01*
Y98411D01*
Y98307D01*
X158375D01*
Y98202D01*
Y98098D01*
Y97993D01*
Y97889D01*
X158480D01*
Y97785D01*
Y97680D01*
Y97576D01*
X158584D01*
Y97471D01*
Y97367D01*
Y97262D01*
X158689D01*
Y97158D01*
Y97053D01*
Y96949D01*
X158793D01*
Y96844D01*
Y96740D01*
X158897D01*
Y96636D01*
Y96531D01*
Y96427D01*
X159002D01*
Y96322D01*
Y96218D01*
Y96113D01*
X159106D01*
Y96009D01*
Y95904D01*
Y95800D01*
X159211D01*
Y95695D01*
Y95591D01*
Y95486D01*
Y95382D01*
X159315D01*
Y95278D01*
Y95173D01*
Y95069D01*
X159420D01*
Y94964D01*
Y94860D01*
Y94755D01*
X159524D01*
Y94651D01*
Y94546D01*
X159629D01*
Y94442D01*
Y94337D01*
Y94233D01*
Y94128D01*
X159733D01*
Y94024D01*
Y93919D01*
Y93815D01*
X159838D01*
Y93711D01*
Y93606D01*
Y93502D01*
X159942D01*
Y93397D01*
Y93293D01*
Y93188D01*
X160047D01*
Y93084D01*
Y92979D01*
Y92875D01*
Y92770D01*
X160151D01*
Y92666D01*
Y92562D01*
Y92457D01*
X160256D01*
Y92353D01*
Y92248D01*
X160360D01*
Y92144D01*
Y92039D01*
Y91935D01*
X160464D01*
Y91830D01*
Y91726D01*
Y91621D01*
X160569D01*
Y91517D01*
Y91412D01*
Y91308D01*
X160673D01*
Y91203D01*
Y91099D01*
Y90995D01*
X160778D01*
Y90890D01*
Y90786D01*
Y90681D01*
X160882D01*
Y90577D01*
Y90472D01*
Y90368D01*
X160987D01*
Y90263D01*
Y90159D01*
X161091D01*
Y90054D01*
Y89950D01*
Y89846D01*
X161196D01*
Y89741D01*
Y89637D01*
Y89532D01*
X161300D01*
Y89428D01*
Y89323D01*
Y89219D01*
X161405D01*
Y89114D01*
Y89010D01*
Y88905D01*
X161509D01*
Y88801D01*
Y88696D01*
Y88592D01*
X161614D01*
Y88487D01*
Y88383D01*
Y88279D01*
X161718D01*
Y88174D01*
Y88070D01*
Y87965D01*
X161822D01*
Y87861D01*
Y87756D01*
Y87652D01*
X161927D01*
Y87547D01*
X161822D01*
Y87443D01*
X161927D01*
Y87338D01*
Y87234D01*
Y87129D01*
X162031D01*
Y87025D01*
Y86921D01*
X162136D01*
Y86816D01*
Y86712D01*
Y86607D01*
X162240D01*
Y86503D01*
Y86398D01*
Y86294D01*
X162345D01*
Y86189D01*
Y86085D01*
Y85980D01*
X162449D01*
Y85876D01*
Y85772D01*
X162554D01*
Y85667D01*
Y85563D01*
Y85458D01*
X162658D01*
Y85354D01*
Y85249D01*
Y85145D01*
Y85040D01*
X162762D01*
Y84936D01*
Y84831D01*
Y84727D01*
Y84622D01*
X162867D01*
Y84518D01*
Y84413D01*
Y84309D01*
X162971D01*
Y84205D01*
Y84100D01*
X163076D01*
Y83996D01*
Y83891D01*
Y83787D01*
X163180D01*
Y83682D01*
Y83578D01*
Y83473D01*
X163285D01*
Y83369D01*
Y83264D01*
Y83160D01*
X163389D01*
Y83056D01*
Y82951D01*
X163494D01*
Y82847D01*
Y82742D01*
Y82638D01*
X163598D01*
Y82533D01*
Y82429D01*
Y82324D01*
X163703D01*
Y82220D01*
X163598D01*
Y82115D01*
X163703D01*
Y82011D01*
Y81906D01*
Y81802D01*
X163807D01*
Y81697D01*
Y81593D01*
X163912D01*
Y81489D01*
Y81384D01*
Y81280D01*
X164016D01*
Y81175D01*
Y81071D01*
Y80966D01*
X164120D01*
Y80862D01*
Y80757D01*
Y80653D01*
X164225D01*
Y80549D01*
Y80444D01*
X164329D01*
Y80339D01*
Y80235D01*
Y80131D01*
X164434D01*
Y80026D01*
Y79922D01*
Y79817D01*
X162867D01*
Y79922D01*
Y80026D01*
X162762D01*
Y80131D01*
Y80235D01*
Y80339D01*
X162658D01*
Y80444D01*
Y80549D01*
Y80653D01*
Y80757D01*
X162554D01*
Y80862D01*
Y80966D01*
Y81071D01*
X162449D01*
Y81175D01*
Y81280D01*
X162345D01*
Y81384D01*
Y81489D01*
Y81593D01*
X162240D01*
Y81697D01*
Y81802D01*
Y81906D01*
Y82011D01*
Y82115D01*
X162136D01*
Y82220D01*
Y82324D01*
Y82429D01*
X162031D01*
Y82533D01*
Y82638D01*
Y82742D01*
X161927D01*
Y82847D01*
Y82951D01*
X161822D01*
Y83056D01*
Y83160D01*
Y83264D01*
X161718D01*
Y83369D01*
Y83473D01*
Y83578D01*
X161614D01*
Y83682D01*
Y83787D01*
Y83891D01*
X161509D01*
Y83996D01*
Y84100D01*
Y84205D01*
X161405D01*
Y84309D01*
Y84413D01*
Y84518D01*
Y84622D01*
X161300D01*
Y84727D01*
Y84831D01*
Y84936D01*
X161196D01*
Y85040D01*
Y85145D01*
Y85249D01*
X161091D01*
Y85354D01*
Y85458D01*
Y85563D01*
X160987D01*
Y85667D01*
Y85772D01*
X160882D01*
Y85876D01*
Y85980D01*
Y86085D01*
X160778D01*
Y86189D01*
Y86294D01*
Y86398D01*
X160673D01*
Y86503D01*
Y86607D01*
Y86712D01*
X160569D01*
Y86816D01*
Y86921D01*
X160464D01*
Y87025D01*
X160569D01*
Y87129D01*
X160464D01*
Y87234D01*
Y87338D01*
Y87443D01*
X160360D01*
Y87547D01*
Y87652D01*
Y87756D01*
X160256D01*
Y87861D01*
Y87965D01*
Y88070D01*
X160151D01*
Y88174D01*
Y88279D01*
X160047D01*
Y88383D01*
Y88487D01*
Y88592D01*
X159942D01*
Y88696D01*
Y88801D01*
Y88905D01*
X159838D01*
Y89010D01*
Y89114D01*
Y89219D01*
X159733D01*
Y89323D01*
Y89428D01*
Y89532D01*
X159629D01*
Y89637D01*
Y89741D01*
Y89846D01*
X159524D01*
Y89950D01*
Y90054D01*
Y90159D01*
Y90263D01*
X159420D01*
Y90368D01*
Y90472D01*
Y90577D01*
X159315D01*
Y90681D01*
Y90786D01*
Y90890D01*
X159211D01*
Y90995D01*
Y91099D01*
X159106D01*
Y91203D01*
Y91308D01*
Y91412D01*
X159002D01*
Y91517D01*
Y91621D01*
Y91726D01*
X158897D01*
Y91830D01*
Y91935D01*
Y92039D01*
X158793D01*
Y92144D01*
Y92248D01*
Y92353D01*
X158689D01*
Y92457D01*
Y92562D01*
Y92666D01*
Y92770D01*
X158584D01*
Y92875D01*
Y92979D01*
Y93084D01*
X158480D01*
Y93188D01*
Y93293D01*
Y93397D01*
X158375D01*
Y93502D01*
Y93606D01*
Y93711D01*
X158271D01*
Y93815D01*
Y93919D01*
Y94024D01*
X158166D01*
Y94128D01*
Y94233D01*
Y94337D01*
X158062D01*
Y94442D01*
Y94546D01*
Y94651D01*
X157957D01*
Y94755D01*
Y94860D01*
X157853D01*
Y94964D01*
Y95069D01*
Y95173D01*
X157748D01*
Y95278D01*
Y95382D01*
Y95486D01*
Y95591D01*
X157644D01*
Y95695D01*
Y95800D01*
X157539D01*
Y95904D01*
X157435D01*
Y96009D01*
Y96113D01*
X157331D01*
Y96218D01*
X157226D01*
Y96322D01*
X157017D01*
Y96427D01*
X156808D01*
Y96531D01*
X156704D01*
Y96636D01*
X156599D01*
Y96740D01*
X156495D01*
Y96844D01*
X156390D01*
Y96949D01*
X156182D01*
Y97053D01*
X156077D01*
Y97158D01*
X155973D01*
Y97262D01*
X155868D01*
Y97367D01*
X155659D01*
Y97471D01*
X155555D01*
Y97576D01*
X155450D01*
Y97680D01*
X155346D01*
Y97785D01*
X155137D01*
Y97889D01*
X155032D01*
Y97993D01*
X154928D01*
Y98098D01*
X154719D01*
Y98202D01*
X154615D01*
Y98307D01*
X154510D01*
Y98411D01*
X154301D01*
Y98516D01*
X154197D01*
Y98620D01*
X154092D01*
Y98725D01*
X153883D01*
Y98829D01*
X153779D01*
Y98934D01*
X153674D01*
Y99038D01*
X153465D01*
Y99143D01*
X153361D01*
Y99247D01*
X153257D01*
Y99352D01*
X153048D01*
Y99456D01*
X152943D01*
Y99560D01*
X152839D01*
Y99665D01*
X152630D01*
Y99769D01*
X152525D01*
Y99874D01*
X152421D01*
Y99978D01*
X152316D01*
Y100083D01*
X152108D01*
Y100187D01*
X152003D01*
Y100292D01*
X151899D01*
Y100396D01*
X151794D01*
Y100501D01*
X151585D01*
Y100605D01*
X151481D01*
Y100709D01*
X151376D01*
Y100814D01*
X150854D01*
Y100709D01*
X150750D01*
Y100605D01*
X150645D01*
Y100501D01*
X150541D01*
Y100396D01*
X150332D01*
Y100292D01*
X150227D01*
Y100187D01*
X150123D01*
Y100083D01*
X150018D01*
Y99978D01*
X149809D01*
Y99874D01*
X149705D01*
Y99769D01*
X149600D01*
Y99665D01*
X149391D01*
Y99560D01*
X149287D01*
Y99456D01*
X149183D01*
Y99352D01*
X149078D01*
Y99247D01*
X148869D01*
Y99143D01*
X148765D01*
Y99038D01*
X148660D01*
Y98934D01*
X148556D01*
Y98829D01*
X148451D01*
Y98725D01*
X148347D01*
Y98620D01*
X148138D01*
Y98516D01*
X148033D01*
Y98411D01*
X147929D01*
Y98307D01*
X147720D01*
Y98202D01*
X147616D01*
Y98098D01*
X147511D01*
Y97993D01*
X147407D01*
Y97889D01*
X147198D01*
Y97785D01*
X147093D01*
Y97680D01*
X146989D01*
Y97576D01*
X146884D01*
Y97471D01*
X146676D01*
Y97367D01*
X146571D01*
Y97262D01*
X146467D01*
Y97158D01*
X146362D01*
Y97053D01*
X146153D01*
Y96949D01*
X146049D01*
Y96844D01*
X145944D01*
Y96740D01*
X145840D01*
Y96636D01*
X145631D01*
Y96531D01*
X145526D01*
Y96427D01*
X145422D01*
Y96322D01*
X145213D01*
Y96218D01*
X145109D01*
Y96113D01*
X145004D01*
Y96009D01*
X144795D01*
Y95904D01*
X144691D01*
Y95800D01*
X144586D01*
Y95695D01*
Y95591D01*
X144482D01*
Y95486D01*
X144377D01*
Y95382D01*
Y95278D01*
X144273D01*
Y95173D01*
Y95069D01*
Y94964D01*
X144168D01*
Y94860D01*
Y94755D01*
Y94651D01*
X144064D01*
Y94546D01*
Y94442D01*
Y94337D01*
Y94233D01*
X143959D01*
Y94128D01*
Y94024D01*
Y93919D01*
X143855D01*
Y93815D01*
Y93711D01*
Y93606D01*
X143751D01*
Y93502D01*
Y93397D01*
Y93293D01*
X143646D01*
Y93188D01*
Y93084D01*
Y92979D01*
X143542D01*
Y92875D01*
Y92770D01*
X143437D01*
Y92666D01*
Y92562D01*
Y92457D01*
X143333D01*
Y92353D01*
Y92248D01*
Y92144D01*
Y92039D01*
X143228D01*
Y91935D01*
Y91830D01*
Y91726D01*
X143124D01*
Y91621D01*
Y91517D01*
Y91412D01*
Y91308D01*
X143019D01*
Y91203D01*
Y91099D01*
Y90995D01*
X142915D01*
Y90890D01*
Y90786D01*
X142810D01*
Y90681D01*
Y90577D01*
Y90472D01*
X142706D01*
Y90368D01*
Y90263D01*
Y90159D01*
X142602D01*
Y90054D01*
Y89950D01*
Y89846D01*
X142497D01*
Y89741D01*
Y89637D01*
Y89532D01*
X142393D01*
Y89428D01*
Y89323D01*
Y89219D01*
X142288D01*
Y89114D01*
Y89010D01*
X142184D01*
Y88905D01*
X142288D01*
Y88801D01*
X142184D01*
Y88696D01*
Y88592D01*
Y88487D01*
X142079D01*
Y88383D01*
Y88279D01*
X141975D01*
Y88174D01*
Y88070D01*
Y87965D01*
X141870D01*
Y87861D01*
Y87756D01*
Y87652D01*
X141766D01*
Y87547D01*
Y87443D01*
Y87338D01*
X141661D01*
Y87234D01*
Y87129D01*
Y87025D01*
X141557D01*
Y86921D01*
Y86816D01*
Y86712D01*
X141452D01*
Y86607D01*
Y86503D01*
Y86398D01*
X141348D01*
Y86294D01*
Y86189D01*
Y86085D01*
Y85980D01*
X141244D01*
Y85876D01*
Y85772D01*
Y85667D01*
X141139D01*
Y85563D01*
Y85458D01*
X141035D01*
Y85354D01*
Y85249D01*
Y85145D01*
X140930D01*
Y85040D01*
Y84936D01*
Y84831D01*
X140826D01*
Y84727D01*
Y84622D01*
Y84518D01*
X140721D01*
Y84413D01*
Y84309D01*
Y84205D01*
X140617D01*
Y84100D01*
Y83996D01*
Y83891D01*
X140512D01*
Y83787D01*
Y83682D01*
Y83578D01*
Y83473D01*
X140408D01*
Y83369D01*
Y83264D01*
Y83160D01*
X140303D01*
Y83056D01*
Y82951D01*
X140199D01*
Y82847D01*
Y82742D01*
Y82638D01*
X140094D01*
Y82533D01*
Y82429D01*
Y82324D01*
Y82220D01*
X139990D01*
Y82115D01*
Y82011D01*
X139885D01*
Y81906D01*
Y81802D01*
Y81697D01*
X139781D01*
Y81593D01*
Y81489D01*
Y81384D01*
X139677D01*
Y81280D01*
Y81175D01*
Y81071D01*
X139572D01*
Y80966D01*
Y80862D01*
Y80757D01*
Y80653D01*
Y80549D01*
X139468D01*
Y80444D01*
Y80339D01*
Y80235D01*
X139363D01*
Y80131D01*
Y80026D01*
X139259D01*
Y79922D01*
Y79817D01*
X137901D01*
Y79922D01*
X137692D01*
Y80026D01*
X137796D01*
Y80131D01*
Y80235D01*
X137901D01*
Y80339D01*
Y80444D01*
Y80549D01*
X138005D01*
Y80653D01*
Y80757D01*
Y80862D01*
X138110D01*
Y80966D01*
Y81071D01*
Y81175D01*
Y81280D01*
X138214D01*
Y81384D01*
Y81489D01*
Y81593D01*
X138319D01*
Y81697D01*
Y81802D01*
Y81906D01*
X138423D01*
Y82011D01*
Y82115D01*
Y82220D01*
X138528D01*
Y82324D01*
Y82429D01*
Y82533D01*
X138632D01*
Y82638D01*
Y82742D01*
Y82847D01*
X138736D01*
Y82951D01*
Y83056D01*
Y83160D01*
X138841D01*
Y83264D01*
Y83369D01*
X138945D01*
Y83473D01*
Y83578D01*
Y83682D01*
X139050D01*
Y83787D01*
Y83891D01*
Y83996D01*
Y84100D01*
X139154D01*
Y84205D01*
Y84309D01*
Y84413D01*
X139259D01*
Y84518D01*
Y84622D01*
Y84727D01*
X139363D01*
Y84831D01*
Y84936D01*
Y85040D01*
X139468D01*
Y85145D01*
Y85249D01*
Y85354D01*
X139572D01*
Y85458D01*
Y85563D01*
Y85667D01*
X139677D01*
Y85772D01*
Y85876D01*
Y85980D01*
X139781D01*
Y86085D01*
Y86189D01*
Y86294D01*
X139885D01*
Y86398D01*
Y86503D01*
Y86607D01*
X139990D01*
Y86712D01*
Y86816D01*
Y86921D01*
X140094D01*
Y87025D01*
Y87129D01*
Y87234D01*
X140199D01*
Y87338D01*
Y87443D01*
Y87547D01*
X140303D01*
Y87652D01*
Y87756D01*
Y87861D01*
X140408D01*
Y87965D01*
Y88070D01*
Y88174D01*
X140512D01*
Y88279D01*
Y88383D01*
Y88487D01*
X140617D01*
Y88592D01*
Y88696D01*
Y88801D01*
X140721D01*
Y88905D01*
Y89010D01*
X140826D01*
Y89114D01*
Y89219D01*
Y89323D01*
Y89428D01*
Y89532D01*
X140930D01*
Y89637D01*
Y89741D01*
X141035D01*
Y89846D01*
Y89950D01*
Y90054D01*
X141139D01*
Y90159D01*
Y90263D01*
Y90368D01*
X141244D01*
Y90472D01*
Y90577D01*
Y90681D01*
X141348D01*
Y90786D01*
Y90890D01*
Y90995D01*
X141452D01*
Y91099D01*
Y91203D01*
Y91308D01*
X141557D01*
Y91412D01*
Y91517D01*
X141661D01*
Y91621D01*
Y91726D01*
Y91830D01*
X141766D01*
Y91935D01*
Y92039D01*
Y92144D01*
Y92248D01*
X141870D01*
Y92353D01*
Y92457D01*
Y92562D01*
X141975D01*
Y92666D01*
Y92770D01*
Y92875D01*
X142079D01*
Y92979D01*
Y93084D01*
Y93188D01*
X142184D01*
Y93293D01*
Y93397D01*
Y93502D01*
X142288D01*
Y93606D01*
Y93711D01*
Y93815D01*
X142393D01*
Y93919D01*
Y94024D01*
Y94128D01*
X142497D01*
Y94233D01*
Y94337D01*
X142602D01*
Y94442D01*
Y94546D01*
Y94651D01*
Y94755D01*
Y94860D01*
X142706D01*
Y94964D01*
Y95069D01*
X142810D01*
Y95173D01*
Y95278D01*
Y95382D01*
X142915D01*
Y95486D01*
Y95591D01*
Y95695D01*
X143019D01*
Y95800D01*
Y95904D01*
Y96009D01*
X143124D01*
Y96113D01*
Y96218D01*
Y96322D01*
X143228D01*
Y96427D01*
Y96531D01*
Y96636D01*
X143333D01*
Y96740D01*
Y96844D01*
X143437D01*
Y96949D01*
Y97053D01*
Y97158D01*
X143542D01*
Y97262D01*
Y97367D01*
Y97471D01*
Y97576D01*
Y97680D01*
X143646D01*
Y97785D01*
Y97889D01*
X143751D01*
Y97993D01*
Y98098D01*
Y98202D01*
X143855D01*
Y98307D01*
Y98411D01*
Y98516D01*
X143959D01*
Y98620D01*
Y98725D01*
Y98829D01*
X144064D01*
Y98934D01*
Y99038D01*
Y99143D01*
X144168D01*
Y99247D01*
Y99352D01*
Y99456D01*
X144273D01*
Y99560D01*
Y99665D01*
X144377D01*
Y99769D01*
Y99874D01*
Y99978D01*
Y100083D01*
Y100187D01*
X144482D01*
Y100292D01*
Y100396D01*
X144586D01*
Y100501D01*
Y100605D01*
Y100709D01*
X144691D01*
Y100814D01*
Y100918D01*
Y101023D01*
X144795D01*
Y101127D01*
Y101232D01*
Y101336D01*
X144900D01*
Y101441D01*
Y101545D01*
Y101650D01*
X145004D01*
Y101754D01*
Y101859D01*
Y101963D01*
X145109D01*
Y102067D01*
Y102172D01*
Y102276D01*
X145213D01*
Y102381D01*
Y102485D01*
X145317D01*
Y102590D01*
Y102694D01*
Y102799D01*
Y102903D01*
Y103008D01*
X145422D01*
Y103112D01*
Y103217D01*
X145526D01*
Y103321D01*
Y103426D01*
Y103530D01*
X145631D01*
Y103634D01*
Y103739D01*
Y103843D01*
X145735D01*
Y103948D01*
Y104052D01*
Y104157D01*
Y104261D01*
X145840D01*
Y104366D01*
Y104470D01*
X145944D01*
Y104575D01*
Y104679D01*
Y104783D01*
X146049D01*
Y104888D01*
Y104992D01*
Y105097D01*
X146153D01*
Y105201D01*
Y105306D01*
Y105410D01*
Y105515D01*
X146258D01*
Y105619D01*
Y105724D01*
Y105828D01*
X146362D01*
Y105932D01*
Y106037D01*
Y106141D01*
X146467D01*
Y106246D01*
Y106350D01*
Y106455D01*
X146571D01*
Y106559D01*
Y106664D01*
X146676D01*
Y106768D01*
Y106873D01*
Y106977D01*
X146780D01*
Y107082D01*
Y107186D01*
Y107290D01*
X146884D01*
Y107395D01*
Y107500D01*
Y107604D01*
X146989D01*
Y107708D01*
Y107813D01*
Y107917D01*
X147093D01*
Y108022D01*
Y108126D01*
Y108231D01*
Y108335D01*
X147198D01*
Y108440D01*
Y108544D01*
Y108649D01*
X147302D01*
Y108753D01*
Y108858D01*
Y108962D01*
X147407D01*
Y109066D01*
Y109171D01*
Y109275D01*
X147511D01*
Y109380D01*
Y109484D01*
X147616D01*
Y109589D01*
Y109693D01*
Y109798D01*
Y109902D01*
X147720D01*
Y110006D01*
Y110111D01*
Y110215D01*
X147825D01*
Y110320D01*
Y110424D01*
X147929D01*
Y110529D01*
Y110633D01*
Y110738D01*
X148033D01*
Y110842D01*
Y110947D01*
Y111051D01*
X148138D01*
Y111156D01*
Y111260D01*
X148242D01*
Y111364D01*
Y111469D01*
X148347D01*
Y111573D01*
Y111678D01*
Y111782D01*
X148451D01*
Y111887D01*
Y111991D01*
X148556D01*
Y112096D01*
Y112200D01*
X148660D01*
Y112305D01*
Y112409D01*
X148765D01*
Y112514D01*
Y112618D01*
X148869D01*
Y112723D01*
Y112827D01*
X148974D01*
Y112931D01*
X149078D01*
Y113036D01*
Y113140D01*
X149183D01*
Y113245D01*
X149287D01*
Y113349D01*
Y113454D01*
Y113558D01*
X149078D01*
Y113663D01*
X148869D01*
Y113767D01*
X148660D01*
Y113872D01*
X148556D01*
Y113976D01*
X148347D01*
Y114081D01*
X148242D01*
Y114185D01*
X148138D01*
Y114289D01*
X148033D01*
Y114394D01*
X147929D01*
Y114498D01*
X147825D01*
Y114603D01*
X147720D01*
Y114707D01*
X147616D01*
Y114812D01*
X147511D01*
Y114916D01*
Y115021D01*
X147407D01*
Y115125D01*
X147302D01*
Y115230D01*
Y115334D01*
X147198D01*
Y115438D01*
Y115543D01*
Y115647D01*
X147093D01*
Y115752D01*
Y115856D01*
Y115961D01*
Y116065D01*
X146989D01*
Y116170D01*
Y116274D01*
Y116379D01*
Y116483D01*
Y116588D01*
Y116692D01*
Y116797D01*
Y116901D01*
Y117005D01*
Y117110D01*
Y117214D01*
Y117319D01*
Y117423D01*
X147093D01*
Y117528D01*
Y117632D01*
Y117737D01*
Y117841D01*
X147198D01*
Y117946D01*
Y118050D01*
Y118155D01*
X147302D01*
Y118259D01*
Y118363D01*
X147407D01*
Y118468D01*
X147511D01*
Y118572D01*
Y118677D01*
X147616D01*
Y118781D01*
X147720D01*
Y118886D01*
X147825D01*
Y118990D01*
X147929D01*
Y119095D01*
X148033D01*
Y119199D01*
X148138D01*
Y119304D01*
X148242D01*
Y119408D01*
X148347D01*
Y119512D01*
X148556D01*
Y119617D01*
X148660D01*
Y119721D01*
X148869D01*
Y119826D01*
X149078D01*
Y119930D01*
X149287D01*
Y120035D01*
X149600D01*
Y120139D01*
X149914D01*
Y120244D01*
X152003D01*
Y120139D01*
D02*
G37*
G36*
X156182Y96113D02*
Y96009D01*
Y95904D01*
Y95800D01*
Y95695D01*
Y95591D01*
Y95486D01*
Y95382D01*
Y95278D01*
Y95173D01*
Y95069D01*
Y94964D01*
Y94860D01*
Y94755D01*
Y94651D01*
Y94546D01*
Y94442D01*
Y94337D01*
Y94233D01*
Y94128D01*
Y94024D01*
Y93919D01*
Y93815D01*
Y93711D01*
Y93606D01*
Y93502D01*
Y93397D01*
X148033D01*
Y93293D01*
Y93188D01*
Y93084D01*
Y92979D01*
Y92875D01*
Y92770D01*
Y92666D01*
Y92562D01*
Y92457D01*
Y92353D01*
Y92248D01*
Y92144D01*
Y92039D01*
Y91935D01*
Y91830D01*
Y91726D01*
Y91621D01*
Y91517D01*
Y91412D01*
Y91308D01*
Y91203D01*
Y91099D01*
Y90995D01*
Y90890D01*
Y90786D01*
Y90681D01*
Y90577D01*
Y90472D01*
Y90368D01*
Y90263D01*
Y90159D01*
Y90054D01*
Y89950D01*
X154406D01*
Y89846D01*
X154824D01*
Y89741D01*
X155137D01*
Y89637D01*
X155346D01*
Y89532D01*
X155450D01*
Y89428D01*
X155555D01*
Y89323D01*
X155659D01*
Y89219D01*
X155764D01*
Y89114D01*
X155868D01*
Y89010D01*
Y88905D01*
X155973D01*
Y88801D01*
X156077D01*
Y88696D01*
Y88592D01*
X156182D01*
Y88487D01*
Y88383D01*
Y88279D01*
X156286D01*
Y88174D01*
Y88070D01*
Y87965D01*
Y87861D01*
Y87756D01*
X156390D01*
Y87652D01*
Y87547D01*
Y87443D01*
Y87338D01*
Y87234D01*
Y87129D01*
Y87025D01*
Y86921D01*
Y86816D01*
Y86712D01*
Y86607D01*
Y86503D01*
Y86398D01*
Y86294D01*
Y86189D01*
Y86085D01*
Y85980D01*
Y85876D01*
Y85772D01*
Y85667D01*
Y85563D01*
Y85458D01*
Y85354D01*
Y85249D01*
Y85145D01*
Y85040D01*
Y84936D01*
Y84831D01*
Y84727D01*
Y84622D01*
Y84518D01*
Y84413D01*
Y84309D01*
Y84205D01*
Y84100D01*
Y83996D01*
Y83891D01*
Y83787D01*
Y83682D01*
Y83578D01*
Y83473D01*
Y83369D01*
Y83264D01*
Y83160D01*
Y83056D01*
Y82951D01*
Y82847D01*
Y82742D01*
Y82638D01*
Y82533D01*
Y82429D01*
Y82324D01*
Y82220D01*
Y82115D01*
Y82011D01*
Y81906D01*
Y81802D01*
Y81697D01*
Y81593D01*
Y81489D01*
Y81384D01*
Y81280D01*
Y81175D01*
Y81071D01*
Y80966D01*
Y80862D01*
Y80757D01*
Y80653D01*
Y80549D01*
Y80444D01*
Y80339D01*
Y80235D01*
Y80131D01*
Y80026D01*
Y79922D01*
Y79817D01*
X145735D01*
Y79922D01*
Y80026D01*
Y80131D01*
Y80235D01*
Y80339D01*
Y80444D01*
Y80549D01*
Y80653D01*
Y80757D01*
Y80862D01*
Y80966D01*
Y81071D01*
Y81175D01*
Y81280D01*
Y81384D01*
Y81489D01*
Y81593D01*
Y81697D01*
Y81802D01*
Y81906D01*
Y82011D01*
Y82115D01*
Y82220D01*
Y82324D01*
Y82429D01*
Y82533D01*
X153883D01*
Y82638D01*
X153988D01*
Y82742D01*
Y82847D01*
Y82951D01*
Y83056D01*
Y83160D01*
Y83264D01*
Y83369D01*
Y83473D01*
Y83578D01*
Y83682D01*
Y83787D01*
Y83891D01*
Y83996D01*
Y84100D01*
Y84205D01*
Y84309D01*
Y84413D01*
Y84518D01*
Y84622D01*
Y84727D01*
Y84831D01*
Y84936D01*
Y85040D01*
Y85145D01*
Y85249D01*
Y85354D01*
Y85458D01*
Y85563D01*
Y85667D01*
Y85772D01*
Y85876D01*
Y85980D01*
Y86085D01*
Y86189D01*
Y86294D01*
Y86398D01*
Y86503D01*
Y86607D01*
Y86712D01*
Y86816D01*
Y86921D01*
Y87025D01*
Y87129D01*
X147407D01*
Y87234D01*
X147093D01*
Y87338D01*
X146884D01*
Y87443D01*
X146676D01*
Y87547D01*
X146571D01*
Y87652D01*
X146467D01*
Y87756D01*
X146362D01*
Y87861D01*
X146258D01*
Y87965D01*
Y88070D01*
X146153D01*
Y88174D01*
X146049D01*
Y88279D01*
Y88383D01*
X145944D01*
Y88487D01*
Y88592D01*
Y88696D01*
Y88801D01*
X145840D01*
Y88905D01*
Y89010D01*
Y89114D01*
X145735D01*
Y89219D01*
Y89323D01*
Y89428D01*
Y89532D01*
Y89637D01*
Y89741D01*
Y89846D01*
Y89950D01*
Y90054D01*
Y90159D01*
Y90263D01*
X145631D01*
Y90368D01*
Y90472D01*
Y90577D01*
Y90681D01*
Y90786D01*
Y90890D01*
Y90995D01*
Y91099D01*
Y91203D01*
Y91308D01*
Y91412D01*
Y91517D01*
Y91621D01*
Y91726D01*
Y91830D01*
Y91935D01*
Y92039D01*
Y92144D01*
Y92248D01*
Y92353D01*
Y92457D01*
Y92562D01*
Y92666D01*
Y92770D01*
Y92875D01*
Y92979D01*
Y93084D01*
Y93188D01*
Y93293D01*
Y93397D01*
Y93502D01*
X145735D01*
Y93606D01*
Y93711D01*
Y93815D01*
Y93919D01*
Y94024D01*
Y94128D01*
Y94233D01*
Y94337D01*
X145840D01*
Y94442D01*
Y94546D01*
Y94651D01*
Y94755D01*
X145944D01*
Y94860D01*
Y94964D01*
Y95069D01*
X146049D01*
Y95173D01*
Y95278D01*
X146153D01*
Y95382D01*
X146258D01*
Y95486D01*
Y95591D01*
X146362D01*
Y95695D01*
X146467D01*
Y95800D01*
X146676D01*
Y95904D01*
X146780D01*
Y96009D01*
X147093D01*
Y96113D01*
X147407D01*
Y96218D01*
X156182D01*
Y96113D01*
D02*
G37*
G36*
X136543Y96218D02*
Y96113D01*
Y96009D01*
Y95904D01*
Y95800D01*
Y95695D01*
Y95591D01*
Y95486D01*
Y95382D01*
Y95278D01*
Y95173D01*
Y95069D01*
Y94964D01*
Y94860D01*
Y94755D01*
Y94651D01*
Y94546D01*
Y94442D01*
Y94337D01*
Y94233D01*
Y94128D01*
Y94024D01*
Y93919D01*
Y93815D01*
Y93711D01*
Y93606D01*
Y93502D01*
Y93397D01*
Y93293D01*
Y93188D01*
Y93084D01*
Y92979D01*
Y92875D01*
Y92770D01*
Y92666D01*
Y92562D01*
Y92457D01*
Y92353D01*
Y92248D01*
Y92144D01*
Y92039D01*
Y91935D01*
Y91830D01*
Y91726D01*
Y91621D01*
Y91517D01*
Y91412D01*
Y91308D01*
Y91203D01*
Y91099D01*
Y90995D01*
Y90890D01*
Y90786D01*
Y90681D01*
Y90577D01*
Y90472D01*
Y90368D01*
Y90263D01*
Y90159D01*
Y90054D01*
Y89950D01*
Y89846D01*
Y89741D01*
Y89637D01*
Y89532D01*
Y89428D01*
Y89323D01*
Y89219D01*
Y89114D01*
Y89010D01*
Y88905D01*
Y88801D01*
Y88696D01*
Y88592D01*
Y88487D01*
Y88383D01*
Y88279D01*
Y88174D01*
Y88070D01*
Y87965D01*
Y87861D01*
Y87756D01*
Y87652D01*
Y87547D01*
Y87443D01*
Y87338D01*
Y87234D01*
Y87129D01*
Y87025D01*
Y86921D01*
Y86816D01*
Y86712D01*
Y86607D01*
Y86503D01*
Y86398D01*
Y86294D01*
Y86189D01*
Y86085D01*
Y85980D01*
Y85876D01*
Y85772D01*
Y85667D01*
Y85563D01*
Y85458D01*
Y85354D01*
Y85249D01*
Y85145D01*
Y85040D01*
Y84936D01*
Y84831D01*
Y84727D01*
Y84622D01*
Y84518D01*
Y84413D01*
Y84309D01*
Y84205D01*
Y84100D01*
Y83996D01*
Y83891D01*
Y83787D01*
Y83682D01*
Y83578D01*
Y83473D01*
Y83369D01*
Y83264D01*
Y83160D01*
Y83056D01*
Y82951D01*
Y82847D01*
Y82742D01*
Y82638D01*
Y82533D01*
Y82429D01*
Y82324D01*
Y82220D01*
Y82115D01*
Y82011D01*
Y81906D01*
Y81802D01*
Y81697D01*
Y81593D01*
Y81489D01*
Y81384D01*
Y81280D01*
Y81175D01*
Y81071D01*
Y80966D01*
Y80862D01*
Y80757D01*
Y80653D01*
Y80549D01*
Y80444D01*
Y80339D01*
Y80235D01*
Y80131D01*
Y80026D01*
Y79922D01*
Y79817D01*
Y79713D01*
X125888D01*
Y79817D01*
X125156D01*
Y79922D01*
X124739D01*
Y80026D01*
X124530D01*
Y80131D01*
X124321D01*
Y80235D01*
X124112D01*
Y80339D01*
X124007D01*
Y80444D01*
X123903D01*
Y80549D01*
X123799D01*
Y80653D01*
X123694D01*
Y80757D01*
X123590D01*
Y80862D01*
Y80966D01*
X123485D01*
Y81071D01*
Y81175D01*
X123381D01*
Y81280D01*
Y81384D01*
X123276D01*
Y81489D01*
Y81593D01*
Y81697D01*
Y81802D01*
X123172D01*
Y81906D01*
Y82011D01*
Y82115D01*
Y82220D01*
Y82324D01*
Y82429D01*
Y82533D01*
Y82638D01*
Y82742D01*
Y82847D01*
Y82951D01*
Y83056D01*
Y83160D01*
X123067D01*
Y83264D01*
Y83369D01*
Y83473D01*
Y83578D01*
Y83682D01*
Y83787D01*
Y83891D01*
Y83996D01*
Y84100D01*
Y84205D01*
Y84309D01*
Y84413D01*
Y84518D01*
Y84622D01*
Y84727D01*
Y84831D01*
Y84936D01*
Y85040D01*
Y85145D01*
Y85249D01*
Y85354D01*
Y85458D01*
Y85563D01*
Y85667D01*
Y85772D01*
Y85876D01*
Y85980D01*
Y86085D01*
Y86189D01*
Y86294D01*
Y86398D01*
Y86503D01*
Y86607D01*
Y86712D01*
Y86816D01*
Y86921D01*
Y87025D01*
Y87129D01*
Y87234D01*
Y87338D01*
Y87443D01*
Y87547D01*
Y87652D01*
Y87756D01*
Y87861D01*
Y87965D01*
Y88070D01*
Y88174D01*
Y88279D01*
Y88383D01*
Y88487D01*
Y88592D01*
Y88696D01*
Y88801D01*
Y88905D01*
Y89010D01*
Y89114D01*
Y89219D01*
Y89323D01*
Y89428D01*
Y89532D01*
Y89637D01*
Y89741D01*
Y89846D01*
Y89950D01*
Y90054D01*
Y90159D01*
Y90263D01*
Y90368D01*
Y90472D01*
Y90577D01*
Y90681D01*
Y90786D01*
Y90890D01*
Y90995D01*
Y91099D01*
Y91203D01*
Y91308D01*
Y91412D01*
Y91517D01*
Y91621D01*
Y91726D01*
Y91830D01*
Y91935D01*
Y92039D01*
Y92144D01*
Y92248D01*
Y92353D01*
Y92457D01*
Y92562D01*
Y92666D01*
X123172D01*
Y92770D01*
Y92875D01*
Y92979D01*
Y93084D01*
Y93188D01*
Y93293D01*
Y93397D01*
Y93502D01*
Y93606D01*
Y93711D01*
Y93815D01*
Y93919D01*
Y94024D01*
X123276D01*
Y94128D01*
Y94233D01*
Y94337D01*
X123381D01*
Y94442D01*
Y94546D01*
X123485D01*
Y94651D01*
Y94755D01*
X123590D01*
Y94860D01*
Y94964D01*
X123694D01*
Y95069D01*
Y95173D01*
X123903D01*
Y95278D01*
Y95382D01*
X124007D01*
Y95486D01*
X124216D01*
Y95591D01*
X124321D01*
Y95695D01*
X124425D01*
Y95800D01*
X124634D01*
Y95904D01*
X124843D01*
Y96009D01*
X125052D01*
Y96113D01*
X125365D01*
Y96218D01*
X125783D01*
Y96322D01*
X136543D01*
Y96218D01*
D02*
G37*
G36*
X34196Y127064D02*
X34134Y127031D01*
X34073Y126995D01*
X33952Y126911D01*
X33839Y126820D01*
X33785Y126773D01*
X33734Y126729D01*
X33690Y126686D01*
X33647Y126646D01*
X33610Y126609D01*
X33577Y126576D01*
X33552Y126551D01*
X33534Y126533D01*
X33523Y126518D01*
X33519Y126514D01*
X33395Y126365D01*
X33283Y126209D01*
X33181Y126056D01*
X33137Y125983D01*
X33093Y125914D01*
X33057Y125852D01*
X33024Y125794D01*
X32995Y125739D01*
X32973Y125696D01*
X32955Y125659D01*
X32941Y125630D01*
X32933Y125616D01*
X32930Y125608D01*
X32333D01*
X32376Y125717D01*
X32427Y125830D01*
X32478Y125939D01*
X32529Y126041D01*
X32555Y126085D01*
X32577Y126129D01*
X32598Y126165D01*
X32616Y126194D01*
X32627Y126220D01*
X32638Y126242D01*
X32646Y126252D01*
X32649Y126256D01*
X32729Y126387D01*
X32769Y126445D01*
X32806Y126504D01*
X32846Y126555D01*
X32879Y126602D01*
X32915Y126646D01*
X32944Y126689D01*
X32973Y126722D01*
X32999Y126755D01*
X33024Y126784D01*
X33042Y126806D01*
X33057Y126824D01*
X33068Y126835D01*
X33075Y126842D01*
X33079Y126846D01*
X29140D01*
Y127465D01*
X34196D01*
Y127064D01*
D02*
G37*
G36*
Y123151D02*
X34134Y123118D01*
X34073Y123082D01*
X33952Y122998D01*
X33839Y122907D01*
X33785Y122860D01*
X33734Y122816D01*
X33690Y122773D01*
X33647Y122733D01*
X33610Y122696D01*
X33577Y122663D01*
X33552Y122638D01*
X33534Y122620D01*
X33523Y122605D01*
X33519Y122601D01*
X33395Y122452D01*
X33283Y122296D01*
X33181Y122143D01*
X33137Y122070D01*
X33093Y122001D01*
X33057Y121939D01*
X33024Y121881D01*
X32995Y121826D01*
X32973Y121783D01*
X32955Y121746D01*
X32941Y121717D01*
X32933Y121702D01*
X32930Y121695D01*
X32333D01*
X32376Y121804D01*
X32427Y121917D01*
X32478Y122026D01*
X32529Y122128D01*
X32555Y122172D01*
X32577Y122216D01*
X32598Y122252D01*
X32616Y122281D01*
X32627Y122307D01*
X32638Y122328D01*
X32646Y122339D01*
X32649Y122343D01*
X32729Y122474D01*
X32769Y122532D01*
X32806Y122591D01*
X32846Y122642D01*
X32879Y122689D01*
X32915Y122733D01*
X32944Y122776D01*
X32973Y122809D01*
X32999Y122842D01*
X33024Y122871D01*
X33042Y122893D01*
X33057Y122911D01*
X33068Y122922D01*
X33075Y122929D01*
X33079Y122933D01*
X29140D01*
Y123552D01*
X34196D01*
Y123151D01*
D02*
G37*
G36*
X31273Y118805D02*
X30651D01*
Y120712D01*
X31273D01*
Y118805D01*
D02*
G37*
G36*
X38036Y119584D02*
X38159Y119577D01*
X38272Y119569D01*
X38378Y119562D01*
X38476Y119551D01*
X38567Y119540D01*
X38647Y119529D01*
X38720Y119518D01*
X38782Y119508D01*
X38837Y119497D01*
X38880Y119489D01*
X38917Y119482D01*
X38939Y119475D01*
X38957Y119471D01*
X38960D01*
X39040Y119449D01*
X39120Y119424D01*
X39193Y119402D01*
X39262Y119377D01*
X39328Y119347D01*
X39390Y119322D01*
X39448Y119296D01*
X39499Y119271D01*
X39546Y119249D01*
X39586Y119227D01*
X39623Y119209D01*
X39652Y119191D01*
X39674Y119176D01*
X39692Y119165D01*
X39703Y119162D01*
X39707Y119158D01*
X39816Y119082D01*
X39910Y118998D01*
X39994Y118914D01*
X40060Y118834D01*
X40089Y118798D01*
X40110Y118761D01*
X40132Y118732D01*
X40151Y118707D01*
X40161Y118685D01*
X40172Y118670D01*
X40180Y118659D01*
Y118656D01*
X40209Y118597D01*
X40234Y118539D01*
X40274Y118415D01*
X40303Y118295D01*
X40322Y118186D01*
X40329Y118135D01*
X40336Y118092D01*
X40340Y118048D01*
Y118015D01*
X40343Y117986D01*
Y117946D01*
X40340Y117844D01*
X40333Y117749D01*
X40318Y117658D01*
X40296Y117571D01*
X40274Y117491D01*
X40249Y117414D01*
X40223Y117345D01*
X40198Y117283D01*
X40169Y117225D01*
X40143Y117178D01*
X40118Y117134D01*
X40096Y117098D01*
X40078Y117069D01*
X40063Y117051D01*
X40052Y117036D01*
X40049Y117032D01*
X39990Y116967D01*
X39928Y116905D01*
X39863Y116847D01*
X39794Y116792D01*
X39725Y116745D01*
X39652Y116701D01*
X39583Y116657D01*
X39517Y116625D01*
X39455Y116592D01*
X39397Y116563D01*
X39342Y116541D01*
X39299Y116519D01*
X39259Y116505D01*
X39233Y116494D01*
X39215Y116490D01*
X39208Y116486D01*
X39102Y116454D01*
X38989Y116428D01*
X38873Y116403D01*
X38753Y116381D01*
X38513Y116348D01*
X38396Y116337D01*
X38283Y116326D01*
X38178Y116319D01*
X38079Y116315D01*
X37992Y116312D01*
X37919Y116308D01*
X37887D01*
X37857Y116304D01*
X37832D01*
X37810D01*
X37792D01*
X37781D01*
X37774D01*
X37770D01*
X37639D01*
X37512Y116312D01*
X37391Y116315D01*
X37275Y116326D01*
X37162Y116337D01*
X37053Y116352D01*
X36951Y116366D01*
X36853Y116381D01*
X36755Y116399D01*
X36667Y116421D01*
X36580Y116439D01*
X36500Y116461D01*
X36420Y116483D01*
X36347Y116505D01*
X36278Y116530D01*
X36212Y116552D01*
X36154Y116574D01*
X36096Y116599D01*
X36045Y116621D01*
X35994Y116643D01*
X35950Y116665D01*
X35910Y116683D01*
X35874Y116705D01*
X35841Y116723D01*
X35812Y116737D01*
X35790Y116752D01*
X35768Y116767D01*
X35750Y116778D01*
X35739Y116788D01*
X35728Y116796D01*
X35724Y116799D01*
X35721D01*
X35630Y116879D01*
X35550Y116967D01*
X35480Y117058D01*
X35422Y117152D01*
X35371Y117251D01*
X35331Y117345D01*
X35295Y117436D01*
X35269Y117527D01*
X35247Y117615D01*
X35233Y117691D01*
X35218Y117764D01*
X35211Y117826D01*
X35208Y117877D01*
X35204Y117913D01*
Y117946D01*
X35208Y118048D01*
X35218Y118142D01*
X35233Y118234D01*
X35251Y118321D01*
X35273Y118401D01*
X35298Y118474D01*
X35324Y118543D01*
X35353Y118608D01*
X35379Y118663D01*
X35404Y118714D01*
X35429Y118754D01*
X35451Y118790D01*
X35473Y118820D01*
X35488Y118838D01*
X35495Y118852D01*
X35499Y118856D01*
X35557Y118921D01*
X35619Y118983D01*
X35684Y119042D01*
X35753Y119096D01*
X35826Y119143D01*
X35895Y119187D01*
X35965Y119231D01*
X36030Y119267D01*
X36092Y119296D01*
X36150Y119325D01*
X36205Y119347D01*
X36248Y119369D01*
X36288Y119384D01*
X36314Y119395D01*
X36332Y119398D01*
X36340Y119402D01*
X36445Y119435D01*
X36558Y119464D01*
X36674Y119489D01*
X36794Y119511D01*
X37031Y119544D01*
X37148Y119555D01*
X37260Y119566D01*
X37366Y119573D01*
X37461Y119577D01*
X37548Y119580D01*
X37624Y119584D01*
X37657D01*
X37686Y119588D01*
X37712D01*
X37730D01*
X37748D01*
X37759D01*
X37766D01*
X37770D01*
X37908D01*
X38036Y119584D01*
D02*
G37*
G36*
X29734Y115747D02*
X29796Y115787D01*
X29857Y115831D01*
X29912Y115875D01*
X29963Y115915D01*
X30003Y115951D01*
X30036Y115980D01*
X30058Y115999D01*
X30065Y116006D01*
X30101Y116039D01*
X30141Y116082D01*
X30185Y116130D01*
X30236Y116184D01*
X30287Y116243D01*
X30342Y116301D01*
X30447Y116425D01*
X30498Y116483D01*
X30545Y116537D01*
X30589Y116585D01*
X30625Y116632D01*
X30658Y116668D01*
X30680Y116694D01*
X30698Y116712D01*
X30702Y116719D01*
X30804Y116839D01*
X30902Y116952D01*
X30993Y117054D01*
X31077Y117149D01*
X31157Y117236D01*
X31230Y117313D01*
X31295Y117385D01*
X31353Y117447D01*
X31408Y117502D01*
X31455Y117546D01*
X31495Y117586D01*
X31528Y117618D01*
X31554Y117644D01*
X31572Y117658D01*
X31583Y117669D01*
X31586Y117673D01*
X31648Y117724D01*
X31707Y117775D01*
X31765Y117819D01*
X31819Y117859D01*
X31925Y117931D01*
X31972Y117961D01*
X32016Y117986D01*
X32056Y118011D01*
X32092Y118030D01*
X32125Y118048D01*
X32151Y118059D01*
X32172Y118070D01*
X32187Y118077D01*
X32198Y118084D01*
X32201D01*
X32311Y118124D01*
X32416Y118157D01*
X32518Y118179D01*
X32609Y118193D01*
X32649Y118197D01*
X32686Y118201D01*
X32715Y118204D01*
X32744Y118208D01*
X32766D01*
X32780D01*
X32791D01*
X32795D01*
X32904Y118204D01*
X33010Y118190D01*
X33108Y118168D01*
X33202Y118142D01*
X33290Y118110D01*
X33374Y118073D01*
X33450Y118033D01*
X33519Y117997D01*
X33581Y117957D01*
X33636Y117917D01*
X33683Y117880D01*
X33719Y117848D01*
X33752Y117822D01*
X33774Y117800D01*
X33789Y117786D01*
X33792Y117782D01*
X33865Y117699D01*
X33927Y117611D01*
X33978Y117520D01*
X34025Y117426D01*
X34065Y117331D01*
X34098Y117233D01*
X34124Y117141D01*
X34145Y117051D01*
X34163Y116967D01*
X34174Y116887D01*
X34185Y116818D01*
X34189Y116756D01*
X34193Y116705D01*
X34196Y116668D01*
Y116636D01*
X34193Y116505D01*
X34182Y116381D01*
X34163Y116264D01*
X34138Y116155D01*
X34109Y116053D01*
X34076Y115958D01*
X34043Y115875D01*
X34011Y115795D01*
X33974Y115726D01*
X33942Y115664D01*
X33909Y115613D01*
X33880Y115569D01*
X33858Y115536D01*
X33836Y115511D01*
X33825Y115496D01*
X33821Y115493D01*
X33748Y115416D01*
X33669Y115351D01*
X33585Y115289D01*
X33497Y115238D01*
X33406Y115190D01*
X33315Y115150D01*
X33228Y115118D01*
X33141Y115089D01*
X33061Y115067D01*
X32984Y115049D01*
X32915Y115034D01*
X32857Y115023D01*
X32809Y115012D01*
X32773Y115008D01*
X32759D01*
X32748Y115005D01*
X32744D01*
X32740D01*
X32675Y115642D01*
X32762Y115646D01*
X32842Y115653D01*
X32919Y115667D01*
X32991Y115682D01*
X33057Y115704D01*
X33115Y115726D01*
X33173Y115751D01*
X33221Y115777D01*
X33264Y115798D01*
X33305Y115824D01*
X33337Y115846D01*
X33366Y115867D01*
X33384Y115882D01*
X33403Y115897D01*
X33410Y115904D01*
X33414Y115908D01*
X33461Y115958D01*
X33501Y116017D01*
X33537Y116075D01*
X33570Y116133D01*
X33596Y116195D01*
X33617Y116253D01*
X33636Y116312D01*
X33650Y116366D01*
X33661Y116421D01*
X33669Y116468D01*
X33676Y116512D01*
X33679Y116552D01*
X33683Y116581D01*
Y116625D01*
X33679Y116701D01*
X33672Y116774D01*
X33661Y116843D01*
X33643Y116909D01*
X33625Y116967D01*
X33603Y117025D01*
X33581Y117076D01*
X33556Y117123D01*
X33534Y117163D01*
X33508Y117200D01*
X33487Y117233D01*
X33468Y117258D01*
X33450Y117280D01*
X33439Y117294D01*
X33432Y117302D01*
X33428Y117305D01*
X33381Y117353D01*
X33330Y117393D01*
X33279Y117429D01*
X33224Y117458D01*
X33173Y117484D01*
X33123Y117506D01*
X33072Y117524D01*
X33024Y117538D01*
X32980Y117549D01*
X32941Y117557D01*
X32904Y117564D01*
X32871Y117567D01*
X32846Y117571D01*
X32828D01*
X32813D01*
X32809D01*
X32744Y117567D01*
X32678Y117560D01*
X32613Y117546D01*
X32547Y117527D01*
X32420Y117480D01*
X32362Y117451D01*
X32307Y117426D01*
X32256Y117400D01*
X32209Y117371D01*
X32169Y117349D01*
X32132Y117327D01*
X32107Y117305D01*
X32085Y117291D01*
X32070Y117283D01*
X32067Y117280D01*
X31990Y117222D01*
X31907Y117149D01*
X31823Y117072D01*
X31736Y116985D01*
X31645Y116898D01*
X31557Y116803D01*
X31470Y116712D01*
X31386Y116617D01*
X31306Y116530D01*
X31233Y116446D01*
X31164Y116374D01*
X31109Y116304D01*
X31062Y116250D01*
X31044Y116228D01*
X31026Y116210D01*
X31015Y116195D01*
X31004Y116184D01*
X31000Y116177D01*
X30997Y116173D01*
X30917Y116079D01*
X30840Y115988D01*
X30767Y115904D01*
X30698Y115824D01*
X30629Y115751D01*
X30567Y115685D01*
X30509Y115627D01*
X30454Y115573D01*
X30407Y115522D01*
X30363Y115482D01*
X30327Y115445D01*
X30294Y115416D01*
X30269Y115394D01*
X30250Y115380D01*
X30240Y115369D01*
X30236Y115365D01*
X30112Y115267D01*
X29992Y115183D01*
X29879Y115114D01*
X29828Y115081D01*
X29777Y115056D01*
X29734Y115034D01*
X29694Y115012D01*
X29657Y114994D01*
X29624Y114983D01*
X29599Y114972D01*
X29581Y114965D01*
X29570Y114957D01*
X29566D01*
X29490Y114932D01*
X29413Y114914D01*
X29340Y114903D01*
X29279Y114896D01*
X29220Y114892D01*
X29199Y114888D01*
X29177D01*
X29162D01*
X29151D01*
X29144D01*
X29140D01*
Y118215D01*
X29734D01*
Y115747D01*
D02*
G37*
G36*
X35990Y114699D02*
X35287D01*
Y115402D01*
X35990D01*
Y114699D01*
D02*
G37*
G36*
X31888Y114331D02*
X32012Y114324D01*
X32125Y114317D01*
X32231Y114310D01*
X32329Y114299D01*
X32420Y114288D01*
X32500Y114277D01*
X32573Y114266D01*
X32635Y114255D01*
X32689Y114244D01*
X32733Y114237D01*
X32769Y114230D01*
X32791Y114222D01*
X32809Y114219D01*
X32813D01*
X32893Y114197D01*
X32973Y114171D01*
X33046Y114149D01*
X33115Y114124D01*
X33181Y114095D01*
X33243Y114069D01*
X33301Y114044D01*
X33352Y114018D01*
X33399Y113997D01*
X33439Y113975D01*
X33476Y113956D01*
X33505Y113938D01*
X33527Y113924D01*
X33545Y113913D01*
X33556Y113909D01*
X33559Y113906D01*
X33669Y113829D01*
X33763Y113745D01*
X33847Y113662D01*
X33912Y113582D01*
X33942Y113545D01*
X33963Y113509D01*
X33985Y113480D01*
X34003Y113454D01*
X34014Y113432D01*
X34025Y113418D01*
X34032Y113407D01*
Y113403D01*
X34062Y113345D01*
X34087Y113287D01*
X34127Y113163D01*
X34156Y113043D01*
X34174Y112934D01*
X34182Y112883D01*
X34189Y112839D01*
X34193Y112795D01*
Y112763D01*
X34196Y112733D01*
Y112694D01*
X34193Y112592D01*
X34185Y112497D01*
X34171Y112406D01*
X34149Y112319D01*
X34127Y112238D01*
X34102Y112162D01*
X34076Y112093D01*
X34051Y112031D01*
X34021Y111973D01*
X33996Y111925D01*
X33971Y111882D01*
X33949Y111845D01*
X33931Y111816D01*
X33916Y111798D01*
X33905Y111783D01*
X33901Y111780D01*
X33843Y111714D01*
X33781Y111652D01*
X33716Y111594D01*
X33647Y111540D01*
X33577Y111492D01*
X33505Y111449D01*
X33435Y111405D01*
X33370Y111372D01*
X33308Y111339D01*
X33250Y111310D01*
X33195Y111288D01*
X33152Y111267D01*
X33112Y111252D01*
X33086Y111241D01*
X33068Y111237D01*
X33061Y111234D01*
X32955Y111201D01*
X32842Y111176D01*
X32726Y111150D01*
X32606Y111128D01*
X32365Y111095D01*
X32249Y111085D01*
X32136Y111074D01*
X32030Y111066D01*
X31932Y111063D01*
X31845Y111059D01*
X31772Y111055D01*
X31739D01*
X31710Y111052D01*
X31685D01*
X31663D01*
X31645D01*
X31634D01*
X31626D01*
X31623D01*
X31492D01*
X31364Y111059D01*
X31244Y111063D01*
X31128Y111074D01*
X31015Y111085D01*
X30906Y111099D01*
X30804Y111114D01*
X30705Y111128D01*
X30607Y111146D01*
X30520Y111168D01*
X30433Y111187D01*
X30352Y111208D01*
X30272Y111230D01*
X30200Y111252D01*
X30130Y111277D01*
X30065Y111299D01*
X30007Y111321D01*
X29948Y111347D01*
X29897Y111369D01*
X29847Y111390D01*
X29803Y111412D01*
X29763Y111430D01*
X29726Y111452D01*
X29694Y111470D01*
X29664Y111485D01*
X29643Y111500D01*
X29621Y111514D01*
X29603Y111525D01*
X29592Y111536D01*
X29581Y111543D01*
X29577Y111547D01*
X29574D01*
X29482Y111627D01*
X29402Y111714D01*
X29333Y111805D01*
X29275Y111900D01*
X29224Y111998D01*
X29184Y112093D01*
X29148Y112184D01*
X29122Y112275D01*
X29100Y112362D01*
X29086Y112439D01*
X29071Y112511D01*
X29064Y112573D01*
X29060Y112624D01*
X29057Y112661D01*
Y112694D01*
X29060Y112795D01*
X29071Y112890D01*
X29086Y112981D01*
X29104Y113068D01*
X29126Y113148D01*
X29151Y113221D01*
X29177Y113290D01*
X29206Y113356D01*
X29231Y113410D01*
X29257Y113461D01*
X29282Y113502D01*
X29304Y113538D01*
X29326Y113567D01*
X29340Y113585D01*
X29348Y113600D01*
X29351Y113603D01*
X29410Y113669D01*
X29471Y113731D01*
X29537Y113789D01*
X29606Y113844D01*
X29679Y113891D01*
X29748Y113935D01*
X29817Y113978D01*
X29883Y114015D01*
X29945Y114044D01*
X30003Y114073D01*
X30058Y114095D01*
X30101Y114117D01*
X30141Y114131D01*
X30167Y114142D01*
X30185Y114146D01*
X30192Y114149D01*
X30298Y114182D01*
X30411Y114211D01*
X30527Y114237D01*
X30647Y114259D01*
X30884Y114291D01*
X31000Y114302D01*
X31113Y114313D01*
X31219Y114321D01*
X31313Y114324D01*
X31401Y114328D01*
X31477Y114331D01*
X31510D01*
X31539Y114335D01*
X31565D01*
X31583D01*
X31601D01*
X31612D01*
X31619D01*
X31623D01*
X31761D01*
X31888Y114331D01*
D02*
G37*
G36*
X40343Y112366D02*
X40282Y112333D01*
X40220Y112297D01*
X40100Y112213D01*
X39987Y112122D01*
X39932Y112075D01*
X39881Y112031D01*
X39838Y111987D01*
X39794Y111947D01*
X39757Y111911D01*
X39725Y111878D01*
X39699Y111853D01*
X39681Y111834D01*
X39670Y111820D01*
X39666Y111816D01*
X39543Y111667D01*
X39430Y111510D01*
X39328Y111358D01*
X39284Y111285D01*
X39241Y111216D01*
X39204Y111154D01*
X39171Y111095D01*
X39142Y111041D01*
X39120Y110997D01*
X39102Y110961D01*
X39088Y110932D01*
X39080Y110917D01*
X39077Y110910D01*
X38480D01*
X38524Y111019D01*
X38574Y111132D01*
X38625Y111241D01*
X38676Y111343D01*
X38702Y111387D01*
X38724Y111430D01*
X38745Y111467D01*
X38764Y111496D01*
X38775Y111521D01*
X38786Y111543D01*
X38793Y111554D01*
X38796Y111558D01*
X38877Y111689D01*
X38917Y111747D01*
X38953Y111805D01*
X38993Y111856D01*
X39026Y111904D01*
X39062Y111947D01*
X39091Y111991D01*
X39120Y112024D01*
X39146Y112056D01*
X39171Y112086D01*
X39190Y112107D01*
X39204Y112126D01*
X39215Y112136D01*
X39222Y112144D01*
X39226Y112147D01*
X35287D01*
Y112766D01*
X40343D01*
Y112366D01*
D02*
G37*
G36*
X31273Y108635D02*
X30651D01*
Y110542D01*
X31273D01*
Y108635D01*
D02*
G37*
G36*
X38939Y106873D02*
X38236D01*
Y107576D01*
X38939D01*
Y106873D01*
D02*
G37*
G36*
X35990D02*
X35287D01*
Y107576D01*
X35990D01*
Y106873D01*
D02*
G37*
G36*
X31929Y108103D02*
X32089Y108096D01*
X32234Y108089D01*
X32373Y108074D01*
X32500Y108056D01*
X32613Y108038D01*
X32718Y108020D01*
X32813Y108001D01*
X32897Y107980D01*
X32970Y107961D01*
X33031Y107943D01*
X33082Y107925D01*
X33123Y107911D01*
X33152Y107903D01*
X33166Y107896D01*
X33173Y107892D01*
X33264Y107852D01*
X33348Y107805D01*
X33425Y107758D01*
X33497Y107707D01*
X33566Y107656D01*
X33628Y107605D01*
X33687Y107554D01*
X33738Y107503D01*
X33781Y107456D01*
X33821Y107415D01*
X33854Y107375D01*
X33883Y107339D01*
X33901Y107314D01*
X33920Y107292D01*
X33927Y107277D01*
X33931Y107273D01*
X33978Y107197D01*
X34018Y107121D01*
X34054Y107041D01*
X34083Y106964D01*
X34109Y106888D01*
X34131Y106811D01*
X34149Y106742D01*
X34163Y106673D01*
X34174Y106611D01*
X34182Y106556D01*
X34189Y106505D01*
X34193Y106462D01*
X34196Y106425D01*
Y106378D01*
X34193Y106254D01*
X34174Y106134D01*
X34153Y106021D01*
X34124Y105916D01*
X34087Y105814D01*
X34047Y105719D01*
X34007Y105635D01*
X33963Y105555D01*
X33920Y105486D01*
X33876Y105424D01*
X33836Y105370D01*
X33799Y105326D01*
X33770Y105293D01*
X33748Y105268D01*
X33730Y105250D01*
X33727Y105246D01*
X33636Y105166D01*
X33541Y105097D01*
X33439Y105038D01*
X33337Y104984D01*
X33235Y104940D01*
X33133Y104904D01*
X33031Y104875D01*
X32937Y104853D01*
X32846Y104831D01*
X32762Y104820D01*
X32686Y104809D01*
X32620Y104802D01*
X32566Y104798D01*
X32544D01*
X32526Y104795D01*
X32511D01*
X32500D01*
X32496D01*
X32493D01*
X32358Y104798D01*
X32231Y104813D01*
X32107Y104835D01*
X31994Y104860D01*
X31888Y104893D01*
X31790Y104929D01*
X31699Y104969D01*
X31619Y105009D01*
X31546Y105050D01*
X31481Y105089D01*
X31426Y105126D01*
X31383Y105159D01*
X31346Y105184D01*
X31321Y105206D01*
X31302Y105220D01*
X31299Y105224D01*
X31219Y105308D01*
X31150Y105395D01*
X31091Y105483D01*
X31037Y105574D01*
X30993Y105661D01*
X30957Y105748D01*
X30928Y105836D01*
X30906Y105916D01*
X30884Y105992D01*
X30873Y106061D01*
X30862Y106127D01*
X30855Y106178D01*
X30851Y106221D01*
X30847Y106254D01*
Y106283D01*
X30851Y106353D01*
X30855Y106422D01*
X30877Y106549D01*
X30906Y106669D01*
X30920Y106720D01*
X30939Y106771D01*
X30957Y106818D01*
X30971Y106859D01*
X30986Y106891D01*
X31000Y106924D01*
X31011Y106946D01*
X31022Y106964D01*
X31026Y106975D01*
X31029Y106979D01*
X31102Y107095D01*
X31182Y107193D01*
X31222Y107241D01*
X31262Y107281D01*
X31299Y107321D01*
X31339Y107354D01*
X31372Y107386D01*
X31404Y107412D01*
X31433Y107434D01*
X31459Y107456D01*
X31481Y107470D01*
X31495Y107481D01*
X31506Y107485D01*
X31510Y107488D01*
X31481D01*
X31455D01*
X31433D01*
X31415D01*
X31404D01*
X31394D01*
X31390D01*
X31386D01*
X31244Y107485D01*
X31106Y107474D01*
X30979Y107459D01*
X30917Y107448D01*
X30862Y107441D01*
X30811Y107434D01*
X30767Y107423D01*
X30727Y107415D01*
X30695Y107408D01*
X30665Y107401D01*
X30647Y107397D01*
X30633Y107394D01*
X30629D01*
X30564Y107375D01*
X30498Y107357D01*
X30440Y107339D01*
X30382Y107321D01*
X30331Y107299D01*
X30283Y107281D01*
X30240Y107263D01*
X30200Y107244D01*
X30163Y107230D01*
X30130Y107212D01*
X30105Y107201D01*
X30083Y107186D01*
X30065Y107179D01*
X30054Y107172D01*
X30047Y107164D01*
X30043D01*
X29967Y107110D01*
X29897Y107051D01*
X29836Y106993D01*
X29788Y106939D01*
X29748Y106891D01*
X29719Y106851D01*
X29708Y106837D01*
X29701Y106826D01*
X29694Y106818D01*
Y106815D01*
X29650Y106731D01*
X29621Y106647D01*
X29599Y106560D01*
X29581Y106484D01*
X29574Y106414D01*
X29570Y106385D01*
Y106360D01*
X29566Y106342D01*
Y106313D01*
X29570Y106251D01*
X29574Y106192D01*
X29595Y106087D01*
X29624Y105996D01*
X29643Y105952D01*
X29661Y105916D01*
X29675Y105883D01*
X29694Y105850D01*
X29708Y105825D01*
X29723Y105807D01*
X29734Y105788D01*
X29744Y105777D01*
X29748Y105770D01*
X29752Y105766D01*
X29788Y105727D01*
X29832Y105694D01*
X29926Y105632D01*
X30029Y105581D01*
X30130Y105541D01*
X30174Y105526D01*
X30221Y105512D01*
X30261Y105501D01*
X30294Y105493D01*
X30323Y105486D01*
X30345Y105483D01*
X30360Y105479D01*
X30363D01*
X30309Y104886D01*
X30200Y104904D01*
X30098Y104926D01*
X30003Y104955D01*
X29912Y104988D01*
X29828Y105020D01*
X29755Y105060D01*
X29686Y105097D01*
X29624Y105137D01*
X29566Y105173D01*
X29519Y105210D01*
X29479Y105246D01*
X29446Y105275D01*
X29417Y105297D01*
X29399Y105319D01*
X29388Y105330D01*
X29384Y105333D01*
X29326Y105406D01*
X29275Y105483D01*
X29231Y105563D01*
X29195Y105643D01*
X29162Y105723D01*
X29137Y105803D01*
X29115Y105883D01*
X29097Y105959D01*
X29086Y106029D01*
X29075Y106094D01*
X29068Y106152D01*
X29060Y106203D01*
Y106243D01*
X29057Y106276D01*
Y106302D01*
X29060Y106404D01*
X29071Y106502D01*
X29086Y106597D01*
X29104Y106687D01*
X29126Y106775D01*
X29151Y106851D01*
X29177Y106928D01*
X29206Y106993D01*
X29235Y107055D01*
X29260Y107110D01*
X29286Y107157D01*
X29308Y107197D01*
X29326Y107230D01*
X29344Y107252D01*
X29351Y107266D01*
X29355Y107270D01*
X29413Y107346D01*
X29479Y107415D01*
X29548Y107481D01*
X29617Y107543D01*
X29690Y107597D01*
X29763Y107652D01*
X29832Y107696D01*
X29901Y107739D01*
X29967Y107776D01*
X30029Y107809D01*
X30083Y107834D01*
X30130Y107856D01*
X30170Y107874D01*
X30200Y107885D01*
X30218Y107892D01*
X30225Y107896D01*
X30338Y107932D01*
X30454Y107965D01*
X30578Y107994D01*
X30705Y108020D01*
X30833Y108038D01*
X30964Y108056D01*
X31088Y108071D01*
X31208Y108082D01*
X31321Y108089D01*
X31426Y108096D01*
X31521Y108100D01*
X31561Y108103D01*
X31601D01*
X31637D01*
X31670Y108107D01*
X31696D01*
X31717D01*
X31736D01*
X31750D01*
X31758D01*
X31761D01*
X31929Y108103D01*
D02*
G37*
G36*
X37745Y105748D02*
X37806Y105745D01*
X37861D01*
X37908Y105741D01*
X37952Y105737D01*
X37992Y105734D01*
X38025Y105730D01*
X38054Y105727D01*
X38079Y105723D01*
X38098D01*
X38112Y105719D01*
X38123Y105716D01*
X38127D01*
X38130D01*
X38225Y105690D01*
X38312Y105661D01*
X38392Y105632D01*
X38458Y105599D01*
X38513Y105570D01*
X38534Y105555D01*
X38553Y105544D01*
X38567Y105537D01*
X38578Y105530D01*
X38582Y105523D01*
X38585D01*
X38655Y105464D01*
X38716Y105399D01*
X38771Y105330D01*
X38815Y105264D01*
X38851Y105202D01*
X38866Y105177D01*
X38877Y105155D01*
X38888Y105133D01*
X38895Y105119D01*
X38898Y105111D01*
Y105108D01*
X38939Y105002D01*
X38968Y104897D01*
X38989Y104795D01*
X39004Y104704D01*
X39008Y104660D01*
X39011Y104624D01*
X39015Y104587D01*
X39018Y104558D01*
Y104503D01*
X39011Y104365D01*
X38993Y104234D01*
X38964Y104114D01*
X38924Y104001D01*
X38880Y103896D01*
X38829Y103801D01*
X38775Y103714D01*
X38720Y103637D01*
X38662Y103568D01*
X38607Y103510D01*
X38556Y103459D01*
X38513Y103415D01*
X38473Y103386D01*
X38443Y103360D01*
X38425Y103346D01*
X38418Y103342D01*
X38939D01*
Y102785D01*
X35287D01*
Y103404D01*
X37279D01*
X37406Y103408D01*
X37523Y103415D01*
X37628Y103430D01*
X37723Y103448D01*
X37810Y103470D01*
X37890Y103495D01*
X37959Y103521D01*
X38017Y103546D01*
X38072Y103572D01*
X38116Y103597D01*
X38152Y103623D01*
X38181Y103644D01*
X38203Y103663D01*
X38221Y103677D01*
X38229Y103684D01*
X38232Y103688D01*
X38276Y103743D01*
X38316Y103801D01*
X38349Y103859D01*
X38378Y103917D01*
X38403Y103976D01*
X38422Y104030D01*
X38440Y104085D01*
X38451Y104139D01*
X38462Y104187D01*
X38469Y104230D01*
X38476Y104271D01*
X38480Y104307D01*
X38483Y104332D01*
Y104372D01*
X38480Y104463D01*
X38465Y104543D01*
X38447Y104616D01*
X38429Y104682D01*
X38407Y104733D01*
X38389Y104769D01*
X38381Y104784D01*
X38374Y104795D01*
X38371Y104798D01*
Y104802D01*
X38327Y104867D01*
X38276Y104922D01*
X38225Y104966D01*
X38178Y105002D01*
X38134Y105028D01*
X38101Y105046D01*
X38087Y105053D01*
X38076Y105057D01*
X38072Y105060D01*
X38069D01*
X38032Y105075D01*
X37992Y105086D01*
X37901Y105104D01*
X37810Y105115D01*
X37715Y105126D01*
X37675D01*
X37635Y105130D01*
X37599D01*
X37566Y105133D01*
X37541D01*
X37523D01*
X37508D01*
X37504D01*
X35287D01*
Y105752D01*
X37530D01*
X37606D01*
X37679D01*
X37745Y105748D01*
D02*
G37*
G36*
X34196Y102811D02*
X34134Y102778D01*
X34073Y102742D01*
X33952Y102658D01*
X33839Y102567D01*
X33785Y102520D01*
X33734Y102476D01*
X33690Y102432D01*
X33647Y102392D01*
X33610Y102356D01*
X33577Y102323D01*
X33552Y102298D01*
X33534Y102279D01*
X33523Y102265D01*
X33519Y102261D01*
X33395Y102112D01*
X33283Y101955D01*
X33181Y101803D01*
X33137Y101730D01*
X33093Y101661D01*
X33057Y101599D01*
X33024Y101541D01*
X32995Y101486D01*
X32973Y101442D01*
X32955Y101406D01*
X32941Y101377D01*
X32933Y101362D01*
X32930Y101355D01*
X32333D01*
X32376Y101464D01*
X32427Y101577D01*
X32478Y101686D01*
X32529Y101788D01*
X32555Y101832D01*
X32577Y101875D01*
X32598Y101912D01*
X32616Y101941D01*
X32627Y101966D01*
X32638Y101988D01*
X32646Y101999D01*
X32649Y102003D01*
X32729Y102134D01*
X32769Y102192D01*
X32806Y102250D01*
X32846Y102301D01*
X32879Y102349D01*
X32915Y102392D01*
X32944Y102436D01*
X32973Y102469D01*
X32999Y102501D01*
X33024Y102531D01*
X33042Y102552D01*
X33057Y102571D01*
X33068Y102582D01*
X33075Y102589D01*
X33079Y102593D01*
X29140D01*
Y103211D01*
X34196D01*
Y102811D01*
D02*
G37*
G36*
X37322Y102057D02*
X37472Y102039D01*
X37610Y102017D01*
X37741Y101985D01*
X37865Y101948D01*
X37974Y101908D01*
X38076Y101864D01*
X38170Y101821D01*
X38250Y101777D01*
X38323Y101733D01*
X38381Y101693D01*
X38432Y101657D01*
X38473Y101624D01*
X38502Y101602D01*
X38516Y101588D01*
X38524Y101581D01*
X38611Y101489D01*
X38687Y101391D01*
X38753Y101289D01*
X38811Y101187D01*
X38858Y101085D01*
X38898Y100984D01*
X38931Y100882D01*
X38957Y100787D01*
X38978Y100696D01*
X38993Y100612D01*
X39004Y100540D01*
X39011Y100474D01*
X39015Y100423D01*
X39018Y100401D01*
Y100350D01*
X39015Y100226D01*
X39000Y100106D01*
X38982Y99993D01*
X38957Y99888D01*
X38924Y99786D01*
X38891Y99691D01*
X38851Y99604D01*
X38815Y99524D01*
X38778Y99451D01*
X38738Y99389D01*
X38706Y99335D01*
X38676Y99287D01*
X38647Y99251D01*
X38629Y99225D01*
X38614Y99211D01*
X38611Y99204D01*
X38513Y99105D01*
X38407Y99018D01*
X38291Y98945D01*
X38170Y98880D01*
X38047Y98825D01*
X37923Y98781D01*
X37799Y98741D01*
X37679Y98712D01*
X37563Y98690D01*
X37457Y98672D01*
X37362Y98661D01*
X37319Y98654D01*
X37279Y98650D01*
X37242D01*
X37209Y98647D01*
X37180D01*
X37155Y98643D01*
X37137D01*
X37122D01*
X37115D01*
X37111D01*
X36944Y98647D01*
X36784Y98665D01*
X36638Y98687D01*
X36500Y98716D01*
X36372Y98752D01*
X36256Y98792D01*
X36150Y98836D01*
X36056Y98880D01*
X35972Y98923D01*
X35899Y98963D01*
X35837Y99003D01*
X35786Y99040D01*
X35746Y99069D01*
X35717Y99091D01*
X35702Y99109D01*
X35695Y99113D01*
X35608Y99204D01*
X35535Y99302D01*
X35469Y99404D01*
X35415Y99506D01*
X35368Y99608D01*
X35328Y99713D01*
X35295Y99812D01*
X35269Y99910D01*
X35247Y100001D01*
X35233Y100084D01*
X35222Y100157D01*
X35215Y100223D01*
X35211Y100277D01*
Y100299D01*
X35208Y100317D01*
Y100350D01*
X35211Y100441D01*
X35218Y100525D01*
X35229Y100609D01*
X35244Y100692D01*
X35258Y100769D01*
X35277Y100842D01*
X35298Y100907D01*
X35320Y100973D01*
X35339Y101027D01*
X35360Y101078D01*
X35379Y101122D01*
X35397Y101162D01*
X35408Y101191D01*
X35419Y101213D01*
X35426Y101227D01*
X35429Y101231D01*
X35473Y101304D01*
X35520Y101373D01*
X35571Y101439D01*
X35622Y101497D01*
X35673Y101551D01*
X35724Y101602D01*
X35775Y101650D01*
X35826Y101690D01*
X35874Y101726D01*
X35917Y101759D01*
X35954Y101784D01*
X35990Y101806D01*
X36015Y101824D01*
X36037Y101835D01*
X36052Y101843D01*
X36056Y101846D01*
X36136Y101883D01*
X36219Y101919D01*
X36307Y101944D01*
X36398Y101970D01*
X36492Y101992D01*
X36583Y102010D01*
X36674Y102025D01*
X36762Y102035D01*
X36842Y102043D01*
X36918Y102050D01*
X36987Y102054D01*
X37046Y102057D01*
X37093Y102061D01*
X37133D01*
X37144D01*
X37155D01*
X37159D01*
X37162D01*
X37322Y102057D01*
D02*
G37*
G36*
X40325Y97314D02*
X39615D01*
Y97933D01*
X40325D01*
Y97314D01*
D02*
G37*
G36*
X38939D02*
X35287D01*
Y97933D01*
X38939D01*
Y97314D01*
D02*
G37*
G36*
X31888Y100248D02*
X32012Y100241D01*
X32125Y100234D01*
X32231Y100226D01*
X32329Y100215D01*
X32420Y100205D01*
X32500Y100194D01*
X32573Y100183D01*
X32635Y100172D01*
X32689Y100161D01*
X32733Y100154D01*
X32769Y100146D01*
X32791Y100139D01*
X32809Y100136D01*
X32813D01*
X32893Y100114D01*
X32973Y100088D01*
X33046Y100066D01*
X33115Y100041D01*
X33181Y100012D01*
X33243Y99986D01*
X33301Y99961D01*
X33352Y99935D01*
X33399Y99913D01*
X33439Y99892D01*
X33476Y99873D01*
X33505Y99855D01*
X33527Y99841D01*
X33545Y99830D01*
X33556Y99826D01*
X33559Y99822D01*
X33669Y99746D01*
X33763Y99662D01*
X33847Y99578D01*
X33912Y99498D01*
X33942Y99462D01*
X33963Y99426D01*
X33985Y99397D01*
X34003Y99371D01*
X34014Y99349D01*
X34025Y99335D01*
X34032Y99324D01*
Y99320D01*
X34062Y99262D01*
X34087Y99204D01*
X34127Y99080D01*
X34156Y98960D01*
X34174Y98851D01*
X34182Y98800D01*
X34189Y98756D01*
X34193Y98712D01*
Y98679D01*
X34196Y98650D01*
Y98610D01*
X34193Y98508D01*
X34185Y98414D01*
X34171Y98323D01*
X34149Y98235D01*
X34127Y98155D01*
X34102Y98079D01*
X34076Y98010D01*
X34051Y97948D01*
X34021Y97890D01*
X33996Y97842D01*
X33971Y97799D01*
X33949Y97762D01*
X33931Y97733D01*
X33916Y97715D01*
X33905Y97700D01*
X33901Y97697D01*
X33843Y97631D01*
X33781Y97569D01*
X33716Y97511D01*
X33647Y97456D01*
X33577Y97409D01*
X33505Y97365D01*
X33435Y97322D01*
X33370Y97289D01*
X33308Y97256D01*
X33250Y97227D01*
X33195Y97205D01*
X33152Y97183D01*
X33112Y97169D01*
X33086Y97158D01*
X33068Y97154D01*
X33061Y97151D01*
X32955Y97118D01*
X32842Y97092D01*
X32726Y97067D01*
X32606Y97045D01*
X32365Y97012D01*
X32249Y97001D01*
X32136Y96991D01*
X32030Y96983D01*
X31932Y96980D01*
X31845Y96976D01*
X31772Y96972D01*
X31739D01*
X31710Y96969D01*
X31685D01*
X31663D01*
X31645D01*
X31634D01*
X31626D01*
X31623D01*
X31492D01*
X31364Y96976D01*
X31244Y96980D01*
X31128Y96991D01*
X31015Y97001D01*
X30906Y97016D01*
X30804Y97031D01*
X30705Y97045D01*
X30607Y97063D01*
X30520Y97085D01*
X30433Y97103D01*
X30352Y97125D01*
X30272Y97147D01*
X30200Y97169D01*
X30130Y97194D01*
X30065Y97216D01*
X30007Y97238D01*
X29948Y97263D01*
X29897Y97285D01*
X29847Y97307D01*
X29803Y97329D01*
X29763Y97347D01*
X29726Y97369D01*
X29694Y97387D01*
X29664Y97402D01*
X29643Y97416D01*
X29621Y97431D01*
X29603Y97442D01*
X29592Y97453D01*
X29581Y97460D01*
X29577Y97464D01*
X29574D01*
X29482Y97544D01*
X29402Y97631D01*
X29333Y97722D01*
X29275Y97817D01*
X29224Y97915D01*
X29184Y98010D01*
X29148Y98101D01*
X29122Y98192D01*
X29100Y98279D01*
X29086Y98356D01*
X29071Y98428D01*
X29064Y98490D01*
X29060Y98541D01*
X29057Y98577D01*
Y98610D01*
X29060Y98712D01*
X29071Y98807D01*
X29086Y98898D01*
X29104Y98985D01*
X29126Y99065D01*
X29151Y99138D01*
X29177Y99207D01*
X29206Y99273D01*
X29231Y99327D01*
X29257Y99378D01*
X29282Y99418D01*
X29304Y99455D01*
X29326Y99484D01*
X29340Y99502D01*
X29348Y99517D01*
X29351Y99520D01*
X29410Y99586D01*
X29471Y99648D01*
X29537Y99706D01*
X29606Y99761D01*
X29679Y99808D01*
X29748Y99852D01*
X29817Y99895D01*
X29883Y99932D01*
X29945Y99961D01*
X30003Y99990D01*
X30058Y100012D01*
X30101Y100033D01*
X30141Y100048D01*
X30167Y100059D01*
X30185Y100063D01*
X30192Y100066D01*
X30298Y100099D01*
X30411Y100128D01*
X30527Y100154D01*
X30647Y100175D01*
X30884Y100208D01*
X31000Y100219D01*
X31113Y100230D01*
X31219Y100237D01*
X31313Y100241D01*
X31401Y100245D01*
X31477Y100248D01*
X31510D01*
X31539Y100252D01*
X31565D01*
X31583D01*
X31601D01*
X31612D01*
X31619D01*
X31623D01*
X31761D01*
X31888Y100248D01*
D02*
G37*
G36*
X36474Y96572D02*
X36576Y96557D01*
X36663Y96532D01*
X36704Y96517D01*
X36740Y96506D01*
X36773Y96492D01*
X36802Y96477D01*
X36827Y96466D01*
X36849Y96452D01*
X36864Y96444D01*
X36875Y96437D01*
X36882Y96430D01*
X36885D01*
X36962Y96368D01*
X37027Y96302D01*
X37082Y96237D01*
X37129Y96171D01*
X37166Y96113D01*
X37180Y96088D01*
X37191Y96066D01*
X37202Y96048D01*
X37209Y96033D01*
X37213Y96026D01*
Y96022D01*
X37235Y95968D01*
X37257Y95909D01*
X37282Y95840D01*
X37304Y95771D01*
X37355Y95618D01*
X37399Y95465D01*
X37421Y95396D01*
X37439Y95327D01*
X37457Y95265D01*
X37472Y95210D01*
X37483Y95167D01*
X37493Y95134D01*
X37497Y95112D01*
X37501Y95109D01*
Y95105D01*
X37523Y95025D01*
X37544Y94949D01*
X37563Y94883D01*
X37577Y94825D01*
X37592Y94774D01*
X37606Y94730D01*
X37617Y94690D01*
X37624Y94657D01*
X37635Y94632D01*
X37639Y94610D01*
X37646Y94592D01*
X37650Y94577D01*
X37653Y94566D01*
X37657Y94559D01*
Y94555D01*
X37683Y94497D01*
X37712Y94450D01*
X37737Y94406D01*
X37763Y94373D01*
X37788Y94348D01*
X37806Y94330D01*
X37817Y94319D01*
X37821Y94315D01*
X37857Y94290D01*
X37897Y94271D01*
X37934Y94261D01*
X37967Y94253D01*
X37996Y94246D01*
X38017Y94242D01*
X38036D01*
X38039D01*
X38072Y94246D01*
X38109Y94250D01*
X38170Y94271D01*
X38225Y94301D01*
X38272Y94333D01*
X38312Y94366D01*
X38342Y94395D01*
X38360Y94417D01*
X38367Y94421D01*
Y94424D01*
X38392Y94461D01*
X38414Y94504D01*
X38432Y94548D01*
X38451Y94595D01*
X38476Y94697D01*
X38491Y94799D01*
X38498Y94846D01*
X38502Y94890D01*
X38505Y94930D01*
Y94967D01*
X38509Y94996D01*
Y95101D01*
X38502Y95163D01*
X38494Y95222D01*
X38483Y95276D01*
X38473Y95323D01*
X38458Y95371D01*
X38443Y95411D01*
X38429Y95451D01*
X38414Y95483D01*
X38400Y95513D01*
X38385Y95534D01*
X38374Y95556D01*
X38363Y95571D01*
X38356Y95586D01*
X38352Y95589D01*
X38349Y95593D01*
X38320Y95629D01*
X38287Y95662D01*
X38214Y95717D01*
X38141Y95757D01*
X38072Y95789D01*
X38010Y95811D01*
X37981Y95822D01*
X37959Y95826D01*
X37938Y95833D01*
X37923D01*
X37916Y95837D01*
X37912D01*
X37996Y96441D01*
X38123Y96415D01*
X38178Y96397D01*
X38232Y96379D01*
X38283Y96364D01*
X38331Y96346D01*
X38371Y96328D01*
X38411Y96310D01*
X38443Y96292D01*
X38476Y96277D01*
X38502Y96263D01*
X38520Y96248D01*
X38538Y96237D01*
X38549Y96230D01*
X38556Y96226D01*
X38560Y96223D01*
X38600Y96193D01*
X38636Y96157D01*
X38702Y96084D01*
X38760Y96004D01*
X38807Y95928D01*
X38844Y95855D01*
X38858Y95826D01*
X38873Y95800D01*
X38884Y95778D01*
X38888Y95760D01*
X38895Y95749D01*
Y95746D01*
X38935Y95622D01*
X38968Y95491D01*
X38989Y95363D01*
X38997Y95302D01*
X39004Y95247D01*
X39008Y95192D01*
X39011Y95141D01*
X39015Y95098D01*
X39018Y95061D01*
Y94989D01*
X39015Y94883D01*
X39008Y94785D01*
X38993Y94694D01*
X38982Y94614D01*
X38975Y94581D01*
X38968Y94548D01*
X38960Y94519D01*
X38953Y94497D01*
X38949Y94479D01*
X38946Y94464D01*
X38942Y94457D01*
Y94453D01*
X38913Y94366D01*
X38884Y94286D01*
X38855Y94221D01*
X38826Y94166D01*
X38800Y94118D01*
X38782Y94086D01*
X38767Y94068D01*
X38764Y94060D01*
X38709Y93991D01*
X38651Y93933D01*
X38593Y93878D01*
X38538Y93835D01*
X38491Y93802D01*
X38454Y93776D01*
X38440Y93765D01*
X38429Y93758D01*
X38422Y93755D01*
X38418D01*
X38338Y93718D01*
X38261Y93693D01*
X38185Y93671D01*
X38116Y93660D01*
X38054Y93653D01*
X38028Y93649D01*
X38007D01*
X37992Y93645D01*
X37977D01*
X37970D01*
X37967D01*
X37868Y93653D01*
X37777Y93667D01*
X37694Y93689D01*
X37621Y93714D01*
X37588Y93725D01*
X37559Y93736D01*
X37533Y93747D01*
X37515Y93758D01*
X37497Y93769D01*
X37486Y93773D01*
X37479Y93780D01*
X37475D01*
X37395Y93835D01*
X37326Y93900D01*
X37268Y93966D01*
X37220Y94028D01*
X37180Y94086D01*
X37166Y94111D01*
X37151Y94133D01*
X37144Y94151D01*
X37137Y94166D01*
X37129Y94173D01*
Y94177D01*
X37108Y94231D01*
X37082Y94293D01*
X37057Y94362D01*
X37031Y94435D01*
X36980Y94592D01*
X36933Y94748D01*
X36911Y94825D01*
X36893Y94894D01*
X36875Y94956D01*
X36860Y95014D01*
X36849Y95058D01*
X36838Y95094D01*
X36834Y95116D01*
X36831Y95120D01*
Y95123D01*
X36809Y95214D01*
X36787Y95298D01*
X36765Y95371D01*
X36747Y95436D01*
X36729Y95494D01*
X36711Y95549D01*
X36696Y95593D01*
X36682Y95633D01*
X36667Y95662D01*
X36656Y95691D01*
X36645Y95713D01*
X36638Y95731D01*
X36631Y95742D01*
X36627Y95749D01*
X36623Y95757D01*
X36602Y95789D01*
X36576Y95818D01*
X36547Y95844D01*
X36522Y95866D01*
X36467Y95898D01*
X36416Y95920D01*
X36369Y95931D01*
X36329Y95938D01*
X36318Y95942D01*
X36307D01*
X36299D01*
X36296D01*
X36252Y95938D01*
X36212Y95935D01*
X36172Y95924D01*
X36136Y95909D01*
X36063Y95877D01*
X36005Y95840D01*
X35957Y95800D01*
X35921Y95767D01*
X35906Y95753D01*
X35895Y95742D01*
X35892Y95738D01*
X35888Y95735D01*
X35859Y95695D01*
X35833Y95647D01*
X35790Y95549D01*
X35761Y95443D01*
X35739Y95342D01*
X35732Y95291D01*
X35728Y95247D01*
X35721Y95207D01*
Y95170D01*
X35717Y95141D01*
Y95101D01*
X35721Y95025D01*
X35724Y94952D01*
X35735Y94883D01*
X35746Y94817D01*
X35761Y94759D01*
X35779Y94705D01*
X35797Y94654D01*
X35815Y94610D01*
X35830Y94570D01*
X35848Y94537D01*
X35866Y94508D01*
X35881Y94482D01*
X35892Y94464D01*
X35903Y94450D01*
X35906Y94442D01*
X35910Y94439D01*
X35950Y94399D01*
X35990Y94359D01*
X36034Y94326D01*
X36081Y94297D01*
X36176Y94246D01*
X36267Y94209D01*
X36307Y94195D01*
X36347Y94184D01*
X36383Y94173D01*
X36412Y94166D01*
X36438Y94162D01*
X36460Y94159D01*
X36470Y94155D01*
X36474D01*
X36380Y93543D01*
X36274Y93565D01*
X36176Y93594D01*
X36081Y93624D01*
X35997Y93660D01*
X35917Y93700D01*
X35844Y93736D01*
X35783Y93780D01*
X35724Y93820D01*
X35670Y93856D01*
X35626Y93893D01*
X35590Y93929D01*
X35557Y93958D01*
X35535Y93980D01*
X35517Y94002D01*
X35506Y94013D01*
X35502Y94017D01*
X35451Y94089D01*
X35404Y94169D01*
X35364Y94257D01*
X35331Y94344D01*
X35302Y94435D01*
X35280Y94526D01*
X35258Y94614D01*
X35244Y94701D01*
X35233Y94785D01*
X35222Y94861D01*
X35218Y94927D01*
X35211Y94989D01*
Y95036D01*
X35208Y95072D01*
Y95105D01*
X35215Y95262D01*
X35229Y95407D01*
X35244Y95473D01*
X35255Y95538D01*
X35269Y95596D01*
X35284Y95651D01*
X35295Y95698D01*
X35309Y95742D01*
X35324Y95782D01*
X35335Y95815D01*
X35342Y95840D01*
X35349Y95859D01*
X35357Y95869D01*
Y95873D01*
X35386Y95935D01*
X35419Y95993D01*
X35451Y96048D01*
X35484Y96099D01*
X35520Y96146D01*
X35557Y96190D01*
X35590Y96230D01*
X35622Y96263D01*
X35655Y96295D01*
X35684Y96321D01*
X35710Y96346D01*
X35735Y96364D01*
X35753Y96379D01*
X35768Y96390D01*
X35775Y96394D01*
X35779Y96397D01*
X35830Y96430D01*
X35881Y96459D01*
X35935Y96481D01*
X35986Y96503D01*
X36085Y96535D01*
X36172Y96557D01*
X36212Y96565D01*
X36248Y96568D01*
X36281Y96575D01*
X36310D01*
X36332Y96579D01*
X36347D01*
X36358D01*
X36361D01*
X36474Y96572D01*
D02*
G37*
G36*
X29734Y93838D02*
X29796Y93878D01*
X29857Y93922D01*
X29912Y93966D01*
X29963Y94006D01*
X30003Y94042D01*
X30036Y94071D01*
X30058Y94089D01*
X30065Y94097D01*
X30101Y94129D01*
X30141Y94173D01*
X30185Y94221D01*
X30236Y94275D01*
X30287Y94333D01*
X30342Y94392D01*
X30447Y94515D01*
X30498Y94573D01*
X30545Y94628D01*
X30589Y94675D01*
X30625Y94723D01*
X30658Y94759D01*
X30680Y94785D01*
X30698Y94803D01*
X30702Y94810D01*
X30804Y94930D01*
X30902Y95043D01*
X30993Y95145D01*
X31077Y95240D01*
X31157Y95327D01*
X31230Y95403D01*
X31295Y95476D01*
X31353Y95538D01*
X31408Y95593D01*
X31455Y95636D01*
X31495Y95676D01*
X31528Y95709D01*
X31554Y95735D01*
X31572Y95749D01*
X31583Y95760D01*
X31586Y95764D01*
X31648Y95815D01*
X31707Y95866D01*
X31765Y95909D01*
X31819Y95950D01*
X31925Y96022D01*
X31972Y96051D01*
X32016Y96077D01*
X32056Y96102D01*
X32092Y96121D01*
X32125Y96139D01*
X32151Y96150D01*
X32172Y96161D01*
X32187Y96168D01*
X32198Y96175D01*
X32201D01*
X32311Y96215D01*
X32416Y96248D01*
X32518Y96270D01*
X32609Y96284D01*
X32649Y96288D01*
X32686Y96292D01*
X32715Y96295D01*
X32744Y96299D01*
X32766D01*
X32780D01*
X32791D01*
X32795D01*
X32904Y96295D01*
X33010Y96281D01*
X33108Y96259D01*
X33202Y96233D01*
X33290Y96201D01*
X33374Y96164D01*
X33450Y96124D01*
X33519Y96088D01*
X33581Y96048D01*
X33636Y96008D01*
X33683Y95971D01*
X33719Y95938D01*
X33752Y95913D01*
X33774Y95891D01*
X33789Y95877D01*
X33792Y95873D01*
X33865Y95789D01*
X33927Y95702D01*
X33978Y95611D01*
X34025Y95516D01*
X34065Y95422D01*
X34098Y95323D01*
X34124Y95232D01*
X34145Y95141D01*
X34163Y95058D01*
X34174Y94978D01*
X34185Y94908D01*
X34189Y94846D01*
X34193Y94796D01*
X34196Y94759D01*
Y94726D01*
X34193Y94595D01*
X34182Y94472D01*
X34163Y94355D01*
X34138Y94246D01*
X34109Y94144D01*
X34076Y94049D01*
X34043Y93966D01*
X34011Y93886D01*
X33974Y93816D01*
X33942Y93755D01*
X33909Y93704D01*
X33880Y93660D01*
X33858Y93627D01*
X33836Y93602D01*
X33825Y93587D01*
X33821Y93584D01*
X33748Y93507D01*
X33669Y93441D01*
X33585Y93380D01*
X33497Y93329D01*
X33406Y93281D01*
X33315Y93241D01*
X33228Y93208D01*
X33141Y93179D01*
X33061Y93158D01*
X32984Y93139D01*
X32915Y93125D01*
X32857Y93114D01*
X32809Y93103D01*
X32773Y93099D01*
X32759D01*
X32748Y93096D01*
X32744D01*
X32740D01*
X32675Y93733D01*
X32762Y93736D01*
X32842Y93744D01*
X32919Y93758D01*
X32991Y93773D01*
X33057Y93795D01*
X33115Y93816D01*
X33173Y93842D01*
X33221Y93867D01*
X33264Y93889D01*
X33305Y93915D01*
X33337Y93937D01*
X33366Y93958D01*
X33384Y93973D01*
X33403Y93988D01*
X33410Y93995D01*
X33414Y93998D01*
X33461Y94049D01*
X33501Y94108D01*
X33537Y94166D01*
X33570Y94224D01*
X33596Y94286D01*
X33617Y94344D01*
X33636Y94402D01*
X33650Y94457D01*
X33661Y94512D01*
X33669Y94559D01*
X33676Y94603D01*
X33679Y94643D01*
X33683Y94672D01*
Y94715D01*
X33679Y94792D01*
X33672Y94865D01*
X33661Y94934D01*
X33643Y94999D01*
X33625Y95058D01*
X33603Y95116D01*
X33581Y95167D01*
X33556Y95214D01*
X33534Y95254D01*
X33508Y95291D01*
X33487Y95323D01*
X33468Y95349D01*
X33450Y95371D01*
X33439Y95385D01*
X33432Y95393D01*
X33428Y95396D01*
X33381Y95443D01*
X33330Y95483D01*
X33279Y95520D01*
X33224Y95549D01*
X33173Y95574D01*
X33123Y95596D01*
X33072Y95615D01*
X33024Y95629D01*
X32980Y95640D01*
X32941Y95647D01*
X32904Y95655D01*
X32871Y95658D01*
X32846Y95662D01*
X32828D01*
X32813D01*
X32809D01*
X32744Y95658D01*
X32678Y95651D01*
X32613Y95636D01*
X32547Y95618D01*
X32420Y95571D01*
X32362Y95542D01*
X32307Y95516D01*
X32256Y95491D01*
X32209Y95462D01*
X32169Y95440D01*
X32132Y95418D01*
X32107Y95396D01*
X32085Y95382D01*
X32070Y95374D01*
X32067Y95371D01*
X31990Y95312D01*
X31907Y95240D01*
X31823Y95163D01*
X31736Y95076D01*
X31645Y94989D01*
X31557Y94894D01*
X31470Y94803D01*
X31386Y94708D01*
X31306Y94621D01*
X31233Y94537D01*
X31164Y94464D01*
X31109Y94395D01*
X31062Y94341D01*
X31044Y94319D01*
X31026Y94301D01*
X31015Y94286D01*
X31004Y94275D01*
X31000Y94268D01*
X30997Y94264D01*
X30917Y94169D01*
X30840Y94078D01*
X30767Y93995D01*
X30698Y93915D01*
X30629Y93842D01*
X30567Y93776D01*
X30509Y93718D01*
X30454Y93664D01*
X30407Y93613D01*
X30363Y93572D01*
X30327Y93536D01*
X30294Y93507D01*
X30269Y93485D01*
X30250Y93471D01*
X30240Y93460D01*
X30236Y93456D01*
X30112Y93358D01*
X29992Y93274D01*
X29879Y93205D01*
X29828Y93172D01*
X29777Y93147D01*
X29734Y93125D01*
X29694Y93103D01*
X29657Y93085D01*
X29624Y93074D01*
X29599Y93063D01*
X29581Y93056D01*
X29570Y93048D01*
X29566D01*
X29490Y93023D01*
X29413Y93005D01*
X29340Y92994D01*
X29279Y92987D01*
X29220Y92983D01*
X29199Y92979D01*
X29177D01*
X29162D01*
X29151D01*
X29144D01*
X29140D01*
Y96306D01*
X29734D01*
Y93838D01*
D02*
G37*
G36*
X38855Y93361D02*
X38884Y93303D01*
X38913Y93245D01*
X38935Y93187D01*
X38971Y93081D01*
X38982Y93030D01*
X38993Y92983D01*
X39000Y92939D01*
X39008Y92903D01*
X39011Y92870D01*
X39015Y92841D01*
X39018Y92819D01*
Y92786D01*
X39015Y92706D01*
X39000Y92633D01*
X38978Y92568D01*
X38957Y92506D01*
X38931Y92459D01*
X38913Y92422D01*
X38902Y92408D01*
X38898Y92397D01*
X38891Y92393D01*
Y92390D01*
X38866Y92357D01*
X38833Y92320D01*
X38796Y92288D01*
X38760Y92255D01*
X38673Y92189D01*
X38589Y92127D01*
X38509Y92076D01*
X38473Y92055D01*
X38440Y92036D01*
X38414Y92022D01*
X38396Y92011D01*
X38381Y92004D01*
X38378Y92000D01*
X38939D01*
Y91443D01*
X35287D01*
Y92062D01*
X37195D01*
X37341Y92066D01*
X37475Y92076D01*
X37537Y92087D01*
X37595Y92095D01*
X37650Y92102D01*
X37705Y92113D01*
X37748Y92124D01*
X37792Y92131D01*
X37828Y92142D01*
X37857Y92149D01*
X37883Y92153D01*
X37901Y92160D01*
X37912Y92164D01*
X37916D01*
X37992Y92193D01*
X38061Y92229D01*
X38120Y92266D01*
X38167Y92306D01*
X38203Y92339D01*
X38232Y92368D01*
X38247Y92386D01*
X38254Y92393D01*
X38294Y92455D01*
X38327Y92517D01*
X38349Y92579D01*
X38363Y92633D01*
X38371Y92681D01*
X38378Y92721D01*
Y92753D01*
X38371Y92837D01*
X38356Y92921D01*
X38338Y92997D01*
X38312Y93063D01*
X38287Y93121D01*
X38276Y93147D01*
X38269Y93165D01*
X38258Y93183D01*
X38254Y93194D01*
X38247Y93201D01*
Y93205D01*
X38818Y93423D01*
X38855Y93361D01*
D02*
G37*
G36*
X32791Y89492D02*
X32089D01*
Y90195D01*
X32791D01*
Y89492D01*
D02*
G37*
G36*
X29843D02*
X29140D01*
Y90195D01*
X29843D01*
Y89492D01*
D02*
G37*
G36*
X37282Y90690D02*
X37439Y90675D01*
X37584Y90650D01*
X37719Y90620D01*
X37843Y90584D01*
X37959Y90548D01*
X38065Y90504D01*
X38159Y90460D01*
X38243Y90417D01*
X38316Y90377D01*
X38378Y90337D01*
X38429Y90300D01*
X38469Y90271D01*
X38498Y90249D01*
X38513Y90231D01*
X38520Y90227D01*
X38607Y90136D01*
X38684Y90042D01*
X38753Y89947D01*
X38807Y89845D01*
X38858Y89747D01*
X38898Y89645D01*
X38931Y89550D01*
X38957Y89456D01*
X38978Y89368D01*
X38993Y89288D01*
X39004Y89219D01*
X39011Y89154D01*
X39015Y89103D01*
X39018Y89066D01*
Y89034D01*
X39011Y88895D01*
X38997Y88764D01*
X38971Y88640D01*
X38939Y88520D01*
X38902Y88411D01*
X38858Y88313D01*
X38811Y88218D01*
X38764Y88134D01*
X38716Y88058D01*
X38669Y87992D01*
X38629Y87938D01*
X38589Y87890D01*
X38556Y87850D01*
X38531Y87825D01*
X38516Y87810D01*
X38509Y87803D01*
X38411Y87719D01*
X38301Y87647D01*
X38189Y87585D01*
X38072Y87530D01*
X37952Y87483D01*
X37832Y87446D01*
X37715Y87414D01*
X37606Y87388D01*
X37497Y87370D01*
X37399Y87355D01*
X37311Y87344D01*
X37235Y87337D01*
X37198Y87334D01*
X37169D01*
X37144D01*
X37122Y87330D01*
X37104D01*
X37093D01*
X37086D01*
X37082D01*
X36918Y87334D01*
X36765Y87352D01*
X36623Y87374D01*
X36489Y87403D01*
X36365Y87439D01*
X36252Y87479D01*
X36150Y87519D01*
X36056Y87563D01*
X35972Y87607D01*
X35903Y87650D01*
X35841Y87687D01*
X35790Y87723D01*
X35750Y87752D01*
X35721Y87778D01*
X35706Y87792D01*
X35699Y87796D01*
X35612Y87887D01*
X35535Y87985D01*
X35469Y88087D01*
X35415Y88193D01*
X35368Y88298D01*
X35328Y88404D01*
X35295Y88509D01*
X35269Y88608D01*
X35247Y88702D01*
X35233Y88790D01*
X35222Y88866D01*
X35215Y88935D01*
X35211Y88990D01*
Y89012D01*
X35208Y89030D01*
Y89066D01*
X35211Y89183D01*
X35222Y89296D01*
X35237Y89401D01*
X35255Y89499D01*
X35280Y89590D01*
X35306Y89678D01*
X35335Y89754D01*
X35364Y89827D01*
X35389Y89893D01*
X35419Y89947D01*
X35444Y89998D01*
X35469Y90038D01*
X35488Y90071D01*
X35502Y90093D01*
X35513Y90107D01*
X35517Y90111D01*
X35579Y90184D01*
X35644Y90253D01*
X35713Y90315D01*
X35783Y90369D01*
X35855Y90420D01*
X35928Y90468D01*
X36001Y90508D01*
X36066Y90544D01*
X36132Y90577D01*
X36194Y90602D01*
X36248Y90624D01*
X36296Y90642D01*
X36332Y90653D01*
X36361Y90664D01*
X36380Y90671D01*
X36387D01*
X36470Y90035D01*
X36398Y90005D01*
X36332Y89976D01*
X36270Y89947D01*
X36212Y89914D01*
X36161Y89882D01*
X36114Y89852D01*
X36074Y89820D01*
X36034Y89791D01*
X36001Y89762D01*
X35972Y89736D01*
X35950Y89714D01*
X35928Y89692D01*
X35914Y89674D01*
X35903Y89663D01*
X35899Y89656D01*
X35895Y89652D01*
X35863Y89605D01*
X35837Y89558D01*
X35812Y89510D01*
X35794Y89459D01*
X35761Y89361D01*
X35739Y89270D01*
X35732Y89230D01*
X35728Y89190D01*
X35724Y89157D01*
X35721Y89128D01*
X35717Y89103D01*
Y89070D01*
X35721Y88986D01*
X35732Y88906D01*
X35746Y88830D01*
X35768Y88757D01*
X35790Y88688D01*
X35819Y88626D01*
X35844Y88568D01*
X35877Y88517D01*
X35906Y88469D01*
X35935Y88426D01*
X35961Y88389D01*
X35983Y88360D01*
X36005Y88338D01*
X36019Y88320D01*
X36030Y88309D01*
X36034Y88305D01*
X36096Y88251D01*
X36165Y88204D01*
X36238Y88160D01*
X36314Y88124D01*
X36390Y88091D01*
X36467Y88065D01*
X36540Y88040D01*
X36616Y88021D01*
X36685Y88007D01*
X36747Y87992D01*
X36805Y87985D01*
X36856Y87978D01*
X36896Y87971D01*
X36929D01*
X36947Y87967D01*
X36955D01*
Y90690D01*
X36995D01*
X37027Y90693D01*
X37053D01*
X37078D01*
X37097D01*
X37108D01*
X37115D01*
X37119D01*
X37282Y90690D01*
D02*
G37*
G36*
X31135Y88560D02*
X31291Y88546D01*
X31437Y88520D01*
X31572Y88491D01*
X31696Y88455D01*
X31812Y88418D01*
X31918Y88375D01*
X32012Y88331D01*
X32096Y88287D01*
X32169Y88247D01*
X32231Y88207D01*
X32282Y88171D01*
X32322Y88142D01*
X32351Y88120D01*
X32365Y88102D01*
X32373Y88098D01*
X32460Y88007D01*
X32536Y87912D01*
X32606Y87818D01*
X32660Y87716D01*
X32711Y87617D01*
X32751Y87516D01*
X32784Y87421D01*
X32809Y87326D01*
X32831Y87239D01*
X32846Y87159D01*
X32857Y87090D01*
X32864Y87024D01*
X32868Y86973D01*
X32871Y86937D01*
Y86904D01*
X32864Y86766D01*
X32849Y86635D01*
X32824Y86511D01*
X32791Y86391D01*
X32755Y86282D01*
X32711Y86183D01*
X32664Y86089D01*
X32616Y86005D01*
X32569Y85928D01*
X32522Y85863D01*
X32482Y85808D01*
X32442Y85761D01*
X32409Y85721D01*
X32383Y85696D01*
X32369Y85681D01*
X32362Y85674D01*
X32263Y85590D01*
X32154Y85517D01*
X32041Y85455D01*
X31925Y85401D01*
X31805Y85353D01*
X31685Y85317D01*
X31568Y85284D01*
X31459Y85259D01*
X31350Y85241D01*
X31251Y85226D01*
X31164Y85215D01*
X31088Y85208D01*
X31051Y85204D01*
X31022D01*
X30997D01*
X30975Y85201D01*
X30957D01*
X30946D01*
X30939D01*
X30935D01*
X30771Y85204D01*
X30618Y85222D01*
X30476Y85244D01*
X30342Y85273D01*
X30218Y85310D01*
X30105Y85350D01*
X30003Y85390D01*
X29908Y85434D01*
X29825Y85477D01*
X29755Y85521D01*
X29694Y85557D01*
X29643Y85594D01*
X29603Y85623D01*
X29574Y85648D01*
X29559Y85663D01*
X29552Y85666D01*
X29464Y85757D01*
X29388Y85856D01*
X29322Y85958D01*
X29268Y86063D01*
X29220Y86169D01*
X29180Y86274D01*
X29148Y86380D01*
X29122Y86478D01*
X29100Y86573D01*
X29086Y86660D01*
X29075Y86737D01*
X29068Y86806D01*
X29064Y86860D01*
Y86882D01*
X29060Y86900D01*
Y86937D01*
X29064Y87053D01*
X29075Y87166D01*
X29089Y87272D01*
X29107Y87370D01*
X29133Y87461D01*
X29158Y87548D01*
X29188Y87625D01*
X29217Y87698D01*
X29242Y87763D01*
X29271Y87818D01*
X29297Y87869D01*
X29322Y87909D01*
X29340Y87941D01*
X29355Y87963D01*
X29366Y87978D01*
X29370Y87981D01*
X29432Y88054D01*
X29497Y88124D01*
X29566Y88185D01*
X29635Y88240D01*
X29708Y88291D01*
X29781Y88338D01*
X29854Y88378D01*
X29919Y88415D01*
X29985Y88447D01*
X30047Y88473D01*
X30101Y88495D01*
X30149Y88513D01*
X30185Y88524D01*
X30214Y88535D01*
X30232Y88542D01*
X30240D01*
X30323Y87905D01*
X30250Y87876D01*
X30185Y87847D01*
X30123Y87818D01*
X30065Y87785D01*
X30014Y87752D01*
X29967Y87723D01*
X29926Y87690D01*
X29886Y87661D01*
X29854Y87632D01*
X29825Y87607D01*
X29803Y87585D01*
X29781Y87563D01*
X29766Y87545D01*
X29755Y87534D01*
X29752Y87527D01*
X29748Y87523D01*
X29715Y87476D01*
X29690Y87428D01*
X29664Y87381D01*
X29646Y87330D01*
X29614Y87232D01*
X29592Y87141D01*
X29584Y87101D01*
X29581Y87061D01*
X29577Y87028D01*
X29574Y86999D01*
X29570Y86973D01*
Y86940D01*
X29574Y86857D01*
X29584Y86777D01*
X29599Y86700D01*
X29621Y86627D01*
X29643Y86558D01*
X29672Y86496D01*
X29697Y86438D01*
X29730Y86387D01*
X29759Y86340D01*
X29788Y86296D01*
X29814Y86260D01*
X29836Y86231D01*
X29857Y86209D01*
X29872Y86191D01*
X29883Y86180D01*
X29886Y86176D01*
X29948Y86121D01*
X30018Y86074D01*
X30090Y86030D01*
X30167Y85994D01*
X30243Y85961D01*
X30320Y85936D01*
X30393Y85910D01*
X30469Y85892D01*
X30538Y85878D01*
X30600Y85863D01*
X30658Y85856D01*
X30709Y85848D01*
X30749Y85841D01*
X30782D01*
X30800Y85838D01*
X30807D01*
Y88560D01*
X30847D01*
X30880Y88564D01*
X30906D01*
X30931D01*
X30949D01*
X30960D01*
X30968D01*
X30971D01*
X31135Y88560D01*
D02*
G37*
G36*
X29694Y84800D02*
X29686Y84742D01*
X29683Y84687D01*
X29675Y84640D01*
Y84604D01*
X29672Y84571D01*
Y84531D01*
X29675Y84483D01*
X29679Y84440D01*
X29686Y84403D01*
X29694Y84374D01*
X29701Y84349D01*
X29708Y84334D01*
X29715Y84323D01*
Y84320D01*
X29734Y84294D01*
X29752Y84272D01*
X29792Y84240D01*
X29810Y84229D01*
X29825Y84221D01*
X29832Y84214D01*
X29836D01*
X29854Y84210D01*
X29872Y84203D01*
X29919Y84196D01*
X29978Y84192D01*
X30032Y84189D01*
X30087Y84185D01*
X30130D01*
X30149D01*
X30163D01*
X30170D01*
X30174D01*
X32311D01*
Y84800D01*
X32791D01*
Y84185D01*
X34065D01*
X33694Y83566D01*
X32791D01*
Y83108D01*
X32311D01*
Y83566D01*
X30207D01*
X30108D01*
X30014Y83570D01*
X29934Y83574D01*
X29857Y83577D01*
X29792Y83584D01*
X29730Y83588D01*
X29679Y83595D01*
X29632Y83603D01*
X29592Y83610D01*
X29559Y83617D01*
X29533Y83621D01*
X29512Y83628D01*
X29493Y83632D01*
X29482Y83635D01*
X29479Y83639D01*
X29475D01*
X29413Y83672D01*
X29359Y83712D01*
X29311Y83755D01*
X29271Y83799D01*
X29242Y83839D01*
X29217Y83872D01*
X29202Y83894D01*
X29199Y83897D01*
Y83901D01*
X29162Y83978D01*
X29137Y84061D01*
X29118Y84149D01*
X29107Y84232D01*
X29100Y84305D01*
X29097Y84338D01*
X29093Y84367D01*
Y84422D01*
X29097Y84502D01*
X29100Y84582D01*
X29111Y84662D01*
X29122Y84735D01*
X29129Y84797D01*
X29137Y84826D01*
X29140Y84847D01*
X29144Y84866D01*
Y84880D01*
X29148Y84887D01*
Y84891D01*
X29694Y84800D01*
D02*
G37*
G36*
X40325Y86336D02*
X36663Y84975D01*
X36511Y84917D01*
X36358Y84866D01*
X36288Y84844D01*
X36219Y84818D01*
X36154Y84800D01*
X36096Y84778D01*
X36041Y84764D01*
X35990Y84746D01*
X35946Y84735D01*
X35906Y84724D01*
X35877Y84713D01*
X35855Y84706D01*
X35841Y84702D01*
X35837D01*
X35983Y84662D01*
X36128Y84614D01*
X36267Y84571D01*
X36332Y84549D01*
X36394Y84531D01*
X36452Y84509D01*
X36503Y84491D01*
X36551Y84476D01*
X36587Y84462D01*
X36620Y84451D01*
X36645Y84443D01*
X36660Y84440D01*
X36663Y84436D01*
X40325Y83129D01*
Y82405D01*
X35287Y84356D01*
Y85044D01*
X40325Y87017D01*
Y86336D01*
D02*
G37*
G36*
X29220Y82649D02*
X29297Y82613D01*
X29370Y82587D01*
X29435Y82565D01*
X29493Y82547D01*
X29519Y82543D01*
X29537Y82536D01*
X29555Y82532D01*
X29566D01*
X29574Y82529D01*
X29577D01*
X29599Y82525D01*
X29628Y82521D01*
X29690Y82518D01*
X29763Y82511D01*
X29843Y82507D01*
X29934Y82503D01*
X30025Y82500D01*
X30211Y82496D01*
X30298D01*
X30385D01*
X30462Y82492D01*
X30531D01*
X30589D01*
X30611D01*
X30633D01*
X30647D01*
X30658D01*
X30665D01*
X30669D01*
X31492D01*
X31565D01*
X31634D01*
X31696Y82489D01*
X31754D01*
X31805Y82485D01*
X31852Y82481D01*
X31892Y82478D01*
X31929D01*
X31961Y82474D01*
X31987Y82471D01*
X32012Y82467D01*
X32030Y82463D01*
X32041D01*
X32052Y82460D01*
X32060D01*
X32151Y82434D01*
X32234Y82405D01*
X32304Y82376D01*
X32365Y82343D01*
X32416Y82314D01*
X32453Y82288D01*
X32464Y82281D01*
X32474Y82274D01*
X32478Y82267D01*
X32482D01*
X32544Y82209D01*
X32595Y82143D01*
X32642Y82070D01*
X32682Y82001D01*
X32715Y81936D01*
X32729Y81910D01*
X32740Y81884D01*
X32748Y81866D01*
X32755Y81852D01*
X32759Y81841D01*
Y81837D01*
X32777Y81783D01*
X32795Y81721D01*
X32824Y81597D01*
X32842Y81470D01*
X32857Y81349D01*
X32860Y81295D01*
X32864Y81244D01*
X32868Y81196D01*
X32871Y81156D01*
Y81080D01*
X32864Y80909D01*
X32860Y80829D01*
X32849Y80752D01*
X32842Y80680D01*
X32831Y80611D01*
X32817Y80545D01*
X32806Y80487D01*
X32795Y80436D01*
X32780Y80388D01*
X32769Y80348D01*
X32762Y80312D01*
X32751Y80287D01*
X32748Y80265D01*
X32740Y80254D01*
Y80250D01*
X32715Y80185D01*
X32689Y80123D01*
X32660Y80068D01*
X32627Y80014D01*
X32598Y79966D01*
X32569Y79922D01*
X32536Y79879D01*
X32507Y79842D01*
X32482Y79810D01*
X32456Y79784D01*
X32431Y79759D01*
X32413Y79741D01*
X32394Y79722D01*
X32383Y79711D01*
X32376Y79708D01*
X32373Y79704D01*
X32278Y79639D01*
X32172Y79584D01*
X32070Y79537D01*
X31969Y79500D01*
X31925Y79482D01*
X31881Y79471D01*
X31845Y79460D01*
X31812Y79449D01*
X31783Y79442D01*
X31765Y79438D01*
X31750Y79435D01*
X31747D01*
X31663Y80039D01*
X31732Y80057D01*
X31798Y80079D01*
X31856Y80105D01*
X31910Y80130D01*
X31958Y80152D01*
X32001Y80177D01*
X32041Y80203D01*
X32078Y80228D01*
X32107Y80254D01*
X32132Y80276D01*
X32154Y80294D01*
X32172Y80312D01*
X32183Y80327D01*
X32194Y80338D01*
X32201Y80341D01*
Y80345D01*
X32231Y80385D01*
X32252Y80432D01*
X32293Y80534D01*
X32322Y80640D01*
X32340Y80745D01*
X32344Y80792D01*
X32351Y80840D01*
X32354Y80880D01*
Y80916D01*
X32358Y80949D01*
Y80989D01*
X32354Y81073D01*
X32351Y81153D01*
X32340Y81226D01*
X32325Y81295D01*
X32311Y81360D01*
X32293Y81415D01*
X32271Y81470D01*
X32252Y81517D01*
X32234Y81557D01*
X32212Y81593D01*
X32194Y81622D01*
X32180Y81648D01*
X32165Y81666D01*
X32158Y81681D01*
X32151Y81688D01*
X32147Y81692D01*
X32114Y81724D01*
X32081Y81750D01*
X32041Y81775D01*
X32001Y81793D01*
X31910Y81826D01*
X31823Y81848D01*
X31743Y81859D01*
X31707Y81866D01*
X31677D01*
X31652Y81870D01*
X31634D01*
X31619D01*
X31615D01*
X31597D01*
X31576D01*
X31521D01*
X31495Y81866D01*
X31477D01*
X31463D01*
X31455D01*
X31433Y81793D01*
X31412Y81717D01*
X31390Y81633D01*
X31368Y81542D01*
X31332Y81360D01*
X31317Y81269D01*
X31302Y81182D01*
X31288Y81098D01*
X31277Y81018D01*
X31266Y80949D01*
X31255Y80887D01*
X31251Y80836D01*
X31244Y80796D01*
Y80782D01*
X31241Y80771D01*
Y80763D01*
X31233Y80698D01*
X31226Y80636D01*
X31215Y80578D01*
X31208Y80523D01*
X31201Y80472D01*
X31193Y80428D01*
X31186Y80388D01*
X31179Y80352D01*
X31171Y80319D01*
X31168Y80290D01*
X31161Y80268D01*
X31157Y80247D01*
X31153Y80232D01*
Y80221D01*
X31150Y80217D01*
Y80214D01*
X31120Y80123D01*
X31088Y80039D01*
X31055Y79963D01*
X31022Y79897D01*
X30993Y79842D01*
X30979Y79821D01*
X30968Y79802D01*
X30960Y79788D01*
X30953Y79777D01*
X30946Y79770D01*
Y79766D01*
X30891Y79697D01*
X30833Y79635D01*
X30775Y79580D01*
X30716Y79533D01*
X30665Y79497D01*
X30625Y79471D01*
X30611Y79460D01*
X30600Y79457D01*
X30593Y79449D01*
X30589D01*
X30505Y79409D01*
X30422Y79380D01*
X30338Y79358D01*
X30265Y79344D01*
X30200Y79337D01*
X30170Y79333D01*
X30149D01*
X30127Y79329D01*
X30112D01*
X30105D01*
X30101D01*
X30018Y79333D01*
X29937Y79344D01*
X29865Y79358D01*
X29792Y79380D01*
X29726Y79402D01*
X29664Y79431D01*
X29606Y79460D01*
X29555Y79489D01*
X29508Y79519D01*
X29468Y79548D01*
X29435Y79577D01*
X29406Y79599D01*
X29381Y79620D01*
X29366Y79635D01*
X29355Y79646D01*
X29351Y79650D01*
X29300Y79715D01*
X29257Y79781D01*
X29217Y79857D01*
X29184Y79930D01*
X29155Y80006D01*
X29133Y80086D01*
X29111Y80159D01*
X29097Y80232D01*
X29086Y80301D01*
X29075Y80367D01*
X29068Y80425D01*
X29064Y80476D01*
Y80516D01*
X29060Y80549D01*
Y80574D01*
X29064Y80709D01*
X29078Y80832D01*
X29097Y80949D01*
X29107Y81004D01*
X29118Y81051D01*
X29129Y81095D01*
X29140Y81135D01*
X29151Y81171D01*
X29158Y81200D01*
X29166Y81222D01*
X29173Y81240D01*
X29177Y81251D01*
Y81255D01*
X29202Y81313D01*
X29228Y81375D01*
X29293Y81491D01*
X29362Y81604D01*
X29395Y81655D01*
X29428Y81706D01*
X29461Y81750D01*
X29493Y81790D01*
X29519Y81826D01*
X29544Y81859D01*
X29563Y81884D01*
X29577Y81903D01*
X29588Y81914D01*
X29592Y81917D01*
X29497Y81932D01*
X29413Y81946D01*
X29337Y81968D01*
X29268Y81990D01*
X29217Y82012D01*
X29191Y82019D01*
X29173Y82030D01*
X29158Y82034D01*
X29148Y82041D01*
X29144Y82045D01*
X29140D01*
Y82689D01*
X29220Y82649D01*
D02*
G37*
G36*
X31808Y78696D02*
X31929Y78692D01*
X32045Y78681D01*
X32154Y78667D01*
X32260Y78652D01*
X32358Y78638D01*
X32453Y78619D01*
X32536Y78601D01*
X32613Y78579D01*
X32682Y78561D01*
X32740Y78547D01*
X32791Y78532D01*
X32831Y78518D01*
X32857Y78507D01*
X32875Y78503D01*
X32882Y78499D01*
X32977Y78459D01*
X33072Y78416D01*
X33155Y78372D01*
X33239Y78325D01*
X33315Y78274D01*
X33384Y78223D01*
X33450Y78175D01*
X33512Y78128D01*
X33563Y78081D01*
X33610Y78041D01*
X33650Y78001D01*
X33683Y77968D01*
X33709Y77942D01*
X33730Y77921D01*
X33741Y77906D01*
X33745Y77902D01*
X33792Y77844D01*
X33836Y77782D01*
X33909Y77658D01*
X33974Y77535D01*
X34021Y77422D01*
X34043Y77367D01*
X34058Y77320D01*
X34073Y77276D01*
X34087Y77240D01*
X34094Y77207D01*
X34102Y77185D01*
X34105Y77171D01*
Y77167D01*
X34120Y77105D01*
X34131Y77040D01*
X34138Y76970D01*
X34149Y76898D01*
X34160Y76749D01*
X34171Y76603D01*
Y76534D01*
X34174Y76472D01*
Y76414D01*
X34178Y76366D01*
Y74535D01*
X29140D01*
Y76352D01*
X29144Y76516D01*
X29148Y76596D01*
X29155Y76668D01*
X29158Y76741D01*
X29166Y76807D01*
X29173Y76869D01*
X29184Y76927D01*
X29191Y76978D01*
X29199Y77025D01*
X29206Y77065D01*
X29210Y77098D01*
X29217Y77123D01*
X29220Y77145D01*
X29224Y77156D01*
Y77160D01*
X29260Y77287D01*
X29300Y77404D01*
X29322Y77455D01*
X29340Y77506D01*
X29362Y77549D01*
X29384Y77593D01*
X29402Y77629D01*
X29421Y77662D01*
X29435Y77691D01*
X29450Y77717D01*
X29461Y77735D01*
X29468Y77750D01*
X29475Y77757D01*
Y77760D01*
X29544Y77851D01*
X29617Y77939D01*
X29694Y78015D01*
X29766Y78084D01*
X29832Y78139D01*
X29861Y78164D01*
X29886Y78183D01*
X29905Y78197D01*
X29923Y78208D01*
X29930Y78215D01*
X29934Y78219D01*
X30050Y78295D01*
X30170Y78361D01*
X30294Y78423D01*
X30411Y78470D01*
X30462Y78492D01*
X30513Y78510D01*
X30556Y78528D01*
X30593Y78539D01*
X30622Y78550D01*
X30647Y78557D01*
X30662Y78565D01*
X30665D01*
X30836Y78609D01*
X31011Y78641D01*
X31182Y78667D01*
X31266Y78674D01*
X31343Y78681D01*
X31415Y78689D01*
X31481Y78692D01*
X31539Y78696D01*
X31586D01*
X31630Y78699D01*
X31659D01*
X31677D01*
X31685D01*
X31808Y78696D01*
D02*
G37*
%LPC*%
G36*
X188878Y93188D02*
X181670D01*
Y93084D01*
Y92979D01*
Y92875D01*
Y92770D01*
Y92666D01*
Y92562D01*
Y92457D01*
Y92353D01*
Y92248D01*
Y92144D01*
Y92039D01*
Y91935D01*
Y91830D01*
Y91726D01*
Y91621D01*
Y91517D01*
Y91412D01*
Y91308D01*
Y91203D01*
Y91099D01*
Y90995D01*
Y90890D01*
Y90786D01*
Y90681D01*
Y90577D01*
Y90472D01*
Y90368D01*
Y90263D01*
Y90159D01*
Y90054D01*
Y89950D01*
Y89846D01*
Y89741D01*
Y89637D01*
Y89532D01*
Y89428D01*
Y89323D01*
Y89219D01*
Y89114D01*
Y89010D01*
Y88905D01*
Y88801D01*
Y88696D01*
Y88592D01*
Y88487D01*
Y88383D01*
Y88279D01*
Y88174D01*
Y88070D01*
Y87965D01*
Y87861D01*
Y87756D01*
Y87652D01*
Y87547D01*
Y87443D01*
Y87338D01*
Y87234D01*
Y87129D01*
Y87025D01*
Y86921D01*
Y86816D01*
Y86712D01*
Y86607D01*
Y86503D01*
Y86398D01*
Y86294D01*
Y86189D01*
Y86085D01*
Y85980D01*
Y85876D01*
Y85772D01*
Y85667D01*
Y85563D01*
Y85458D01*
Y85354D01*
Y85249D01*
Y85145D01*
Y85040D01*
Y84936D01*
Y84831D01*
Y84727D01*
Y84622D01*
Y84518D01*
Y84413D01*
Y84309D01*
Y84205D01*
Y84100D01*
Y83996D01*
Y83891D01*
Y83787D01*
Y83682D01*
Y83578D01*
Y83473D01*
Y83369D01*
Y83264D01*
Y83160D01*
Y83056D01*
Y82951D01*
Y82847D01*
Y82742D01*
Y82638D01*
X188878D01*
Y82742D01*
Y82847D01*
Y82951D01*
Y83056D01*
Y83160D01*
Y83264D01*
Y83369D01*
Y83473D01*
Y83578D01*
Y83682D01*
Y83787D01*
Y83891D01*
Y83996D01*
Y84100D01*
Y84205D01*
Y84309D01*
Y84413D01*
Y84518D01*
Y84622D01*
Y84727D01*
Y84831D01*
Y84936D01*
Y85040D01*
Y85145D01*
Y85249D01*
Y85354D01*
Y85458D01*
Y85563D01*
Y85667D01*
Y85772D01*
Y85876D01*
Y85980D01*
Y86085D01*
Y86189D01*
Y86294D01*
Y86398D01*
Y86503D01*
Y86607D01*
Y86712D01*
Y86816D01*
Y86921D01*
Y87025D01*
Y87129D01*
Y87234D01*
Y87338D01*
Y87443D01*
Y87547D01*
Y87652D01*
Y87756D01*
Y87861D01*
Y87965D01*
Y88070D01*
Y88174D01*
Y88279D01*
Y88383D01*
Y88487D01*
Y88592D01*
Y88696D01*
Y88801D01*
Y88905D01*
Y89010D01*
Y89114D01*
Y89219D01*
Y89323D01*
Y89428D01*
Y89532D01*
Y89637D01*
Y89741D01*
Y89846D01*
Y89950D01*
Y90054D01*
Y90159D01*
Y90263D01*
Y90368D01*
Y90472D01*
Y90577D01*
Y90681D01*
Y90786D01*
Y90890D01*
Y90995D01*
Y91099D01*
Y91203D01*
Y91308D01*
Y91412D01*
Y91517D01*
Y91621D01*
Y91726D01*
Y91830D01*
Y91935D01*
Y92039D01*
Y92144D01*
Y92248D01*
Y92353D01*
Y92457D01*
Y92562D01*
Y92666D01*
Y92770D01*
Y92875D01*
Y92979D01*
Y93084D01*
Y93188D01*
D02*
G37*
G36*
X151063Y118990D02*
X150854D01*
Y118886D01*
X150123D01*
Y118781D01*
X149809D01*
Y118677D01*
X149600D01*
Y118572D01*
X149391D01*
Y118468D01*
X149183D01*
Y118363D01*
X149078D01*
Y118259D01*
X148974D01*
Y118155D01*
X148869D01*
Y118050D01*
X148765D01*
Y117946D01*
X148660D01*
Y117841D01*
Y117737D01*
X148556D01*
Y117632D01*
Y117528D01*
X148451D01*
Y117423D01*
Y117319D01*
Y117214D01*
X148347D01*
Y117110D01*
Y117005D01*
Y116901D01*
Y116797D01*
Y116692D01*
Y116588D01*
Y116483D01*
Y116379D01*
Y116274D01*
X148451D01*
Y116170D01*
Y116065D01*
Y115961D01*
X148556D01*
Y115856D01*
Y115752D01*
X148660D01*
Y115647D01*
X148765D01*
Y115543D01*
Y115438D01*
X148869D01*
Y115334D01*
X148974D01*
Y115230D01*
X149078D01*
Y115125D01*
X149287D01*
Y115021D01*
X149391D01*
Y114916D01*
X149600D01*
Y114812D01*
X149809D01*
Y114707D01*
X150123D01*
Y114603D01*
X150645D01*
Y114498D01*
X151272D01*
Y114603D01*
X151899D01*
Y114707D01*
X152212D01*
Y114812D01*
X152421D01*
Y114916D01*
X152525D01*
Y115021D01*
X152734D01*
Y115125D01*
X152839D01*
Y115230D01*
X152943D01*
Y115334D01*
X153048D01*
Y115438D01*
X153152D01*
Y115543D01*
X153257D01*
Y115647D01*
X153361D01*
Y115752D01*
Y115856D01*
X153465D01*
Y115961D01*
Y116065D01*
X153570D01*
Y116170D01*
Y116274D01*
Y116379D01*
Y116483D01*
Y116588D01*
X153674D01*
Y116692D01*
Y116797D01*
Y116901D01*
X153570D01*
Y117005D01*
Y117110D01*
Y117214D01*
Y117319D01*
Y117423D01*
X153465D01*
Y117528D01*
Y117632D01*
X153361D01*
Y117737D01*
Y117841D01*
X153257D01*
Y117946D01*
X153152D01*
Y118050D01*
X153048D01*
Y118155D01*
X152943D01*
Y118259D01*
X152839D01*
Y118363D01*
X152734D01*
Y118468D01*
X152525D01*
Y118572D01*
X152421D01*
Y118677D01*
X152108D01*
Y118781D01*
X151899D01*
Y118886D01*
X151063D01*
Y118990D01*
D02*
G37*
G36*
X151167Y113140D02*
X150958D01*
Y113036D01*
X150854D01*
Y112931D01*
X150750D01*
Y112827D01*
X150645D01*
Y112723D01*
X150541D01*
Y112618D01*
Y112514D01*
X150436D01*
Y112409D01*
Y112305D01*
X150332D01*
Y112200D01*
X150227D01*
Y112096D01*
Y111991D01*
X150123D01*
Y111887D01*
Y111782D01*
X150018D01*
Y111678D01*
Y111573D01*
X149914D01*
Y111469D01*
X149809D01*
Y111364D01*
Y111260D01*
X149705D01*
Y111156D01*
Y111051D01*
X149600D01*
Y110947D01*
Y110842D01*
Y110738D01*
X149496D01*
Y110633D01*
Y110529D01*
X149391D01*
Y110424D01*
Y110320D01*
Y110215D01*
Y110111D01*
X149287D01*
Y110006D01*
Y109902D01*
X149183D01*
Y109798D01*
Y109693D01*
Y109589D01*
X149078D01*
Y109484D01*
Y109380D01*
Y109275D01*
X148974D01*
Y109171D01*
Y109066D01*
Y108962D01*
X148869D01*
Y108858D01*
Y108753D01*
X148765D01*
Y108649D01*
Y108544D01*
Y108440D01*
X148660D01*
Y108335D01*
Y108231D01*
Y108126D01*
X148556D01*
Y108022D01*
Y107917D01*
Y107813D01*
Y107708D01*
X148451D01*
Y107604D01*
Y107500D01*
Y107395D01*
X148347D01*
Y107290D01*
Y107186D01*
Y107082D01*
X148242D01*
Y106977D01*
Y106873D01*
Y106768D01*
X148138D01*
Y106664D01*
Y106559D01*
Y106455D01*
X148033D01*
Y106350D01*
Y106246D01*
X147929D01*
Y106141D01*
Y106037D01*
Y105932D01*
X147825D01*
Y105828D01*
Y105724D01*
Y105619D01*
X147720D01*
Y105515D01*
Y105410D01*
Y105306D01*
X147616D01*
Y105201D01*
Y105097D01*
Y104992D01*
X147511D01*
Y104888D01*
Y104783D01*
Y104679D01*
Y104575D01*
X147616D01*
Y104470D01*
X147720D01*
Y104366D01*
X147825D01*
Y104261D01*
X148033D01*
Y104157D01*
X148138D01*
Y104052D01*
X148242D01*
Y103948D01*
X148451D01*
Y103843D01*
X148556D01*
Y103739D01*
X148660D01*
Y103634D01*
X148869D01*
Y103530D01*
X148974D01*
Y103426D01*
X149078D01*
Y103321D01*
X149287D01*
Y103217D01*
X149391D01*
Y103112D01*
X149496D01*
Y103008D01*
X149600D01*
Y102903D01*
X149809D01*
Y102799D01*
X149914D01*
Y102694D01*
X150018D01*
Y102590D01*
X150227D01*
Y102485D01*
X150332D01*
Y102381D01*
X150436D01*
Y102276D01*
X150541D01*
Y102172D01*
X150750D01*
Y102067D01*
X150854D01*
Y101963D01*
X151272D01*
Y102067D01*
X151481D01*
Y102172D01*
X151585D01*
Y102276D01*
X151690D01*
Y102381D01*
X151794D01*
Y102485D01*
X152003D01*
Y102590D01*
X152108D01*
Y102694D01*
X152212D01*
Y102799D01*
X152316D01*
Y102903D01*
X152525D01*
Y103008D01*
X152630D01*
Y103112D01*
X152734D01*
Y103217D01*
X152943D01*
Y103321D01*
X153048D01*
Y103426D01*
X153152D01*
Y103530D01*
X153257D01*
Y103634D01*
X153361D01*
Y103739D01*
X153570D01*
Y103843D01*
X153674D01*
Y103948D01*
X153779D01*
Y104052D01*
X153883D01*
Y104157D01*
X154092D01*
Y104261D01*
X154197D01*
Y104366D01*
X154301D01*
Y104470D01*
X154406D01*
Y104575D01*
X154510D01*
Y104679D01*
X154615D01*
Y104783D01*
Y104888D01*
X154510D01*
Y104992D01*
Y105097D01*
Y105201D01*
Y105306D01*
X154406D01*
Y105410D01*
Y105515D01*
X154301D01*
Y105619D01*
Y105724D01*
Y105828D01*
X154197D01*
Y105932D01*
Y106037D01*
Y106141D01*
Y106246D01*
X154092D01*
Y106350D01*
Y106455D01*
Y106559D01*
X153988D01*
Y106664D01*
Y106768D01*
Y106873D01*
X153883D01*
Y106977D01*
Y107082D01*
Y107186D01*
X153779D01*
Y107290D01*
Y107395D01*
Y107500D01*
X153674D01*
Y107604D01*
Y107708D01*
Y107813D01*
X153570D01*
Y107917D01*
Y108022D01*
Y108126D01*
X153465D01*
Y108231D01*
Y108335D01*
X153361D01*
Y108440D01*
Y108544D01*
Y108649D01*
Y108753D01*
Y108858D01*
X153257D01*
Y108962D01*
Y109066D01*
X153152D01*
Y109171D01*
Y109275D01*
Y109380D01*
X153048D01*
Y109484D01*
Y109589D01*
Y109693D01*
X152943D01*
Y109798D01*
Y109902D01*
X152839D01*
Y110006D01*
Y110111D01*
Y110215D01*
X152734D01*
Y110320D01*
Y110424D01*
Y110529D01*
X152630D01*
Y110633D01*
Y110738D01*
X152525D01*
Y110842D01*
Y110947D01*
X152421D01*
Y111051D01*
Y111156D01*
X152316D01*
Y111260D01*
Y111364D01*
Y111469D01*
X152212D01*
Y111573D01*
Y111678D01*
X152108D01*
Y111782D01*
Y111887D01*
X152003D01*
Y111991D01*
Y112096D01*
X151899D01*
Y112200D01*
X151794D01*
Y112305D01*
X151690D01*
Y112409D01*
Y112514D01*
X151585D01*
Y112618D01*
Y112723D01*
X151481D01*
Y112827D01*
X151376D01*
Y112931D01*
X151272D01*
Y113036D01*
X151167D01*
Y113140D01*
D02*
G37*
G36*
X155032Y103739D02*
X154510D01*
Y103634D01*
X154406D01*
Y103530D01*
X154301D01*
Y103426D01*
X154197D01*
Y103321D01*
X153988D01*
Y103217D01*
X153883D01*
Y103112D01*
X153779D01*
Y103008D01*
X153674D01*
Y102903D01*
X153465D01*
Y102799D01*
X153361D01*
Y102694D01*
X153257D01*
Y102590D01*
X153152D01*
Y102485D01*
X153048D01*
Y102381D01*
X152839D01*
Y102276D01*
X152734D01*
Y102172D01*
X152630D01*
Y102067D01*
X152525D01*
Y101963D01*
X152316D01*
Y101859D01*
X152212D01*
Y101754D01*
X152108D01*
Y101650D01*
X152003D01*
Y101545D01*
X151899D01*
Y101441D01*
Y101336D01*
Y101232D01*
X152003D01*
Y101127D01*
X152108D01*
Y101023D01*
X152212D01*
Y100918D01*
X152316D01*
Y100814D01*
X152421D01*
Y100709D01*
X152630D01*
Y100605D01*
X152734D01*
Y100501D01*
X152839D01*
Y100396D01*
X153048D01*
Y100292D01*
X153152D01*
Y100187D01*
X153257D01*
Y100083D01*
X153465D01*
Y99978D01*
X153570D01*
Y99874D01*
X153674D01*
Y99769D01*
X153883D01*
Y99665D01*
X153988D01*
Y99560D01*
X154092D01*
Y99456D01*
X154197D01*
Y99352D01*
X154301D01*
Y99247D01*
X154510D01*
Y99143D01*
X154615D01*
Y99038D01*
X154719D01*
Y98934D01*
X154928D01*
Y98829D01*
X155032D01*
Y98725D01*
X155241D01*
Y98620D01*
X155346D01*
Y98516D01*
X155450D01*
Y98411D01*
X155555D01*
Y98307D01*
X155764D01*
Y98202D01*
X155868D01*
Y98098D01*
X155973D01*
Y97993D01*
X156182D01*
Y97889D01*
X156286D01*
Y97785D01*
X156390D01*
Y97680D01*
X156599D01*
Y97576D01*
X156704D01*
Y97471D01*
X157017D01*
Y97576D01*
Y97680D01*
Y97785D01*
X156913D01*
Y97889D01*
Y97993D01*
Y98098D01*
X156808D01*
Y98202D01*
Y98307D01*
Y98411D01*
X156704D01*
Y98516D01*
Y98620D01*
Y98725D01*
X156599D01*
Y98829D01*
Y98934D01*
Y99038D01*
X156495D01*
Y99143D01*
Y99247D01*
Y99352D01*
X156390D01*
Y99456D01*
Y99560D01*
Y99665D01*
X156286D01*
Y99769D01*
Y99874D01*
Y99978D01*
X156182D01*
Y100083D01*
Y100187D01*
X156077D01*
Y100292D01*
Y100396D01*
Y100501D01*
X155973D01*
Y100605D01*
Y100709D01*
Y100814D01*
Y100918D01*
X155868D01*
Y101023D01*
Y101127D01*
Y101232D01*
X155764D01*
Y101336D01*
Y101441D01*
Y101545D01*
X155659D01*
Y101650D01*
Y101754D01*
Y101859D01*
X155555D01*
Y101963D01*
Y102067D01*
Y102172D01*
X155450D01*
Y102276D01*
Y102381D01*
Y102485D01*
X155346D01*
Y102590D01*
Y102694D01*
Y102799D01*
X155241D01*
Y102903D01*
Y103008D01*
X155137D01*
Y103112D01*
Y103217D01*
Y103321D01*
Y103426D01*
X155032D01*
Y103530D01*
Y103634D01*
Y103739D01*
D02*
G37*
G36*
X147511D02*
X147198D01*
Y103634D01*
X147093D01*
Y103530D01*
Y103426D01*
Y103321D01*
X146989D01*
Y103217D01*
Y103112D01*
Y103008D01*
X146884D01*
Y102903D01*
Y102799D01*
X146780D01*
Y102694D01*
Y102590D01*
Y102485D01*
Y102381D01*
X146676D01*
Y102276D01*
Y102172D01*
Y102067D01*
X146571D01*
Y101963D01*
Y101859D01*
Y101754D01*
X146467D01*
Y101650D01*
Y101545D01*
X146362D01*
Y101441D01*
Y101336D01*
Y101232D01*
X146258D01*
Y101127D01*
Y101023D01*
Y100918D01*
X146153D01*
Y100814D01*
Y100709D01*
Y100605D01*
X146049D01*
Y100501D01*
Y100396D01*
Y100292D01*
X145944D01*
Y100187D01*
Y100083D01*
Y99978D01*
X145840D01*
Y99874D01*
Y99769D01*
Y99665D01*
Y99560D01*
X145735D01*
Y99456D01*
Y99352D01*
Y99247D01*
X145631D01*
Y99143D01*
Y99038D01*
Y98934D01*
X145526D01*
Y98829D01*
Y98725D01*
Y98620D01*
X145422D01*
Y98516D01*
Y98411D01*
Y98307D01*
X145317D01*
Y98202D01*
Y98098D01*
Y97993D01*
X145213D01*
Y97889D01*
Y97785D01*
Y97680D01*
Y97576D01*
X145109D01*
Y97471D01*
Y97367D01*
Y97262D01*
X145422D01*
Y97367D01*
X145526D01*
Y97471D01*
X145735D01*
Y97576D01*
X145840D01*
Y97680D01*
X145944D01*
Y97785D01*
X146049D01*
Y97889D01*
X146153D01*
Y97993D01*
X146258D01*
Y98098D01*
X146467D01*
Y98202D01*
X146571D01*
Y98307D01*
X146676D01*
Y98411D01*
X146884D01*
Y98516D01*
X146989D01*
Y98620D01*
X147093D01*
Y98725D01*
X147198D01*
Y98829D01*
X147407D01*
Y98934D01*
X147511D01*
Y99038D01*
X147616D01*
Y99143D01*
X147720D01*
Y99247D01*
X147929D01*
Y99352D01*
X148033D01*
Y99456D01*
X148138D01*
Y99560D01*
X148347D01*
Y99665D01*
X148451D01*
Y99769D01*
X148556D01*
Y99874D01*
X148660D01*
Y99978D01*
X148869D01*
Y100083D01*
X148974D01*
Y100187D01*
X149078D01*
Y100292D01*
X149183D01*
Y100396D01*
X149391D01*
Y100501D01*
X149496D01*
Y100605D01*
X149600D01*
Y100709D01*
X149705D01*
Y100814D01*
X149914D01*
Y100918D01*
X150018D01*
Y101023D01*
X150123D01*
Y101127D01*
X150227D01*
Y101232D01*
X150436D01*
Y101336D01*
Y101441D01*
X150332D01*
Y101545D01*
X150227D01*
Y101650D01*
X150123D01*
Y101754D01*
X150018D01*
Y101859D01*
X149809D01*
Y101963D01*
X149705D01*
Y102067D01*
X149600D01*
Y102172D01*
X149496D01*
Y102276D01*
X149287D01*
Y102381D01*
X149183D01*
Y102485D01*
X149078D01*
Y102590D01*
X148974D01*
Y102694D01*
X148765D01*
Y102799D01*
X148660D01*
Y102903D01*
X148556D01*
Y103008D01*
X148347D01*
Y103112D01*
X148242D01*
Y103217D01*
X148138D01*
Y103321D01*
X147929D01*
Y103426D01*
X147825D01*
Y103530D01*
X147720D01*
Y103634D01*
X147511D01*
Y103739D01*
D02*
G37*
G36*
X133200Y93502D02*
X126306D01*
Y93397D01*
X126097D01*
Y93293D01*
Y93188D01*
Y93084D01*
Y92979D01*
Y92875D01*
Y92770D01*
Y92666D01*
Y92562D01*
Y92457D01*
Y92353D01*
Y92248D01*
Y92144D01*
Y92039D01*
Y91935D01*
Y91830D01*
Y91726D01*
Y91621D01*
Y91517D01*
Y91412D01*
Y91308D01*
Y91203D01*
Y91099D01*
Y90995D01*
Y90890D01*
Y90786D01*
Y90681D01*
Y90577D01*
Y90472D01*
Y90368D01*
Y90263D01*
Y90159D01*
Y90054D01*
Y89950D01*
Y89846D01*
Y89741D01*
Y89637D01*
Y89532D01*
Y89428D01*
Y89323D01*
Y89219D01*
Y89114D01*
Y89010D01*
Y88905D01*
Y88801D01*
Y88696D01*
Y88592D01*
Y88487D01*
Y88383D01*
Y88279D01*
Y88174D01*
Y88070D01*
Y87965D01*
Y87861D01*
Y87756D01*
Y87652D01*
Y87547D01*
Y87443D01*
Y87338D01*
Y87234D01*
Y87129D01*
Y87025D01*
Y86921D01*
Y86816D01*
Y86712D01*
Y86607D01*
Y86503D01*
Y86398D01*
Y86294D01*
Y86189D01*
Y86085D01*
Y85980D01*
Y85876D01*
Y85772D01*
Y85667D01*
Y85563D01*
Y85458D01*
Y85354D01*
Y85249D01*
Y85145D01*
Y85040D01*
Y84936D01*
Y84831D01*
Y84727D01*
Y84622D01*
Y84518D01*
Y84413D01*
Y84309D01*
Y84205D01*
Y84100D01*
Y83996D01*
Y83891D01*
Y83787D01*
Y83682D01*
Y83578D01*
Y83473D01*
Y83369D01*
Y83264D01*
Y83160D01*
Y83056D01*
Y82951D01*
Y82847D01*
Y82742D01*
Y82638D01*
X133513D01*
Y82742D01*
Y82847D01*
Y82951D01*
Y83056D01*
Y83160D01*
Y83264D01*
Y83369D01*
Y83473D01*
Y83578D01*
Y83682D01*
Y83787D01*
Y83891D01*
Y83996D01*
Y84100D01*
Y84205D01*
Y84309D01*
Y84413D01*
Y84518D01*
Y84622D01*
Y84727D01*
Y84831D01*
Y84936D01*
Y85040D01*
Y85145D01*
Y85249D01*
Y85354D01*
Y85458D01*
Y85563D01*
Y85667D01*
Y85772D01*
Y85876D01*
Y85980D01*
Y86085D01*
Y86189D01*
Y86294D01*
Y86398D01*
Y86503D01*
Y86607D01*
Y86712D01*
Y86816D01*
Y86921D01*
Y87025D01*
Y87129D01*
Y87234D01*
Y87338D01*
Y87443D01*
Y87547D01*
Y87652D01*
Y87756D01*
Y87861D01*
Y87965D01*
Y88070D01*
Y88174D01*
Y88279D01*
Y88383D01*
Y88487D01*
Y88592D01*
Y88696D01*
Y88801D01*
Y88905D01*
Y89010D01*
Y89114D01*
Y89219D01*
Y89323D01*
Y89428D01*
Y89532D01*
Y89637D01*
Y89741D01*
Y89846D01*
Y89950D01*
Y90054D01*
Y90159D01*
Y90263D01*
Y90368D01*
Y90472D01*
Y90577D01*
Y90681D01*
Y90786D01*
Y90890D01*
Y90995D01*
Y91099D01*
Y91203D01*
Y91308D01*
Y91412D01*
Y91517D01*
Y91621D01*
Y91726D01*
Y91830D01*
Y91935D01*
Y92039D01*
Y92144D01*
Y92248D01*
Y92353D01*
Y92457D01*
Y92562D01*
Y92666D01*
Y92770D01*
Y92875D01*
Y92979D01*
Y93084D01*
Y93188D01*
Y93293D01*
Y93397D01*
X133200D01*
Y93502D01*
D02*
G37*
G36*
X37887Y118951D02*
X37854D01*
X37825D01*
X37803D01*
X37785D01*
X37774D01*
X37770D01*
X37657D01*
X37548Y118947D01*
X37442Y118943D01*
X37344Y118940D01*
X37249Y118932D01*
X37159Y118925D01*
X37071Y118914D01*
X36991Y118907D01*
X36911Y118896D01*
X36838Y118881D01*
X36769Y118870D01*
X36704Y118860D01*
X36642Y118845D01*
X36587Y118831D01*
X36532Y118820D01*
X36481Y118805D01*
X36390Y118780D01*
X36318Y118750D01*
X36256Y118729D01*
X36205Y118707D01*
X36168Y118685D01*
X36143Y118670D01*
X36125Y118663D01*
X36121Y118659D01*
X36048Y118605D01*
X35986Y118547D01*
X35932Y118485D01*
X35884Y118426D01*
X35844Y118365D01*
X35812Y118306D01*
X35786Y118248D01*
X35764Y118193D01*
X35746Y118142D01*
X35735Y118095D01*
X35724Y118052D01*
X35721Y118015D01*
X35717Y117986D01*
X35713Y117964D01*
Y117946D01*
X35717Y117869D01*
X35732Y117793D01*
X35750Y117720D01*
X35779Y117655D01*
X35808Y117589D01*
X35841Y117531D01*
X35881Y117476D01*
X35917Y117429D01*
X35954Y117382D01*
X35994Y117345D01*
X36026Y117309D01*
X36059Y117280D01*
X36085Y117258D01*
X36103Y117244D01*
X36118Y117233D01*
X36121Y117229D01*
X36161Y117203D01*
X36208Y117178D01*
X36256Y117156D01*
X36310Y117134D01*
X36423Y117094D01*
X36551Y117061D01*
X36685Y117036D01*
X36824Y117010D01*
X36962Y116992D01*
X37100Y116978D01*
X37231Y116967D01*
X37355Y116956D01*
X37472Y116949D01*
X37523D01*
X37570Y116945D01*
X37613D01*
X37653D01*
X37686Y116941D01*
X37715D01*
X37741D01*
X37756D01*
X37766D01*
X37770D01*
X37883D01*
X37992Y116945D01*
X38098Y116949D01*
X38199Y116956D01*
X38294Y116963D01*
X38385Y116971D01*
X38473Y116981D01*
X38556Y116992D01*
X38636Y117003D01*
X38713Y117014D01*
X38786Y117029D01*
X38851Y117043D01*
X38917Y117054D01*
X38975Y117069D01*
X39033Y117083D01*
X39084Y117102D01*
X39179Y117131D01*
X39259Y117160D01*
X39324Y117185D01*
X39379Y117207D01*
X39419Y117229D01*
X39448Y117244D01*
X39466Y117254D01*
X39470Y117258D01*
X39532Y117309D01*
X39590Y117360D01*
X39637Y117414D01*
X39677Y117473D01*
X39714Y117527D01*
X39743Y117586D01*
X39765Y117640D01*
X39787Y117695D01*
X39801Y117746D01*
X39812Y117789D01*
X39819Y117833D01*
X39823Y117869D01*
X39827Y117899D01*
X39830Y117920D01*
Y117939D01*
X39827Y118019D01*
X39812Y118095D01*
X39794Y118164D01*
X39765Y118234D01*
X39736Y118299D01*
X39699Y118357D01*
X39663Y118412D01*
X39626Y118463D01*
X39586Y118507D01*
X39550Y118547D01*
X39514Y118579D01*
X39484Y118608D01*
X39455Y118630D01*
X39437Y118645D01*
X39423Y118656D01*
X39419Y118659D01*
X39379Y118685D01*
X39332Y118710D01*
X39284Y118732D01*
X39230Y118754D01*
X39117Y118794D01*
X38989Y118827D01*
X38855Y118856D01*
X38716Y118881D01*
X38578Y118900D01*
X38443Y118914D01*
X38309Y118925D01*
X38185Y118936D01*
X38072Y118943D01*
X38017D01*
X37970Y118947D01*
X37927D01*
X37887Y118951D01*
D02*
G37*
G36*
X31739Y113698D02*
X31707D01*
X31677D01*
X31655D01*
X31637D01*
X31626D01*
X31623D01*
X31510D01*
X31401Y113695D01*
X31295Y113691D01*
X31197Y113687D01*
X31102Y113680D01*
X31011Y113673D01*
X30924Y113662D01*
X30844Y113654D01*
X30764Y113644D01*
X30691Y113629D01*
X30622Y113618D01*
X30556Y113607D01*
X30494Y113593D01*
X30440Y113578D01*
X30385Y113567D01*
X30334Y113552D01*
X30243Y113527D01*
X30170Y113498D01*
X30108Y113476D01*
X30058Y113454D01*
X30021Y113432D01*
X29996Y113418D01*
X29978Y113410D01*
X29974Y113407D01*
X29901Y113352D01*
X29839Y113294D01*
X29785Y113232D01*
X29737Y113174D01*
X29697Y113112D01*
X29664Y113054D01*
X29639Y112996D01*
X29617Y112941D01*
X29599Y112890D01*
X29588Y112843D01*
X29577Y112799D01*
X29574Y112763D01*
X29570Y112733D01*
X29566Y112712D01*
Y112694D01*
X29570Y112617D01*
X29584Y112541D01*
X29603Y112468D01*
X29632Y112402D01*
X29661Y112337D01*
X29694Y112278D01*
X29734Y112224D01*
X29770Y112177D01*
X29806Y112129D01*
X29847Y112093D01*
X29879Y112056D01*
X29912Y112027D01*
X29937Y112005D01*
X29956Y111991D01*
X29970Y111980D01*
X29974Y111976D01*
X30014Y111951D01*
X30061Y111925D01*
X30108Y111904D01*
X30163Y111882D01*
X30276Y111842D01*
X30403Y111809D01*
X30538Y111783D01*
X30676Y111758D01*
X30815Y111740D01*
X30953Y111725D01*
X31084Y111714D01*
X31208Y111703D01*
X31324Y111696D01*
X31375D01*
X31423Y111693D01*
X31466D01*
X31506D01*
X31539Y111689D01*
X31568D01*
X31594D01*
X31608D01*
X31619D01*
X31623D01*
X31736D01*
X31845Y111693D01*
X31950Y111696D01*
X32052Y111703D01*
X32147Y111711D01*
X32238Y111718D01*
X32325Y111729D01*
X32409Y111740D01*
X32489Y111751D01*
X32566Y111762D01*
X32638Y111776D01*
X32704Y111791D01*
X32769Y111802D01*
X32828Y111816D01*
X32886Y111831D01*
X32937Y111849D01*
X33031Y111878D01*
X33112Y111907D01*
X33177Y111933D01*
X33232Y111954D01*
X33272Y111976D01*
X33301Y111991D01*
X33319Y112002D01*
X33323Y112005D01*
X33384Y112056D01*
X33443Y112107D01*
X33490Y112162D01*
X33530Y112220D01*
X33566Y112275D01*
X33596Y112333D01*
X33617Y112388D01*
X33639Y112442D01*
X33654Y112493D01*
X33665Y112537D01*
X33672Y112581D01*
X33676Y112617D01*
X33679Y112646D01*
X33683Y112668D01*
Y112686D01*
X33679Y112766D01*
X33665Y112843D01*
X33647Y112912D01*
X33617Y112981D01*
X33588Y113047D01*
X33552Y113105D01*
X33516Y113159D01*
X33479Y113210D01*
X33439Y113254D01*
X33403Y113294D01*
X33366Y113327D01*
X33337Y113356D01*
X33308Y113378D01*
X33290Y113392D01*
X33275Y113403D01*
X33272Y113407D01*
X33232Y113432D01*
X33184Y113458D01*
X33137Y113480D01*
X33082Y113502D01*
X32970Y113542D01*
X32842Y113574D01*
X32708Y113603D01*
X32569Y113629D01*
X32431Y113647D01*
X32296Y113662D01*
X32162Y113673D01*
X32038Y113683D01*
X31925Y113691D01*
X31870D01*
X31823Y113695D01*
X31779D01*
X31739Y113698D01*
D02*
G37*
G36*
X32577Y107419D02*
X32547D01*
X32533D01*
X32526D01*
X32427Y107415D01*
X32336Y107408D01*
X32252Y107394D01*
X32172Y107375D01*
X32096Y107354D01*
X32027Y107332D01*
X31965Y107306D01*
X31910Y107281D01*
X31859Y107255D01*
X31816Y107230D01*
X31779Y107208D01*
X31747Y107186D01*
X31725Y107168D01*
X31707Y107153D01*
X31696Y107146D01*
X31692Y107142D01*
X31641Y107088D01*
X31594Y107033D01*
X31554Y106975D01*
X31521Y106917D01*
X31492Y106855D01*
X31466Y106797D01*
X31448Y106742D01*
X31430Y106687D01*
X31419Y106633D01*
X31408Y106586D01*
X31404Y106545D01*
X31397Y106509D01*
Y106476D01*
X31394Y106455D01*
Y106436D01*
X31397Y106356D01*
X31408Y106283D01*
X31423Y106211D01*
X31441Y106141D01*
X31463Y106080D01*
X31488Y106021D01*
X31514Y105967D01*
X31543Y105916D01*
X31572Y105872D01*
X31597Y105832D01*
X31623Y105799D01*
X31645Y105770D01*
X31663Y105748D01*
X31681Y105734D01*
X31688Y105723D01*
X31692Y105719D01*
X31750Y105668D01*
X31812Y105625D01*
X31878Y105585D01*
X31943Y105552D01*
X32009Y105526D01*
X32074Y105501D01*
X32136Y105483D01*
X32198Y105468D01*
X32252Y105457D01*
X32307Y105446D01*
X32354Y105439D01*
X32394Y105435D01*
X32427D01*
X32453Y105432D01*
X32471D01*
X32474D01*
X32573Y105435D01*
X32667Y105446D01*
X32755Y105461D01*
X32835Y105479D01*
X32915Y105501D01*
X32984Y105526D01*
X33050Y105555D01*
X33112Y105585D01*
X33163Y105610D01*
X33210Y105639D01*
X33250Y105665D01*
X33283Y105686D01*
X33312Y105705D01*
X33330Y105719D01*
X33341Y105730D01*
X33345Y105734D01*
X33403Y105792D01*
X33457Y105854D01*
X33501Y105912D01*
X33541Y105974D01*
X33574Y106036D01*
X33599Y106098D01*
X33621Y106152D01*
X33639Y106211D01*
X33654Y106262D01*
X33665Y106309D01*
X33672Y106349D01*
X33679Y106385D01*
Y106414D01*
X33683Y106436D01*
Y106455D01*
X33679Y106527D01*
X33669Y106597D01*
X33654Y106666D01*
X33636Y106728D01*
X33610Y106789D01*
X33585Y106844D01*
X33556Y106895D01*
X33527Y106942D01*
X33497Y106986D01*
X33468Y107026D01*
X33443Y107059D01*
X33417Y107084D01*
X33399Y107106D01*
X33384Y107121D01*
X33374Y107132D01*
X33370Y107135D01*
X33308Y107186D01*
X33243Y107230D01*
X33177Y107266D01*
X33108Y107299D01*
X33035Y107328D01*
X32966Y107350D01*
X32897Y107368D01*
X32831Y107383D01*
X32769Y107394D01*
X32711Y107404D01*
X32660Y107412D01*
X32613Y107415D01*
X32577Y107419D01*
D02*
G37*
G36*
X37162Y101424D02*
X37140D01*
X37137D01*
X37133D01*
X37002Y101420D01*
X36882Y101409D01*
X36769Y101395D01*
X36663Y101377D01*
X36569Y101355D01*
X36481Y101326D01*
X36401Y101300D01*
X36332Y101271D01*
X36270Y101242D01*
X36216Y101216D01*
X36168Y101191D01*
X36132Y101166D01*
X36103Y101147D01*
X36085Y101133D01*
X36070Y101122D01*
X36066Y101118D01*
X36005Y101060D01*
X35950Y100998D01*
X35906Y100933D01*
X35866Y100871D01*
X35830Y100805D01*
X35801Y100740D01*
X35779Y100678D01*
X35761Y100620D01*
X35746Y100565D01*
X35735Y100514D01*
X35728Y100467D01*
X35724Y100427D01*
X35721Y100394D01*
X35717Y100372D01*
Y100350D01*
X35721Y100267D01*
X35732Y100186D01*
X35750Y100106D01*
X35772Y100033D01*
X35797Y99968D01*
X35826Y99902D01*
X35859Y99844D01*
X35892Y99793D01*
X35921Y99746D01*
X35954Y99702D01*
X35983Y99666D01*
X36008Y99637D01*
X36030Y99615D01*
X36048Y99597D01*
X36059Y99586D01*
X36063Y99582D01*
X36132Y99528D01*
X36208Y99484D01*
X36288Y99444D01*
X36376Y99407D01*
X36460Y99378D01*
X36547Y99353D01*
X36634Y99335D01*
X36718Y99316D01*
X36798Y99305D01*
X36871Y99295D01*
X36940Y99291D01*
X36998Y99284D01*
X37046D01*
X37082Y99280D01*
X37093D01*
X37104D01*
X37108D01*
X37111D01*
X37239Y99284D01*
X37355Y99295D01*
X37468Y99309D01*
X37570Y99327D01*
X37664Y99349D01*
X37748Y99375D01*
X37825Y99404D01*
X37897Y99433D01*
X37956Y99458D01*
X38010Y99488D01*
X38054Y99513D01*
X38090Y99535D01*
X38120Y99553D01*
X38141Y99568D01*
X38152Y99578D01*
X38156Y99582D01*
X38218Y99640D01*
X38272Y99702D01*
X38320Y99768D01*
X38360Y99830D01*
X38392Y99895D01*
X38422Y99961D01*
X38443Y100023D01*
X38462Y100081D01*
X38476Y100136D01*
X38487Y100186D01*
X38494Y100234D01*
X38502Y100274D01*
Y100306D01*
X38505Y100328D01*
Y100350D01*
X38502Y100434D01*
X38491Y100514D01*
X38473Y100590D01*
X38451Y100663D01*
X38425Y100732D01*
X38396Y100794D01*
X38363Y100853D01*
X38331Y100903D01*
X38298Y100951D01*
X38265Y100995D01*
X38236Y101031D01*
X38210Y101060D01*
X38189Y101082D01*
X38170Y101100D01*
X38159Y101111D01*
X38156Y101115D01*
X38087Y101169D01*
X38010Y101216D01*
X37930Y101257D01*
X37850Y101293D01*
X37763Y101322D01*
X37679Y101348D01*
X37595Y101369D01*
X37515Y101384D01*
X37435Y101399D01*
X37366Y101409D01*
X37301Y101413D01*
X37242Y101420D01*
X37198D01*
X37162Y101424D01*
D02*
G37*
G36*
X31739Y99615D02*
X31707D01*
X31677D01*
X31655D01*
X31637D01*
X31626D01*
X31623D01*
X31510D01*
X31401Y99611D01*
X31295Y99608D01*
X31197Y99604D01*
X31102Y99597D01*
X31011Y99589D01*
X30924Y99578D01*
X30844Y99571D01*
X30764Y99560D01*
X30691Y99546D01*
X30622Y99535D01*
X30556Y99524D01*
X30494Y99509D01*
X30440Y99495D01*
X30385Y99484D01*
X30334Y99469D01*
X30243Y99444D01*
X30170Y99415D01*
X30108Y99393D01*
X30058Y99371D01*
X30021Y99349D01*
X29996Y99335D01*
X29978Y99327D01*
X29974Y99324D01*
X29901Y99269D01*
X29839Y99211D01*
X29785Y99149D01*
X29737Y99091D01*
X29697Y99029D01*
X29664Y98971D01*
X29639Y98912D01*
X29617Y98858D01*
X29599Y98807D01*
X29588Y98760D01*
X29577Y98716D01*
X29574Y98679D01*
X29570Y98650D01*
X29566Y98628D01*
Y98610D01*
X29570Y98534D01*
X29584Y98457D01*
X29603Y98385D01*
X29632Y98319D01*
X29661Y98254D01*
X29694Y98195D01*
X29734Y98141D01*
X29770Y98093D01*
X29806Y98046D01*
X29847Y98010D01*
X29879Y97973D01*
X29912Y97944D01*
X29937Y97922D01*
X29956Y97908D01*
X29970Y97897D01*
X29974Y97893D01*
X30014Y97868D01*
X30061Y97842D01*
X30108Y97820D01*
X30163Y97799D01*
X30276Y97759D01*
X30403Y97726D01*
X30538Y97700D01*
X30676Y97675D01*
X30815Y97657D01*
X30953Y97642D01*
X31084Y97631D01*
X31208Y97620D01*
X31324Y97613D01*
X31375D01*
X31423Y97609D01*
X31466D01*
X31506D01*
X31539Y97606D01*
X31568D01*
X31594D01*
X31608D01*
X31619D01*
X31623D01*
X31736D01*
X31845Y97609D01*
X31950Y97613D01*
X32052Y97620D01*
X32147Y97628D01*
X32238Y97635D01*
X32325Y97646D01*
X32409Y97657D01*
X32489Y97667D01*
X32566Y97678D01*
X32638Y97693D01*
X32704Y97708D01*
X32769Y97719D01*
X32828Y97733D01*
X32886Y97748D01*
X32937Y97766D01*
X33031Y97795D01*
X33112Y97824D01*
X33177Y97850D01*
X33232Y97871D01*
X33272Y97893D01*
X33301Y97908D01*
X33319Y97919D01*
X33323Y97922D01*
X33384Y97973D01*
X33443Y98024D01*
X33490Y98079D01*
X33530Y98137D01*
X33566Y98192D01*
X33596Y98250D01*
X33617Y98304D01*
X33639Y98359D01*
X33654Y98410D01*
X33665Y98454D01*
X33672Y98497D01*
X33676Y98534D01*
X33679Y98563D01*
X33683Y98585D01*
Y98603D01*
X33679Y98683D01*
X33665Y98760D01*
X33647Y98829D01*
X33617Y98898D01*
X33588Y98963D01*
X33552Y99022D01*
X33516Y99076D01*
X33479Y99127D01*
X33439Y99171D01*
X33403Y99211D01*
X33366Y99244D01*
X33337Y99273D01*
X33308Y99295D01*
X33290Y99309D01*
X33275Y99320D01*
X33272Y99324D01*
X33232Y99349D01*
X33184Y99375D01*
X33137Y99397D01*
X33082Y99418D01*
X32970Y99458D01*
X32842Y99491D01*
X32708Y99520D01*
X32569Y99546D01*
X32431Y99564D01*
X32296Y99578D01*
X32162Y99589D01*
X32038Y99600D01*
X31925Y99608D01*
X31870D01*
X31823Y99611D01*
X31779D01*
X31739Y99615D01*
D02*
G37*
G36*
X37468Y90042D02*
X37464D01*
Y88000D01*
X37552Y88007D01*
X37632Y88021D01*
X37712Y88040D01*
X37781Y88062D01*
X37850Y88087D01*
X37912Y88112D01*
X37970Y88142D01*
X38021Y88171D01*
X38065Y88200D01*
X38105Y88225D01*
X38141Y88251D01*
X38170Y88273D01*
X38192Y88295D01*
X38207Y88309D01*
X38218Y88316D01*
X38221Y88320D01*
X38272Y88375D01*
X38316Y88433D01*
X38356Y88495D01*
X38389Y88557D01*
X38414Y88615D01*
X38440Y88677D01*
X38458Y88731D01*
X38473Y88790D01*
X38483Y88841D01*
X38494Y88888D01*
X38502Y88928D01*
X38505Y88968D01*
X38509Y88997D01*
Y89037D01*
X38505Y89125D01*
X38494Y89205D01*
X38476Y89285D01*
X38454Y89357D01*
X38425Y89427D01*
X38396Y89489D01*
X38363Y89547D01*
X38331Y89598D01*
X38298Y89645D01*
X38265Y89689D01*
X38236Y89721D01*
X38207Y89750D01*
X38185Y89776D01*
X38167Y89791D01*
X38156Y89802D01*
X38152Y89805D01*
X38109Y89838D01*
X38058Y89871D01*
X37948Y89925D01*
X37835Y89965D01*
X37723Y89994D01*
X37672Y90009D01*
X37621Y90016D01*
X37577Y90027D01*
X37541Y90031D01*
X37508Y90038D01*
X37486D01*
X37468Y90042D01*
D02*
G37*
G36*
X31321Y87912D02*
X31317D01*
Y85870D01*
X31404Y85878D01*
X31484Y85892D01*
X31565Y85910D01*
X31634Y85932D01*
X31703Y85958D01*
X31765Y85983D01*
X31823Y86012D01*
X31874Y86041D01*
X31918Y86071D01*
X31958Y86096D01*
X31994Y86121D01*
X32023Y86143D01*
X32045Y86165D01*
X32060Y86180D01*
X32070Y86187D01*
X32074Y86191D01*
X32125Y86245D01*
X32169Y86303D01*
X32209Y86365D01*
X32242Y86427D01*
X32267Y86485D01*
X32293Y86547D01*
X32311Y86602D01*
X32325Y86660D01*
X32336Y86711D01*
X32347Y86759D01*
X32354Y86799D01*
X32358Y86839D01*
X32362Y86868D01*
Y86908D01*
X32358Y86995D01*
X32347Y87075D01*
X32329Y87155D01*
X32307Y87228D01*
X32278Y87297D01*
X32249Y87359D01*
X32216Y87417D01*
X32183Y87468D01*
X32151Y87516D01*
X32118Y87559D01*
X32089Y87592D01*
X32060Y87621D01*
X32038Y87647D01*
X32019Y87661D01*
X32009Y87672D01*
X32005Y87676D01*
X31961Y87708D01*
X31910Y87741D01*
X31801Y87796D01*
X31688Y87836D01*
X31576Y87865D01*
X31525Y87880D01*
X31473Y87887D01*
X31430Y87898D01*
X31394Y87901D01*
X31361Y87909D01*
X31339D01*
X31321Y87912D01*
D02*
G37*
G36*
X30971Y81866D02*
X30742D01*
X30669D01*
X30600Y81863D01*
X30534Y81855D01*
X30472Y81852D01*
X30418Y81844D01*
X30367Y81833D01*
X30323Y81826D01*
X30283Y81815D01*
X30247Y81804D01*
X30214Y81797D01*
X30189Y81790D01*
X30167Y81779D01*
X30149Y81775D01*
X30138Y81768D01*
X30130Y81764D01*
X30127D01*
X30029Y81710D01*
X29945Y81644D01*
X29872Y81579D01*
X29810Y81513D01*
X29763Y81451D01*
X29741Y81426D01*
X29726Y81400D01*
X29712Y81382D01*
X29704Y81368D01*
X29701Y81360D01*
X29697Y81357D01*
X29646Y81251D01*
X29610Y81142D01*
X29581Y81033D01*
X29563Y80935D01*
X29559Y80891D01*
X29552Y80847D01*
X29548Y80811D01*
Y80782D01*
X29544Y80756D01*
Y80720D01*
X29548Y80654D01*
X29552Y80592D01*
X29559Y80534D01*
X29570Y80483D01*
X29581Y80432D01*
X29595Y80388D01*
X29610Y80348D01*
X29628Y80312D01*
X29643Y80279D01*
X29657Y80250D01*
X29672Y80228D01*
X29683Y80210D01*
X29694Y80192D01*
X29701Y80181D01*
X29708Y80177D01*
Y80174D01*
X29741Y80141D01*
X29774Y80112D01*
X29806Y80086D01*
X29843Y80068D01*
X29912Y80032D01*
X29974Y80010D01*
X30032Y79999D01*
X30058Y79995D01*
X30079Y79992D01*
X30094Y79988D01*
X30108D01*
X30116D01*
X30119D01*
X30178Y79992D01*
X30232Y80003D01*
X30283Y80014D01*
X30327Y80032D01*
X30360Y80046D01*
X30389Y80057D01*
X30403Y80068D01*
X30411Y80072D01*
X30458Y80108D01*
X30498Y80148D01*
X30534Y80188D01*
X30560Y80228D01*
X30582Y80261D01*
X30600Y80290D01*
X30607Y80308D01*
X30611Y80316D01*
X30625Y80348D01*
X30636Y80385D01*
X30658Y80465D01*
X30680Y80556D01*
X30698Y80643D01*
X30713Y80727D01*
X30720Y80760D01*
X30724Y80792D01*
X30731Y80818D01*
Y80836D01*
X30735Y80851D01*
Y80854D01*
X30753Y80978D01*
X30775Y81091D01*
X30793Y81196D01*
X30815Y81299D01*
X30833Y81386D01*
X30851Y81470D01*
X30873Y81546D01*
X30891Y81612D01*
X30906Y81673D01*
X30924Y81724D01*
X30935Y81768D01*
X30949Y81804D01*
X30957Y81830D01*
X30964Y81852D01*
X30971Y81863D01*
Y81866D01*
D02*
G37*
G36*
X31772Y78012D02*
X31750D01*
X31732D01*
X31714D01*
X31703D01*
X31699D01*
X31696D01*
X31590D01*
X31488Y78004D01*
X31394Y78001D01*
X31302Y77990D01*
X31219Y77979D01*
X31139Y77968D01*
X31062Y77957D01*
X30997Y77946D01*
X30935Y77931D01*
X30880Y77921D01*
X30833Y77910D01*
X30797Y77899D01*
X30764Y77888D01*
X30742Y77884D01*
X30727Y77877D01*
X30724D01*
X30651Y77851D01*
X30582Y77822D01*
X30516Y77793D01*
X30454Y77764D01*
X30400Y77735D01*
X30345Y77702D01*
X30298Y77673D01*
X30254Y77644D01*
X30218Y77615D01*
X30181Y77589D01*
X30152Y77567D01*
X30130Y77549D01*
X30112Y77531D01*
X30098Y77520D01*
X30090Y77513D01*
X30087Y77509D01*
X30029Y77440D01*
X29974Y77367D01*
X29930Y77291D01*
X29894Y77218D01*
X29865Y77153D01*
X29850Y77127D01*
X29843Y77101D01*
X29836Y77083D01*
X29828Y77065D01*
X29825Y77058D01*
Y77054D01*
X29810Y77000D01*
X29796Y76941D01*
X29774Y76814D01*
X29755Y76683D01*
X29744Y76559D01*
X29741Y76501D01*
X29737Y76446D01*
Y76399D01*
X29734Y76359D01*
Y75201D01*
X33585D01*
Y76366D01*
X33581Y76464D01*
X33574Y76556D01*
X33570Y76643D01*
X33559Y76719D01*
X33552Y76792D01*
X33541Y76854D01*
X33534Y76912D01*
X33523Y76960D01*
X33512Y77003D01*
X33505Y77040D01*
X33497Y77069D01*
X33490Y77091D01*
X33483Y77109D01*
X33479Y77116D01*
Y77120D01*
X33450Y77189D01*
X33414Y77254D01*
X33374Y77316D01*
X33330Y77375D01*
X33283Y77429D01*
X33235Y77484D01*
X33188Y77531D01*
X33141Y77575D01*
X33093Y77615D01*
X33050Y77648D01*
X33010Y77677D01*
X32977Y77702D01*
X32948Y77724D01*
X32926Y77738D01*
X32911Y77746D01*
X32908Y77750D01*
X32824Y77797D01*
X32733Y77837D01*
X32638Y77870D01*
X32540Y77902D01*
X32438Y77928D01*
X32340Y77946D01*
X32238Y77964D01*
X32143Y77979D01*
X32052Y77990D01*
X31969Y77997D01*
X31892Y78004D01*
X31827Y78008D01*
X31772Y78012D01*
D02*
G37*
%LPD*%
M02*
