G04*
G04 #@! TF.GenerationSoftware,Altium Limited,Altium Designer,21.0.9 (235)*
G04*
G04 Layer_Physical_Order=1*
G04 Layer_Color=255*
%FSLAX25Y25*%
%MOIN*%
G70*
G04*
G04 #@! TF.SameCoordinates,B9488A90-FA10-4CA6-9237-5EE1817F1098*
G04*
G04*
G04 #@! TF.FilePolarity,Positive*
G04*
G01*
G75*
G04:AMPARAMS|DCode=25|XSize=78.74mil|YSize=275.59mil|CornerRadius=19.68mil|HoleSize=0mil|Usage=FLASHONLY|Rotation=0.000|XOffset=0mil|YOffset=0mil|HoleType=Round|Shape=RoundedRectangle|*
%AMROUNDEDRECTD25*
21,1,0.07874,0.23622,0,0,0.0*
21,1,0.03937,0.27559,0,0,0.0*
1,1,0.03937,0.01968,-0.11811*
1,1,0.03937,-0.01968,-0.11811*
1,1,0.03937,-0.01968,0.11811*
1,1,0.03937,0.01968,0.11811*
%
%ADD25ROUNDEDRECTD25*%
%ADD26C,0.01575*%
%ADD27C,0.05906*%
%ADD28R,0.06299X0.09843*%
%ADD29O,0.06299X0.09843*%
%ADD30R,0.06693X0.06693*%
%ADD31R,0.06299X0.09843*%
%ADD32O,0.06299X0.09843*%
%ADD33C,0.09843*%
%ADD34C,0.06299*%
%ADD35R,0.09843X0.06299*%
%ADD36O,0.09843X0.06299*%
%ADD37C,0.02362*%
%ADD38C,0.02756*%
%ADD39C,0.06693*%
G36*
X224348Y344816D02*
X225128Y344493D01*
X225829Y344025D01*
X226425Y343429D01*
X226893Y342727D01*
X227216Y341949D01*
X227380Y341122D01*
Y340700D01*
X227380Y49865D01*
X226880Y49765D01*
X226497Y50692D01*
X225800Y51600D01*
X224892Y52297D01*
X223835Y52735D01*
X223200Y52818D01*
Y48500D01*
Y44182D01*
X223835Y44265D01*
X224892Y44703D01*
X225800Y45400D01*
X226497Y46308D01*
X226880Y47235D01*
X227380Y47135D01*
Y5300D01*
X227380Y5300D01*
X227380Y5300D01*
X227380Y4878D01*
X227216Y4051D01*
X226893Y3272D01*
X226425Y2571D01*
X225829Y1975D01*
X225128Y1507D01*
X224349Y1184D01*
X223522Y1020D01*
X222581D01*
X222481Y1519D01*
X222666Y1596D01*
X223286Y2072D01*
X223762Y2692D01*
X224061Y3414D01*
X224163Y4189D01*
Y15500D01*
X219200D01*
Y16000D01*
X218700D01*
Y30805D01*
X217231D01*
X216457Y30703D01*
X215734Y30404D01*
X215114Y29928D01*
X214638Y29308D01*
X214471Y28903D01*
X213929D01*
X213761Y29308D01*
X213286Y29928D01*
X212666Y30404D01*
X211943Y30703D01*
X211169Y30805D01*
X211022D01*
Y43234D01*
X211440Y43859D01*
X211625Y44787D01*
X211440Y45715D01*
X210914Y46501D01*
X210128Y47027D01*
X209200Y47212D01*
X208272Y47027D01*
X207486Y46501D01*
X206960Y45715D01*
X206775Y44787D01*
X206960Y43859D01*
X207378Y43234D01*
Y30805D01*
X207231D01*
X206457Y30703D01*
X205734Y30404D01*
X205114Y29928D01*
X204639Y29308D01*
X204471Y28903D01*
X203929D01*
X203762Y29308D01*
X203286Y29928D01*
X202666Y30404D01*
X201943Y30703D01*
X201168Y30805D01*
X201022D01*
Y43745D01*
X209391Y52113D01*
X210128Y52260D01*
X210914Y52786D01*
X211440Y53572D01*
X211625Y54500D01*
X211440Y55428D01*
X210914Y56214D01*
X210128Y56740D01*
X209200Y56924D01*
X208272Y56740D01*
X207486Y56214D01*
X206960Y55428D01*
X206813Y54691D01*
X197911Y45789D01*
X197516Y45197D01*
X197378Y44500D01*
X197378Y44500D01*
Y30805D01*
X197231D01*
X196457Y30703D01*
X195734Y30404D01*
X195114Y29928D01*
X194639Y29308D01*
X194471Y28903D01*
X193929D01*
X193762Y29308D01*
X193286Y29928D01*
X192666Y30404D01*
X191944Y30703D01*
X191168Y30805D01*
X191022D01*
Y42015D01*
X209506Y60498D01*
X210243Y60645D01*
X211030Y61171D01*
X211555Y61957D01*
X211740Y62885D01*
X211555Y63813D01*
X211030Y64599D01*
X210315Y65077D01*
X210146Y65615D01*
X210489Y65958D01*
X210489Y65958D01*
X210656Y66209D01*
X211214Y66266D01*
X211278Y66240D01*
X212107Y65604D01*
X213117Y65185D01*
X213700Y65109D01*
Y71000D01*
Y76891D01*
X213117Y76815D01*
X212107Y76396D01*
X211522Y75947D01*
X211022Y76194D01*
Y99745D01*
X215489Y104211D01*
X215489Y104211D01*
X215884Y104803D01*
X216022Y105500D01*
X216022Y105500D01*
Y125492D01*
X216293Y125604D01*
X217160Y126269D01*
X217825Y127136D01*
X218243Y128145D01*
X218385Y129228D01*
Y132772D01*
X218243Y133855D01*
X217825Y134864D01*
X217160Y135731D01*
X216293Y136396D01*
X216022Y136508D01*
Y147246D01*
X215884Y147944D01*
X215489Y148535D01*
X215489Y148535D01*
X214452Y149572D01*
X214631Y150100D01*
X215283Y150186D01*
X216293Y150604D01*
X217160Y151269D01*
X217825Y152136D01*
X218243Y153145D01*
X218385Y154228D01*
Y155500D01*
X214200D01*
Y156000D01*
X213700D01*
Y161891D01*
X213117Y161814D01*
X212107Y161396D01*
X211522Y160948D01*
X211022Y161194D01*
Y166231D01*
X211463Y166466D01*
X211772Y166260D01*
X212700Y166076D01*
X213628Y166260D01*
X214414Y166786D01*
X214940Y167572D01*
X215125Y168500D01*
X215067Y168790D01*
X223063Y176786D01*
X223063Y176786D01*
X223459Y177377D01*
X223597Y178075D01*
X223597Y178075D01*
Y278567D01*
X223597Y278567D01*
X223459Y279264D01*
X223063Y279855D01*
X223063Y279855D01*
X221022Y281896D01*
Y295492D01*
X221293Y295604D01*
X222160Y296269D01*
X222825Y297136D01*
X223243Y298145D01*
X223385Y299228D01*
Y302772D01*
X223243Y303855D01*
X222825Y304864D01*
X222160Y305731D01*
X221293Y306396D01*
X220283Y306815D01*
X219200Y306957D01*
X218117Y306815D01*
X217107Y306396D01*
X216241Y305731D01*
X215575Y304864D01*
X215157Y303855D01*
X215015Y302772D01*
Y299228D01*
X215157Y298145D01*
X215575Y297136D01*
X216241Y296269D01*
X217107Y295604D01*
X217378Y295492D01*
Y282553D01*
X216916Y282362D01*
X211022Y288255D01*
Y295492D01*
X211293Y295604D01*
X212159Y296269D01*
X212825Y297136D01*
X213243Y298145D01*
X213385Y299228D01*
Y302772D01*
X213243Y303855D01*
X212825Y304864D01*
X212159Y305731D01*
X211293Y306396D01*
X210283Y306815D01*
X209200Y306957D01*
X208117Y306815D01*
X207107Y306396D01*
X206278Y305760D01*
X206199Y305728D01*
X206026Y305713D01*
X205656Y305791D01*
X205489Y306042D01*
X205489Y306042D01*
X197093Y314438D01*
X196501Y314833D01*
X195804Y314972D01*
X195804Y314972D01*
X178955D01*
X178257Y314833D01*
X177666Y314438D01*
X177666Y314438D01*
X170070Y306842D01*
X169200Y306957D01*
X168117Y306815D01*
X167107Y306396D01*
X166241Y305731D01*
X165575Y304864D01*
X165157Y303855D01*
X165015Y302772D01*
Y299228D01*
X165157Y298145D01*
X165575Y297136D01*
X166241Y296269D01*
X167107Y295604D01*
X168117Y295185D01*
X168769Y295100D01*
X168948Y294572D01*
X167911Y293535D01*
X167516Y292944D01*
X167378Y292246D01*
X167378Y292246D01*
Y286508D01*
X167107Y286396D01*
X166585Y285996D01*
X166085Y286243D01*
Y294165D01*
X166085Y294165D01*
X165947Y294863D01*
X165552Y295454D01*
X165552Y295454D01*
X163131Y297875D01*
X163243Y298145D01*
X163385Y299228D01*
Y302772D01*
X163243Y303855D01*
X162825Y304864D01*
X162160Y305731D01*
X161293Y306396D01*
X160283Y306815D01*
X159200Y306957D01*
X158117Y306815D01*
X157107Y306396D01*
X156240Y305731D01*
X155575Y304864D01*
X155157Y303855D01*
X155015Y302772D01*
Y299228D01*
X155157Y298145D01*
X155575Y297136D01*
X156240Y296269D01*
X157107Y295604D01*
X158117Y295185D01*
X159200Y295043D01*
X160283Y295185D01*
X160554Y295298D01*
X162441Y293410D01*
Y286146D01*
X161941Y285899D01*
X161293Y286396D01*
X160283Y286814D01*
X159700Y286891D01*
Y281000D01*
X158700D01*
Y286891D01*
X158117Y286814D01*
X157107Y286396D01*
X156585Y285996D01*
X156085Y286243D01*
Y294165D01*
X156085Y294165D01*
X155947Y294863D01*
X155552Y295454D01*
X155552Y295454D01*
X153131Y297875D01*
X153243Y298145D01*
X153385Y299228D01*
Y302772D01*
X153243Y303855D01*
X152825Y304864D01*
X152160Y305731D01*
X151293Y306396D01*
X150283Y306815D01*
X149200Y306957D01*
X148117Y306815D01*
X147107Y306396D01*
X146240Y305731D01*
X145575Y304864D01*
X145157Y303855D01*
X145015Y302772D01*
Y299228D01*
X145157Y298145D01*
X145575Y297136D01*
X146240Y296269D01*
X147107Y295604D01*
X148117Y295185D01*
X149200Y295043D01*
X150283Y295185D01*
X150554Y295298D01*
X152441Y293410D01*
Y286146D01*
X151941Y285899D01*
X151293Y286396D01*
X150283Y286814D01*
X149200Y286957D01*
X148117Y286814D01*
X147107Y286396D01*
X146585Y285996D01*
X146085Y286243D01*
Y294165D01*
X146085Y294165D01*
X145947Y294863D01*
X145552Y295454D01*
X145552Y295454D01*
X143131Y297875D01*
X143243Y298145D01*
X143385Y299228D01*
Y302772D01*
X143243Y303855D01*
X142825Y304864D01*
X142159Y305731D01*
X141293Y306396D01*
X140283Y306815D01*
X139200Y306957D01*
X138117Y306815D01*
X137107Y306396D01*
X136240Y305731D01*
X135575Y304864D01*
X135157Y303855D01*
X135015Y302772D01*
Y299228D01*
X135157Y298145D01*
X135575Y297136D01*
X136240Y296269D01*
X137107Y295604D01*
X138117Y295185D01*
X139200Y295043D01*
X140283Y295185D01*
X140553Y295298D01*
X142441Y293410D01*
Y286146D01*
X141941Y285899D01*
X141293Y286396D01*
X140283Y286814D01*
X139200Y286957D01*
X138117Y286814D01*
X137107Y286396D01*
X136585Y285996D01*
X136085Y286243D01*
Y294165D01*
X136085Y294165D01*
X135947Y294863D01*
X135552Y295454D01*
X135552Y295454D01*
X133350Y297656D01*
Y306921D01*
X125050D01*
Y295079D01*
X130772D01*
X132441Y293410D01*
Y286146D01*
X131941Y285899D01*
X131293Y286396D01*
X130283Y286814D01*
X129700Y286891D01*
Y281000D01*
X129200D01*
D01*
X129700D01*
Y275109D01*
X130283Y275185D01*
X131293Y275604D01*
X132153Y276263D01*
X132162Y276269D01*
X132755Y276223D01*
X132974Y275895D01*
X137378Y271492D01*
Y256508D01*
X137107Y256396D01*
X136240Y255731D01*
X135575Y254864D01*
X135157Y253855D01*
X135015Y252772D01*
Y249228D01*
X135157Y248145D01*
X135575Y247136D01*
X136240Y246269D01*
X137107Y245604D01*
X138117Y245185D01*
X139200Y245043D01*
X139498Y245082D01*
X139731Y244609D01*
X130445Y235322D01*
X120253D01*
X119628Y235740D01*
X118700Y235925D01*
X117772Y235740D01*
X116986Y235214D01*
X116460Y234428D01*
X116276Y233500D01*
X116460Y232572D01*
X116986Y231786D01*
X117002Y231775D01*
X116806Y231304D01*
X116200Y231424D01*
X115272Y231240D01*
X114486Y230714D01*
X113960Y229928D01*
X113776Y229000D01*
X113960Y228072D01*
X114183Y227739D01*
X113882Y227289D01*
X113200Y227425D01*
X112272Y227240D01*
X111486Y226714D01*
X110960Y225928D01*
X110775Y225000D01*
X110960Y224072D01*
X111486Y223286D01*
X112272Y222760D01*
X113200Y222575D01*
X114128Y222760D01*
X114753Y223178D01*
X143199D01*
X143948Y222428D01*
X143769Y221900D01*
X143117Y221814D01*
X142107Y221396D01*
X141241Y220731D01*
X140575Y219864D01*
X140157Y218855D01*
X140015Y217772D01*
Y214228D01*
X140157Y213145D01*
X140269Y212875D01*
X138287Y210893D01*
X137432D01*
X137255Y211393D01*
X137825Y212136D01*
X138243Y213145D01*
X138385Y214228D01*
Y217772D01*
X138243Y218855D01*
X137825Y219864D01*
X137160Y220731D01*
X136293Y221396D01*
X135283Y221814D01*
X134200Y221957D01*
X133117Y221814D01*
X132107Y221396D01*
X131240Y220731D01*
X130575Y219864D01*
X130157Y218855D01*
X130015Y217772D01*
Y214228D01*
X130157Y213145D01*
X130269Y212875D01*
X127968Y210573D01*
X127075D01*
X126905Y211073D01*
X127160Y211269D01*
X127825Y212136D01*
X128243Y213145D01*
X128385Y214228D01*
Y217772D01*
X128243Y218855D01*
X127825Y219864D01*
X127160Y220731D01*
X126293Y221396D01*
X125283Y221814D01*
X124200Y221957D01*
X123117Y221814D01*
X122107Y221396D01*
X121240Y220731D01*
X120575Y219864D01*
X120157Y218855D01*
X120015Y217772D01*
Y214228D01*
X120157Y213145D01*
X120269Y212875D01*
X115400Y208005D01*
X115005Y207414D01*
X114866Y206716D01*
X114866Y206716D01*
Y180737D01*
X114866Y180737D01*
X115005Y180040D01*
X115400Y179449D01*
X117378Y177471D01*
Y161194D01*
X116878Y160948D01*
X116293Y161396D01*
X115283Y161814D01*
X114200Y161957D01*
X113117Y161814D01*
X112107Y161396D01*
X111522Y160948D01*
X111022Y161194D01*
Y208473D01*
X112847Y210297D01*
X113117Y210186D01*
X114200Y210043D01*
X115283Y210186D01*
X116293Y210604D01*
X117159Y211269D01*
X117825Y212136D01*
X118243Y213145D01*
X118385Y214228D01*
Y217772D01*
X118243Y218855D01*
X117825Y219864D01*
X117159Y220731D01*
X116293Y221396D01*
X115283Y221814D01*
X114200Y221957D01*
X113117Y221814D01*
X112107Y221396D01*
X111240Y220731D01*
X110575Y219864D01*
X110157Y218855D01*
X110015Y217772D01*
Y214228D01*
X110157Y213145D01*
X110269Y212875D01*
X107911Y210517D01*
X107516Y209926D01*
X107378Y209228D01*
X107378Y209228D01*
Y194422D01*
X106878Y194176D01*
X106293Y194625D01*
X105283Y195043D01*
X104631Y195129D01*
X104452Y195657D01*
X105489Y196693D01*
X105489Y196693D01*
X105884Y197285D01*
X106022Y197982D01*
X106022Y197982D01*
Y210492D01*
X106293Y210604D01*
X107159Y211269D01*
X107825Y212136D01*
X108243Y213145D01*
X108385Y214228D01*
Y217772D01*
X108243Y218855D01*
X107825Y219864D01*
X107159Y220731D01*
X106293Y221396D01*
X105283Y221814D01*
X104200Y221957D01*
X103117Y221814D01*
X102107Y221396D01*
X101241Y220731D01*
X100575Y219864D01*
X100157Y218855D01*
X100015Y217772D01*
Y214228D01*
X100157Y213145D01*
X100269Y212875D01*
X98508Y211114D01*
X97671D01*
X97424Y211614D01*
X97825Y212136D01*
X98243Y213145D01*
X98385Y214228D01*
Y217772D01*
X98243Y218855D01*
X98131Y219125D01*
X109063Y230058D01*
X109063Y230058D01*
X109458Y230649D01*
X109597Y231347D01*
X109597Y231347D01*
Y273925D01*
X109597Y273925D01*
X109458Y274623D01*
X109063Y275214D01*
X109063Y275214D01*
X103587Y280691D01*
X103440Y281428D01*
X102914Y282214D01*
X102128Y282740D01*
X101200Y282925D01*
X100272Y282740D01*
X99486Y282214D01*
X98960Y281428D01*
X98776Y280500D01*
X98960Y279572D01*
X99486Y278786D01*
X100272Y278260D01*
X101009Y278113D01*
X105952Y273170D01*
Y253478D01*
X105490Y253287D01*
X101230Y257548D01*
X100638Y257943D01*
X99941Y258081D01*
X99941Y258081D01*
X97756D01*
X97535Y258530D01*
X97825Y258907D01*
X98243Y259917D01*
X98385Y261000D01*
X98243Y262083D01*
X97825Y263093D01*
X97159Y263960D01*
X96293Y264625D01*
X96082Y264712D01*
X94451Y266343D01*
X94630Y266871D01*
X95283Y266957D01*
X96293Y267375D01*
X97159Y268040D01*
X97825Y268907D01*
X98243Y269917D01*
X98320Y270500D01*
X94200D01*
Y271000D01*
X93700D01*
Y275120D01*
X93117Y275043D01*
X92107Y274625D01*
X91241Y273959D01*
X90789Y273372D01*
X90289Y273541D01*
Y299898D01*
X90289Y299898D01*
X90153Y300929D01*
X89755Y301891D01*
X89122Y302717D01*
X73019Y318819D01*
X72193Y319453D01*
X71232Y319851D01*
X70200Y319987D01*
X70200Y319987D01*
X67260D01*
X67135Y320487D01*
X67899Y320895D01*
X68801Y321635D01*
X69541Y322537D01*
X70091Y323566D01*
X70229Y324020D01*
X108171D01*
X108309Y323566D01*
X108859Y322537D01*
X109599Y321635D01*
X110501Y320895D01*
X111529Y320345D01*
X112645Y320007D01*
X113806Y319893D01*
X114967Y320007D01*
X116083Y320345D01*
X117112Y320895D01*
X118014Y321635D01*
X118754Y322537D01*
X119303Y323566D01*
X119642Y324682D01*
X119756Y325842D01*
X119642Y327003D01*
X119303Y328119D01*
X118754Y329148D01*
X118014Y330050D01*
X117112Y330790D01*
X116083Y331340D01*
X114967Y331678D01*
X113806Y331792D01*
X112645Y331678D01*
X111529Y331340D01*
X110501Y330790D01*
X109599Y330050D01*
X108859Y329148D01*
X108309Y328119D01*
X108171Y327665D01*
X70229D01*
X70091Y328119D01*
X69541Y329148D01*
X68801Y330050D01*
X67899Y330790D01*
X66871Y331340D01*
X65754Y331678D01*
X64594Y331792D01*
X63433Y331678D01*
X62317Y331340D01*
X61898Y331116D01*
X51441Y341572D01*
X50850Y341967D01*
X50153Y342106D01*
X50153Y342106D01*
X18983D01*
X18983Y342106D01*
X18286Y341967D01*
X17695Y341572D01*
X17695Y341572D01*
X5894Y329771D01*
X5499Y329180D01*
X5360Y328482D01*
X5360Y328482D01*
Y231260D01*
X1481Y227381D01*
X1020Y227573D01*
Y340700D01*
X1020Y341122D01*
X1184Y341949D01*
X1507Y342727D01*
X1975Y343429D01*
X2571Y344025D01*
X3272Y344493D01*
X4051Y344816D01*
X4878Y344981D01*
X5300Y344981D01*
X139200Y344981D01*
X223100D01*
X223100Y344981D01*
X223100Y344981D01*
X223522Y344981D01*
X224348Y344816D01*
D02*
G37*
G36*
X31850Y337999D02*
X30554Y336702D01*
X30283Y336814D01*
X29200Y336957D01*
X28117Y336814D01*
X27107Y336396D01*
X26241Y335731D01*
X25575Y334864D01*
X25157Y333855D01*
X25015Y332772D01*
Y329228D01*
X25157Y328145D01*
X25575Y327136D01*
X26241Y326269D01*
X27107Y325604D01*
X27378Y325492D01*
Y316554D01*
X27378Y316554D01*
X27516Y315857D01*
X27911Y315266D01*
X32441Y310737D01*
Y306146D01*
X31941Y305899D01*
X31293Y306396D01*
X30283Y306815D01*
X29200Y306957D01*
X28117Y306815D01*
X27107Y306396D01*
X26241Y305731D01*
X25575Y304864D01*
X25157Y303855D01*
X25015Y302772D01*
Y299228D01*
X25157Y298145D01*
X25575Y297136D01*
X26241Y296269D01*
X27107Y295604D01*
X28117Y295185D01*
X29200Y295043D01*
X30283Y295185D01*
X31293Y295604D01*
X32153Y296264D01*
X32162Y296269D01*
X32755Y296223D01*
X32974Y295895D01*
X36852Y292018D01*
X36533Y291629D01*
X36027Y291967D01*
X35329Y292106D01*
X35329Y292106D01*
X19730D01*
X19730Y292106D01*
X19032Y291967D01*
X18441Y291572D01*
X18441Y291572D01*
X9467Y282597D01*
X9005Y282789D01*
Y327727D01*
X14580Y333303D01*
X15054Y333069D01*
X15015Y332772D01*
Y329228D01*
X15157Y328145D01*
X15575Y327136D01*
X16240Y326269D01*
X17107Y325604D01*
X18117Y325185D01*
X19200Y325043D01*
X20283Y325185D01*
X21293Y325604D01*
X22160Y326269D01*
X22825Y327136D01*
X23243Y328145D01*
X23385Y329228D01*
Y332772D01*
X23365Y332930D01*
X23384Y333075D01*
X23384Y333075D01*
Y333197D01*
X23248Y334229D01*
X22850Y335190D01*
X22216Y336016D01*
X21390Y336650D01*
X20429Y337048D01*
X19397Y337184D01*
X19133Y337149D01*
X18900Y337623D01*
X19738Y338461D01*
X31659D01*
X31850Y337999D01*
D02*
G37*
G36*
X186091Y306171D02*
X186199Y305678D01*
X185575Y304864D01*
X185157Y303855D01*
X185015Y302772D01*
Y299228D01*
X185157Y298145D01*
X185269Y297875D01*
X177911Y290517D01*
X177516Y289926D01*
X177378Y289228D01*
X177378Y289228D01*
Y286508D01*
X177107Y286396D01*
X176241Y285731D01*
X175575Y284864D01*
X175157Y283855D01*
X175015Y282772D01*
Y279228D01*
X175157Y278145D01*
X175575Y277136D01*
X176241Y276269D01*
X177107Y275604D01*
X178117Y275185D01*
X179200Y275043D01*
X180283Y275185D01*
X181293Y275604D01*
X182159Y276269D01*
X182825Y277136D01*
X183243Y278145D01*
X183385Y279228D01*
Y282772D01*
X183243Y283855D01*
X182825Y284864D01*
X182159Y285731D01*
X181293Y286396D01*
X181022Y286508D01*
Y288474D01*
X187846Y295298D01*
X188117Y295185D01*
X188769Y295100D01*
X188948Y294572D01*
X187911Y293535D01*
X187516Y292944D01*
X187378Y292246D01*
X187378Y292246D01*
Y286508D01*
X187107Y286396D01*
X186240Y285731D01*
X185575Y284864D01*
X185157Y283855D01*
X185015Y282772D01*
Y279228D01*
X185157Y278145D01*
X185575Y277136D01*
X186240Y276269D01*
X187107Y275604D01*
X188117Y275185D01*
X189200Y275043D01*
X190283Y275185D01*
X191293Y275604D01*
X192159Y276269D01*
X192825Y277136D01*
X193243Y278145D01*
X193385Y279228D01*
Y282772D01*
X193243Y283855D01*
X192825Y284864D01*
X192159Y285731D01*
X191293Y286396D01*
X191022Y286508D01*
Y291492D01*
X195426Y295895D01*
X195426Y295895D01*
X195645Y296223D01*
X196238Y296269D01*
X196247Y296264D01*
X197107Y295604D01*
X198117Y295185D01*
X199148Y295050D01*
X199329Y294782D01*
X199414Y294608D01*
X197911Y293106D01*
X197516Y292514D01*
X197378Y291817D01*
X197378Y291817D01*
Y286921D01*
X195050D01*
Y275079D01*
X203350D01*
Y286921D01*
X201022D01*
Y291062D01*
X205489Y295528D01*
X205489Y295528D01*
X205810Y296009D01*
X205897Y296062D01*
X206215Y296137D01*
X206399Y296147D01*
X207107Y295604D01*
X207378Y295492D01*
Y287500D01*
X207378Y287500D01*
X207516Y286803D01*
X207911Y286211D01*
X217378Y276745D01*
Y274423D01*
X216878Y274176D01*
X216293Y274625D01*
X215283Y275043D01*
X214700Y275120D01*
Y271000D01*
Y266880D01*
X215283Y266957D01*
X216293Y267375D01*
X216878Y267824D01*
X217378Y267578D01*
Y264422D01*
X216878Y264176D01*
X216293Y264625D01*
X215283Y265043D01*
X214200Y265185D01*
X213117Y265043D01*
X212107Y264625D01*
X211241Y263960D01*
X210575Y263093D01*
X210157Y262083D01*
X210015Y261000D01*
X210157Y259917D01*
X210575Y258907D01*
X211241Y258040D01*
X212107Y257375D01*
X213117Y256957D01*
X214200Y256815D01*
X215283Y256957D01*
X216293Y257375D01*
X216878Y257824D01*
X217378Y257577D01*
Y221194D01*
X216878Y220948D01*
X216293Y221396D01*
X215283Y221814D01*
X214200Y221957D01*
X213117Y221814D01*
X212107Y221396D01*
X211241Y220731D01*
X210575Y219864D01*
X210157Y218855D01*
X210015Y217772D01*
Y214228D01*
X210157Y213145D01*
X210269Y212875D01*
X207911Y210517D01*
X207516Y209926D01*
X207378Y209228D01*
X207378Y209228D01*
Y161194D01*
X206878Y160948D01*
X206293Y161396D01*
X205283Y161814D01*
X204200Y161957D01*
X203117Y161814D01*
X202107Y161396D01*
X201585Y160996D01*
X201085Y161242D01*
Y208537D01*
X202847Y210297D01*
X203117Y210186D01*
X204200Y210043D01*
X205283Y210186D01*
X206293Y210604D01*
X207159Y211269D01*
X207825Y212136D01*
X208243Y213145D01*
X208385Y214228D01*
Y217772D01*
X208243Y218855D01*
X207825Y219864D01*
X207159Y220731D01*
X206293Y221396D01*
X205283Y221814D01*
X204200Y221957D01*
X203117Y221814D01*
X202107Y221396D01*
X201240Y220731D01*
X200575Y219864D01*
X200157Y218855D01*
X200015Y217772D01*
Y214228D01*
X200157Y213145D01*
X200269Y212875D01*
X197974Y210580D01*
X197579Y209989D01*
X197441Y209291D01*
X197441Y209291D01*
Y161146D01*
X196941Y160899D01*
X196293Y161396D01*
X195283Y161814D01*
X194200Y161957D01*
X193117Y161814D01*
X192107Y161396D01*
X191522Y160948D01*
X191022Y161194D01*
Y208473D01*
X192847Y210297D01*
X193117Y210186D01*
X194200Y210043D01*
X195283Y210186D01*
X196293Y210604D01*
X197160Y211269D01*
X197825Y212136D01*
X198243Y213145D01*
X198385Y214228D01*
Y217772D01*
X198243Y218855D01*
X197825Y219864D01*
X197160Y220731D01*
X196293Y221396D01*
X195283Y221814D01*
X194200Y221957D01*
X193117Y221814D01*
X192107Y221396D01*
X191241Y220731D01*
X190575Y219864D01*
X190157Y218855D01*
X190015Y217772D01*
Y214228D01*
X190157Y213145D01*
X190269Y212875D01*
X187911Y210517D01*
X187516Y209926D01*
X187378Y209228D01*
X187378Y209228D01*
Y206194D01*
X186878Y205948D01*
X186293Y206396D01*
X185283Y206815D01*
X184200Y206957D01*
X183117Y206815D01*
X182107Y206396D01*
X181522Y205947D01*
X181022Y206194D01*
Y208473D01*
X182846Y210297D01*
X183117Y210186D01*
X184200Y210043D01*
X185283Y210186D01*
X186293Y210604D01*
X187160Y211269D01*
X187825Y212136D01*
X188243Y213145D01*
X188385Y214228D01*
Y217772D01*
X188243Y218855D01*
X187825Y219864D01*
X187160Y220731D01*
X186293Y221396D01*
X185283Y221814D01*
X184200Y221957D01*
X183117Y221814D01*
X182107Y221396D01*
X181240Y220731D01*
X180575Y219864D01*
X180157Y218855D01*
X180015Y217772D01*
Y214228D01*
X180157Y213145D01*
X180269Y212875D01*
X177911Y210517D01*
X177516Y209926D01*
X177378Y209228D01*
X177378Y209228D01*
Y206194D01*
X176878Y205948D01*
X176293Y206396D01*
X175283Y206815D01*
X174700Y206891D01*
Y201000D01*
Y195109D01*
X175283Y195185D01*
X176293Y195604D01*
X176878Y196052D01*
X177378Y195806D01*
Y176194D01*
X176878Y175948D01*
X176293Y176396D01*
X175283Y176814D01*
X174200Y176957D01*
X173117Y176814D01*
X172107Y176396D01*
X171522Y175947D01*
X171022Y176194D01*
Y195806D01*
X171522Y196053D01*
X172107Y195604D01*
X173117Y195185D01*
X173700Y195109D01*
Y201000D01*
Y206891D01*
X173117Y206815D01*
X172107Y206396D01*
X171522Y205947D01*
X171022Y206194D01*
Y208473D01*
X172846Y210297D01*
X173117Y210186D01*
X174200Y210043D01*
X175283Y210186D01*
X176293Y210604D01*
X177160Y211269D01*
X177825Y212136D01*
X178243Y213145D01*
X178385Y214228D01*
Y217772D01*
X178243Y218855D01*
X177825Y219864D01*
X177160Y220731D01*
X176293Y221396D01*
X175283Y221814D01*
X174200Y221957D01*
X173117Y221814D01*
X172107Y221396D01*
X171240Y220731D01*
X170575Y219864D01*
X170157Y218855D01*
X170015Y217772D01*
Y214228D01*
X170157Y213145D01*
X170269Y212875D01*
X167911Y210517D01*
X167516Y209926D01*
X167378Y209228D01*
X167378Y209228D01*
Y206194D01*
X166878Y205948D01*
X166293Y206396D01*
X165283Y206815D01*
X164631Y206900D01*
X164452Y207428D01*
X164585Y207561D01*
X164980Y208152D01*
X165119Y208850D01*
X165119Y208850D01*
Y210164D01*
X165283Y210186D01*
X166293Y210604D01*
X167159Y211269D01*
X167825Y212136D01*
X168243Y213145D01*
X168385Y214228D01*
Y217772D01*
X168243Y218855D01*
X167825Y219864D01*
X167159Y220731D01*
X166293Y221396D01*
X165283Y221814D01*
X164200Y221957D01*
X163117Y221814D01*
X162107Y221396D01*
X161240Y220731D01*
X160575Y219864D01*
X160157Y218855D01*
X160015Y217772D01*
Y214228D01*
X160157Y213145D01*
X160575Y212136D01*
X161240Y211269D01*
X161474Y211090D01*
Y209605D01*
X157974Y206105D01*
X157755Y205777D01*
X157162Y205731D01*
X157153Y205736D01*
X156293Y206396D01*
X155283Y206815D01*
X154200Y206957D01*
X153117Y206815D01*
X152107Y206396D01*
X151585Y205996D01*
X151085Y206242D01*
Y207913D01*
X153330Y210157D01*
X154200Y210043D01*
X155283Y210186D01*
X156293Y210604D01*
X157159Y211269D01*
X157825Y212136D01*
X158243Y213145D01*
X158385Y214228D01*
Y217772D01*
X158243Y218855D01*
X157825Y219864D01*
X157159Y220731D01*
X156293Y221396D01*
X155283Y221814D01*
X154200Y221957D01*
X153117Y221814D01*
X152107Y221396D01*
X151247Y220737D01*
X151238Y220731D01*
X150645Y220777D01*
X150426Y221105D01*
X150426Y221105D01*
X145242Y226289D01*
X144651Y226684D01*
X143954Y226822D01*
X143954Y226822D01*
X139977D01*
X139897Y227316D01*
X140489Y227711D01*
X155489Y242711D01*
X155884Y243303D01*
X156022Y244000D01*
X156022Y244000D01*
Y245806D01*
X156522Y246053D01*
X157107Y245604D01*
X158117Y245185D01*
X159200Y245043D01*
X160283Y245185D01*
X161293Y245604D01*
X162160Y246269D01*
X162825Y247136D01*
X163243Y248145D01*
X163385Y249228D01*
Y252772D01*
X163243Y253855D01*
X162825Y254864D01*
X162160Y255731D01*
X161293Y256396D01*
X161022Y256508D01*
Y272246D01*
X161022Y272246D01*
X160884Y272944D01*
X160489Y273535D01*
X160489Y273535D01*
X159452Y274572D01*
X159631Y275100D01*
X160283Y275185D01*
X161293Y275604D01*
X162153Y276263D01*
X162162Y276269D01*
X162755Y276223D01*
X162974Y275895D01*
X167378Y271492D01*
Y256508D01*
X167107Y256396D01*
X166241Y255731D01*
X165575Y254864D01*
X165157Y253855D01*
X165015Y252772D01*
Y249228D01*
X165157Y248145D01*
X165575Y247136D01*
X166241Y246269D01*
X167107Y245604D01*
X168117Y245185D01*
X169200Y245043D01*
X170283Y245185D01*
X171293Y245604D01*
X172160Y246269D01*
X172825Y247136D01*
X173243Y248145D01*
X173385Y249228D01*
Y252772D01*
X173243Y253855D01*
X172825Y254864D01*
X172160Y255731D01*
X171293Y256396D01*
X171022Y256508D01*
Y272246D01*
X171022Y272246D01*
X170884Y272944D01*
X170489Y273535D01*
X170489Y273535D01*
X169452Y274572D01*
X169631Y275100D01*
X170283Y275185D01*
X171293Y275604D01*
X172160Y276269D01*
X172825Y277136D01*
X173243Y278145D01*
X173385Y279228D01*
Y282772D01*
X173243Y283855D01*
X172825Y284864D01*
X172160Y285731D01*
X171293Y286396D01*
X171022Y286508D01*
Y291492D01*
X175426Y295895D01*
X175426Y295895D01*
X175645Y296223D01*
X176238Y296269D01*
X176247Y296264D01*
X177107Y295604D01*
X178117Y295185D01*
X179200Y295043D01*
X180283Y295185D01*
X181293Y295604D01*
X182159Y296269D01*
X182825Y297136D01*
X183243Y298145D01*
X183385Y299228D01*
Y302772D01*
X183243Y303855D01*
X183131Y304125D01*
X185183Y306178D01*
X186089D01*
X186091Y306171D01*
D02*
G37*
G36*
X35976Y335386D02*
X35575Y334864D01*
X35157Y333855D01*
X35015Y332772D01*
Y329228D01*
X35157Y328145D01*
X35575Y327136D01*
X36241Y326269D01*
X37107Y325604D01*
X37167Y325579D01*
X49565Y313181D01*
X49565Y313181D01*
X50391Y312547D01*
X51352Y312149D01*
X52384Y312013D01*
X61927D01*
X62052Y311513D01*
X61288Y311105D01*
X60387Y310365D01*
X59646Y309463D01*
X59097Y308434D01*
X58758Y307318D01*
X58693Y306658D01*
X70494D01*
X70429Y307318D01*
X70091Y308434D01*
X69541Y309463D01*
X68801Y310365D01*
X67899Y311105D01*
X67135Y311513D01*
X67260Y312013D01*
X68549D01*
X82315Y298246D01*
Y286921D01*
X75050D01*
Y275079D01*
X82315D01*
Y268853D01*
X82315Y268853D01*
X82451Y267822D01*
X82850Y266860D01*
X83483Y266034D01*
X90551Y258967D01*
X90575Y258907D01*
X90976Y258385D01*
X90729Y257885D01*
X87408D01*
X86296Y258997D01*
X85705Y259392D01*
X85007Y259531D01*
X85007Y259531D01*
X74137D01*
X74137Y259531D01*
X73440Y259392D01*
X72848Y258997D01*
X72848Y258997D01*
X70553Y256702D01*
X70283Y256815D01*
X69200Y256957D01*
X68117Y256815D01*
X67107Y256396D01*
X66522Y255947D01*
X66022Y256194D01*
Y275806D01*
X66522Y276052D01*
X67107Y275604D01*
X68117Y275185D01*
X69200Y275043D01*
X70283Y275185D01*
X71293Y275604D01*
X72159Y276269D01*
X72825Y277136D01*
X73243Y278145D01*
X73385Y279228D01*
Y282772D01*
X73243Y283855D01*
X72825Y284864D01*
X72159Y285731D01*
X71293Y286396D01*
X70283Y286814D01*
X69200Y286957D01*
X68117Y286814D01*
X67107Y286396D01*
X66278Y285760D01*
X66214Y285734D01*
X65656Y285791D01*
X65489Y286042D01*
X65489Y286042D01*
X53259Y298271D01*
X53385Y299228D01*
Y302772D01*
X53243Y303855D01*
X52825Y304864D01*
X52160Y305731D01*
X51293Y306396D01*
X50283Y306815D01*
X49200Y306957D01*
X48117Y306815D01*
X47107Y306396D01*
X46240Y305731D01*
X45575Y304864D01*
X45157Y303855D01*
X45015Y302772D01*
Y299228D01*
X45157Y298145D01*
X45575Y297136D01*
X46240Y296269D01*
X47107Y295604D01*
X48117Y295185D01*
X49200Y295043D01*
X50283Y295185D01*
X50925Y295451D01*
X58948Y287428D01*
X58769Y286900D01*
X58117Y286814D01*
X57107Y286396D01*
X56240Y285731D01*
X55575Y284864D01*
X55157Y283855D01*
X55015Y282772D01*
Y279228D01*
X55157Y278145D01*
X55269Y277875D01*
X53508Y276114D01*
X52671D01*
X52424Y276614D01*
X52825Y277136D01*
X53243Y278145D01*
X53385Y279228D01*
Y282772D01*
X53243Y283855D01*
X52825Y284864D01*
X52160Y285731D01*
X51293Y286396D01*
X50283Y286814D01*
X49200Y286957D01*
X48330Y286842D01*
X42916Y292257D01*
X42324Y292652D01*
X41627Y292790D01*
X41627Y292790D01*
X41233D01*
X39452Y294572D01*
X39631Y295100D01*
X40283Y295185D01*
X41293Y295604D01*
X42160Y296269D01*
X42825Y297136D01*
X43243Y298145D01*
X43385Y299228D01*
Y302772D01*
X43243Y303855D01*
X42825Y304864D01*
X42160Y305731D01*
X41293Y306396D01*
X40283Y306815D01*
X39200Y306957D01*
X38117Y306815D01*
X37107Y306396D01*
X36585Y305996D01*
X36085Y306242D01*
Y311491D01*
X36085Y311491D01*
X35947Y312189D01*
X35552Y312780D01*
X35552Y312780D01*
X31022Y317309D01*
Y325492D01*
X31293Y325604D01*
X32160Y326269D01*
X32825Y327136D01*
X33243Y328145D01*
X33385Y329228D01*
Y332772D01*
X33243Y333855D01*
X33131Y334125D01*
X34892Y335886D01*
X35729D01*
X35976Y335386D01*
D02*
G37*
G36*
X35269Y284125D02*
X35157Y283855D01*
X35015Y282772D01*
Y279228D01*
X35157Y278145D01*
X35575Y277136D01*
X36241Y276269D01*
X37107Y275604D01*
X38117Y275185D01*
X39200Y275043D01*
X40283Y275185D01*
X41293Y275604D01*
X42122Y276240D01*
X42186Y276266D01*
X42744Y276209D01*
X42911Y275958D01*
X45866Y273003D01*
X45866Y273003D01*
X46458Y272608D01*
X47155Y272469D01*
X54263D01*
X54263Y272469D01*
X54960Y272608D01*
X55552Y273003D01*
X57846Y275297D01*
X58117Y275185D01*
X59200Y275043D01*
X60283Y275185D01*
X61293Y275604D01*
X61878Y276052D01*
X62378Y275806D01*
Y256194D01*
X61878Y255947D01*
X61293Y256396D01*
X60283Y256815D01*
X59200Y256957D01*
X58117Y256815D01*
X57107Y256396D01*
X56240Y255731D01*
X55575Y254864D01*
X55157Y253855D01*
X55015Y252772D01*
Y249228D01*
X55157Y248145D01*
X55575Y247136D01*
X56240Y246269D01*
X57107Y245604D01*
X58117Y245185D01*
X59200Y245043D01*
X60283Y245185D01*
X61293Y245604D01*
X62122Y246240D01*
X62186Y246266D01*
X62744Y246209D01*
X62911Y245958D01*
X64868Y244001D01*
X64677Y243539D01*
X59625D01*
X59625Y243539D01*
X58928Y243400D01*
X58337Y243005D01*
X58337Y243005D01*
X28154Y212822D01*
X24708D01*
X24596Y213093D01*
X23931Y213960D01*
X23064Y214625D01*
X22055Y215043D01*
X20972Y215185D01*
X17428D01*
X16345Y215043D01*
X15336Y214625D01*
X14814Y214224D01*
X14314Y214471D01*
Y215308D01*
X15856Y216850D01*
X25121D01*
Y224115D01*
X28137D01*
X28137Y224115D01*
X28834Y224253D01*
X29426Y224648D01*
X35489Y230711D01*
X35489Y230711D01*
X35884Y231303D01*
X36022Y232000D01*
Y232577D01*
X36522Y232824D01*
X37107Y232375D01*
X38117Y231957D01*
X39200Y231815D01*
X40283Y231957D01*
X41293Y232375D01*
X42160Y233040D01*
X42825Y233907D01*
X43243Y234917D01*
X43385Y236000D01*
X43243Y237083D01*
X42825Y238093D01*
X42160Y238960D01*
X41293Y239625D01*
X40283Y240043D01*
X39631Y240129D01*
X39452Y240657D01*
X40158Y241362D01*
X43156D01*
X43156Y241362D01*
X43854Y241501D01*
X44445Y241896D01*
X47846Y245298D01*
X48117Y245185D01*
X49200Y245043D01*
X50283Y245185D01*
X51293Y245604D01*
X52160Y246269D01*
X52825Y247136D01*
X53243Y248145D01*
X53385Y249228D01*
Y252772D01*
X53243Y253855D01*
X52825Y254864D01*
X52160Y255731D01*
X51293Y256396D01*
X50283Y256815D01*
X49200Y256957D01*
X48117Y256815D01*
X47107Y256396D01*
X46240Y255731D01*
X45575Y254864D01*
X45157Y253855D01*
X45015Y252772D01*
Y249228D01*
X45157Y248145D01*
X45269Y247875D01*
X42401Y245007D01*
X41159D01*
X41059Y245507D01*
X41293Y245604D01*
X42160Y246269D01*
X42825Y247136D01*
X43243Y248145D01*
X43385Y249228D01*
Y252772D01*
X43243Y253855D01*
X42825Y254864D01*
X42160Y255731D01*
X41293Y256396D01*
X40283Y256815D01*
X39200Y256957D01*
X38117Y256815D01*
X37107Y256396D01*
X36241Y255731D01*
X35575Y254864D01*
X35157Y253855D01*
X35015Y252772D01*
Y249228D01*
X35157Y248145D01*
X35575Y247136D01*
X36241Y246269D01*
X37107Y245604D01*
X38117Y245185D01*
X38253Y245168D01*
X38355Y244951D01*
X38374Y244647D01*
X38114Y244473D01*
X38114Y244473D01*
X32911Y239271D01*
X32744Y239020D01*
X32186Y238962D01*
X32122Y238989D01*
X31293Y239625D01*
X30283Y240043D01*
X29631Y240129D01*
X29452Y240657D01*
X30489Y241693D01*
X30489Y241693D01*
X30884Y242285D01*
X31022Y242982D01*
X31022Y242982D01*
Y245492D01*
X31293Y245604D01*
X32160Y246269D01*
X32825Y247136D01*
X33243Y248145D01*
X33385Y249228D01*
Y252772D01*
X33243Y253855D01*
X32825Y254864D01*
X32160Y255731D01*
X31293Y256396D01*
X31022Y256508D01*
Y275492D01*
X31293Y275604D01*
X32160Y276269D01*
X32825Y277136D01*
X33243Y278145D01*
X33385Y279228D01*
Y282772D01*
X33243Y283855D01*
X32825Y284864D01*
X32424Y285386D01*
X32671Y285886D01*
X33508D01*
X35269Y284125D01*
D02*
G37*
G36*
X96515Y239646D02*
X90957Y234088D01*
X90479Y234233D01*
X90440Y234428D01*
X89914Y235214D01*
X89128Y235740D01*
X88200Y235925D01*
X87272Y235740D01*
X86486Y235214D01*
X85960Y234428D01*
X85813Y233691D01*
X76522Y224400D01*
X76022Y224607D01*
Y227447D01*
X76440Y228072D01*
X76625Y229000D01*
X76440Y229928D01*
X75914Y230714D01*
X75128Y231240D01*
X74200Y231424D01*
X73272Y231240D01*
X72486Y230714D01*
X71960Y229928D01*
X71776Y229000D01*
X71960Y228072D01*
X72378Y227447D01*
Y224983D01*
X71713Y224319D01*
X71252Y224565D01*
X71386Y225238D01*
X71202Y226166D01*
X70676Y226953D01*
X69890Y227478D01*
X68962Y227663D01*
X68034Y227478D01*
X67409Y227061D01*
X65210D01*
X64512Y226922D01*
X63921Y226527D01*
X63921Y226527D01*
X52325Y214931D01*
X52055Y215043D01*
X50972Y215185D01*
X47428D01*
X46345Y215043D01*
X45336Y214625D01*
X44469Y213960D01*
X43804Y213093D01*
X43692Y212822D01*
X33962D01*
X33770Y213284D01*
X43039Y222553D01*
X43463Y222270D01*
X43385Y222083D01*
X43243Y221000D01*
X43385Y219917D01*
X43804Y218907D01*
X44469Y218040D01*
X45336Y217375D01*
X46345Y216957D01*
X47428Y216815D01*
X50972D01*
X52055Y216957D01*
X53064Y217375D01*
X53931Y218040D01*
X54596Y218907D01*
X55014Y219917D01*
X55157Y221000D01*
X55014Y222083D01*
X54596Y223093D01*
X53931Y223959D01*
X53064Y224625D01*
X52055Y225043D01*
X50972Y225185D01*
X47428D01*
X46345Y225043D01*
X46159Y224966D01*
X45875Y225389D01*
X60380Y239894D01*
X95497D01*
X95497Y239894D01*
X96194Y240033D01*
X96196Y240034D01*
X96515Y239646D01*
D02*
G37*
G36*
X15015Y282284D02*
Y281500D01*
X19200D01*
Y280500D01*
X15015D01*
Y279228D01*
X15157Y278145D01*
X15575Y277136D01*
X16240Y276269D01*
X17107Y275604D01*
X18117Y275185D01*
X18769Y275100D01*
X18948Y274572D01*
X17911Y273535D01*
X17516Y272944D01*
X17378Y272246D01*
X17378Y272246D01*
Y256508D01*
X17107Y256396D01*
X16240Y255731D01*
X15575Y254864D01*
X15157Y253855D01*
X15015Y252772D01*
Y249228D01*
X15157Y248145D01*
X15575Y247136D01*
X16240Y246269D01*
X17107Y245604D01*
X18117Y245185D01*
X19200Y245043D01*
X20283Y245185D01*
X21293Y245604D01*
X22160Y246269D01*
X22825Y247136D01*
X23243Y248145D01*
X23385Y249228D01*
Y252772D01*
X23243Y253855D01*
X22825Y254864D01*
X22160Y255731D01*
X21293Y256396D01*
X21022Y256508D01*
Y271492D01*
X25426Y275895D01*
X25426Y275895D01*
X25645Y276223D01*
X26238Y276269D01*
X26247Y276263D01*
X27107Y275604D01*
X27378Y275492D01*
Y256508D01*
X27107Y256396D01*
X26241Y255731D01*
X25575Y254864D01*
X25157Y253855D01*
X25015Y252772D01*
Y249228D01*
X25157Y248145D01*
X25575Y247136D01*
X26241Y246269D01*
X27107Y245604D01*
X27378Y245492D01*
Y243737D01*
X22974Y239334D01*
X22579Y238742D01*
X22441Y238045D01*
X22441Y238045D01*
Y231100D01*
X21675Y230334D01*
X12472D01*
X12472Y230334D01*
X12239Y230288D01*
X11739Y230698D01*
Y279715D01*
X14515Y282491D01*
X15015Y282284D01*
D02*
G37*
G36*
X217378Y210806D02*
Y182255D01*
X212509Y177387D01*
X211772Y177240D01*
X211463Y177034D01*
X211022Y177269D01*
Y208473D01*
X212846Y210297D01*
X213117Y210186D01*
X214200Y210043D01*
X215283Y210186D01*
X216293Y210604D01*
X216878Y211052D01*
X217378Y210806D01*
D02*
G37*
G36*
X42567Y208716D02*
X41203Y207352D01*
X40808Y206760D01*
X40669Y206063D01*
X40669Y206063D01*
Y198955D01*
X40669Y198955D01*
X40808Y198258D01*
X40846Y198200D01*
X40610Y197759D01*
X31173D01*
X31021Y198259D01*
X31273Y198427D01*
X31755Y199149D01*
X31824Y199500D01*
X27576D01*
X27645Y199149D01*
X28128Y198427D01*
X28379Y198259D01*
X28227Y197759D01*
X24346D01*
X24099Y198259D01*
X24596Y198907D01*
X25014Y199917D01*
X25157Y201000D01*
X25014Y202083D01*
X24596Y203093D01*
X24099Y203741D01*
X24346Y204241D01*
X27846D01*
X27846Y204241D01*
X28544Y204379D01*
X29135Y204774D01*
X33538Y209178D01*
X42375D01*
X42567Y208716D01*
D02*
G37*
G36*
X164700Y195109D02*
X165283Y195185D01*
X166293Y195604D01*
X166878Y196052D01*
X167378Y195806D01*
Y176194D01*
X166878Y175948D01*
X166293Y176396D01*
X166022Y176508D01*
Y187417D01*
X166022Y187417D01*
X165884Y188114D01*
X165489Y188706D01*
X165489Y188706D01*
X161085Y193109D01*
Y195757D01*
X161585Y196004D01*
X162107Y195604D01*
X163117Y195185D01*
X163700Y195109D01*
Y201000D01*
X164700D01*
Y195109D01*
D02*
G37*
G36*
X144700D02*
X145283Y195185D01*
X146293Y195604D01*
X146941Y196101D01*
X147441Y195854D01*
Y176146D01*
X146941Y175899D01*
X146293Y176396D01*
X146022Y176508D01*
Y187417D01*
X146022Y187417D01*
X145884Y188114D01*
X145489Y188706D01*
X145489Y188706D01*
X141085Y193109D01*
Y195757D01*
X141585Y196004D01*
X142107Y195604D01*
X143117Y195185D01*
X143700Y195109D01*
Y201000D01*
X144700D01*
Y195109D01*
D02*
G37*
G36*
X157441Y195854D02*
Y192354D01*
X157441Y192354D01*
X157579Y191656D01*
X157974Y191065D01*
X162378Y186662D01*
Y176508D01*
X162107Y176396D01*
X161240Y175731D01*
X160575Y174864D01*
X160157Y173855D01*
X160015Y172772D01*
Y169228D01*
X160157Y168145D01*
X160575Y167136D01*
X161240Y166269D01*
X162107Y165604D01*
X163117Y165185D01*
X164200Y165043D01*
X165283Y165185D01*
X166293Y165604D01*
X166878Y166052D01*
X167378Y165806D01*
Y161194D01*
X166878Y160948D01*
X166293Y161396D01*
X165283Y161814D01*
X164200Y161957D01*
X163117Y161814D01*
X162107Y161396D01*
X161240Y160731D01*
X160575Y159864D01*
X160157Y158855D01*
X160015Y157772D01*
Y154228D01*
X160157Y153145D01*
X160575Y152136D01*
X161240Y151269D01*
X162107Y150604D01*
X163117Y150186D01*
X164200Y150043D01*
X165070Y150157D01*
X167378Y147850D01*
Y136194D01*
X166878Y135948D01*
X166293Y136396D01*
X165283Y136814D01*
X164200Y136957D01*
X163117Y136814D01*
X162107Y136396D01*
X161522Y135948D01*
X161022Y136194D01*
Y149228D01*
X161022Y149228D01*
X160884Y149926D01*
X160489Y150517D01*
X160489Y150517D01*
X158131Y152875D01*
X158243Y153145D01*
X158385Y154228D01*
Y157772D01*
X158243Y158855D01*
X157825Y159864D01*
X157159Y160731D01*
X156293Y161396D01*
X155283Y161814D01*
X154200Y161957D01*
X153117Y161814D01*
X152107Y161396D01*
X151585Y160996D01*
X151085Y161242D01*
Y165758D01*
X151585Y166004D01*
X152107Y165604D01*
X153117Y165185D01*
X154200Y165043D01*
X155283Y165185D01*
X156293Y165604D01*
X157159Y166269D01*
X157825Y167136D01*
X158243Y168145D01*
X158385Y169228D01*
Y172772D01*
X158243Y173855D01*
X157825Y174864D01*
X157159Y175731D01*
X156293Y176396D01*
X155283Y176814D01*
X154200Y176957D01*
X153117Y176814D01*
X152107Y176396D01*
X151585Y175996D01*
X151085Y176242D01*
Y195757D01*
X151585Y196004D01*
X152107Y195604D01*
X153117Y195185D01*
X154200Y195043D01*
X155283Y195185D01*
X156293Y195604D01*
X156941Y196101D01*
X157441Y195854D01*
D02*
G37*
G36*
X127733Y196194D02*
X127848Y196021D01*
X132378Y191491D01*
Y176508D01*
X132107Y176396D01*
X131585Y175996D01*
X131085Y176242D01*
Y176536D01*
X131085Y176536D01*
X130947Y177233D01*
X130552Y177824D01*
X130552Y177824D01*
X121085Y187291D01*
Y195757D01*
X121585Y196004D01*
X122107Y195604D01*
X123117Y195185D01*
X124200Y195043D01*
X125283Y195185D01*
X126293Y195604D01*
X127108Y196229D01*
X127215Y196262D01*
X127733Y196194D01*
D02*
G37*
G36*
X39265Y184774D02*
X39265Y184774D01*
X39856Y184379D01*
X40554Y184241D01*
X40554Y184241D01*
X44054D01*
X44301Y183741D01*
X43804Y183093D01*
X43385Y182083D01*
X43309Y181500D01*
X49200D01*
Y180500D01*
X43309D01*
X43385Y179917D01*
X43804Y178907D01*
X44204Y178385D01*
X43957Y177885D01*
X41309D01*
X36906Y182289D01*
X36314Y182684D01*
X35617Y182822D01*
X35617Y182822D01*
X24708D01*
X24596Y183093D01*
X23931Y183959D01*
X23064Y184625D01*
X22055Y185043D01*
X20972Y185185D01*
X17428D01*
X16345Y185043D01*
X15336Y184625D01*
X14814Y184224D01*
X14314Y184471D01*
Y187529D01*
X14814Y187776D01*
X15336Y187375D01*
X16345Y186957D01*
X17428Y186815D01*
X20972D01*
X22055Y186957D01*
X23064Y187375D01*
X23931Y188040D01*
X24596Y188907D01*
X24708Y189178D01*
X34862D01*
X39265Y184774D01*
D02*
G37*
G36*
X104700Y176880D02*
X105283Y176957D01*
X106293Y177375D01*
X106878Y177824D01*
X107378Y177577D01*
Y161194D01*
X106878Y160948D01*
X106293Y161396D01*
X105283Y161814D01*
X104200Y161957D01*
X103117Y161814D01*
X102107Y161396D01*
X101522Y160948D01*
X101022Y161194D01*
Y177577D01*
X101522Y177824D01*
X102107Y177375D01*
X103117Y176957D01*
X103700Y176880D01*
Y181000D01*
X104700D01*
Y176880D01*
D02*
G37*
G36*
X182107Y195604D02*
X183117Y195185D01*
X184200Y195043D01*
X185283Y195185D01*
X186293Y195604D01*
X186878Y196052D01*
X187378Y195806D01*
Y176194D01*
X186878Y175948D01*
X186293Y176396D01*
X185283Y176814D01*
X184700Y176891D01*
Y171000D01*
X183700D01*
Y176891D01*
X183117Y176814D01*
X182107Y176396D01*
X181522Y175947D01*
X181022Y176194D01*
Y195806D01*
X181522Y196053D01*
X182107Y195604D01*
D02*
G37*
G36*
X77441Y219456D02*
Y212183D01*
X77441Y212183D01*
X77579Y211486D01*
X77974Y210895D01*
X80285Y208585D01*
X80285Y208584D01*
X87378Y201491D01*
Y200174D01*
X86878Y200031D01*
X86434Y200695D01*
X85647Y201221D01*
X84719Y201405D01*
X83792Y201221D01*
X83005Y200695D01*
X82479Y199908D01*
X82295Y198981D01*
X82479Y198053D01*
X82878Y197457D01*
Y167853D01*
X54911Y139887D01*
X54516Y139296D01*
X54378Y138599D01*
X54378Y138599D01*
Y134111D01*
X54371Y134109D01*
X53878Y134001D01*
X53064Y134625D01*
X52055Y135043D01*
X50972Y135185D01*
X47428D01*
X46345Y135043D01*
X45336Y134625D01*
X44469Y133959D01*
X43804Y133093D01*
X43385Y132083D01*
X43243Y131000D01*
X43385Y129917D01*
X43804Y128907D01*
X44469Y128041D01*
X45336Y127375D01*
X46345Y126957D01*
X47428Y126815D01*
X50972D01*
X52055Y126957D01*
X53064Y127375D01*
X53878Y127999D01*
X54371Y127891D01*
X54378Y127889D01*
Y124111D01*
X54371Y124109D01*
X53878Y124001D01*
X53064Y124625D01*
X52055Y125043D01*
X50972Y125185D01*
X47428D01*
X46345Y125043D01*
X45336Y124625D01*
X44469Y123960D01*
X43804Y123093D01*
X43385Y122083D01*
X43243Y121000D01*
X43385Y119917D01*
X43804Y118907D01*
X44469Y118041D01*
X45336Y117375D01*
X46345Y116957D01*
X47428Y116815D01*
X50972D01*
X52055Y116957D01*
X53064Y117375D01*
X53878Y117999D01*
X54371Y117891D01*
X54378Y117889D01*
Y114111D01*
X54371Y114109D01*
X53878Y114001D01*
X53064Y114625D01*
X52055Y115043D01*
X50972Y115185D01*
X47428D01*
X46345Y115043D01*
X45336Y114625D01*
X44469Y113960D01*
X43804Y113093D01*
X43385Y112083D01*
X43243Y111000D01*
X43385Y109917D01*
X43804Y108907D01*
X44469Y108040D01*
X45336Y107375D01*
X46345Y106957D01*
X47428Y106815D01*
X50972D01*
X52055Y106957D01*
X53064Y107375D01*
X53878Y107999D01*
X54371Y107891D01*
X54378Y107889D01*
Y104111D01*
X54371Y104109D01*
X53878Y104001D01*
X53064Y104625D01*
X52055Y105043D01*
X50972Y105185D01*
X47428D01*
X46345Y105043D01*
X45336Y104625D01*
X44469Y103960D01*
X43804Y103093D01*
X43385Y102083D01*
X43243Y101000D01*
X43385Y99917D01*
X43804Y98907D01*
X44469Y98040D01*
X45336Y97375D01*
X46345Y96957D01*
X47428Y96815D01*
X50972D01*
X52055Y96957D01*
X53064Y97375D01*
X53878Y97999D01*
X54371Y97891D01*
X54378Y97889D01*
Y94111D01*
X54371Y94109D01*
X53878Y94001D01*
X53064Y94625D01*
X52055Y95043D01*
X50972Y95185D01*
X47428D01*
X46345Y95043D01*
X45336Y94625D01*
X44469Y93959D01*
X43804Y93093D01*
X43385Y92083D01*
X43243Y91000D01*
X43385Y89917D01*
X43804Y88907D01*
X44469Y88041D01*
X45336Y87375D01*
X46345Y86957D01*
X47428Y86815D01*
X50972D01*
X52055Y86957D01*
X53064Y87375D01*
X53878Y87999D01*
X54371Y87891D01*
X54378Y87889D01*
Y84111D01*
X54371Y84109D01*
X53878Y84001D01*
X53064Y84625D01*
X52055Y85043D01*
X50972Y85185D01*
X47428D01*
X46345Y85043D01*
X45336Y84625D01*
X44469Y83960D01*
X43804Y83093D01*
X43385Y82083D01*
X43243Y81000D01*
X43385Y79917D01*
X43804Y78907D01*
X44469Y78040D01*
X45336Y77375D01*
X46345Y76957D01*
X47428Y76815D01*
X50972D01*
X52055Y76957D01*
X53064Y77375D01*
X53878Y77999D01*
X54371Y77891D01*
X54378Y77889D01*
Y76983D01*
X52325Y74931D01*
X52055Y75043D01*
X50972Y75185D01*
X47428D01*
X46345Y75043D01*
X45336Y74625D01*
X44469Y73959D01*
X43804Y73093D01*
X43385Y72083D01*
X43300Y71431D01*
X42772Y71252D01*
X33097Y80926D01*
Y117679D01*
X33097Y117679D01*
X32958Y118376D01*
X32563Y118967D01*
X32563Y118967D01*
X24992Y126539D01*
X25121Y126850D01*
X25121D01*
Y135150D01*
X13279D01*
Y130010D01*
X13154Y129926D01*
X6260Y123032D01*
X5798Y123224D01*
Y201494D01*
X6260Y201685D01*
X8094Y199851D01*
Y197889D01*
X8094Y197889D01*
X8233Y197191D01*
X8628Y196600D01*
X10669Y194559D01*
Y177709D01*
X10669Y177709D01*
X10808Y177011D01*
X11203Y176420D01*
X14119Y173504D01*
X13804Y173093D01*
X13386Y172083D01*
X13243Y171000D01*
X13386Y169917D01*
X13804Y168907D01*
X14469Y168041D01*
X15336Y167375D01*
X16345Y166957D01*
X17428Y166815D01*
X20972D01*
X22055Y166957D01*
X23064Y167375D01*
X23931Y168041D01*
X24596Y168907D01*
X25014Y169917D01*
X25157Y171000D01*
X25014Y172083D01*
X24596Y173093D01*
X23931Y173960D01*
X23064Y174625D01*
X22055Y175043D01*
X20972Y175185D01*
X17489D01*
X17280Y175497D01*
X17280Y175497D01*
X16321Y176456D01*
X16555Y176930D01*
X17428Y176815D01*
X20972D01*
X22055Y176957D01*
X23064Y177375D01*
X23931Y178041D01*
X24596Y178907D01*
X24708Y179178D01*
X34862D01*
X39265Y174774D01*
X39265Y174774D01*
X39856Y174379D01*
X40554Y174241D01*
X40554Y174241D01*
X44054D01*
X44301Y173741D01*
X43804Y173093D01*
X43385Y172083D01*
X43309Y171500D01*
X55091D01*
X55014Y172083D01*
X54596Y173093D01*
X53936Y173953D01*
X53931Y173962D01*
X53977Y174555D01*
X54305Y174774D01*
X59989Y180458D01*
X59989Y180458D01*
X60384Y181049D01*
X60522Y181746D01*
Y203245D01*
X76941Y219663D01*
X77441Y219456D01*
D02*
G37*
G36*
X87744Y211209D02*
X87911Y210958D01*
X90866Y208003D01*
X90866Y208003D01*
X91458Y207608D01*
X92155Y207469D01*
X92155Y207469D01*
X99263D01*
X99263Y207469D01*
X99960Y207608D01*
X100552Y208003D01*
X101916Y209367D01*
X102378Y209175D01*
Y198737D01*
X97911Y194271D01*
X97516Y193679D01*
X97378Y192982D01*
X97378Y192982D01*
Y161194D01*
X96878Y160948D01*
X96293Y161396D01*
X95283Y161814D01*
X94200Y161957D01*
X93117Y161814D01*
X92107Y161396D01*
X91522Y160948D01*
X91022Y161194D01*
Y202246D01*
X90884Y202944D01*
X90489Y203535D01*
X90489Y203535D01*
X84452Y209572D01*
X84631Y210100D01*
X85283Y210186D01*
X86293Y210604D01*
X87122Y211240D01*
X87186Y211266D01*
X87744Y211209D01*
D02*
G37*
G36*
X137441Y195854D02*
Y192354D01*
X137441Y192354D01*
X137579Y191656D01*
X137974Y191065D01*
X142378Y186662D01*
Y176508D01*
X142107Y176396D01*
X141241Y175731D01*
X140575Y174864D01*
X140157Y173855D01*
X140015Y172772D01*
Y169228D01*
X140157Y168145D01*
X140575Y167136D01*
X141241Y166269D01*
X142107Y165604D01*
X143117Y165185D01*
X144200Y165043D01*
X145283Y165185D01*
X146293Y165604D01*
X146941Y166101D01*
X147441Y165854D01*
Y161146D01*
X146941Y160899D01*
X146293Y161396D01*
X145283Y161814D01*
X144200Y161957D01*
X143117Y161814D01*
X142107Y161396D01*
X141522Y160948D01*
X141022Y161194D01*
Y164000D01*
X141022Y164000D01*
X140884Y164697D01*
X140489Y165289D01*
X140489Y165289D01*
X138064Y167713D01*
X138243Y168145D01*
X138385Y169228D01*
Y172772D01*
X138243Y173855D01*
X137825Y174864D01*
X137160Y175731D01*
X136293Y176396D01*
X136022Y176508D01*
Y192246D01*
X136022Y192246D01*
X135884Y192944D01*
X135489Y193535D01*
X135489Y193535D01*
X134452Y194572D01*
X134631Y195100D01*
X135283Y195185D01*
X136293Y195604D01*
X136941Y196101D01*
X137441Y195854D01*
D02*
G37*
G36*
X92107Y150604D02*
X93117Y150186D01*
X94200Y150043D01*
X95070Y150157D01*
X97378Y147850D01*
Y136754D01*
X97315Y136437D01*
X97315Y136437D01*
Y136242D01*
X96815Y135996D01*
X96293Y136396D01*
X95283Y136814D01*
X94200Y136957D01*
X93117Y136814D01*
X92847Y136703D01*
X91022Y138526D01*
Y150806D01*
X91522Y151052D01*
X92107Y150604D01*
D02*
G37*
G36*
X90269Y134125D02*
X90157Y133855D01*
X90015Y132772D01*
Y129228D01*
X90157Y128145D01*
X90575Y127136D01*
X91241Y126269D01*
X92107Y125604D01*
X93117Y125186D01*
X94200Y125043D01*
X95283Y125186D01*
X96293Y125604D01*
X96815Y126004D01*
X97315Y125758D01*
Y108109D01*
X93958Y104752D01*
X93479Y104897D01*
X93440Y105093D01*
X92914Y105880D01*
X92128Y106405D01*
X91200Y106590D01*
X90272Y106405D01*
X89486Y105880D01*
X88960Y105093D01*
X88775Y104165D01*
X88808Y104001D01*
X88687Y103902D01*
X88187Y104138D01*
Y128010D01*
X88243Y128145D01*
X88385Y129228D01*
Y132772D01*
X88243Y133855D01*
X88187Y133990D01*
Y135554D01*
X88649Y135746D01*
X90269Y134125D01*
D02*
G37*
G36*
X10669Y121633D02*
Y115937D01*
X10669Y115937D01*
X10808Y115240D01*
X11203Y114648D01*
X13498Y112354D01*
X13386Y112083D01*
X13243Y111000D01*
X13386Y109917D01*
X13804Y108907D01*
X14469Y108040D01*
X15336Y107375D01*
X16345Y106957D01*
X17428Y106815D01*
X20972D01*
X22055Y106957D01*
X23064Y107375D01*
X23931Y108040D01*
X24596Y108907D01*
X25014Y109917D01*
X25157Y111000D01*
X25014Y112083D01*
X24596Y113093D01*
X23931Y113960D01*
X23064Y114625D01*
X22055Y115043D01*
X20972Y115185D01*
X17428D01*
X16345Y115043D01*
X16075Y114931D01*
X14314Y116692D01*
Y117529D01*
X14814Y117776D01*
X15336Y117375D01*
X16345Y116957D01*
X17428Y116815D01*
X20972D01*
X22055Y116957D01*
X22325Y117069D01*
X26878Y112517D01*
Y98325D01*
X26416Y98133D01*
X24903Y99647D01*
X25014Y99917D01*
X25157Y101000D01*
X25014Y102083D01*
X24596Y103093D01*
X23931Y103960D01*
X23064Y104625D01*
X22055Y105043D01*
X20972Y105185D01*
X17428D01*
X16345Y105043D01*
X15336Y104625D01*
X14469Y103960D01*
X13804Y103093D01*
X13386Y102083D01*
X13243Y101000D01*
X13386Y99917D01*
X13804Y98907D01*
X14469Y98040D01*
X15336Y97375D01*
X16345Y96957D01*
X17428Y96815D01*
X20972D01*
X22055Y96957D01*
X22325Y97069D01*
X24303Y95092D01*
Y94240D01*
X23803Y94058D01*
X23064Y94625D01*
X22055Y95043D01*
X20972Y95185D01*
X17428D01*
X16345Y95043D01*
X15336Y94625D01*
X14469Y93959D01*
X13804Y93093D01*
X13386Y92083D01*
X13243Y91000D01*
X13386Y89917D01*
X13498Y89646D01*
X8835Y84984D01*
X8373Y85175D01*
Y93843D01*
X8873Y94110D01*
X9349Y93792D01*
X9700Y93722D01*
Y95846D01*
Y97971D01*
X9349Y97901D01*
X8873Y97583D01*
X8373Y97850D01*
Y119991D01*
X10207Y121825D01*
X10669Y121633D01*
D02*
G37*
G36*
X162107Y125604D02*
X163117Y125186D01*
X164200Y125043D01*
X165283Y125186D01*
X166293Y125604D01*
X166878Y126052D01*
X167378Y125806D01*
Y107982D01*
X162911Y103516D01*
X162516Y102924D01*
X162378Y102227D01*
X162378Y102227D01*
Y76508D01*
X162107Y76396D01*
X161240Y75731D01*
X160575Y74864D01*
X160157Y73855D01*
X160015Y72772D01*
Y69228D01*
X160157Y68145D01*
X160575Y67136D01*
X161240Y66269D01*
X162107Y65604D01*
X163117Y65185D01*
X163769Y65100D01*
X163948Y64572D01*
X137911Y38535D01*
X137516Y37944D01*
X137378Y37246D01*
X137378Y37246D01*
Y30805D01*
X137232D01*
X136457Y30703D01*
X135734Y30404D01*
X135114Y29928D01*
X134639Y29308D01*
X134471Y28903D01*
X133929D01*
X133762Y29308D01*
X133286Y29928D01*
X132666Y30404D01*
X131944Y30703D01*
X131168Y30805D01*
X127232D01*
X126456Y30703D01*
X125734Y30404D01*
X125114Y29928D01*
X124638Y29308D01*
X124471Y28903D01*
X123929D01*
X123761Y29308D01*
X123286Y29928D01*
X122666Y30404D01*
X121943Y30703D01*
X121168Y30805D01*
X117232D01*
X116863Y30757D01*
X115015Y32604D01*
X115184Y33143D01*
X115737Y33512D01*
X124035D01*
X124035Y33512D01*
X124732Y33651D01*
X125323Y34046D01*
X150552Y59274D01*
X150552Y59274D01*
X150947Y59866D01*
X151085Y60563D01*
Y65758D01*
X151585Y66004D01*
X152107Y65604D01*
X153117Y65185D01*
X154200Y65043D01*
X155283Y65185D01*
X156293Y65604D01*
X157159Y66269D01*
X157825Y67136D01*
X158243Y68145D01*
X158385Y69228D01*
Y72772D01*
X158243Y73855D01*
X157825Y74864D01*
X157159Y75731D01*
X156293Y76396D01*
X156022Y76508D01*
Y85377D01*
X156333Y85749D01*
X156333Y85749D01*
Y85749D01*
X156522Y85768D01*
X156526Y85751D01*
X156646Y85149D01*
X157127Y84427D01*
X157849Y83946D01*
X158200Y83876D01*
Y86000D01*
Y88124D01*
X157849Y88055D01*
X157127Y87572D01*
X156646Y86851D01*
X156526Y86249D01*
X156522Y86233D01*
X156333Y86251D01*
Y86251D01*
X156333Y86251D01*
X156022Y86623D01*
Y101472D01*
X160489Y105938D01*
X160489Y105938D01*
X160884Y106530D01*
X161022Y107227D01*
X161022Y107227D01*
Y125806D01*
X161522Y126052D01*
X162107Y125604D01*
D02*
G37*
G36*
X24217Y77860D02*
X24356Y77772D01*
X24442Y77341D01*
X24836Y76750D01*
X42244Y59343D01*
Y55074D01*
X41782Y54883D01*
X33876Y62789D01*
X33285Y63184D01*
X32587Y63322D01*
X32587Y63322D01*
X28753D01*
X28128Y63740D01*
X27200Y63924D01*
X26272Y63740D01*
X25486Y63214D01*
X24960Y62428D01*
X24776Y61500D01*
X24960Y60572D01*
X25411Y59897D01*
X25235Y59397D01*
X23021D01*
X22717Y59701D01*
X22717Y59701D01*
X15760Y66658D01*
X16044Y67082D01*
X16345Y66957D01*
X17428Y66815D01*
X18700D01*
Y71000D01*
Y75185D01*
X17428D01*
X16345Y75043D01*
X15336Y74625D01*
X14469Y73959D01*
X14022Y73378D01*
X13522Y73548D01*
Y74517D01*
X16075Y77069D01*
X16345Y76957D01*
X17428Y76815D01*
X20972D01*
X22055Y76957D01*
X23064Y77375D01*
X23814Y77951D01*
X24217Y77860D01*
D02*
G37*
G36*
X80050Y159219D02*
Y150079D01*
X80213D01*
Y133990D01*
X80157Y133855D01*
X80015Y132772D01*
Y129228D01*
X80157Y128145D01*
X80213Y128010D01*
Y76921D01*
X80050D01*
Y65079D01*
X85647D01*
X85838Y64617D01*
X77044Y55822D01*
X70753D01*
X70128Y56240D01*
X69200Y56424D01*
X68272Y56240D01*
X67486Y55714D01*
X66960Y54928D01*
X66776Y54000D01*
X66960Y53072D01*
X67486Y52286D01*
X68272Y51760D01*
X69200Y51575D01*
X70128Y51760D01*
X70753Y52178D01*
X77799D01*
X77799Y52178D01*
X78496Y52316D01*
X79087Y52711D01*
X90489Y64113D01*
X90489Y64113D01*
X90884Y64704D01*
X91022Y65401D01*
Y65806D01*
X91522Y66053D01*
X92107Y65604D01*
X93117Y65185D01*
X94200Y65043D01*
X95283Y65185D01*
X96293Y65604D01*
X97159Y66269D01*
X97825Y67136D01*
X98243Y68145D01*
X98385Y69228D01*
Y72772D01*
X98243Y73855D01*
X97825Y74864D01*
X97159Y75731D01*
X96293Y76396D01*
X96022Y76508D01*
Y101662D01*
X100426Y106065D01*
X100426Y106065D01*
X100821Y106656D01*
X100959Y107354D01*
X100959Y107354D01*
Y125854D01*
X101459Y126101D01*
X102107Y125604D01*
X103117Y125186D01*
X104200Y125043D01*
X105283Y125186D01*
X106293Y125604D01*
X106878Y126052D01*
X107378Y125806D01*
Y108232D01*
X102911Y103766D01*
X102516Y103174D01*
X102378Y102477D01*
X102378Y102477D01*
Y76508D01*
X102107Y76396D01*
X101241Y75731D01*
X100575Y74864D01*
X100157Y73855D01*
X100015Y72772D01*
Y69228D01*
X100157Y68145D01*
X100575Y67136D01*
X101241Y66269D01*
X102107Y65604D01*
X103117Y65185D01*
X104200Y65043D01*
X105283Y65185D01*
X106293Y65604D01*
X106941Y66101D01*
X107441Y65854D01*
Y53961D01*
X107441Y53961D01*
X107579Y53263D01*
X107974Y52672D01*
X111290Y49356D01*
X111290Y49356D01*
X111881Y48961D01*
X112578Y48823D01*
X112579Y48823D01*
X113915D01*
X115553Y47184D01*
X115683Y46532D01*
X115422Y46032D01*
X106048D01*
X102962Y49119D01*
X102815Y49856D01*
X102290Y50642D01*
X101503Y51168D01*
X100575Y51352D01*
X99647Y51168D01*
X98861Y50642D01*
X98335Y49856D01*
X98151Y48928D01*
X98335Y48000D01*
X98861Y47213D01*
X99647Y46688D01*
X100385Y46541D01*
X104005Y42921D01*
X104596Y42526D01*
X105294Y42387D01*
X105294Y42387D01*
X113019D01*
X113068Y41887D01*
X112420Y41758D01*
X111829Y41363D01*
X111829Y41363D01*
X110788Y40322D01*
X56267D01*
X56115Y40822D01*
X56273Y40927D01*
X56754Y41649D01*
X56824Y42000D01*
X54700D01*
Y43000D01*
X56824D01*
X56754Y43351D01*
X56273Y44072D01*
X55551Y44555D01*
X55239Y44617D01*
X55133Y45147D01*
X55532Y45414D01*
X56057Y46200D01*
X56069Y46258D01*
X56600Y46363D01*
X56986Y45786D01*
X57772Y45260D01*
X58700Y45076D01*
X59628Y45260D01*
X60414Y45786D01*
X60703Y46218D01*
X61260Y46286D01*
X62046Y45760D01*
X62974Y45575D01*
X63902Y45760D01*
X64689Y46286D01*
X65214Y47072D01*
X65399Y48000D01*
X65214Y48928D01*
X64797Y49553D01*
Y54588D01*
X64797Y54588D01*
X64658Y55285D01*
X64263Y55876D01*
X64263Y55876D01*
X53205Y66935D01*
X53294Y67552D01*
X53931Y68041D01*
X54596Y68907D01*
X55014Y69917D01*
X55157Y71000D01*
X55014Y72083D01*
X54902Y72354D01*
X57489Y74940D01*
X57489Y74940D01*
X57884Y75531D01*
X58022Y76228D01*
Y137844D01*
X79589Y159410D01*
X80050Y159219D01*
D02*
G37*
G36*
X201278Y66240D02*
X202107Y65604D01*
X203117Y65185D01*
X203769Y65100D01*
X203948Y64572D01*
X177911Y38535D01*
X177516Y37944D01*
X177378Y37246D01*
X177378Y37246D01*
Y30805D01*
X177232D01*
X176456Y30703D01*
X175734Y30404D01*
X175114Y29928D01*
X174638Y29308D01*
X174471Y28903D01*
X173929D01*
X173761Y29308D01*
X173286Y29928D01*
X172666Y30404D01*
X171943Y30703D01*
X171168Y30805D01*
X171022D01*
Y32377D01*
X171333Y32749D01*
X171333Y32749D01*
Y32749D01*
X171522Y32768D01*
X171526Y32751D01*
X171645Y32149D01*
X172127Y31427D01*
X172849Y30945D01*
X173200Y30876D01*
Y33000D01*
Y35124D01*
X172849Y35055D01*
X172127Y34572D01*
X171645Y33851D01*
X171526Y33249D01*
X171522Y33233D01*
X171333Y33251D01*
Y33251D01*
X171333Y33251D01*
X171022Y33623D01*
Y36492D01*
X200489Y65958D01*
X200489Y65958D01*
X200656Y66209D01*
X201214Y66266D01*
X201278Y66240D01*
D02*
G37*
G36*
X187378Y42140D02*
Y30805D01*
X187232D01*
X186457Y30703D01*
X185734Y30404D01*
X185114Y29928D01*
X184639Y29308D01*
X184471Y28903D01*
X183929D01*
X183762Y29308D01*
X183286Y29928D01*
X182666Y30404D01*
X181944Y30703D01*
X181168Y30805D01*
X181022D01*
Y36492D01*
X186878Y42347D01*
X187378Y42140D01*
D02*
G37*
G36*
X191278Y66240D02*
X192107Y65604D01*
X193117Y65185D01*
X193769Y65100D01*
X193948Y64572D01*
X167911Y38535D01*
X167516Y37944D01*
X167378Y37246D01*
X167378Y37246D01*
Y30805D01*
X167232D01*
X166456Y30703D01*
X165734Y30404D01*
X165114Y29928D01*
X164638Y29308D01*
X164471Y28903D01*
X163929D01*
X163761Y29308D01*
X163286Y29928D01*
X162666Y30404D01*
X161943Y30703D01*
X161169Y30805D01*
X161022D01*
Y36492D01*
X190489Y65958D01*
X190489Y65958D01*
X190656Y66209D01*
X191214Y66266D01*
X191278Y66240D01*
D02*
G37*
G36*
X181278D02*
X182107Y65604D01*
X183117Y65185D01*
X183769Y65100D01*
X183948Y64572D01*
X157911Y38535D01*
X157516Y37944D01*
X157378Y37246D01*
X157378Y37246D01*
Y30805D01*
X157231D01*
X156456Y30703D01*
X155734Y30404D01*
X155114Y29928D01*
X154639Y29308D01*
X154471Y28903D01*
X153929D01*
X153761Y29308D01*
X153286Y29928D01*
X152666Y30404D01*
X151944Y30703D01*
X151169Y30805D01*
X151022D01*
Y36492D01*
X180489Y65958D01*
X180489Y65958D01*
X180656Y66209D01*
X181214Y66266D01*
X181278Y66240D01*
D02*
G37*
G36*
X171278D02*
X172107Y65604D01*
X173117Y65185D01*
X173769Y65100D01*
X173948Y64572D01*
X147911Y38535D01*
X147516Y37944D01*
X147378Y37246D01*
X147378Y37246D01*
Y30805D01*
X147231D01*
X146457Y30703D01*
X145734Y30404D01*
X145114Y29928D01*
X144639Y29308D01*
X144471Y28903D01*
X143929D01*
X143762Y29308D01*
X143286Y29928D01*
X142666Y30404D01*
X141944Y30703D01*
X141168Y30805D01*
X141022D01*
Y36492D01*
X170489Y65958D01*
X170489Y65958D01*
X170656Y66209D01*
X171214Y66266D01*
X171278Y66240D01*
D02*
G37*
G36*
X34314Y44611D02*
X34145Y44359D01*
X34076Y44008D01*
X36200D01*
Y43508D01*
X36700D01*
Y41061D01*
X36856Y40905D01*
X36775Y40500D01*
X36960Y39572D01*
X37378Y38947D01*
Y30805D01*
X37231D01*
X36457Y30703D01*
X35734Y30404D01*
X35114Y29928D01*
X34639Y29308D01*
X34471Y28903D01*
X33929D01*
X33762Y29308D01*
X33286Y29928D01*
X33187Y30004D01*
Y44452D01*
X33400Y44540D01*
X33944Y44957D01*
X34314Y44611D01*
D02*
G37*
G36*
X78122Y33641D02*
X77911Y33430D01*
X77516Y32839D01*
X77378Y32142D01*
X77378Y32142D01*
Y30805D01*
X77232D01*
X76457Y30703D01*
X75734Y30404D01*
X75114Y29928D01*
X74638Y29308D01*
X74471Y28903D01*
X73929D01*
X73761Y29308D01*
X73286Y29928D01*
X72666Y30404D01*
X71943Y30703D01*
X71169Y30805D01*
X67232D01*
X66457Y30703D01*
X65734Y30404D01*
X65114Y29928D01*
X64639Y29308D01*
X64471Y28903D01*
X63929D01*
X63762Y29308D01*
X63286Y29928D01*
X62666Y30404D01*
X61943Y30703D01*
X61168Y30805D01*
X57231D01*
X56457Y30703D01*
X55734Y30404D01*
X55114Y29928D01*
X54638Y29308D01*
X54471Y28903D01*
X53929D01*
X53762Y29308D01*
X53336Y29862D01*
X53413Y30091D01*
X53592Y30321D01*
X53817Y30276D01*
X54668Y30445D01*
X55390Y30928D01*
X55872Y31649D01*
X55942Y32000D01*
X53817D01*
Y33000D01*
X55942D01*
X55872Y33351D01*
X55704Y33603D01*
X55971Y34103D01*
X77930D01*
X78122Y33641D01*
D02*
G37*
G36*
X2153Y202151D02*
Y62748D01*
X2153Y62748D01*
X2292Y62050D01*
X2687Y61459D01*
X14100Y50046D01*
X14100Y50046D01*
X14692Y49651D01*
X15041Y49581D01*
X16813Y47809D01*
X16960Y47072D01*
X17486Y46286D01*
X18272Y45760D01*
X19200Y45575D01*
X20128Y45760D01*
X20914Y46286D01*
X21440Y47072D01*
X21624Y48000D01*
X21440Y48928D01*
X20914Y49714D01*
X20128Y50240D01*
X19391Y50387D01*
X17922Y51855D01*
X17986Y52499D01*
X18414Y52786D01*
X18940Y53572D01*
X19021Y53978D01*
X19499Y54124D01*
X19911Y53711D01*
X19911Y53711D01*
X20503Y53316D01*
X21200Y53178D01*
X21200Y53178D01*
X30652D01*
X30662Y53153D01*
X30340Y52606D01*
X30073Y52571D01*
X29016Y52133D01*
X28108Y51437D01*
X27411Y50529D01*
X27013Y49567D01*
X26381Y48935D01*
X26000Y48438D01*
X16381Y38819D01*
X15747Y37993D01*
X15349Y37032D01*
X15213Y36000D01*
X15213Y36000D01*
Y30004D01*
X15114Y29928D01*
X14638Y29308D01*
X14471Y28903D01*
X13929D01*
X13761Y29308D01*
X13286Y29928D01*
X12666Y30404D01*
X11943Y30703D01*
X11169Y30805D01*
X9700D01*
Y16000D01*
X9200D01*
Y15500D01*
X4237D01*
Y4189D01*
X4339Y3414D01*
X4639Y2692D01*
X5114Y2072D01*
X5734Y1596D01*
X5919Y1519D01*
X5819Y1020D01*
X4878D01*
X4051Y1184D01*
X3272Y1507D01*
X2571Y1975D01*
X1975Y2571D01*
X1507Y3272D01*
X1184Y4051D01*
X1020Y4878D01*
Y5300D01*
X1020Y202631D01*
X1481Y202822D01*
X2153Y202151D01*
D02*
G37*
%LPC*%
G36*
X209700Y336891D02*
Y331500D01*
X213385D01*
Y332772D01*
X213243Y333855D01*
X212825Y334864D01*
X212159Y335731D01*
X211293Y336396D01*
X210283Y336814D01*
X209700Y336891D01*
D02*
G37*
G36*
X208700D02*
X208117Y336814D01*
X207107Y336396D01*
X206241Y335731D01*
X205575Y334864D01*
X205157Y333855D01*
X205015Y332772D01*
Y331500D01*
X208700D01*
Y336891D01*
D02*
G37*
G36*
X199700D02*
Y331500D01*
X203385D01*
Y332772D01*
X203243Y333855D01*
X202825Y334864D01*
X202160Y335731D01*
X201293Y336396D01*
X200283Y336814D01*
X199700Y336891D01*
D02*
G37*
G36*
X198700D02*
X198117Y336814D01*
X197107Y336396D01*
X196240Y335731D01*
X195575Y334864D01*
X195157Y333855D01*
X195015Y332772D01*
Y331500D01*
X198700D01*
Y336891D01*
D02*
G37*
G36*
X189700D02*
Y331500D01*
X193385D01*
Y332772D01*
X193243Y333855D01*
X192825Y334864D01*
X192159Y335731D01*
X191293Y336396D01*
X190283Y336814D01*
X189700Y336891D01*
D02*
G37*
G36*
X188700D02*
X188117Y336814D01*
X187107Y336396D01*
X186240Y335731D01*
X185575Y334864D01*
X185157Y333855D01*
X185015Y332772D01*
Y331500D01*
X188700D01*
Y336891D01*
D02*
G37*
G36*
X179700D02*
Y331500D01*
X183385D01*
Y332772D01*
X183243Y333855D01*
X182825Y334864D01*
X182159Y335731D01*
X181293Y336396D01*
X180283Y336814D01*
X179700Y336891D01*
D02*
G37*
G36*
X178700D02*
X178117Y336814D01*
X177107Y336396D01*
X176241Y335731D01*
X175575Y334864D01*
X175157Y333855D01*
X175015Y332772D01*
Y331500D01*
X178700D01*
Y336891D01*
D02*
G37*
G36*
X169700D02*
Y331500D01*
X173385D01*
Y332772D01*
X173243Y333855D01*
X172825Y334864D01*
X172160Y335731D01*
X171293Y336396D01*
X170283Y336814D01*
X169700Y336891D01*
D02*
G37*
G36*
X168700D02*
X168117Y336814D01*
X167107Y336396D01*
X166241Y335731D01*
X165575Y334864D01*
X165157Y333855D01*
X165015Y332772D01*
Y331500D01*
X168700D01*
Y336891D01*
D02*
G37*
G36*
X159700D02*
Y331500D01*
X163385D01*
Y332772D01*
X163243Y333855D01*
X162825Y334864D01*
X162160Y335731D01*
X161293Y336396D01*
X160283Y336814D01*
X159700Y336891D01*
D02*
G37*
G36*
X158700D02*
X158117Y336814D01*
X157107Y336396D01*
X156240Y335731D01*
X155575Y334864D01*
X155157Y333855D01*
X155015Y332772D01*
Y331500D01*
X158700D01*
Y336891D01*
D02*
G37*
G36*
X149700D02*
Y331500D01*
X153385D01*
Y332772D01*
X153243Y333855D01*
X152825Y334864D01*
X152160Y335731D01*
X151293Y336396D01*
X150283Y336814D01*
X149700Y336891D01*
D02*
G37*
G36*
X148700D02*
X148117Y336814D01*
X147107Y336396D01*
X146240Y335731D01*
X145575Y334864D01*
X145157Y333855D01*
X145015Y332772D01*
Y331500D01*
X148700D01*
Y336891D01*
D02*
G37*
G36*
X139700D02*
Y331500D01*
X143385D01*
Y332772D01*
X143243Y333855D01*
X142825Y334864D01*
X142159Y335731D01*
X141293Y336396D01*
X140283Y336814D01*
X139700Y336891D01*
D02*
G37*
G36*
X138700D02*
X138117Y336814D01*
X137107Y336396D01*
X136240Y335731D01*
X135575Y334864D01*
X135157Y333855D01*
X135015Y332772D01*
Y331500D01*
X138700D01*
Y336891D01*
D02*
G37*
G36*
X129700D02*
Y331500D01*
X133385D01*
Y332772D01*
X133243Y333855D01*
X132825Y334864D01*
X132159Y335731D01*
X131293Y336396D01*
X130283Y336814D01*
X129700Y336891D01*
D02*
G37*
G36*
X128700D02*
X128117Y336814D01*
X127107Y336396D01*
X126241Y335731D01*
X125575Y334864D01*
X125157Y333855D01*
X125015Y332772D01*
Y331500D01*
X128700D01*
Y336891D01*
D02*
G37*
G36*
X213385Y330500D02*
X209700D01*
Y325109D01*
X210283Y325185D01*
X211293Y325604D01*
X212159Y326269D01*
X212825Y327136D01*
X213243Y328145D01*
X213385Y329228D01*
Y330500D01*
D02*
G37*
G36*
X208700D02*
X205015D01*
Y329228D01*
X205157Y328145D01*
X205575Y327136D01*
X206241Y326269D01*
X207107Y325604D01*
X208117Y325185D01*
X208700Y325109D01*
Y330500D01*
D02*
G37*
G36*
X203385D02*
X199700D01*
Y325109D01*
X200283Y325185D01*
X201293Y325604D01*
X202160Y326269D01*
X202825Y327136D01*
X203243Y328145D01*
X203385Y329228D01*
Y330500D01*
D02*
G37*
G36*
X198700D02*
X195015D01*
Y329228D01*
X195157Y328145D01*
X195575Y327136D01*
X196240Y326269D01*
X197107Y325604D01*
X198117Y325185D01*
X198700Y325109D01*
Y330500D01*
D02*
G37*
G36*
X193385D02*
X189700D01*
Y325109D01*
X190283Y325185D01*
X191293Y325604D01*
X192159Y326269D01*
X192825Y327136D01*
X193243Y328145D01*
X193385Y329228D01*
Y330500D01*
D02*
G37*
G36*
X188700D02*
X185015D01*
Y329228D01*
X185157Y328145D01*
X185575Y327136D01*
X186240Y326269D01*
X187107Y325604D01*
X188117Y325185D01*
X188700Y325109D01*
Y330500D01*
D02*
G37*
G36*
X183385D02*
X179700D01*
Y325109D01*
X180283Y325185D01*
X181293Y325604D01*
X182159Y326269D01*
X182825Y327136D01*
X183243Y328145D01*
X183385Y329228D01*
Y330500D01*
D02*
G37*
G36*
X178700D02*
X175015D01*
Y329228D01*
X175157Y328145D01*
X175575Y327136D01*
X176241Y326269D01*
X177107Y325604D01*
X178117Y325185D01*
X178700Y325109D01*
Y330500D01*
D02*
G37*
G36*
X173385D02*
X169700D01*
Y325109D01*
X170283Y325185D01*
X171293Y325604D01*
X172160Y326269D01*
X172825Y327136D01*
X173243Y328145D01*
X173385Y329228D01*
Y330500D01*
D02*
G37*
G36*
X168700D02*
X165015D01*
Y329228D01*
X165157Y328145D01*
X165575Y327136D01*
X166241Y326269D01*
X167107Y325604D01*
X168117Y325185D01*
X168700Y325109D01*
Y330500D01*
D02*
G37*
G36*
X163385D02*
X159700D01*
Y325109D01*
X160283Y325185D01*
X161293Y325604D01*
X162160Y326269D01*
X162825Y327136D01*
X163243Y328145D01*
X163385Y329228D01*
Y330500D01*
D02*
G37*
G36*
X158700D02*
X155015D01*
Y329228D01*
X155157Y328145D01*
X155575Y327136D01*
X156240Y326269D01*
X157107Y325604D01*
X158117Y325185D01*
X158700Y325109D01*
Y330500D01*
D02*
G37*
G36*
X153385D02*
X149700D01*
Y325109D01*
X150283Y325185D01*
X151293Y325604D01*
X152160Y326269D01*
X152825Y327136D01*
X153243Y328145D01*
X153385Y329228D01*
Y330500D01*
D02*
G37*
G36*
X148700D02*
X145015D01*
Y329228D01*
X145157Y328145D01*
X145575Y327136D01*
X146240Y326269D01*
X147107Y325604D01*
X148117Y325185D01*
X148700Y325109D01*
Y330500D01*
D02*
G37*
G36*
X143385D02*
X139700D01*
Y325109D01*
X140283Y325185D01*
X141293Y325604D01*
X142159Y326269D01*
X142825Y327136D01*
X143243Y328145D01*
X143385Y329228D01*
Y330500D01*
D02*
G37*
G36*
X138700D02*
X135015D01*
Y329228D01*
X135157Y328145D01*
X135575Y327136D01*
X136240Y326269D01*
X137107Y325604D01*
X138117Y325185D01*
X138700Y325109D01*
Y330500D01*
D02*
G37*
G36*
X133385D02*
X129700D01*
Y325109D01*
X130283Y325185D01*
X131293Y325604D01*
X132159Y326269D01*
X132825Y327136D01*
X133243Y328145D01*
X133385Y329228D01*
Y330500D01*
D02*
G37*
G36*
X128700D02*
X125015D01*
Y329228D01*
X125157Y328145D01*
X125575Y327136D01*
X126241Y326269D01*
X127107Y325604D01*
X128117Y325185D01*
X128700Y325109D01*
Y330500D01*
D02*
G37*
G36*
X219200Y336957D02*
X218117Y336814D01*
X217107Y336396D01*
X216241Y335731D01*
X215575Y334864D01*
X215157Y333855D01*
X215015Y332772D01*
Y329228D01*
X215157Y328145D01*
X215575Y327136D01*
X216241Y326269D01*
X217107Y325604D01*
X218117Y325185D01*
X219200Y325043D01*
X220283Y325185D01*
X221293Y325604D01*
X222160Y326269D01*
X222825Y327136D01*
X223243Y328145D01*
X223385Y329228D01*
Y332772D01*
X223243Y333855D01*
X222825Y334864D01*
X222160Y335731D01*
X221293Y336396D01*
X220283Y336814D01*
X219200Y336957D01*
D02*
G37*
G36*
X114306Y312058D02*
Y306658D01*
X119707D01*
X119642Y307318D01*
X119303Y308434D01*
X118754Y309463D01*
X118014Y310365D01*
X117112Y311105D01*
X116083Y311654D01*
X114967Y311993D01*
X114306Y312058D01*
D02*
G37*
G36*
X113306D02*
X112645Y311993D01*
X111529Y311654D01*
X110501Y311105D01*
X109599Y310365D01*
X108859Y309463D01*
X108309Y308434D01*
X107971Y307318D01*
X107906Y306658D01*
X113306D01*
Y312058D01*
D02*
G37*
G36*
X119707Y305658D02*
X114306D01*
Y300257D01*
X114967Y300322D01*
X116083Y300660D01*
X117112Y301210D01*
X118014Y301950D01*
X118754Y302852D01*
X119303Y303881D01*
X119642Y304997D01*
X119707Y305658D01*
D02*
G37*
G36*
X113306D02*
X107906D01*
X107971Y304997D01*
X108309Y303881D01*
X108859Y302852D01*
X109599Y301950D01*
X110501Y301210D01*
X111529Y300660D01*
X112645Y300322D01*
X113306Y300257D01*
Y305658D01*
D02*
G37*
G36*
X128700Y286891D02*
X128117Y286814D01*
X127107Y286396D01*
X126241Y285731D01*
X125575Y284864D01*
X125157Y283855D01*
X125015Y282772D01*
Y281500D01*
X128700D01*
Y286891D01*
D02*
G37*
G36*
Y280500D02*
X125015D01*
Y279228D01*
X125157Y278145D01*
X125575Y277136D01*
X126241Y276269D01*
X127107Y275604D01*
X128117Y275185D01*
X128700Y275109D01*
Y280500D01*
D02*
G37*
G36*
X94700Y275120D02*
Y271500D01*
X98320D01*
X98243Y272083D01*
X97825Y273093D01*
X97159Y273959D01*
X96293Y274625D01*
X95283Y275043D01*
X94700Y275120D01*
D02*
G37*
G36*
X116200Y256624D02*
Y255000D01*
X117824D01*
X117754Y255351D01*
X117272Y256072D01*
X116551Y256555D01*
X116200Y256624D01*
D02*
G37*
G36*
X115200D02*
X114849Y256555D01*
X114128Y256072D01*
X113646Y255351D01*
X113576Y255000D01*
X115200D01*
Y256624D01*
D02*
G37*
G36*
X117824Y254000D02*
X116200D01*
Y252376D01*
X116551Y252445D01*
X117272Y252927D01*
X117754Y253649D01*
X117824Y254000D01*
D02*
G37*
G36*
X115200D02*
X113576D01*
X113646Y253649D01*
X114128Y252927D01*
X114849Y252445D01*
X115200Y252376D01*
Y254000D01*
D02*
G37*
G36*
X129200Y256957D02*
X128117Y256815D01*
X127107Y256396D01*
X126241Y255731D01*
X125575Y254864D01*
X125157Y253855D01*
X125015Y252772D01*
Y249228D01*
X125157Y248145D01*
X125575Y247136D01*
X126241Y246269D01*
X127107Y245604D01*
X128117Y245185D01*
X129200Y245043D01*
X130283Y245185D01*
X131293Y245604D01*
X132159Y246269D01*
X132825Y247136D01*
X133243Y248145D01*
X133385Y249228D01*
Y252772D01*
X133243Y253855D01*
X132825Y254864D01*
X132159Y255731D01*
X131293Y256396D01*
X130283Y256815D01*
X129200Y256957D01*
D02*
G37*
G36*
X214700Y161891D02*
Y156500D01*
X218385D01*
Y157772D01*
X218243Y158855D01*
X217825Y159864D01*
X217160Y160731D01*
X216293Y161396D01*
X215283Y161814D01*
X214700Y161891D01*
D02*
G37*
G36*
Y76891D02*
Y71500D01*
X218385D01*
Y72772D01*
X218243Y73855D01*
X217825Y74864D01*
X217160Y75731D01*
X216293Y76396D01*
X215283Y76815D01*
X214700Y76891D01*
D02*
G37*
G36*
X218385Y70500D02*
X214700D01*
Y65109D01*
X215283Y65185D01*
X216293Y65604D01*
X217160Y66269D01*
X217825Y67136D01*
X218243Y68145D01*
X218385Y69228D01*
Y70500D01*
D02*
G37*
G36*
X222200Y52818D02*
X221565Y52735D01*
X220508Y52297D01*
X219600Y51600D01*
X218903Y50692D01*
X218465Y49635D01*
X218382Y49000D01*
X222200D01*
Y52818D01*
D02*
G37*
G36*
Y48000D02*
X218382D01*
X218465Y47365D01*
X218903Y46308D01*
X219600Y45400D01*
X220508Y44703D01*
X221565Y44265D01*
X222200Y44182D01*
Y48000D01*
D02*
G37*
G36*
X221168Y30805D02*
X219700D01*
Y16500D01*
X224163D01*
Y27811D01*
X224061Y28586D01*
X223762Y29308D01*
X223286Y29928D01*
X222666Y30404D01*
X221943Y30703D01*
X221168Y30805D01*
D02*
G37*
G36*
X19700Y314904D02*
Y313280D01*
X21324D01*
X21255Y313631D01*
X20773Y314353D01*
X20051Y314835D01*
X19700Y314904D01*
D02*
G37*
G36*
X18700D02*
X18349Y314835D01*
X17627Y314353D01*
X17145Y313631D01*
X17076Y313280D01*
X18700D01*
Y314904D01*
D02*
G37*
G36*
X21324Y312280D02*
X19700D01*
Y310656D01*
X20051Y310726D01*
X20773Y311208D01*
X21255Y311929D01*
X21324Y312280D01*
D02*
G37*
G36*
X18700D02*
X17076D01*
X17145Y311929D01*
X17627Y311208D01*
X18349Y310726D01*
X18700Y310656D01*
Y312280D01*
D02*
G37*
G36*
X23350Y306921D02*
X15050D01*
Y295079D01*
X23350D01*
Y306921D01*
D02*
G37*
G36*
X213700Y275120D02*
X213117Y275043D01*
X212107Y274625D01*
X211241Y273959D01*
X210575Y273093D01*
X210157Y272083D01*
X210080Y271500D01*
X213700D01*
Y275120D01*
D02*
G37*
G36*
Y270500D02*
X210080D01*
X210157Y269917D01*
X210575Y268907D01*
X211241Y268040D01*
X212107Y267375D01*
X213117Y266957D01*
X213700Y266880D01*
Y270500D01*
D02*
G37*
G36*
X199200Y256957D02*
X198117Y256815D01*
X197107Y256396D01*
X196240Y255731D01*
X195575Y254864D01*
X195157Y253855D01*
X195015Y252772D01*
Y249228D01*
X195157Y248145D01*
X195575Y247136D01*
X196240Y246269D01*
X197107Y245604D01*
X198117Y245185D01*
X199200Y245043D01*
X200283Y245185D01*
X201293Y245604D01*
X202160Y246269D01*
X202825Y247136D01*
X203243Y248145D01*
X203385Y249228D01*
Y252772D01*
X203243Y253855D01*
X202825Y254864D01*
X202160Y255731D01*
X201293Y256396D01*
X200283Y256815D01*
X199200Y256957D01*
D02*
G37*
G36*
X189200D02*
X188117Y256815D01*
X187107Y256396D01*
X186240Y255731D01*
X185575Y254864D01*
X185157Y253855D01*
X185015Y252772D01*
Y249228D01*
X185157Y248145D01*
X185575Y247136D01*
X186240Y246269D01*
X187107Y245604D01*
X188117Y245185D01*
X189200Y245043D01*
X190283Y245185D01*
X191293Y245604D01*
X192159Y246269D01*
X192825Y247136D01*
X193243Y248145D01*
X193385Y249228D01*
Y252772D01*
X193243Y253855D01*
X192825Y254864D01*
X192159Y255731D01*
X191293Y256396D01*
X190283Y256815D01*
X189200Y256957D01*
D02*
G37*
G36*
X179200D02*
X178117Y256815D01*
X177107Y256396D01*
X176241Y255731D01*
X175575Y254864D01*
X175157Y253855D01*
X175015Y252772D01*
Y249228D01*
X175157Y248145D01*
X175575Y247136D01*
X176241Y246269D01*
X177107Y245604D01*
X178117Y245185D01*
X179200Y245043D01*
X180283Y245185D01*
X181293Y245604D01*
X182159Y246269D01*
X182825Y247136D01*
X183243Y248145D01*
X183385Y249228D01*
Y252772D01*
X183243Y253855D01*
X182825Y254864D01*
X182159Y255731D01*
X181293Y256396D01*
X180283Y256815D01*
X179200Y256957D01*
D02*
G37*
G36*
X207200Y281424D02*
X206272Y281240D01*
X205486Y280714D01*
X204960Y279928D01*
X204776Y279000D01*
X204960Y278072D01*
X205378Y277447D01*
Y225383D01*
X205378Y225383D01*
X205516Y224685D01*
X205911Y224094D01*
X206866Y223139D01*
X206838Y223000D01*
X207023Y222072D01*
X207549Y221286D01*
X208335Y220760D01*
X209263Y220575D01*
X210191Y220760D01*
X210977Y221286D01*
X211503Y222072D01*
X211687Y223000D01*
X211503Y223928D01*
X210977Y224714D01*
X210191Y225240D01*
X209853Y225307D01*
X209022Y226137D01*
Y277447D01*
X209440Y278072D01*
X209625Y279000D01*
X209440Y279928D01*
X208914Y280714D01*
X208128Y281240D01*
X207200Y281424D01*
D02*
G37*
G36*
X70494Y305658D02*
X65094D01*
Y300257D01*
X65754Y300322D01*
X66871Y300660D01*
X67899Y301210D01*
X68801Y301950D01*
X69541Y302852D01*
X70091Y303881D01*
X70429Y304997D01*
X70494Y305658D01*
D02*
G37*
G36*
X64094D02*
X58693D01*
X58758Y304997D01*
X59097Y303881D01*
X59646Y302852D01*
X60387Y301950D01*
X61288Y301210D01*
X62317Y300660D01*
X63433Y300322D01*
X64094Y300257D01*
Y305658D01*
D02*
G37*
G36*
X45700Y267624D02*
Y266000D01*
X47324D01*
X47255Y266351D01*
X46773Y267073D01*
X46051Y267555D01*
X45700Y267624D01*
D02*
G37*
G36*
X44700D02*
X44349Y267555D01*
X43628Y267073D01*
X43145Y266351D01*
X43076Y266000D01*
X44700D01*
Y267624D01*
D02*
G37*
G36*
X47324Y265000D02*
X45700D01*
Y263376D01*
X46051Y263445D01*
X46773Y263928D01*
X47255Y264649D01*
X47324Y265000D01*
D02*
G37*
G36*
X44700D02*
X43076D01*
X43145Y264649D01*
X43628Y263928D01*
X44349Y263445D01*
X44700Y263376D01*
Y265000D01*
D02*
G37*
G36*
X58617Y231124D02*
Y229500D01*
X60241D01*
X60171Y229851D01*
X59689Y230573D01*
X58968Y231055D01*
X58617Y231124D01*
D02*
G37*
G36*
X57617D02*
X57266Y231055D01*
X56544Y230573D01*
X56062Y229851D01*
X55992Y229500D01*
X57617D01*
Y231124D01*
D02*
G37*
G36*
X60241Y228500D02*
X58617D01*
Y226876D01*
X58968Y226945D01*
X59689Y227428D01*
X60171Y228149D01*
X60241Y228500D01*
D02*
G37*
G36*
X57617D02*
X55992D01*
X56062Y228149D01*
X56544Y227428D01*
X57266Y226945D01*
X57617Y226876D01*
Y228500D01*
D02*
G37*
G36*
X214700Y196624D02*
Y195000D01*
X216324D01*
X216255Y195351D01*
X215773Y196072D01*
X215051Y196555D01*
X214700Y196624D01*
D02*
G37*
G36*
X213700D02*
X213349Y196555D01*
X212628Y196072D01*
X212145Y195351D01*
X212076Y195000D01*
X213700D01*
Y196624D01*
D02*
G37*
G36*
X216324Y194000D02*
X214700D01*
Y192376D01*
X215051Y192446D01*
X215773Y192928D01*
X216255Y193649D01*
X216324Y194000D01*
D02*
G37*
G36*
X213700D02*
X212076D01*
X212145Y193649D01*
X212628Y192928D01*
X213349Y192446D01*
X213700Y192376D01*
Y194000D01*
D02*
G37*
G36*
X30200Y202124D02*
Y200500D01*
X31824D01*
X31755Y200851D01*
X31273Y201572D01*
X30551Y202055D01*
X30200Y202124D01*
D02*
G37*
G36*
X29200D02*
X28849Y202055D01*
X28128Y201572D01*
X27645Y200851D01*
X27576Y200500D01*
X29200D01*
Y202124D01*
D02*
G37*
G36*
X158200Y187624D02*
Y186000D01*
X159824D01*
X159755Y186351D01*
X159273Y187073D01*
X158551Y187555D01*
X158200Y187624D01*
D02*
G37*
G36*
X157200D02*
X156849Y187555D01*
X156128Y187073D01*
X155646Y186351D01*
X155576Y186000D01*
X157200D01*
Y187624D01*
D02*
G37*
G36*
X159824Y185000D02*
X158200D01*
Y183376D01*
X158551Y183446D01*
X159273Y183928D01*
X159755Y184649D01*
X159824Y185000D01*
D02*
G37*
G36*
X157200D02*
X155576D01*
X155646Y184649D01*
X156128Y183928D01*
X156849Y183446D01*
X157200Y183376D01*
Y185000D01*
D02*
G37*
G36*
X128200Y189541D02*
Y187917D01*
X129824D01*
X129754Y188268D01*
X129272Y188989D01*
X128551Y189471D01*
X128200Y189541D01*
D02*
G37*
G36*
X127200D02*
X126849Y189471D01*
X126128Y188989D01*
X125645Y188268D01*
X125576Y187917D01*
X127200D01*
Y189541D01*
D02*
G37*
G36*
X129824Y186917D02*
X128200D01*
Y185292D01*
X128551Y185362D01*
X129272Y185844D01*
X129754Y186566D01*
X129824Y186917D01*
D02*
G37*
G36*
X127200D02*
X125576D01*
X125645Y186566D01*
X126128Y185844D01*
X126849Y185362D01*
X127200Y185292D01*
Y186917D01*
D02*
G37*
G36*
X69200Y195185D02*
X68117Y195043D01*
X67107Y194625D01*
X66241Y193959D01*
X65575Y193093D01*
X65157Y192083D01*
X65015Y191000D01*
X65157Y189917D01*
X65575Y188907D01*
X66241Y188040D01*
X67107Y187375D01*
X68117Y186957D01*
X69200Y186815D01*
X70283Y186957D01*
X71293Y187375D01*
X72159Y188040D01*
X72825Y188907D01*
X73243Y189917D01*
X73385Y191000D01*
X73243Y192083D01*
X72825Y193093D01*
X72159Y193959D01*
X71293Y194625D01*
X70283Y195043D01*
X69200Y195185D01*
D02*
G37*
G36*
X69700Y185120D02*
Y181500D01*
X73320D01*
X73243Y182083D01*
X72825Y183093D01*
X72159Y183959D01*
X71293Y184625D01*
X70283Y185043D01*
X69700Y185120D01*
D02*
G37*
G36*
X68700D02*
X68117Y185043D01*
X67107Y184625D01*
X66241Y183959D01*
X65575Y183093D01*
X65157Y182083D01*
X65080Y181500D01*
X68700D01*
Y185120D01*
D02*
G37*
G36*
X73320Y180500D02*
X69700D01*
Y176880D01*
X70283Y176957D01*
X71293Y177375D01*
X72159Y178041D01*
X72825Y178907D01*
X73243Y179917D01*
X73320Y180500D01*
D02*
G37*
G36*
X68700D02*
X65080D01*
X65157Y179917D01*
X65575Y178907D01*
X66241Y178041D01*
X67107Y177375D01*
X68117Y176957D01*
X68700Y176880D01*
Y180500D01*
D02*
G37*
G36*
X55091Y170500D02*
X49700D01*
Y166815D01*
X50972D01*
X52055Y166957D01*
X53064Y167375D01*
X53931Y168041D01*
X54596Y168907D01*
X55014Y169917D01*
X55091Y170500D01*
D02*
G37*
G36*
X48700D02*
X43309D01*
X43385Y169917D01*
X43804Y168907D01*
X44469Y168041D01*
X45336Y167375D01*
X46345Y166957D01*
X47428Y166815D01*
X48700D01*
Y170500D01*
D02*
G37*
G36*
X20972Y165185D02*
X19700D01*
Y161500D01*
X25091D01*
X25014Y162083D01*
X24596Y163093D01*
X23931Y163960D01*
X23064Y164625D01*
X22055Y165043D01*
X20972Y165185D01*
D02*
G37*
G36*
X18700D02*
X17428D01*
X16345Y165043D01*
X15336Y164625D01*
X14469Y163960D01*
X13804Y163093D01*
X13386Y162083D01*
X13309Y161500D01*
X18700D01*
Y165185D01*
D02*
G37*
G36*
X50972D02*
X47428D01*
X46345Y165043D01*
X45336Y164625D01*
X44469Y163960D01*
X43804Y163093D01*
X43385Y162083D01*
X43243Y161000D01*
X43385Y159917D01*
X43804Y158907D01*
X44469Y158040D01*
X45336Y157375D01*
X46345Y156957D01*
X47428Y156815D01*
X50972D01*
X52055Y156957D01*
X53064Y157375D01*
X53931Y158040D01*
X54596Y158907D01*
X55014Y159917D01*
X55157Y161000D01*
X55014Y162083D01*
X54596Y163093D01*
X53931Y163960D01*
X53064Y164625D01*
X52055Y165043D01*
X50972Y165185D01*
D02*
G37*
G36*
X25091Y160500D02*
X19700D01*
Y156815D01*
X20972D01*
X22055Y156957D01*
X23064Y157375D01*
X23931Y158040D01*
X24596Y158907D01*
X25014Y159917D01*
X25091Y160500D01*
D02*
G37*
G36*
X18700D02*
X13309D01*
X13386Y159917D01*
X13804Y158907D01*
X14469Y158040D01*
X15336Y157375D01*
X16345Y156957D01*
X17428Y156815D01*
X18700D01*
Y160500D01*
D02*
G37*
G36*
X29700Y150120D02*
Y146500D01*
X33320D01*
X33243Y147083D01*
X32825Y148093D01*
X32160Y148960D01*
X31293Y149625D01*
X30283Y150043D01*
X29700Y150120D01*
D02*
G37*
G36*
X28700D02*
X28117Y150043D01*
X27107Y149625D01*
X26241Y148960D01*
X25575Y148093D01*
X25157Y147083D01*
X25080Y146500D01*
X28700D01*
Y150120D01*
D02*
G37*
G36*
X33320Y145500D02*
X29700D01*
Y141880D01*
X30283Y141957D01*
X31293Y142375D01*
X32160Y143041D01*
X32825Y143907D01*
X33243Y144917D01*
X33320Y145500D01*
D02*
G37*
G36*
X28700D02*
X25080D01*
X25157Y144917D01*
X25575Y143907D01*
X26241Y143041D01*
X27107Y142375D01*
X28117Y141957D01*
X28700Y141880D01*
Y145500D01*
D02*
G37*
G36*
X39200Y150185D02*
X38117Y150043D01*
X37107Y149625D01*
X36241Y148960D01*
X35575Y148093D01*
X35157Y147083D01*
X35015Y146000D01*
X35157Y144917D01*
X35575Y143907D01*
X36241Y143041D01*
X37107Y142375D01*
X38117Y141957D01*
X39200Y141815D01*
X40283Y141957D01*
X41293Y142375D01*
X42160Y143041D01*
X42825Y143907D01*
X43243Y144917D01*
X43385Y146000D01*
X43243Y147083D01*
X42825Y148093D01*
X42160Y148960D01*
X41293Y149625D01*
X40283Y150043D01*
X39200Y150185D01*
D02*
G37*
G36*
X94700Y175624D02*
Y174000D01*
X96324D01*
X96254Y174351D01*
X95772Y175073D01*
X95051Y175555D01*
X94700Y175624D01*
D02*
G37*
G36*
X93700D02*
X93349Y175555D01*
X92628Y175073D01*
X92146Y174351D01*
X92076Y174000D01*
X93700D01*
Y175624D01*
D02*
G37*
G36*
X96324Y173000D02*
X94700D01*
Y171376D01*
X95051Y171446D01*
X95772Y171927D01*
X96254Y172649D01*
X96324Y173000D01*
D02*
G37*
G36*
X93700D02*
X92076D01*
X92146Y172649D01*
X92628Y171927D01*
X93349Y171446D01*
X93700Y171376D01*
Y173000D01*
D02*
G37*
G36*
X139700Y184624D02*
Y183000D01*
X141324D01*
X141254Y183351D01*
X140772Y184072D01*
X140051Y184555D01*
X139700Y184624D01*
D02*
G37*
G36*
X138700D02*
X138349Y184555D01*
X137627Y184072D01*
X137145Y183351D01*
X137076Y183000D01*
X138700D01*
Y184624D01*
D02*
G37*
G36*
X141324Y182000D02*
X139700D01*
Y180376D01*
X140051Y180446D01*
X140772Y180928D01*
X141254Y181649D01*
X141324Y182000D01*
D02*
G37*
G36*
X138700D02*
X137076D01*
X137145Y181649D01*
X137627Y180928D01*
X138349Y180446D01*
X138700Y180376D01*
Y182000D01*
D02*
G37*
G36*
X94700Y145624D02*
Y144000D01*
X96324D01*
X96254Y144351D01*
X95772Y145072D01*
X95051Y145554D01*
X94700Y145624D01*
D02*
G37*
G36*
X93700D02*
X93349Y145554D01*
X92628Y145072D01*
X92146Y144351D01*
X92076Y144000D01*
X93700D01*
Y145624D01*
D02*
G37*
G36*
X96324Y143000D02*
X94700D01*
Y141376D01*
X95051Y141446D01*
X95772Y141928D01*
X96254Y142649D01*
X96324Y143000D01*
D02*
G37*
G36*
X93700D02*
X92076D01*
X92146Y142649D01*
X92628Y141928D01*
X93349Y141446D01*
X93700Y141376D01*
Y143000D01*
D02*
G37*
G36*
Y117124D02*
Y115500D01*
X95324D01*
X95254Y115851D01*
X94772Y116572D01*
X94051Y117054D01*
X93700Y117124D01*
D02*
G37*
G36*
X92700D02*
X92349Y117054D01*
X91628Y116572D01*
X91145Y115851D01*
X91076Y115500D01*
X92700D01*
Y117124D01*
D02*
G37*
G36*
X95324Y114500D02*
X93700D01*
Y112876D01*
X94051Y112945D01*
X94772Y113427D01*
X95254Y114149D01*
X95324Y114500D01*
D02*
G37*
G36*
X92700D02*
X91076D01*
X91145Y114149D01*
X91628Y113427D01*
X92349Y112945D01*
X92700Y112876D01*
Y114500D01*
D02*
G37*
G36*
X10700Y97971D02*
Y96346D01*
X12324D01*
X12255Y96697D01*
X11772Y97419D01*
X11051Y97901D01*
X10700Y97971D01*
D02*
G37*
G36*
X12324Y95346D02*
X10700D01*
Y93722D01*
X11051Y93792D01*
X11772Y94274D01*
X12255Y94995D01*
X12324Y95346D01*
D02*
G37*
G36*
X159200Y88124D02*
Y86500D01*
X160824D01*
X160755Y86851D01*
X160273Y87572D01*
X159551Y88055D01*
X159200Y88124D01*
D02*
G37*
G36*
X160824Y85500D02*
X159200D01*
Y83876D01*
X159551Y83946D01*
X160273Y84427D01*
X160755Y85149D01*
X160824Y85500D01*
D02*
G37*
G36*
X134200Y35598D02*
Y33974D01*
X135824D01*
X135755Y34324D01*
X135273Y35046D01*
X134551Y35528D01*
X134200Y35598D01*
D02*
G37*
G36*
X133200D02*
X132849Y35528D01*
X132127Y35046D01*
X131646Y34324D01*
X131576Y33974D01*
X133200D01*
Y35598D01*
D02*
G37*
G36*
X135824Y32974D02*
X134200D01*
Y31349D01*
X134551Y31419D01*
X135273Y31901D01*
X135755Y32623D01*
X135824Y32974D01*
D02*
G37*
G36*
X133200D02*
X131576D01*
X131646Y32623D01*
X132127Y31901D01*
X132849Y31419D01*
X133200Y31349D01*
Y32974D01*
D02*
G37*
G36*
X20972Y75185D02*
X19700D01*
Y71500D01*
X25091D01*
X25014Y72083D01*
X24596Y73093D01*
X23931Y73959D01*
X23064Y74625D01*
X22055Y75043D01*
X20972Y75185D01*
D02*
G37*
G36*
X25091Y70500D02*
X19700D01*
Y66815D01*
X20972D01*
X22055Y66957D01*
X23064Y67375D01*
X23931Y68041D01*
X24596Y68907D01*
X25014Y69917D01*
X25091Y70500D01*
D02*
G37*
G36*
X69200Y110185D02*
X68117Y110043D01*
X67107Y109625D01*
X66241Y108959D01*
X65575Y108093D01*
X65157Y107083D01*
X65015Y106000D01*
X65157Y104917D01*
X65575Y103907D01*
X66241Y103041D01*
X67107Y102375D01*
X68117Y101957D01*
X69200Y101815D01*
X70283Y101957D01*
X71293Y102375D01*
X72159Y103041D01*
X72825Y103907D01*
X73243Y104917D01*
X73385Y106000D01*
X73243Y107083D01*
X72825Y108093D01*
X72159Y108959D01*
X71293Y109625D01*
X70283Y110043D01*
X69200Y110185D01*
D02*
G37*
G36*
X69700Y100120D02*
Y96500D01*
X73320D01*
X73243Y97083D01*
X72825Y98093D01*
X72159Y98959D01*
X71293Y99625D01*
X70283Y100043D01*
X69700Y100120D01*
D02*
G37*
G36*
X68700D02*
X68117Y100043D01*
X67107Y99625D01*
X66241Y98959D01*
X65575Y98093D01*
X65157Y97083D01*
X65080Y96500D01*
X68700D01*
Y100120D01*
D02*
G37*
G36*
X73320Y95500D02*
X69700D01*
Y91880D01*
X70283Y91957D01*
X71293Y92375D01*
X72159Y93041D01*
X72825Y93907D01*
X73243Y94917D01*
X73320Y95500D01*
D02*
G37*
G36*
X68700D02*
X65080D01*
X65157Y94917D01*
X65575Y93907D01*
X66241Y93041D01*
X67107Y92375D01*
X68117Y91957D01*
X68700Y91880D01*
Y95500D01*
D02*
G37*
G36*
X59625Y67790D02*
Y66166D01*
X61250D01*
X61180Y66517D01*
X60698Y67238D01*
X59976Y67721D01*
X59625Y67790D01*
D02*
G37*
G36*
X58625D02*
X58274Y67721D01*
X57553Y67238D01*
X57071Y66517D01*
X57001Y66166D01*
X58625D01*
Y67790D01*
D02*
G37*
G36*
X61250Y65166D02*
X59625D01*
Y63542D01*
X59976Y63611D01*
X60698Y64094D01*
X61180Y64815D01*
X61250Y65166D01*
D02*
G37*
G36*
X58625D02*
X57001D01*
X57071Y64815D01*
X57553Y64094D01*
X58274Y63611D01*
X58625Y63542D01*
Y65166D01*
D02*
G37*
G36*
X73200Y48887D02*
Y47263D01*
X74824D01*
X74755Y47614D01*
X74273Y48335D01*
X73551Y48817D01*
X73200Y48887D01*
D02*
G37*
G36*
X72200D02*
X71849Y48817D01*
X71127Y48335D01*
X70645Y47614D01*
X70576Y47263D01*
X72200D01*
Y48887D01*
D02*
G37*
G36*
X74824Y46263D02*
X73200D01*
Y44638D01*
X73551Y44708D01*
X74273Y45190D01*
X74755Y45912D01*
X74824Y46263D01*
D02*
G37*
G36*
X72200D02*
X70576D01*
X70645Y45912D01*
X71127Y45190D01*
X71849Y44708D01*
X72200Y44638D01*
Y46263D01*
D02*
G37*
G36*
X174200Y35124D02*
Y33500D01*
X175824D01*
X175754Y33851D01*
X175273Y34572D01*
X174551Y35055D01*
X174200Y35124D01*
D02*
G37*
G36*
X175824Y32500D02*
X174200D01*
Y30876D01*
X174551Y30945D01*
X175273Y31427D01*
X175754Y32149D01*
X175824Y32500D01*
D02*
G37*
G36*
X184700Y35124D02*
Y33500D01*
X186324D01*
X186255Y33851D01*
X185773Y34572D01*
X185051Y35055D01*
X184700Y35124D01*
D02*
G37*
G36*
X183700D02*
X183349Y35055D01*
X182627Y34572D01*
X182146Y33851D01*
X182076Y33500D01*
X183700D01*
Y35124D01*
D02*
G37*
G36*
X186324Y32500D02*
X184700D01*
Y30876D01*
X185051Y30945D01*
X185773Y31427D01*
X186255Y32149D01*
X186324Y32500D01*
D02*
G37*
G36*
X183700D02*
X182076D01*
X182146Y32149D01*
X182627Y31427D01*
X183349Y30945D01*
X183700Y30876D01*
Y32500D01*
D02*
G37*
G36*
X164700Y35124D02*
Y33500D01*
X166324D01*
X166254Y33851D01*
X165772Y34572D01*
X165051Y35055D01*
X164700Y35124D01*
D02*
G37*
G36*
X163700D02*
X163349Y35055D01*
X162627Y34572D01*
X162145Y33851D01*
X162076Y33500D01*
X163700D01*
Y35124D01*
D02*
G37*
G36*
X166324Y32500D02*
X164700D01*
Y30876D01*
X165051Y30945D01*
X165772Y31427D01*
X166254Y32149D01*
X166324Y32500D01*
D02*
G37*
G36*
X163700D02*
X162076D01*
X162145Y32149D01*
X162627Y31427D01*
X163349Y30945D01*
X163700Y30876D01*
Y32500D01*
D02*
G37*
G36*
X154700Y35124D02*
Y33500D01*
X156324D01*
X156254Y33851D01*
X155772Y34572D01*
X155051Y35055D01*
X154700Y35124D01*
D02*
G37*
G36*
X153700D02*
X153349Y35055D01*
X152628Y34572D01*
X152146Y33851D01*
X152076Y33500D01*
X153700D01*
Y35124D01*
D02*
G37*
G36*
X156324Y32500D02*
X154700D01*
Y30876D01*
X155051Y30945D01*
X155772Y31427D01*
X156254Y32149D01*
X156324Y32500D01*
D02*
G37*
G36*
X153700D02*
X152076D01*
X152146Y32149D01*
X152628Y31427D01*
X153349Y30945D01*
X153700Y30876D01*
Y32500D01*
D02*
G37*
G36*
X144700Y35124D02*
Y33500D01*
X146324D01*
X146255Y33851D01*
X145773Y34572D01*
X145051Y35055D01*
X144700Y35124D01*
D02*
G37*
G36*
X143700D02*
X143349Y35055D01*
X142628Y34572D01*
X142146Y33851D01*
X142076Y33500D01*
X143700D01*
Y35124D01*
D02*
G37*
G36*
X146324Y32500D02*
X144700D01*
Y30876D01*
X145051Y30945D01*
X145773Y31427D01*
X146255Y32149D01*
X146324Y32500D01*
D02*
G37*
G36*
X143700D02*
X142076D01*
X142146Y32149D01*
X142628Y31427D01*
X143349Y30945D01*
X143700Y30876D01*
Y32500D01*
D02*
G37*
G36*
X35700Y43008D02*
X34076D01*
X34145Y42657D01*
X34628Y41936D01*
X35349Y41453D01*
X35700Y41384D01*
Y43008D01*
D02*
G37*
G36*
X6700Y52818D02*
Y49000D01*
X10518D01*
X10435Y49635D01*
X9997Y50692D01*
X9300Y51600D01*
X8392Y52297D01*
X7335Y52735D01*
X6700Y52818D01*
D02*
G37*
G36*
X5700D02*
X5065Y52735D01*
X4008Y52297D01*
X3100Y51600D01*
X2403Y50692D01*
X1965Y49635D01*
X1882Y49000D01*
X5700D01*
Y52818D01*
D02*
G37*
G36*
X10518Y48000D02*
X6700D01*
Y44182D01*
X7335Y44265D01*
X8392Y44703D01*
X9300Y45400D01*
X9997Y46308D01*
X10435Y47365D01*
X10518Y48000D01*
D02*
G37*
G36*
X5700D02*
X1882D01*
X1965Y47365D01*
X2403Y46308D01*
X3100Y45400D01*
X4008Y44703D01*
X5065Y44265D01*
X5700Y44182D01*
Y48000D01*
D02*
G37*
G36*
X8700Y30805D02*
X7231D01*
X6457Y30703D01*
X5734Y30404D01*
X5114Y29928D01*
X4639Y29308D01*
X4339Y28586D01*
X4237Y27811D01*
Y16500D01*
X8700D01*
Y30805D01*
D02*
G37*
%LPD*%
D25*
X9200Y16000D02*
D03*
X19200D02*
D03*
X29200D02*
D03*
X39200D02*
D03*
X49200D02*
D03*
X59200D02*
D03*
X69200D02*
D03*
X79200D02*
D03*
X89200D02*
D03*
X99200D02*
D03*
X109200D02*
D03*
X119200D02*
D03*
X129200D02*
D03*
X139200D02*
D03*
X149200D02*
D03*
X159200D02*
D03*
X169200D02*
D03*
X179200D02*
D03*
X189200D02*
D03*
X199200D02*
D03*
X209200D02*
D03*
X219200D02*
D03*
D26*
X39200D02*
Y40500D01*
X36342Y48214D02*
X49200Y35355D01*
X38917Y49280D02*
X52271Y35925D01*
X41491Y50347D02*
X53338Y38500D01*
X48351Y47128D02*
X53817D01*
X44066Y51413D02*
X48351Y47128D01*
X44066Y51413D02*
Y60098D01*
X122275Y40075D02*
X139137Y56937D01*
X53338Y38500D02*
X111543D01*
X83076Y33064D02*
X83380Y32760D01*
X80123Y33064D02*
X83076D01*
X124035Y35335D02*
X149263Y60563D01*
X111543Y38500D02*
X113118Y40075D01*
X83380Y32760D02*
X83700D01*
X113118Y40075D02*
X122275D01*
X85011Y35925D02*
X86602Y34335D01*
X52271Y35925D02*
X85011D01*
X114184Y35335D02*
X124035D01*
X86602Y34335D02*
X110708D01*
X119200Y25842D01*
X79200Y16000D02*
Y32142D01*
X80123Y33064D01*
X62974Y48000D02*
Y54588D01*
X56093Y50107D02*
X58700Y47500D01*
X56093Y50107D02*
Y57828D01*
X50432Y63488D02*
X56093Y57828D01*
X51499Y66063D02*
X62974Y54588D01*
X109263Y53961D02*
X112578Y50645D01*
X109263Y101931D02*
X114200Y106868D01*
X109263Y53961D02*
Y101931D01*
X99137Y107354D02*
Y136437D01*
X109200Y107477D02*
Y148605D01*
X114200Y106868D02*
Y131000D01*
X119200Y108227D02*
Y148605D01*
X114200Y103227D02*
X119200Y108227D01*
X124200Y131000D02*
Y147246D01*
Y106118D02*
Y131000D01*
X119263Y101181D02*
X124200Y106118D01*
X129200Y107477D02*
Y148605D01*
X124200Y102477D02*
X129200Y107477D01*
X124200Y71000D02*
Y102477D01*
X134200Y131000D02*
Y147246D01*
Y106118D02*
Y131000D01*
X129200Y101118D02*
X134200Y106118D01*
X129200Y52500D02*
Y101118D01*
X139200Y107477D02*
Y148605D01*
X134200Y102477D02*
X139200Y107477D01*
X134200Y71000D02*
Y102477D01*
X144200Y131000D02*
Y147246D01*
Y105368D02*
Y131000D01*
X139137Y100305D02*
X144200Y105368D01*
X139137Y56937D02*
Y100305D01*
X149200Y106727D02*
Y148605D01*
X144200Y101727D02*
X149200Y106727D01*
X144200Y71000D02*
Y101727D01*
X149263Y152183D02*
X154200Y147246D01*
Y131000D02*
Y147246D01*
Y105868D02*
Y131000D01*
X149263Y100931D02*
X154200Y105868D01*
X149263Y60563D02*
Y100931D01*
X154200Y154228D02*
X159200Y149228D01*
Y107227D02*
Y149228D01*
X154200Y102227D02*
X159200Y107227D01*
X154200Y71000D02*
Y102227D01*
X164200Y71000D02*
Y102227D01*
X169200Y107227D01*
Y148605D01*
X164200Y153605D02*
X169200Y148605D01*
X164200Y153605D02*
Y156000D01*
X169200Y152246D02*
Y209228D01*
Y152246D02*
X174200Y147246D01*
Y131000D02*
Y147246D01*
Y106868D02*
Y131000D01*
X169200Y101868D02*
X174200Y106868D01*
X169200Y67246D02*
Y101868D01*
X179200Y152246D02*
Y209228D01*
Y152246D02*
X184200Y147246D01*
Y131000D02*
Y147246D01*
Y106225D02*
Y131000D01*
X179200Y101225D02*
X184200Y106225D01*
X179200Y67246D02*
Y101225D01*
X184200Y71000D02*
Y102477D01*
X189200Y152246D02*
Y209228D01*
Y152246D02*
X194200Y147246D01*
Y131000D02*
Y147246D01*
Y106225D02*
Y131000D01*
X189200Y101225D02*
X194200Y106225D01*
X189200Y67246D02*
Y101225D01*
X199263Y152183D02*
Y209291D01*
Y152183D02*
X204200Y147246D01*
Y131000D02*
Y147246D01*
Y106225D02*
Y131000D01*
X199200Y101225D02*
X204200Y106225D01*
X199200Y67246D02*
Y101225D01*
X209200Y152246D02*
Y209228D01*
Y152246D02*
X214200Y147246D01*
Y131000D02*
Y147246D01*
Y105500D02*
Y131000D01*
X209200Y100500D02*
X214200Y105500D01*
X209200Y67246D02*
Y100500D01*
X24263Y230345D02*
Y238045D01*
X22430Y228512D02*
X24263Y230345D01*
X12472Y228512D02*
X22430D01*
X7342Y223382D02*
X12472Y228512D01*
X7342Y206822D02*
Y223382D01*
Y206822D02*
X12491Y201672D01*
Y198955D02*
Y201672D01*
Y198955D02*
X15509Y195937D01*
X41868D01*
X46805Y191000D01*
X49200D01*
X29200Y242982D02*
Y251000D01*
X24263Y238045D02*
X29200Y242982D01*
X52891Y196063D02*
X55909Y193045D01*
X45383Y196063D02*
X52891D01*
X100129Y252429D02*
X102200Y250359D01*
Y242754D02*
Y250359D01*
X79263Y219817D02*
X102200Y242754D01*
X79263Y212183D02*
Y219817D01*
X99941Y256259D02*
X105200Y251000D01*
Y238500D02*
Y251000D01*
X89200Y222500D02*
X105200Y238500D01*
X89200Y212246D02*
Y222500D01*
X107775Y231347D02*
Y273925D01*
X134263Y277183D02*
X139200Y272246D01*
Y251000D02*
Y272246D01*
Y278605D02*
Y281000D01*
Y278605D02*
X144200Y273605D01*
Y246500D02*
Y273605D01*
X209200Y287500D02*
X219200Y277500D01*
Y181500D02*
Y277500D01*
Y281141D02*
Y301000D01*
Y281141D02*
X221775Y278567D01*
Y178075D02*
Y278567D01*
X64200Y247246D02*
Y284754D01*
X144263Y277183D02*
X149200Y272246D01*
Y251000D02*
Y272246D01*
Y278605D02*
Y281000D01*
Y278605D02*
X154200Y273605D01*
Y244000D02*
Y273605D01*
X105294Y44210D02*
X120910D01*
X100575Y48928D02*
X105294Y44210D01*
X112578Y50645D02*
X114670D01*
X117940Y47375D01*
X120910Y44210D02*
X129200Y52500D01*
X3976Y62748D02*
X15389Y51335D01*
X15865D01*
X19200Y48000D01*
X118700Y233500D02*
X131200D01*
X3976Y62748D02*
Y202906D01*
X16700Y54500D02*
Y55000D01*
X6550Y65150D02*
X16700Y55000D01*
X21200D02*
X31805D01*
X9125Y67075D02*
X21200Y55000D01*
X22266Y57575D02*
X32871D01*
X21429Y58413D02*
X22266Y57575D01*
X21429Y58413D02*
X21429D01*
X11700Y68141D02*
X21429Y58413D01*
X9125Y67075D02*
Y82697D01*
X11700Y68141D02*
Y75272D01*
X6550Y65150D02*
Y120745D01*
X212700Y168500D02*
Y169000D01*
X221775Y178075D01*
X50972Y201000D02*
X74200Y224228D01*
Y229000D01*
X49200Y201000D02*
X50972D01*
Y211000D02*
X65210Y225238D01*
X68962D01*
X32783Y211000D02*
X47428D01*
X55909Y188955D02*
Y193045D01*
X42491Y198955D02*
Y206063D01*
Y198955D02*
X45383Y196063D01*
X42491Y206063D02*
X47428Y211000D01*
X49200D01*
X143954Y225000D02*
X149137Y219817D01*
X113200Y225000D02*
X143954D01*
X149137Y215222D02*
X149263Y215096D01*
X149137Y215222D02*
Y219817D01*
X144200Y171000D02*
Y187417D01*
X145454Y208500D02*
X149263Y212309D01*
Y152183D02*
Y208668D01*
X154200Y213605D01*
X139263Y192354D02*
X144200Y187417D01*
X139263Y192354D02*
Y204817D01*
X142946Y208500D01*
X154200Y213605D02*
Y216000D01*
X142946Y208500D02*
X145454D01*
X149263Y212309D02*
Y215096D01*
X139042Y209070D02*
X144200Y214228D01*
Y216000D01*
X133517Y209070D02*
X139042D01*
X129137Y204691D02*
X133517Y209070D01*
X129137Y197309D02*
Y204691D01*
X116688Y180737D02*
Y206716D01*
X119263Y186536D02*
Y204817D01*
X123197Y208751D01*
X116688Y206716D02*
X124200Y214228D01*
X119200Y152246D02*
Y178226D01*
X123197Y208751D02*
X128723D01*
X119263Y186536D02*
X129263Y176536D01*
Y152183D02*
Y176536D01*
X116688Y180737D02*
X119200Y178226D01*
X128723Y208751D02*
X134200Y214228D01*
X129137Y197309D02*
X134200Y192246D01*
X129263Y152183D02*
X134200Y147246D01*
X207200Y225383D02*
Y279000D01*
Y225383D02*
X209263Y223320D01*
Y223000D02*
Y223320D01*
X212700Y175000D02*
X219200Y181500D01*
X84700Y198961D02*
X84719Y198981D01*
X56200Y76228D02*
Y138599D01*
X84700Y167099D01*
Y198961D01*
X49200Y71000D02*
X50972D01*
X56200Y76228D01*
X90974Y103939D02*
X91200Y104165D01*
X90974Y103274D02*
Y103939D01*
X89200Y101500D02*
X90974Y103274D01*
X89200Y65401D02*
Y101500D01*
X69200Y54000D02*
X77799D01*
X89200Y65401D01*
X209200Y209228D02*
X214200Y214228D01*
X209200Y287500D02*
Y301000D01*
X119200Y16000D02*
Y25842D01*
X134200Y171000D02*
Y192246D01*
Y169000D02*
Y171000D01*
X58700Y204000D02*
X88200Y233500D01*
X58700Y181746D02*
Y204000D01*
X40554Y176063D02*
X53017D01*
X40554Y186063D02*
X53017D01*
Y176063D02*
X58700Y181746D01*
X19200Y181000D02*
X35617D01*
X53017Y186063D02*
X55909Y188955D01*
X35617Y181000D02*
X40554Y176063D01*
X35617Y191000D02*
X40554Y186063D01*
X116200Y229000D02*
X139200D01*
X154200Y244000D01*
X131200Y233500D02*
X144200Y246500D01*
X134263Y277183D02*
Y294165D01*
X64200Y247246D02*
X67155Y244291D01*
X93734Y252429D02*
X100129D01*
X85596Y244291D02*
X93734Y252429D01*
X95497Y241717D02*
X99035Y245254D01*
X67155Y244291D02*
X85596D01*
X28909Y211000D02*
X59625Y241717D01*
X95497D01*
X85007Y257709D02*
X86653Y256063D01*
X96441Y256259D02*
X99941D01*
X86653Y256063D02*
X96245D01*
X96441Y256259D01*
X101200Y280500D02*
X107775Y273925D01*
X94200Y217772D02*
X107775Y231347D01*
X81573Y209873D02*
Y209873D01*
X79263Y212183D02*
X81573Y209873D01*
X89200Y137772D02*
Y202246D01*
X81573Y209873D02*
X89200Y202246D01*
X94200Y131000D02*
Y132772D01*
X89200Y137772D02*
X94200Y132772D01*
X31275Y80172D02*
Y117679D01*
X22954Y126000D02*
X31275Y117679D01*
X15446Y126000D02*
X22954D01*
X28700Y79105D02*
X44317Y63488D01*
X50432D01*
X45383Y66063D02*
X51499D01*
X31275Y80172D02*
X45383Y66063D01*
X26125Y78039D02*
X44066Y60098D01*
X28700Y79105D02*
Y113272D01*
X26125Y78039D02*
Y95846D01*
X20972Y121000D02*
X28700Y113272D01*
X19200Y121000D02*
X20972D01*
Y101000D02*
X26125Y95846D01*
X19200Y101000D02*
X20972D01*
X49200Y16000D02*
Y35355D01*
X41491Y50347D02*
Y52596D01*
X31805Y55000D02*
X36342Y50463D01*
X32871Y57575D02*
X38917Y51530D01*
X27200Y61500D02*
X32587D01*
X36342Y48214D02*
Y50463D01*
X38917Y49280D02*
Y51530D01*
X32587Y61500D02*
X41491Y52596D01*
X134200Y214228D02*
Y216000D01*
X124200Y153605D02*
X129200Y148605D01*
X124200Y153605D02*
Y156000D01*
Y214228D02*
Y216000D01*
X119200Y152246D02*
X124200Y147246D01*
X114200Y153605D02*
Y156000D01*
Y153605D02*
X119200Y148605D01*
X114200Y214228D02*
Y216000D01*
X109200Y209228D02*
X114200Y214228D01*
X109200Y152246D02*
Y209228D01*
X114200Y131000D02*
Y147246D01*
X109200Y152246D02*
X114200Y147246D01*
X104200Y153605D02*
Y156000D01*
Y153605D02*
X109200Y148605D01*
X104200Y102477D02*
X109200Y107477D01*
X104200Y214228D02*
Y216000D01*
Y197982D02*
Y214228D01*
X94200Y153605D02*
X99200Y148605D01*
X94200Y153605D02*
Y156000D01*
X104200Y131000D02*
Y147246D01*
X99200Y136500D02*
Y148605D01*
Y152246D02*
X104200Y147246D01*
X99137Y136437D02*
X99200Y136500D01*
X94200Y102417D02*
X99137Y107354D01*
X99200Y192982D02*
X104200Y197982D01*
X99200Y152246D02*
Y192982D01*
X49200Y299754D02*
Y301000D01*
Y299754D02*
X64200Y284754D01*
X49200Y331000D02*
Y332772D01*
X44263Y337709D02*
X49200Y332772D01*
X34137Y337709D02*
X44263D01*
X50153Y340283D02*
X64594Y325842D01*
X7182Y328482D02*
X18983Y340283D01*
X29200Y331000D02*
Y332772D01*
X18983Y340283D02*
X50153D01*
X29200Y332772D02*
X34137Y337709D01*
X29200Y316554D02*
Y329228D01*
X49200Y281000D02*
Y283395D01*
X29200Y316554D02*
X34263Y311491D01*
X41627Y290968D02*
X49200Y283395D01*
X40478Y290968D02*
X41627D01*
X34263Y297183D02*
X40478Y290968D01*
X34263Y297183D02*
Y311491D01*
X69200Y252772D02*
X74137Y257709D01*
X85007D01*
X69200Y251000D02*
Y252772D01*
X92155Y209291D02*
X99263D01*
X89200Y212246D02*
X92155Y209291D01*
X99263D02*
X104200Y214228D01*
X94200Y216000D02*
Y217772D01*
X2192Y204689D02*
X3976Y202906D01*
X6550Y120745D02*
X14443Y128638D01*
X11700Y75272D02*
X17428Y81000D01*
X9125Y82697D02*
X17428Y91000D01*
Y81000D02*
X19200D01*
X2192Y204689D02*
Y225515D01*
X12491Y115937D02*
Y123045D01*
Y115937D02*
X17428Y111000D01*
X12491Y123045D02*
X15446Y126000D01*
X17428Y111000D02*
X19200D01*
X14443Y128638D02*
X16838D01*
X19200Y131000D01*
X17428Y91000D02*
X19200D01*
X15992Y173715D02*
Y174208D01*
Y173715D02*
X18707Y171000D01*
X19200D01*
X12491Y177709D02*
Y195314D01*
Y177709D02*
X15992Y174208D01*
X9917Y197889D02*
X12491Y195314D01*
X2192Y225515D02*
X7182Y230505D01*
X9917Y197889D02*
Y200606D01*
X4767Y205755D02*
X9917Y200606D01*
X4767Y205755D02*
Y224448D01*
X9917Y207889D02*
Y222315D01*
X12491Y208955D02*
X15383Y206063D01*
X13538Y225937D02*
X28137D01*
X15383Y206063D02*
X27846D01*
X17428Y221000D02*
X19200D01*
X12491Y208955D02*
Y216063D01*
X9917Y222315D02*
X13538Y225937D01*
X4767Y224448D02*
X9917Y229598D01*
X12491Y216063D02*
X17428Y221000D01*
X9917Y207889D02*
X16805Y201000D01*
X49200Y329228D02*
Y331000D01*
X29200Y329228D02*
Y331000D01*
X9917Y280470D02*
X19730Y290283D01*
X9917Y229598D02*
Y280470D01*
X7182Y230505D02*
Y328482D01*
X16805Y201000D02*
X19200D01*
X27846Y206063D02*
X32783Y211000D01*
X19200D02*
X28909D01*
X40560Y288393D02*
X44200Y284754D01*
X37220Y288393D02*
X40560D01*
X35329Y290283D02*
X37220Y288393D01*
X19730Y290283D02*
X35329D01*
X47155Y274291D02*
X54263D01*
X59200Y279228D02*
Y281000D01*
X44200Y277246D02*
Y284754D01*
X54263Y274291D02*
X59200Y279228D01*
X44200Y277246D02*
X47155Y274291D01*
X39200Y281000D02*
Y282772D01*
X34263Y287709D02*
X39200Y282772D01*
X24137Y277183D02*
Y284691D01*
X27155Y287709D02*
X34263D01*
X24137Y284691D02*
X27155Y287709D01*
X28137Y225937D02*
X34200Y232000D01*
X29200Y251000D02*
Y281000D01*
X49200Y249228D02*
Y251000D01*
X43156Y243185D02*
X49200Y249228D01*
X39403Y243185D02*
X43156D01*
X34200Y237982D02*
X39403Y243185D01*
X34200Y232000D02*
Y237982D01*
X19200Y191000D02*
X35617D01*
X19200Y272246D02*
X24137Y277183D01*
X19200Y251000D02*
Y272246D01*
X144200Y153605D02*
Y156000D01*
Y153605D02*
X149200Y148605D01*
X159263Y204817D02*
X163296Y208850D01*
Y215096D02*
X164200Y216000D01*
X163296Y208850D02*
Y215096D01*
X164200Y171000D02*
Y187417D01*
X159263Y192354D02*
X164200Y187417D01*
X159263Y192354D02*
Y204817D01*
X134200Y169000D02*
X139200Y164000D01*
X134200Y153605D02*
Y156000D01*
Y153605D02*
X139200Y148605D01*
Y152246D02*
X144200Y147246D01*
X139200Y152246D02*
Y164000D01*
X112700Y55000D02*
X119263Y61563D01*
Y101181D01*
X104200Y71000D02*
Y102477D01*
X179200Y281000D02*
Y289228D01*
X189200Y299228D01*
Y301000D01*
X179200D02*
Y302772D01*
X184428Y308000D01*
X178955Y313150D02*
X195804D01*
X180021Y310575D02*
X192020D01*
X194137Y297183D02*
Y304817D01*
X195804Y313150D02*
X204200Y304754D01*
X190954Y308000D02*
X194137Y304817D01*
X169200Y303395D02*
X178955Y313150D01*
X199200Y301000D02*
Y303395D01*
X189200Y281000D02*
Y292246D01*
X184428Y308000D02*
X190954D01*
X192020Y310575D02*
X199200Y303395D01*
X189200Y292246D02*
X194137Y297183D01*
X174137Y304691D02*
X180021Y310575D01*
X174137Y297183D02*
Y304691D01*
X169200Y292246D02*
X174137Y297183D01*
X169200Y301000D02*
Y303395D01*
Y281000D02*
Y292246D01*
X204200Y296817D02*
Y304754D01*
X199200Y281000D02*
Y291817D01*
X204200Y296817D01*
X129200Y299228D02*
X134263Y294165D01*
X129200Y299228D02*
Y301000D01*
X144263Y277183D02*
Y294165D01*
X139200Y299228D02*
X144263Y294165D01*
X139200Y299228D02*
Y301000D01*
X159200Y251000D02*
Y272246D01*
X154263Y277183D02*
X159200Y272246D01*
X154263Y277183D02*
Y294165D01*
X149200Y299228D02*
X154263Y294165D01*
X149200Y299228D02*
Y301000D01*
X169200Y251000D02*
Y272246D01*
X164263Y277183D02*
X169200Y272246D01*
X164263Y277183D02*
Y294165D01*
X159200Y299228D02*
X164263Y294165D01*
X159200Y299228D02*
Y301000D01*
X174200Y214228D02*
Y216000D01*
X169200Y209228D02*
X174200Y214228D01*
X184200D02*
Y216000D01*
X179200Y209228D02*
X184200Y214228D01*
X174200Y153605D02*
Y156000D01*
X179200Y108227D02*
Y148605D01*
X174200Y153605D02*
X179200Y148605D01*
X194200Y214228D02*
Y216000D01*
X189200Y209228D02*
X194200Y214228D01*
X199263Y209291D02*
X204200Y214228D01*
Y216000D01*
X214200Y214228D02*
Y216000D01*
X184200Y153605D02*
Y156000D01*
Y153605D02*
X189200Y148605D01*
Y107477D02*
Y148605D01*
X194200Y153605D02*
X199263Y148542D01*
Y107009D02*
Y148542D01*
X194200Y153605D02*
Y156000D01*
X204200Y153605D02*
Y156000D01*
Y153605D02*
X209263Y148542D01*
Y106009D02*
Y148542D01*
X209200Y16000D02*
Y44787D01*
X199200Y16000D02*
Y44500D01*
X209200Y54500D01*
X189200Y16000D02*
Y42770D01*
X209315Y62885D01*
X204200Y71000D02*
Y100945D01*
X209263Y106009D01*
X169200Y37246D02*
X199200Y67246D01*
X179200Y16000D02*
Y37246D01*
X209200Y67246D01*
X159200Y37246D02*
X189200Y67246D01*
X194200Y71000D02*
Y101945D01*
X199263Y107009D01*
X169200Y16000D02*
Y37246D01*
X149200D02*
X179200Y67246D01*
X159200Y16000D02*
Y37246D01*
X184200Y102477D02*
X189200Y107477D01*
X149200Y16000D02*
Y37246D01*
X139200D02*
X169200Y67246D01*
X139200Y16000D02*
Y37246D01*
X94200Y71000D02*
Y102417D01*
X114200Y71000D02*
Y103227D01*
X154200Y154228D02*
Y156000D01*
X174200Y71000D02*
Y103227D01*
X179200Y108227D01*
X64594Y325842D02*
X113806D01*
D27*
X84200Y131000D02*
Y156000D01*
Y71000D02*
Y131000D01*
X29200Y46000D02*
Y46116D01*
X31208Y48123D02*
Y48337D01*
X29200Y46116D02*
X31208Y48123D01*
X39200Y329184D02*
Y331000D01*
Y329184D02*
X52384Y316000D01*
X70200D01*
X86302Y268853D02*
Y299898D01*
X70200Y316000D02*
X86302Y299898D01*
Y268853D02*
X94156Y261000D01*
X94200D01*
X19200Y331000D02*
Y332878D01*
X19397Y333075D01*
Y333197D01*
X39125Y331075D02*
X39200Y331000D01*
X19200Y16000D02*
Y36000D01*
X29200Y46000D01*
Y16000D02*
Y46000D01*
X19200Y161000D02*
X21016D01*
X19200Y71000D02*
X21016D01*
X214200D02*
Y71818D01*
X214382Y72000D01*
X214200Y271000D02*
X214244D01*
X219200Y16000D02*
Y45000D01*
X222700Y48500D01*
X139200Y331000D02*
X139275Y331075D01*
X149200Y331000D02*
X149275Y331075D01*
X6200Y48500D02*
X9200Y45500D01*
Y16000D02*
Y45500D01*
D28*
X84200Y156000D02*
D03*
Y71000D02*
D03*
X79200Y281000D02*
D03*
X199200D02*
D03*
X124200Y171000D02*
D03*
D29*
X94200Y156000D02*
D03*
X104200D02*
D03*
X114200D02*
D03*
X124200D02*
D03*
X134200D02*
D03*
X144200D02*
D03*
X154200D02*
D03*
X164200D02*
D03*
X174200D02*
D03*
X184200D02*
D03*
X194200D02*
D03*
X204200D02*
D03*
X214200D02*
D03*
X84200Y216000D02*
D03*
X94200D02*
D03*
X104200D02*
D03*
X114200D02*
D03*
X124200D02*
D03*
X134200D02*
D03*
X144200D02*
D03*
X154200D02*
D03*
X164200D02*
D03*
X174200D02*
D03*
X184200D02*
D03*
X194200D02*
D03*
X204200D02*
D03*
X214200D02*
D03*
X94200Y71000D02*
D03*
X104200D02*
D03*
X114200D02*
D03*
X124200D02*
D03*
X134200D02*
D03*
X144200D02*
D03*
X154200D02*
D03*
X164200D02*
D03*
X174200D02*
D03*
X184200D02*
D03*
X194200D02*
D03*
X204200D02*
D03*
X214200D02*
D03*
X84200Y131000D02*
D03*
X94200D02*
D03*
X104200D02*
D03*
X114200D02*
D03*
X124200D02*
D03*
X134200D02*
D03*
X144200D02*
D03*
X154200D02*
D03*
X164200D02*
D03*
X174200D02*
D03*
X184200D02*
D03*
X194200D02*
D03*
X204200D02*
D03*
X214200D02*
D03*
X69200Y281000D02*
D03*
X59200D02*
D03*
X49200D02*
D03*
X39200D02*
D03*
X29200D02*
D03*
X19200D02*
D03*
X79200Y251000D02*
D03*
X69200D02*
D03*
X59200D02*
D03*
X49200D02*
D03*
X39200D02*
D03*
X29200D02*
D03*
X19200D02*
D03*
X199200D02*
D03*
X189200D02*
D03*
Y281000D02*
D03*
X179200D02*
D03*
X169200D02*
D03*
X159200D02*
D03*
X149200D02*
D03*
X139200D02*
D03*
X179200Y251000D02*
D03*
X169200D02*
D03*
X159200D02*
D03*
X149200D02*
D03*
X139200D02*
D03*
X129200D02*
D03*
Y281000D02*
D03*
X134200Y171000D02*
D03*
X144200D02*
D03*
X154200D02*
D03*
X164200D02*
D03*
X174200D02*
D03*
X184200D02*
D03*
X124200Y201000D02*
D03*
X134200D02*
D03*
X144200D02*
D03*
X154200D02*
D03*
X164200D02*
D03*
X174200D02*
D03*
X184200D02*
D03*
D30*
X49200Y55500D02*
D03*
D31*
X19200Y301000D02*
D03*
X129200D02*
D03*
D32*
X29200D02*
D03*
X39200D02*
D03*
X49200D02*
D03*
Y331000D02*
D03*
X39200D02*
D03*
X29200D02*
D03*
X19200D02*
D03*
X129200D02*
D03*
X139200D02*
D03*
X149200D02*
D03*
X159200D02*
D03*
X169200D02*
D03*
X179200D02*
D03*
X189200D02*
D03*
X199200D02*
D03*
X209200D02*
D03*
X219200D02*
D03*
Y301000D02*
D03*
X209200D02*
D03*
X199200D02*
D03*
X189200D02*
D03*
X179200D02*
D03*
X169200D02*
D03*
X159200D02*
D03*
X149200D02*
D03*
X139200D02*
D03*
D33*
X64594Y325842D02*
D03*
X113806D02*
D03*
X64594Y306157D02*
D03*
X113806D02*
D03*
D34*
X214200Y271000D02*
D03*
Y261000D02*
D03*
X94200Y271000D02*
D03*
Y261000D02*
D03*
X29200Y236000D02*
D03*
X39200D02*
D03*
X29200Y146000D02*
D03*
X39200D02*
D03*
X69200Y96000D02*
D03*
Y106000D02*
D03*
Y181000D02*
D03*
Y191000D02*
D03*
X104200Y181000D02*
D03*
Y191000D02*
D03*
D35*
X19200Y221000D02*
D03*
Y131000D02*
D03*
D36*
Y211000D02*
D03*
Y201000D02*
D03*
Y191000D02*
D03*
Y181000D02*
D03*
Y171000D02*
D03*
Y161000D02*
D03*
X49200Y221000D02*
D03*
Y211000D02*
D03*
Y201000D02*
D03*
Y191000D02*
D03*
Y181000D02*
D03*
Y171000D02*
D03*
Y161000D02*
D03*
X19200Y121000D02*
D03*
Y111000D02*
D03*
Y101000D02*
D03*
Y91000D02*
D03*
Y81000D02*
D03*
Y71000D02*
D03*
X49200Y131000D02*
D03*
Y121000D02*
D03*
Y111000D02*
D03*
Y101000D02*
D03*
Y91000D02*
D03*
Y81000D02*
D03*
Y71000D02*
D03*
D37*
X53817Y32500D02*
D03*
X36200Y43508D02*
D03*
X54700Y42500D02*
D03*
X72700Y46763D02*
D03*
X115700Y254500D02*
D03*
X94200Y143500D02*
D03*
X93200Y115000D02*
D03*
X133700Y33474D02*
D03*
X59125Y65666D02*
D03*
X29700Y200000D02*
D03*
X10200Y95846D02*
D03*
X184200Y33000D02*
D03*
X173700D02*
D03*
X164200D02*
D03*
X154200D02*
D03*
X144200D02*
D03*
X158700Y86000D02*
D03*
X214200Y194500D02*
D03*
X139200Y182500D02*
D03*
X157700Y185500D02*
D03*
X127700Y187417D02*
D03*
X94200Y173500D02*
D03*
X58117Y229000D02*
D03*
X19200Y312780D02*
D03*
X45200Y265500D02*
D03*
D38*
X39200Y40500D02*
D03*
X83700Y32760D02*
D03*
X114184Y35335D02*
D03*
X62974Y48000D02*
D03*
X58700Y47500D02*
D03*
X117940Y47375D02*
D03*
X100575Y48928D02*
D03*
X118700Y233500D02*
D03*
X19200Y48000D02*
D03*
X16700Y54500D02*
D03*
X212700Y168500D02*
D03*
X116200Y229000D02*
D03*
X74200D02*
D03*
X68962Y225238D02*
D03*
X113200Y225000D02*
D03*
X209263Y223000D02*
D03*
X207200Y279000D02*
D03*
X212700Y175000D02*
D03*
X84719Y198981D02*
D03*
X91200Y104165D02*
D03*
X69200Y54000D02*
D03*
X53817Y47128D02*
D03*
X88200Y233500D02*
D03*
X99035Y245254D02*
D03*
X101200Y280500D02*
D03*
X27200Y61500D02*
D03*
X112700Y55000D02*
D03*
X209200Y44787D02*
D03*
Y54500D02*
D03*
X209315Y62885D02*
D03*
D39*
X31208Y48337D02*
D03*
X222700Y48500D02*
D03*
X6200D02*
D03*
M02*
