G04*
G04 #@! TF.GenerationSoftware,Altium Limited,Altium Designer,21.0.9 (235)*
G04*
G04 Layer_Physical_Order=2*
G04 Layer_Color=16711680*
%FSLAX25Y25*%
%MOIN*%
G70*
G04*
G04 #@! TF.SameCoordinates,B9488A90-FA10-4CA6-9237-5EE1817F1098*
G04*
G04*
G04 #@! TF.FilePolarity,Positive*
G04*
G01*
G75*
G04:AMPARAMS|DCode=25|XSize=78.74mil|YSize=275.59mil|CornerRadius=19.68mil|HoleSize=0mil|Usage=FLASHONLY|Rotation=0.000|XOffset=0mil|YOffset=0mil|HoleType=Round|Shape=RoundedRectangle|*
%AMROUNDEDRECTD25*
21,1,0.07874,0.23622,0,0,0.0*
21,1,0.03937,0.27559,0,0,0.0*
1,1,0.03937,0.01968,-0.11811*
1,1,0.03937,-0.01968,-0.11811*
1,1,0.03937,-0.01968,0.11811*
1,1,0.03937,0.01968,0.11811*
%
%ADD25ROUNDEDRECTD25*%
%ADD26C,0.01575*%
%ADD27C,0.05906*%
%ADD28R,0.06299X0.09843*%
%ADD29O,0.06299X0.09843*%
%ADD30R,0.06693X0.06693*%
%ADD31R,0.06299X0.09843*%
%ADD32O,0.06299X0.09843*%
%ADD33C,0.09843*%
%ADD34C,0.06299*%
%ADD35R,0.09843X0.06299*%
%ADD36O,0.09843X0.06299*%
%ADD37C,0.02362*%
%ADD38C,0.02756*%
%ADD39C,0.06693*%
G36*
X224348Y344816D02*
X225128Y344493D01*
X225829Y344025D01*
X226425Y343429D01*
X226893Y342727D01*
X227216Y341949D01*
X227380Y341122D01*
Y340700D01*
X227380Y49865D01*
X226880Y49765D01*
X226497Y50692D01*
X225800Y51600D01*
X224892Y52297D01*
X223835Y52735D01*
X223200Y52818D01*
Y48500D01*
Y44182D01*
X223835Y44265D01*
X224892Y44703D01*
X225800Y45400D01*
X226497Y46308D01*
X226880Y47235D01*
X227380Y47135D01*
Y5300D01*
X227380Y5300D01*
X227380Y5300D01*
X227380Y4878D01*
X227216Y4051D01*
X226893Y3272D01*
X226425Y2571D01*
X225829Y1975D01*
X225128Y1507D01*
X224349Y1184D01*
X223522Y1020D01*
X222581D01*
X222481Y1519D01*
X222666Y1596D01*
X223286Y2072D01*
X223762Y2692D01*
X224061Y3414D01*
X224163Y4189D01*
Y15500D01*
X219200D01*
Y16000D01*
X218700D01*
Y30805D01*
X217231D01*
X216457Y30703D01*
X215734Y30404D01*
X215114Y29928D01*
X214638Y29308D01*
X214471Y28903D01*
X213929D01*
X213761Y29308D01*
X213286Y29928D01*
X212666Y30404D01*
X211943Y30703D01*
X211169Y30805D01*
X211022D01*
Y34228D01*
X210884Y34926D01*
X210489Y35517D01*
X210489Y35517D01*
X178131Y67875D01*
X178243Y68145D01*
X178385Y69228D01*
Y72772D01*
X178243Y73855D01*
X177825Y74864D01*
X177160Y75731D01*
X176293Y76396D01*
X175283Y76815D01*
X174200Y76957D01*
X173117Y76815D01*
X172107Y76396D01*
X171240Y75731D01*
X170575Y74864D01*
X170157Y73855D01*
X170015Y72772D01*
Y69228D01*
X170157Y68145D01*
X170575Y67136D01*
X171240Y66269D01*
X172107Y65604D01*
X173117Y65185D01*
X174200Y65043D01*
X175283Y65185D01*
X175554Y65298D01*
X207378Y33474D01*
Y30805D01*
X207231D01*
X206457Y30703D01*
X205734Y30404D01*
X205114Y29928D01*
X204639Y29308D01*
X204471Y28903D01*
X203929D01*
X203762Y29308D01*
X203286Y29928D01*
X202666Y30404D01*
X201943Y30703D01*
X201168Y30805D01*
X201022D01*
Y34228D01*
X200884Y34926D01*
X200489Y35517D01*
X200489Y35517D01*
X168131Y67875D01*
X168243Y68145D01*
X168385Y69228D01*
Y72772D01*
X168243Y73855D01*
X167825Y74864D01*
X167159Y75731D01*
X166293Y76396D01*
X165283Y76815D01*
X164200Y76957D01*
X163117Y76815D01*
X162107Y76396D01*
X161240Y75731D01*
X160575Y74864D01*
X160157Y73855D01*
X160015Y72772D01*
Y69228D01*
X160157Y68145D01*
X160575Y67136D01*
X161240Y66269D01*
X162107Y65604D01*
X163117Y65185D01*
X164200Y65043D01*
X165283Y65185D01*
X165553Y65298D01*
X197378Y33474D01*
Y30805D01*
X197231D01*
X196457Y30703D01*
X195734Y30404D01*
X195114Y29928D01*
X194639Y29308D01*
X194471Y28903D01*
X193929D01*
X193762Y29308D01*
X193286Y29928D01*
X192666Y30404D01*
X191944Y30703D01*
X191168Y30805D01*
X191022D01*
Y34228D01*
X190884Y34926D01*
X190489Y35517D01*
X190489Y35517D01*
X158131Y67875D01*
X158243Y68145D01*
X158385Y69228D01*
Y72772D01*
X158243Y73855D01*
X157825Y74864D01*
X157159Y75731D01*
X156293Y76396D01*
X155283Y76815D01*
X154200Y76957D01*
X153117Y76815D01*
X152107Y76396D01*
X151241Y75731D01*
X150575Y74864D01*
X150157Y73855D01*
X150015Y72772D01*
Y69228D01*
X150157Y68145D01*
X150575Y67136D01*
X151241Y66269D01*
X152107Y65604D01*
X153117Y65185D01*
X154200Y65043D01*
X155283Y65185D01*
X155553Y65298D01*
X185485Y35366D01*
X185167Y34977D01*
X185051Y35055D01*
X184700Y35124D01*
Y33500D01*
X186324D01*
X186255Y33851D01*
X186177Y33967D01*
X186566Y34285D01*
X187378Y33474D01*
Y30805D01*
X187232D01*
X186457Y30703D01*
X185734Y30404D01*
X185114Y29928D01*
X184639Y29308D01*
X184471Y28903D01*
X183929D01*
X183762Y29308D01*
X183286Y29928D01*
X182666Y30404D01*
X181944Y30703D01*
X181168Y30805D01*
X181022D01*
Y34228D01*
X180884Y34926D01*
X180489Y35517D01*
X180489Y35517D01*
X148131Y67875D01*
X148243Y68145D01*
X148385Y69228D01*
Y72772D01*
X148243Y73855D01*
X147825Y74864D01*
X147160Y75731D01*
X146293Y76396D01*
X145283Y76815D01*
X144200Y76957D01*
X143117Y76815D01*
X142107Y76396D01*
X141241Y75731D01*
X140575Y74864D01*
X140157Y73855D01*
X140015Y72772D01*
Y69228D01*
X140157Y68145D01*
X140575Y67136D01*
X141241Y66269D01*
X142107Y65604D01*
X143117Y65185D01*
X144200Y65043D01*
X145283Y65185D01*
X145554Y65298D01*
X177378Y33474D01*
Y30805D01*
X177232D01*
X176456Y30703D01*
X175734Y30404D01*
X175114Y29928D01*
X174638Y29308D01*
X174471Y28903D01*
X173929D01*
X173761Y29308D01*
X173286Y29928D01*
X172666Y30404D01*
X171943Y30703D01*
X171168Y30805D01*
X171022D01*
Y32377D01*
X171333Y32749D01*
X171333Y32749D01*
Y32749D01*
X171522Y32768D01*
X171526Y32751D01*
X171645Y32149D01*
X172127Y31427D01*
X172849Y30945D01*
X173200Y30876D01*
Y33000D01*
Y35124D01*
X172849Y35055D01*
X172127Y34572D01*
X171645Y33851D01*
X171526Y33249D01*
X171522Y33233D01*
X171333Y33251D01*
Y33251D01*
X171333Y33251D01*
X171022Y33623D01*
Y34228D01*
X170884Y34926D01*
X170489Y35517D01*
X170489Y35517D01*
X138131Y67875D01*
X138243Y68145D01*
X138385Y69228D01*
Y72772D01*
X138243Y73855D01*
X137825Y74864D01*
X137160Y75731D01*
X136293Y76396D01*
X135283Y76815D01*
X134200Y76957D01*
X133117Y76815D01*
X132107Y76396D01*
X131240Y75731D01*
X130575Y74864D01*
X130157Y73855D01*
X130015Y72772D01*
Y69228D01*
X130157Y68145D01*
X130575Y67136D01*
X131240Y66269D01*
X132107Y65604D01*
X133117Y65185D01*
X134200Y65043D01*
X135283Y65185D01*
X135554Y65298D01*
X165485Y35366D01*
X165167Y34977D01*
X165051Y35055D01*
X164700Y35124D01*
Y33500D01*
X166324D01*
X166254Y33851D01*
X166177Y33967D01*
X166566Y34285D01*
X167378Y33474D01*
Y30805D01*
X167232D01*
X166456Y30703D01*
X165734Y30404D01*
X165114Y29928D01*
X164638Y29308D01*
X164471Y28903D01*
X163929D01*
X163761Y29308D01*
X163286Y29928D01*
X162666Y30404D01*
X161943Y30703D01*
X161169Y30805D01*
X161022D01*
Y34228D01*
X160884Y34926D01*
X160489Y35517D01*
X160489Y35517D01*
X128131Y67875D01*
X128243Y68145D01*
X128385Y69228D01*
Y72772D01*
X128243Y73855D01*
X127825Y74864D01*
X127160Y75731D01*
X126293Y76396D01*
X125283Y76815D01*
X124200Y76957D01*
X123117Y76815D01*
X122107Y76396D01*
X121240Y75731D01*
X120575Y74864D01*
X120157Y73855D01*
X120015Y72772D01*
Y69228D01*
X120157Y68145D01*
X120575Y67136D01*
X121240Y66269D01*
X122107Y65604D01*
X123117Y65185D01*
X124200Y65043D01*
X125283Y65185D01*
X125554Y65298D01*
X155485Y35366D01*
X155167Y34977D01*
X155051Y35055D01*
X154700Y35124D01*
Y33500D01*
X156324D01*
X156254Y33851D01*
X156177Y33967D01*
X156566Y34285D01*
X157378Y33474D01*
Y30805D01*
X157231D01*
X156456Y30703D01*
X155734Y30404D01*
X155114Y29928D01*
X154639Y29308D01*
X154471Y28903D01*
X153929D01*
X153761Y29308D01*
X153286Y29928D01*
X152666Y30404D01*
X151944Y30703D01*
X151169Y30805D01*
X151022D01*
Y34228D01*
X150884Y34926D01*
X150489Y35517D01*
X150489Y35517D01*
X118131Y67875D01*
X118243Y68145D01*
X118385Y69228D01*
Y72772D01*
X118243Y73855D01*
X117825Y74864D01*
X117159Y75731D01*
X116293Y76396D01*
X115283Y76815D01*
X114200Y76957D01*
X113117Y76815D01*
X112107Y76396D01*
X111240Y75731D01*
X110575Y74864D01*
X110157Y73855D01*
X110015Y72772D01*
Y69228D01*
X110157Y68145D01*
X110575Y67136D01*
X111240Y66269D01*
X112107Y65604D01*
X113117Y65185D01*
X114200Y65043D01*
X115283Y65185D01*
X115553Y65298D01*
X145485Y35366D01*
X145167Y34977D01*
X145051Y35055D01*
X144700Y35124D01*
Y33500D01*
X146324D01*
X146255Y33851D01*
X146177Y33967D01*
X146566Y34285D01*
X147378Y33474D01*
Y30805D01*
X147231D01*
X146457Y30703D01*
X145734Y30404D01*
X145114Y29928D01*
X144639Y29308D01*
X144471Y28903D01*
X143929D01*
X143762Y29308D01*
X143286Y29928D01*
X142666Y30404D01*
X141944Y30703D01*
X141168Y30805D01*
X141022D01*
Y34228D01*
X140884Y34926D01*
X140489Y35517D01*
X140489Y35517D01*
X108131Y67875D01*
X108243Y68145D01*
X108385Y69228D01*
Y72772D01*
X108243Y73855D01*
X107825Y74864D01*
X107159Y75731D01*
X106293Y76396D01*
X105283Y76815D01*
X104200Y76957D01*
X103117Y76815D01*
X102107Y76396D01*
X101241Y75731D01*
X100575Y74864D01*
X100157Y73855D01*
X100015Y72772D01*
Y69228D01*
X100157Y68145D01*
X100575Y67136D01*
X101241Y66269D01*
X102107Y65604D01*
X103117Y65185D01*
X104200Y65043D01*
X105283Y65185D01*
X105553Y65298D01*
X112998Y57853D01*
X112762Y57412D01*
X112700Y57424D01*
X111772Y57240D01*
X110986Y56714D01*
X110460Y55928D01*
X110275Y55000D01*
X110460Y54072D01*
X110712Y53695D01*
Y46689D01*
X110712Y46689D01*
X110851Y45992D01*
X111246Y45400D01*
X117497Y39149D01*
Y30805D01*
X117232D01*
X116456Y30703D01*
X115734Y30404D01*
X115114Y29928D01*
X114638Y29308D01*
X114471Y28903D01*
X113929D01*
X113761Y29308D01*
X113286Y29928D01*
X112666Y30404D01*
X111943Y30703D01*
X111169Y30805D01*
X111022D01*
Y31387D01*
X112922Y33286D01*
X112970D01*
X113257Y33095D01*
X114184Y32910D01*
X115112Y33095D01*
X115899Y33620D01*
X116424Y34407D01*
X116609Y35335D01*
X116424Y36263D01*
X115899Y37049D01*
X115112Y37575D01*
X114184Y37759D01*
X113257Y37575D01*
X112470Y37049D01*
X112391Y36931D01*
X112167D01*
X112167Y36931D01*
X111469Y36792D01*
X110878Y36397D01*
X110878Y36397D01*
X107911Y33430D01*
X107516Y32839D01*
X107378Y32142D01*
X107378Y32142D01*
Y30805D01*
X107231D01*
X106456Y30703D01*
X105734Y30404D01*
X105114Y29928D01*
X104639Y29308D01*
X104471Y28903D01*
X103929D01*
X103761Y29308D01*
X103286Y29928D01*
X102666Y30404D01*
X102398Y30515D01*
Y47375D01*
X102815Y48000D01*
X103000Y48928D01*
X102815Y49856D01*
X102290Y50642D01*
X101503Y51168D01*
X100575Y51352D01*
X99647Y51168D01*
X98861Y50642D01*
X98335Y49856D01*
X98151Y48928D01*
X98335Y48000D01*
X98753Y47375D01*
Y30805D01*
X97232D01*
X96457Y30703D01*
X95734Y30404D01*
X95114Y29928D01*
X94639Y29308D01*
X94471Y28903D01*
X93929D01*
X93761Y29308D01*
X93286Y29928D01*
X92666Y30404D01*
X91943Y30703D01*
X91168Y30805D01*
X91022D01*
Y44719D01*
X95489Y49185D01*
X95489Y49185D01*
X95884Y49777D01*
X96022Y50474D01*
X96022Y50474D01*
Y65492D01*
X96293Y65604D01*
X97159Y66269D01*
X97825Y67136D01*
X98243Y68145D01*
X98385Y69228D01*
Y72772D01*
X98243Y73855D01*
X97825Y74864D01*
X97159Y75731D01*
X96293Y76396D01*
X95283Y76815D01*
X94200Y76957D01*
X93117Y76815D01*
X92107Y76396D01*
X91241Y75731D01*
X90575Y74864D01*
X90157Y73855D01*
X90015Y72772D01*
Y69228D01*
X90157Y68145D01*
X90575Y67136D01*
X91241Y66269D01*
X92107Y65604D01*
X92378Y65492D01*
Y51229D01*
X87911Y46763D01*
X87516Y46172D01*
X87378Y45474D01*
X87378Y45474D01*
Y30805D01*
X87231D01*
X86457Y30703D01*
X85734Y30404D01*
X85114Y29928D01*
X84639Y29308D01*
X84471Y28903D01*
X83929D01*
X83762Y29308D01*
X83304Y29904D01*
X83321Y29992D01*
X83533Y30369D01*
X83700Y30335D01*
X84628Y30520D01*
X85414Y31045D01*
X85940Y31832D01*
X86124Y32760D01*
X85940Y33688D01*
X85522Y34313D01*
Y45474D01*
X85384Y46172D01*
X84989Y46763D01*
X84989Y46763D01*
X66085Y65666D01*
Y92529D01*
X66585Y92776D01*
X67107Y92375D01*
X68117Y91957D01*
X68700Y91880D01*
Y96000D01*
X69200D01*
Y96500D01*
X73320D01*
X73243Y97083D01*
X72825Y98093D01*
X72376Y98678D01*
X72623Y99178D01*
X204200D01*
X204200Y99178D01*
X204897Y99316D01*
X205489Y99711D01*
X210489Y104711D01*
X210489Y104711D01*
X210884Y105303D01*
X211022Y106000D01*
X211022Y106000D01*
Y125806D01*
X211522Y126052D01*
X212107Y125604D01*
X213117Y125186D01*
X214200Y125043D01*
X215283Y125186D01*
X216293Y125604D01*
X217160Y126269D01*
X217825Y127136D01*
X218243Y128145D01*
X218385Y129228D01*
Y132772D01*
X218243Y133855D01*
X217825Y134864D01*
X217160Y135731D01*
X216293Y136396D01*
X215283Y136814D01*
X214200Y136957D01*
X213117Y136814D01*
X212107Y136396D01*
X211522Y135948D01*
X211022Y136194D01*
Y150806D01*
X211522Y151052D01*
X212107Y150604D01*
X213117Y150186D01*
X213700Y150109D01*
Y156000D01*
Y161891D01*
X213117Y161814D01*
X212107Y161396D01*
X211522Y160948D01*
X211022Y161194D01*
Y164245D01*
X212891Y166113D01*
X213628Y166260D01*
X214414Y166786D01*
X214940Y167572D01*
X215125Y168500D01*
X214940Y169428D01*
X214414Y170214D01*
X213628Y170740D01*
X212700Y170924D01*
X211772Y170740D01*
X211628Y170644D01*
X211309Y171032D01*
X212891Y172613D01*
X213628Y172760D01*
X214414Y173286D01*
X214940Y174072D01*
X215125Y175000D01*
X214940Y175928D01*
X214414Y176714D01*
X213628Y177240D01*
X212700Y177425D01*
X211772Y177240D01*
X210986Y176714D01*
X210460Y175928D01*
X210313Y175191D01*
X197911Y162789D01*
X197516Y162197D01*
X197378Y161500D01*
X197378Y161500D01*
Y161194D01*
X196878Y160948D01*
X196293Y161396D01*
X195283Y161814D01*
X194200Y161957D01*
X193117Y161814D01*
X192107Y161396D01*
X191241Y160731D01*
X190575Y159864D01*
X190157Y158855D01*
X190015Y157772D01*
Y154228D01*
X190157Y153145D01*
X190575Y152136D01*
X191241Y151269D01*
X192107Y150604D01*
X193117Y150186D01*
X194200Y150043D01*
X195283Y150186D01*
X196293Y150604D01*
X196878Y151052D01*
X197378Y150806D01*
Y136194D01*
X196878Y135948D01*
X196293Y136396D01*
X195283Y136814D01*
X194200Y136957D01*
X193117Y136814D01*
X192107Y136396D01*
X191241Y135731D01*
X190575Y134864D01*
X190157Y133855D01*
X190015Y132772D01*
Y129228D01*
X190157Y128145D01*
X190575Y127136D01*
X191241Y126269D01*
X192107Y125604D01*
X193117Y125186D01*
X194200Y125043D01*
X195283Y125186D01*
X196293Y125604D01*
X196878Y126052D01*
X197378Y125806D01*
Y110330D01*
X192445Y105397D01*
X93237D01*
X92914Y105880D01*
X92128Y106405D01*
X91200Y106590D01*
X90272Y106405D01*
X89486Y105880D01*
X88960Y105093D01*
X88775Y104165D01*
X88943Y103322D01*
X88682Y102822D01*
X72623D01*
X72376Y103322D01*
X72825Y103907D01*
X72881Y104042D01*
X87019Y118181D01*
X87019Y118181D01*
X87653Y119007D01*
X88051Y119968D01*
X88187Y121000D01*
Y128010D01*
X88243Y128145D01*
X88385Y129228D01*
Y132772D01*
X88243Y133855D01*
X87825Y134864D01*
X87160Y135731D01*
X86293Y136396D01*
X85283Y136814D01*
X84200Y136957D01*
X83117Y136814D01*
X82107Y136396D01*
X81240Y135731D01*
X80575Y134864D01*
X80157Y133855D01*
X80015Y132772D01*
Y129228D01*
X80157Y128145D01*
X80213Y128010D01*
Y122651D01*
X72789Y115227D01*
X72290Y115260D01*
X71944Y115710D01*
X71944Y115710D01*
X54621Y133033D01*
X54596Y133093D01*
X53931Y133959D01*
X53064Y134625D01*
X52055Y135043D01*
X50972Y135185D01*
X48988D01*
X43187Y140986D01*
Y144782D01*
X43243Y144917D01*
X43385Y146000D01*
X43243Y147083D01*
X43187Y147218D01*
Y159090D01*
X43687Y159189D01*
X43804Y158907D01*
X44469Y158040D01*
X45336Y157375D01*
X46345Y156957D01*
X47428Y156815D01*
X50972D01*
X52055Y156957D01*
X53064Y157375D01*
X53931Y158040D01*
X54596Y158907D01*
X55014Y159917D01*
X55157Y161000D01*
X55014Y162083D01*
X54596Y163093D01*
X54147Y163678D01*
X54394Y164178D01*
X95091D01*
X96266Y163003D01*
X96857Y162608D01*
X97554Y162469D01*
X97554Y162469D01*
X149263D01*
X149263Y162469D01*
X149960Y162608D01*
X150552Y163003D01*
X152847Y165297D01*
X153117Y165185D01*
X154200Y165043D01*
X155283Y165185D01*
X156293Y165604D01*
X157159Y166269D01*
X157825Y167136D01*
X158243Y168145D01*
X158379Y169178D01*
X160021D01*
X160157Y168145D01*
X160575Y167136D01*
X161240Y166269D01*
X162107Y165604D01*
X163117Y165185D01*
X164200Y165043D01*
X165283Y165185D01*
X166293Y165604D01*
X167159Y166269D01*
X167825Y167136D01*
X168243Y168145D01*
X168385Y169228D01*
Y172772D01*
X168243Y173855D01*
X167825Y174864D01*
X167159Y175731D01*
X166293Y176396D01*
X165283Y176814D01*
X164200Y176957D01*
X163117Y176814D01*
X162107Y176396D01*
X161240Y175731D01*
X160575Y174864D01*
X160157Y173855D01*
X160021Y172822D01*
X158379D01*
X158243Y173855D01*
X157825Y174864D01*
X157159Y175731D01*
X156293Y176396D01*
X155283Y176814D01*
X154200Y176957D01*
X153117Y176814D01*
X152107Y176396D01*
X151241Y175731D01*
X150575Y174864D01*
X150157Y173855D01*
X150015Y172772D01*
Y169228D01*
X150157Y168145D01*
X150269Y167875D01*
X148508Y166114D01*
X147671D01*
X147424Y166614D01*
X147825Y167136D01*
X148243Y168145D01*
X148385Y169228D01*
Y172772D01*
X148243Y173855D01*
X147825Y174864D01*
X147160Y175731D01*
X146293Y176396D01*
X145283Y176814D01*
X144200Y176957D01*
X143117Y176814D01*
X142107Y176396D01*
X141241Y175731D01*
X140575Y174864D01*
X140157Y173855D01*
X140015Y172772D01*
Y169228D01*
X140157Y168145D01*
X140575Y167136D01*
X140976Y166614D01*
X140729Y166114D01*
X137671D01*
X137424Y166614D01*
X137825Y167136D01*
X138243Y168145D01*
X138385Y169228D01*
Y172772D01*
X138243Y173855D01*
X137825Y174864D01*
X137160Y175731D01*
X136293Y176396D01*
X135283Y176814D01*
X134200Y176957D01*
X133117Y176814D01*
X132107Y176396D01*
X131240Y175731D01*
X130575Y174864D01*
X130157Y173855D01*
X130021Y172822D01*
X128350D01*
Y176921D01*
X120050D01*
Y166114D01*
X98309D01*
X97134Y167289D01*
X96543Y167684D01*
X95846Y167822D01*
X95846Y167822D01*
X54394D01*
X54147Y168322D01*
X54596Y168907D01*
X55014Y169917D01*
X55091Y170500D01*
X49200D01*
Y171000D01*
X48700D01*
Y175185D01*
X47428D01*
X46345Y175043D01*
X45336Y174625D01*
X44814Y174224D01*
X44314Y174471D01*
Y177529D01*
X44814Y177776D01*
X45336Y177375D01*
X46345Y176957D01*
X47428Y176815D01*
X48700D01*
Y181000D01*
Y185185D01*
X47428D01*
X46345Y185043D01*
X45336Y184625D01*
X44814Y184224D01*
X44314Y184471D01*
Y185308D01*
X46075Y187069D01*
X46345Y186957D01*
X47428Y186815D01*
X50972D01*
X52055Y186957D01*
X53064Y187375D01*
X53931Y188040D01*
X54596Y188907D01*
X55014Y189917D01*
X55157Y191000D01*
X55014Y192083D01*
X54596Y193093D01*
X53931Y193959D01*
X53064Y194625D01*
X52055Y195043D01*
X50972Y195185D01*
X47428D01*
X46345Y195043D01*
X45336Y194625D01*
X44469Y193959D01*
X43804Y193093D01*
X43385Y192083D01*
X43243Y191000D01*
X43385Y189917D01*
X43497Y189646D01*
X42200Y188349D01*
X41738Y188540D01*
Y220505D01*
X42200Y220697D01*
X43672Y219224D01*
X43804Y218907D01*
X44469Y218040D01*
X45336Y217375D01*
X46345Y216957D01*
X47428Y216815D01*
X49563D01*
X50692Y215685D01*
X50485Y215185D01*
X47428D01*
X46345Y215043D01*
X45336Y214625D01*
X44469Y213960D01*
X43804Y213093D01*
X43385Y212083D01*
X43243Y211000D01*
X43385Y209917D01*
X43804Y208907D01*
X44469Y208040D01*
X45336Y207375D01*
X46345Y206957D01*
X47428Y206815D01*
X50972D01*
X52055Y206957D01*
X53064Y207375D01*
X53931Y208040D01*
X54596Y208907D01*
X55014Y209917D01*
X55101Y210570D01*
X55628Y210749D01*
X65138Y201240D01*
Y191936D01*
X65015Y191000D01*
X65157Y189917D01*
X65575Y188907D01*
X66241Y188040D01*
X67107Y187375D01*
X68117Y186957D01*
X69200Y186815D01*
X70283Y186957D01*
X70418Y187013D01*
X102982D01*
X103117Y186957D01*
X104200Y186815D01*
X105283Y186957D01*
X105600Y187089D01*
X114275D01*
X114275Y187088D01*
X115307Y187224D01*
X116269Y187623D01*
X117095Y188256D01*
X123918Y195080D01*
X124200Y195043D01*
X125283Y195185D01*
X126293Y195604D01*
X127160Y196269D01*
X127825Y197136D01*
X128243Y198145D01*
X128385Y199228D01*
Y202772D01*
X128243Y203855D01*
X127825Y204864D01*
X127424Y205386D01*
X127671Y205886D01*
X130729D01*
X130976Y205386D01*
X130575Y204864D01*
X130157Y203855D01*
X130015Y202772D01*
Y201500D01*
X134200D01*
X138385D01*
Y202772D01*
X138243Y203855D01*
X137825Y204864D01*
X137424Y205386D01*
X137671Y205886D01*
X140729D01*
X140976Y205386D01*
X140575Y204864D01*
X140157Y203855D01*
X140015Y202772D01*
Y201500D01*
X144200D01*
X148385D01*
Y202772D01*
X148243Y203855D01*
X147825Y204864D01*
X147424Y205386D01*
X147671Y205886D01*
X150729D01*
X150976Y205386D01*
X150575Y204864D01*
X150157Y203855D01*
X150015Y202772D01*
Y199228D01*
X150157Y198145D01*
X150575Y197136D01*
X151241Y196269D01*
X152107Y195604D01*
X153117Y195185D01*
X154200Y195043D01*
X155283Y195185D01*
X156293Y195604D01*
X157159Y196269D01*
X157825Y197136D01*
X158243Y198145D01*
X158385Y199228D01*
Y202772D01*
X158243Y203855D01*
X157825Y204864D01*
X157424Y205386D01*
X157671Y205886D01*
X160729D01*
X160976Y205386D01*
X160575Y204864D01*
X160157Y203855D01*
X160015Y202772D01*
Y201500D01*
X164200D01*
X168385D01*
Y202772D01*
X168243Y203855D01*
X167825Y204864D01*
X167424Y205386D01*
X167671Y205886D01*
X170729D01*
X170976Y205386D01*
X170575Y204864D01*
X170157Y203855D01*
X170015Y202772D01*
Y201500D01*
X174200D01*
X178385D01*
Y202772D01*
X178243Y203855D01*
X177825Y204864D01*
X177424Y205386D01*
X177671Y205886D01*
X180729D01*
X180976Y205386D01*
X180575Y204864D01*
X180157Y203855D01*
X180015Y202772D01*
Y199228D01*
X180157Y198145D01*
X180575Y197136D01*
X181240Y196269D01*
X182107Y195604D01*
X183117Y195185D01*
X184200Y195043D01*
X185283Y195185D01*
X186293Y195604D01*
X187160Y196269D01*
X187825Y197136D01*
X188243Y198145D01*
X188385Y199228D01*
Y202772D01*
X188243Y203855D01*
X187825Y204864D01*
X187424Y205386D01*
X187671Y205886D01*
X204662D01*
X204662Y205886D01*
X205360Y206025D01*
X205951Y206420D01*
X210552Y211021D01*
X210552Y211021D01*
X210667Y211194D01*
X211185Y211262D01*
X211292Y211229D01*
X212107Y210604D01*
X213117Y210186D01*
X214200Y210043D01*
X215283Y210186D01*
X216293Y210604D01*
X217160Y211269D01*
X217825Y212136D01*
X218243Y213145D01*
X218385Y214228D01*
Y217772D01*
X218243Y218855D01*
X217825Y219864D01*
X217160Y220731D01*
X216293Y221396D01*
X215283Y221814D01*
X214200Y221957D01*
X213117Y221814D01*
X212107Y221396D01*
X211872Y221216D01*
X211314Y221418D01*
X211251Y221694D01*
X211503Y222072D01*
X211687Y223000D01*
X211503Y223928D01*
X210977Y224714D01*
X210191Y225240D01*
X209263Y225425D01*
X208335Y225240D01*
X207549Y224714D01*
X207023Y223928D01*
X206838Y223000D01*
X207023Y222072D01*
X207337Y221602D01*
X207267Y221258D01*
X206750Y221046D01*
X206293Y221396D01*
X205283Y221814D01*
X204200Y221957D01*
X203117Y221814D01*
X202107Y221396D01*
X201240Y220731D01*
X200575Y219864D01*
X200157Y218855D01*
X200015Y217772D01*
Y214228D01*
X200157Y213145D01*
X200575Y212136D01*
X201240Y211269D01*
X202107Y210604D01*
X203117Y210186D01*
X203273Y210165D01*
X203505Y209630D01*
X203434Y209531D01*
X108893D01*
X108195Y209392D01*
X107604Y208997D01*
X107604Y208997D01*
X99410Y200803D01*
X86272D01*
X85718Y201173D01*
X85549Y201710D01*
X86944Y203105D01*
X86944Y203105D01*
X87577Y203931D01*
X87976Y204893D01*
X88112Y205925D01*
Y212828D01*
X88243Y213145D01*
X88385Y214228D01*
Y217772D01*
X88243Y218855D01*
X87825Y219864D01*
X87160Y220731D01*
X86293Y221396D01*
X85283Y221814D01*
X84200Y221957D01*
X83117Y221814D01*
X82107Y221396D01*
X81240Y220731D01*
X80575Y219864D01*
X80157Y218855D01*
X80015Y217772D01*
Y214228D01*
X80138Y213292D01*
Y207576D01*
X73573Y201012D01*
X73111Y201203D01*
Y202891D01*
X72976Y203923D01*
X72577Y204885D01*
X71944Y205710D01*
X71944Y205710D01*
X54621Y223033D01*
X54596Y223093D01*
X53931Y223959D01*
X53064Y224625D01*
X52055Y225043D01*
X50972Y225185D01*
X48988D01*
X43262Y230911D01*
Y232013D01*
X82700D01*
X82700Y232013D01*
X83732Y232149D01*
X84693Y232547D01*
X85354Y233054D01*
X85894Y232906D01*
X85960Y232572D01*
X86486Y231786D01*
X87179Y231322D01*
X87109Y230857D01*
X87096Y230822D01*
X75753D01*
X75128Y231240D01*
X74200Y231424D01*
X73272Y231240D01*
X72486Y230714D01*
X71960Y229928D01*
X71776Y229000D01*
X71960Y228072D01*
X72461Y227322D01*
X72354Y226852D01*
X72345Y226822D01*
X70763D01*
X70676Y226953D01*
X69890Y227478D01*
X68962Y227663D01*
X68034Y227478D01*
X67247Y226953D01*
X66722Y226166D01*
X66537Y225238D01*
X66722Y224310D01*
X67247Y223524D01*
X68034Y222998D01*
X68962Y222814D01*
X69890Y222998D01*
X70158Y223178D01*
X111647D01*
X112272Y222760D01*
X113200Y222575D01*
X114128Y222760D01*
X114914Y223286D01*
X115440Y224072D01*
X115624Y225000D01*
X115440Y225928D01*
X115217Y226261D01*
X115518Y226711D01*
X116200Y226575D01*
X117128Y226760D01*
X117914Y227286D01*
X118440Y228072D01*
X118624Y229000D01*
X118440Y229928D01*
X117914Y230714D01*
X117898Y230725D01*
X118094Y231196D01*
X118700Y231076D01*
X119628Y231260D01*
X120414Y231786D01*
X120940Y232572D01*
X121124Y233500D01*
X120940Y234428D01*
X120414Y235214D01*
X119628Y235740D01*
X118700Y235925D01*
X117772Y235740D01*
X117147Y235322D01*
X89753D01*
X89128Y235740D01*
X88773Y235811D01*
X88627Y236289D01*
X96382Y244044D01*
X97026Y243981D01*
X97320Y243540D01*
X98107Y243014D01*
X99035Y242830D01*
X99963Y243014D01*
X100749Y243540D01*
X101275Y244327D01*
X101459Y245254D01*
X101432Y245394D01*
X102309Y246271D01*
X102309Y246271D01*
X102704Y246863D01*
X102843Y247560D01*
X102843Y247560D01*
Y249132D01*
X102889Y249178D01*
X125021D01*
X125157Y248145D01*
X125575Y247136D01*
X126241Y246269D01*
X127107Y245604D01*
X128117Y245185D01*
X129200Y245043D01*
X130283Y245185D01*
X131293Y245604D01*
X132159Y246269D01*
X132825Y247136D01*
X133243Y248145D01*
X133385Y249228D01*
Y252772D01*
X133243Y253855D01*
X132825Y254864D01*
X132159Y255731D01*
X131293Y256396D01*
X131011Y256513D01*
X131110Y257013D01*
X137290D01*
X137389Y256513D01*
X137107Y256396D01*
X136240Y255731D01*
X135575Y254864D01*
X135157Y253855D01*
X135015Y252772D01*
Y249228D01*
X135157Y248145D01*
X135575Y247136D01*
X136240Y246269D01*
X137107Y245604D01*
X138117Y245185D01*
X139200Y245043D01*
X140283Y245185D01*
X141293Y245604D01*
X142159Y246269D01*
X142825Y247136D01*
X143243Y248145D01*
X143385Y249228D01*
Y252772D01*
X143243Y253855D01*
X142825Y254864D01*
X142159Y255731D01*
X141293Y256396D01*
X141011Y256513D01*
X141110Y257013D01*
X147290D01*
X147389Y256513D01*
X147107Y256396D01*
X146240Y255731D01*
X145575Y254864D01*
X145157Y253855D01*
X145015Y252772D01*
Y249228D01*
X145157Y248145D01*
X145575Y247136D01*
X146240Y246269D01*
X147107Y245604D01*
X148117Y245185D01*
X149200Y245043D01*
X150283Y245185D01*
X151293Y245604D01*
X152160Y246269D01*
X152825Y247136D01*
X153243Y248145D01*
X153385Y249228D01*
Y252772D01*
X153243Y253855D01*
X152825Y254864D01*
X152160Y255731D01*
X151293Y256396D01*
X151011Y256513D01*
X151110Y257013D01*
X157290D01*
X157389Y256513D01*
X157107Y256396D01*
X156240Y255731D01*
X155575Y254864D01*
X155157Y253855D01*
X155015Y252772D01*
Y249228D01*
X155157Y248145D01*
X155575Y247136D01*
X156240Y246269D01*
X157107Y245604D01*
X158117Y245185D01*
X159200Y245043D01*
X160283Y245185D01*
X161293Y245604D01*
X162160Y246269D01*
X162825Y247136D01*
X163243Y248145D01*
X163385Y249228D01*
Y252772D01*
X163243Y253855D01*
X162825Y254864D01*
X162160Y255731D01*
X161293Y256396D01*
X161011Y256513D01*
X161110Y257013D01*
X167290D01*
X167389Y256513D01*
X167107Y256396D01*
X166241Y255731D01*
X165575Y254864D01*
X165157Y253855D01*
X165015Y252772D01*
Y249228D01*
X165157Y248145D01*
X165575Y247136D01*
X166241Y246269D01*
X167107Y245604D01*
X168117Y245185D01*
X169200Y245043D01*
X170283Y245185D01*
X171293Y245604D01*
X172160Y246269D01*
X172825Y247136D01*
X173243Y248145D01*
X173385Y249228D01*
Y252772D01*
X173243Y253855D01*
X172825Y254864D01*
X172160Y255731D01*
X171293Y256396D01*
X171011Y256513D01*
X171110Y257013D01*
X177290D01*
X177389Y256513D01*
X177107Y256396D01*
X176241Y255731D01*
X175575Y254864D01*
X175157Y253855D01*
X175015Y252772D01*
Y249228D01*
X175157Y248145D01*
X175575Y247136D01*
X176241Y246269D01*
X177107Y245604D01*
X178117Y245185D01*
X179200Y245043D01*
X180283Y245185D01*
X181293Y245604D01*
X182159Y246269D01*
X182825Y247136D01*
X183243Y248145D01*
X183385Y249228D01*
Y252772D01*
X183243Y253855D01*
X182825Y254864D01*
X182159Y255731D01*
X181293Y256396D01*
X181011Y256513D01*
X181110Y257013D01*
X187290D01*
X187389Y256513D01*
X187107Y256396D01*
X186240Y255731D01*
X185575Y254864D01*
X185157Y253855D01*
X185015Y252772D01*
Y249228D01*
X185157Y248145D01*
X185575Y247136D01*
X186240Y246269D01*
X187107Y245604D01*
X188117Y245185D01*
X189200Y245043D01*
X190283Y245185D01*
X191293Y245604D01*
X192159Y246269D01*
X192825Y247136D01*
X193243Y248145D01*
X193385Y249228D01*
Y252772D01*
X193243Y253855D01*
X192825Y254864D01*
X192159Y255731D01*
X191293Y256396D01*
X191011Y256513D01*
X191110Y257013D01*
X197257D01*
X197448Y256551D01*
X197424Y256528D01*
X197107Y256396D01*
X196240Y255731D01*
X195575Y254864D01*
X195157Y253855D01*
X195015Y252772D01*
Y249228D01*
X195157Y248145D01*
X195575Y247136D01*
X196240Y246269D01*
X197107Y245604D01*
X198117Y245185D01*
X199200Y245043D01*
X200283Y245185D01*
X201293Y245604D01*
X202160Y246269D01*
X202825Y247136D01*
X203243Y248145D01*
X203385Y249228D01*
Y251212D01*
X209111Y256938D01*
X213264D01*
X214200Y256815D01*
X215283Y256957D01*
X216293Y257375D01*
X217160Y258040D01*
X217825Y258907D01*
X218243Y259917D01*
X218385Y261000D01*
X218243Y262083D01*
X217825Y263093D01*
X217160Y263960D01*
X216293Y264625D01*
X215283Y265043D01*
X214200Y265185D01*
X213117Y265043D01*
X212800Y264912D01*
X208032D01*
X207460Y264987D01*
X95418D01*
X95283Y265043D01*
X94200Y265185D01*
X93117Y265043D01*
X92800Y264912D01*
X87460D01*
X87460Y264912D01*
X86428Y264776D01*
X85466Y264377D01*
X84640Y263744D01*
X84640Y263744D01*
X77424Y256528D01*
X77107Y256396D01*
X76240Y255731D01*
X75575Y254864D01*
X75157Y253855D01*
X75015Y252772D01*
Y249228D01*
X75157Y248145D01*
X75575Y247136D01*
X76240Y246269D01*
X77107Y245604D01*
X78117Y245185D01*
X79200Y245043D01*
X80283Y245185D01*
X81293Y245604D01*
X82160Y246269D01*
X82825Y247136D01*
X83243Y248145D01*
X83385Y249228D01*
Y251212D01*
X89111Y256938D01*
X90213D01*
Y249151D01*
X81049Y239987D01*
X40418D01*
X40283Y240043D01*
X39200Y240185D01*
X38117Y240043D01*
X37107Y239625D01*
X36241Y238960D01*
X35575Y238093D01*
X35157Y237083D01*
X35015Y236000D01*
X35157Y234917D01*
X35289Y234600D01*
Y230986D01*
X34932Y230630D01*
X34299Y229804D01*
X33900Y228843D01*
X33764Y227811D01*
X33764Y227811D01*
Y166992D01*
X33764Y166992D01*
X33900Y165960D01*
X34299Y164998D01*
X34932Y164172D01*
X35213Y163891D01*
Y147218D01*
X35157Y147083D01*
X35015Y146000D01*
X35157Y144917D01*
X35213Y144782D01*
Y57651D01*
X30142Y52580D01*
X30073Y52571D01*
X29016Y52133D01*
X28108Y51437D01*
X27411Y50529D01*
X26973Y49471D01*
X26840Y48458D01*
X26379Y48211D01*
X22136Y52454D01*
X21545Y52849D01*
X20848Y52988D01*
X20848Y52988D01*
X20789D01*
X19087Y54691D01*
X18940Y55428D01*
X18414Y56214D01*
X17628Y56740D01*
X16874Y56890D01*
X16666Y57389D01*
X18955Y59678D01*
X25647D01*
X26272Y59260D01*
X27200Y59075D01*
X28128Y59260D01*
X28914Y59786D01*
X29440Y60572D01*
X29625Y61500D01*
X29440Y62428D01*
X28914Y63214D01*
X28128Y63740D01*
X27200Y63924D01*
X26272Y63740D01*
X25647Y63322D01*
X18200D01*
X18200Y63322D01*
X17503Y63184D01*
X16911Y62789D01*
X16911Y62789D01*
X11911Y57789D01*
X11516Y57197D01*
X11378Y56500D01*
X11378Y56500D01*
Y49000D01*
X11378Y49000D01*
X11516Y48303D01*
X11911Y47711D01*
X17378Y42245D01*
Y30805D01*
X17232D01*
X16456Y30703D01*
X15734Y30404D01*
X15114Y29928D01*
X14638Y29308D01*
X14471Y28903D01*
X13929D01*
X13761Y29308D01*
X13286Y29928D01*
X12666Y30404D01*
X11943Y30703D01*
X11169Y30805D01*
X9700D01*
Y16000D01*
X9200D01*
Y15500D01*
X4237D01*
Y4189D01*
X4339Y3414D01*
X4639Y2692D01*
X5114Y2072D01*
X5734Y1596D01*
X5919Y1519D01*
X5819Y1020D01*
X4878D01*
X4051Y1184D01*
X3272Y1507D01*
X2571Y1975D01*
X1975Y2571D01*
X1507Y3272D01*
X1184Y4051D01*
X1020Y4878D01*
Y5300D01*
X1020Y340700D01*
X1020Y341122D01*
X1184Y341949D01*
X1507Y342727D01*
X1975Y343429D01*
X2571Y344025D01*
X3272Y344493D01*
X4051Y344816D01*
X4878Y344981D01*
X5300Y344981D01*
X139200Y344981D01*
X223100D01*
X223100Y344981D01*
X223100Y344981D01*
X223522Y344981D01*
X224348Y344816D01*
D02*
G37*
G36*
X127389Y256513D02*
X127107Y256396D01*
X126241Y255731D01*
X125575Y254864D01*
X125157Y253855D01*
X125021Y252822D01*
X117804D01*
X117536Y253322D01*
X117754Y253649D01*
X117824Y254000D01*
X113576D01*
X113646Y253649D01*
X113864Y253322D01*
X113596Y252822D01*
X102134D01*
X102134Y252822D01*
X101437Y252684D01*
X100846Y252289D01*
X100846Y252289D01*
X99732Y251175D01*
X99337Y250584D01*
X99198Y249886D01*
X99198Y249886D01*
Y248315D01*
X98687Y247803D01*
X98187Y248011D01*
Y257013D01*
X114704D01*
X114787Y256751D01*
X114787Y256513D01*
X114128Y256072D01*
X113646Y255351D01*
X113576Y255000D01*
X117824D01*
X117754Y255351D01*
X117272Y256072D01*
X116613Y256513D01*
X116613Y256751D01*
X116696Y257013D01*
X127290D01*
X127389Y256513D01*
D02*
G37*
G36*
X65138Y111240D02*
Y106936D01*
X65015Y106000D01*
X65157Y104917D01*
X65575Y103907D01*
X66211Y103078D01*
X66238Y103014D01*
X66180Y102456D01*
X65929Y102289D01*
X65929Y102289D01*
X62974Y99334D01*
X62579Y98742D01*
X62441Y98045D01*
X62441Y98045D01*
Y64911D01*
X62441Y64911D01*
X62579Y64214D01*
X62974Y63622D01*
X69777Y56819D01*
X69531Y56359D01*
X69200Y56424D01*
X68272Y56240D01*
X67647Y55822D01*
X57048D01*
X56350Y55684D01*
X55759Y55289D01*
X55759Y55289D01*
X54008Y53538D01*
X53547Y53729D01*
Y59847D01*
X51022D01*
Y61492D01*
X57197Y67666D01*
X57197Y67666D01*
X57592Y68258D01*
X57731Y68955D01*
X57731Y68955D01*
Y96063D01*
X57731Y96063D01*
X57592Y96760D01*
X57197Y97352D01*
X57197Y97352D01*
X54902Y99647D01*
X55014Y99917D01*
X55157Y101000D01*
X55014Y102083D01*
X54596Y103093D01*
X53931Y103960D01*
X53064Y104625D01*
X52055Y105043D01*
X50972Y105185D01*
X47428D01*
X46345Y105043D01*
X45336Y104625D01*
X44469Y103960D01*
X43804Y103093D01*
X43687Y102811D01*
X43187Y102910D01*
Y109090D01*
X43687Y109189D01*
X43804Y108907D01*
X44469Y108040D01*
X45336Y107375D01*
X46345Y106957D01*
X47428Y106815D01*
X50972D01*
X52055Y106957D01*
X53064Y107375D01*
X53931Y108040D01*
X54596Y108907D01*
X55014Y109917D01*
X55157Y111000D01*
X55014Y112083D01*
X54596Y113093D01*
X53931Y113960D01*
X53064Y114625D01*
X52055Y115043D01*
X50972Y115185D01*
X47428D01*
X46345Y115043D01*
X45336Y114625D01*
X44469Y113960D01*
X43804Y113093D01*
X43687Y112811D01*
X43187Y112910D01*
Y119090D01*
X43687Y119189D01*
X43804Y118907D01*
X44469Y118041D01*
X45336Y117375D01*
X46345Y116957D01*
X47428Y116815D01*
X50972D01*
X52055Y116957D01*
X53064Y117375D01*
X53931Y118041D01*
X54596Y118907D01*
X55014Y119917D01*
X55101Y120570D01*
X55628Y120749D01*
X65138Y111240D01*
D02*
G37*
G36*
X81878Y44719D02*
Y34313D01*
X81478Y33715D01*
X81360Y33700D01*
X80962Y33748D01*
X80884Y34142D01*
X80489Y34733D01*
X80489Y34733D01*
X78380Y36841D01*
X77789Y37236D01*
X77092Y37375D01*
X77092Y37375D01*
X70902D01*
X68022Y40255D01*
Y49500D01*
X67884Y50197D01*
X67489Y50789D01*
X67489Y50789D01*
X66562Y51716D01*
X66753Y52178D01*
X67647D01*
X68272Y51760D01*
X69200Y51575D01*
X70128Y51760D01*
X70914Y52286D01*
X71440Y53072D01*
X71624Y54000D01*
X71559Y54331D01*
X72019Y54577D01*
X81878Y44719D01*
D02*
G37*
G36*
X43804Y68907D02*
X44469Y68041D01*
X45336Y67375D01*
X46345Y66957D01*
X47428Y66815D01*
X50484D01*
X50691Y66315D01*
X47911Y63535D01*
X47516Y62944D01*
X47378Y62246D01*
X47378Y62246D01*
Y59847D01*
X44854D01*
Y51154D01*
X47623D01*
X47814Y50692D01*
X39907Y42784D01*
X39200Y42924D01*
X38802Y42845D01*
X38639Y43008D01*
X36700D01*
Y41061D01*
X36856Y40905D01*
X36775Y40500D01*
X36960Y39572D01*
X37486Y38786D01*
X38272Y38260D01*
X39200Y38076D01*
X40128Y38260D01*
X40914Y38786D01*
X40965Y38862D01*
X41489Y39211D01*
X50821Y48544D01*
X51302D01*
X51591Y48134D01*
X51575Y48044D01*
X51393Y47128D01*
X51577Y46200D01*
X52103Y45414D01*
X52890Y44888D01*
X53320Y44802D01*
X53426Y44272D01*
X53127Y44072D01*
X52645Y43351D01*
X52576Y43000D01*
X54700D01*
Y42500D01*
X55200D01*
Y40376D01*
X55551Y40445D01*
X56273Y40927D01*
X56378Y41085D01*
X56878Y40933D01*
Y30759D01*
X56457Y30703D01*
X55734Y30404D01*
X55114Y29928D01*
X54638Y29308D01*
X54471Y28903D01*
X53929D01*
X53762Y29308D01*
X53336Y29862D01*
X53413Y30091D01*
X53592Y30321D01*
X53817Y30276D01*
X54668Y30445D01*
X55390Y30928D01*
X55872Y31649D01*
X55942Y32000D01*
X51693D01*
X51763Y31649D01*
X52086Y31165D01*
X52069Y31108D01*
X51779Y30725D01*
X51169Y30805D01*
X51022D01*
Y31500D01*
X51022Y31500D01*
X50884Y32197D01*
X50489Y32789D01*
X50489Y32789D01*
X46989Y36289D01*
X46397Y36684D01*
X45700Y36822D01*
X45700Y36822D01*
X37768D01*
X31082Y43508D01*
X31329Y43968D01*
X32342Y44102D01*
X33400Y44540D01*
X33944Y44957D01*
X34314Y44611D01*
X34145Y44359D01*
X34076Y44008D01*
X35700D01*
Y45632D01*
X35349Y45562D01*
X35019Y45342D01*
X34672Y45712D01*
X35004Y46145D01*
X35020Y46181D01*
X42019Y53181D01*
X42653Y54007D01*
X43051Y54968D01*
X43187Y56000D01*
X43187Y56000D01*
Y69090D01*
X43687Y69189D01*
X43804Y68907D01*
D02*
G37*
G36*
X135065Y35786D02*
X134747Y35397D01*
X134551Y35528D01*
X134200Y35598D01*
Y33474D01*
X133200D01*
Y35598D01*
X132849Y35528D01*
X132127Y35046D01*
X131646Y34324D01*
X131522Y33706D01*
X131022Y33755D01*
Y34500D01*
X130884Y35197D01*
X130489Y35789D01*
X130489Y35789D01*
X120040Y46237D01*
X120180Y46447D01*
X120364Y47375D01*
X120180Y48303D01*
X119654Y49090D01*
X118868Y49615D01*
X117940Y49800D01*
X117012Y49615D01*
X116226Y49090D01*
X115700Y48303D01*
X115515Y47375D01*
X115610Y46898D01*
X115150Y46651D01*
X114357Y47444D01*
Y53247D01*
X114414Y53286D01*
X114940Y54072D01*
X115124Y55000D01*
X115112Y55062D01*
X115553Y55298D01*
X135065Y35786D01*
D02*
G37*
%LPC*%
G36*
X209700Y336891D02*
Y331500D01*
X213385D01*
Y332772D01*
X213243Y333855D01*
X212825Y334864D01*
X212159Y335731D01*
X211293Y336396D01*
X210283Y336814D01*
X209700Y336891D01*
D02*
G37*
G36*
X208700D02*
X208117Y336814D01*
X207107Y336396D01*
X206241Y335731D01*
X205575Y334864D01*
X205157Y333855D01*
X205015Y332772D01*
Y331500D01*
X208700D01*
Y336891D01*
D02*
G37*
G36*
X199700D02*
Y331500D01*
X203385D01*
Y332772D01*
X203243Y333855D01*
X202825Y334864D01*
X202160Y335731D01*
X201293Y336396D01*
X200283Y336814D01*
X199700Y336891D01*
D02*
G37*
G36*
X198700D02*
X198117Y336814D01*
X197107Y336396D01*
X196240Y335731D01*
X195575Y334864D01*
X195157Y333855D01*
X195015Y332772D01*
Y331500D01*
X198700D01*
Y336891D01*
D02*
G37*
G36*
X189700D02*
Y331500D01*
X193385D01*
Y332772D01*
X193243Y333855D01*
X192825Y334864D01*
X192159Y335731D01*
X191293Y336396D01*
X190283Y336814D01*
X189700Y336891D01*
D02*
G37*
G36*
X188700D02*
X188117Y336814D01*
X187107Y336396D01*
X186240Y335731D01*
X185575Y334864D01*
X185157Y333855D01*
X185015Y332772D01*
Y331500D01*
X188700D01*
Y336891D01*
D02*
G37*
G36*
X179700D02*
Y331500D01*
X183385D01*
Y332772D01*
X183243Y333855D01*
X182825Y334864D01*
X182159Y335731D01*
X181293Y336396D01*
X180283Y336814D01*
X179700Y336891D01*
D02*
G37*
G36*
X178700D02*
X178117Y336814D01*
X177107Y336396D01*
X176241Y335731D01*
X175575Y334864D01*
X175157Y333855D01*
X175015Y332772D01*
Y331500D01*
X178700D01*
Y336891D01*
D02*
G37*
G36*
X169700D02*
Y331500D01*
X173385D01*
Y332772D01*
X173243Y333855D01*
X172825Y334864D01*
X172160Y335731D01*
X171293Y336396D01*
X170283Y336814D01*
X169700Y336891D01*
D02*
G37*
G36*
X168700D02*
X168117Y336814D01*
X167107Y336396D01*
X166241Y335731D01*
X165575Y334864D01*
X165157Y333855D01*
X165015Y332772D01*
Y331500D01*
X168700D01*
Y336891D01*
D02*
G37*
G36*
X159700D02*
Y331500D01*
X163385D01*
Y332772D01*
X163243Y333855D01*
X162825Y334864D01*
X162160Y335731D01*
X161293Y336396D01*
X160283Y336814D01*
X159700Y336891D01*
D02*
G37*
G36*
X158700D02*
X158117Y336814D01*
X157107Y336396D01*
X156240Y335731D01*
X155575Y334864D01*
X155157Y333855D01*
X155015Y332772D01*
Y331500D01*
X158700D01*
Y336891D01*
D02*
G37*
G36*
X149700D02*
Y331500D01*
X153385D01*
Y332772D01*
X153243Y333855D01*
X152825Y334864D01*
X152160Y335731D01*
X151293Y336396D01*
X150283Y336814D01*
X149700Y336891D01*
D02*
G37*
G36*
X148700D02*
X148117Y336814D01*
X147107Y336396D01*
X146240Y335731D01*
X145575Y334864D01*
X145157Y333855D01*
X145015Y332772D01*
Y331500D01*
X148700D01*
Y336891D01*
D02*
G37*
G36*
X139700D02*
Y331500D01*
X143385D01*
Y332772D01*
X143243Y333855D01*
X142825Y334864D01*
X142159Y335731D01*
X141293Y336396D01*
X140283Y336814D01*
X139700Y336891D01*
D02*
G37*
G36*
X138700D02*
X138117Y336814D01*
X137107Y336396D01*
X136240Y335731D01*
X135575Y334864D01*
X135157Y333855D01*
X135015Y332772D01*
Y331500D01*
X138700D01*
Y336891D01*
D02*
G37*
G36*
X129700D02*
Y331500D01*
X133385D01*
Y332772D01*
X133243Y333855D01*
X132825Y334864D01*
X132159Y335731D01*
X131293Y336396D01*
X130283Y336814D01*
X129700Y336891D01*
D02*
G37*
G36*
X128700D02*
X128117Y336814D01*
X127107Y336396D01*
X126241Y335731D01*
X125575Y334864D01*
X125157Y333855D01*
X125015Y332772D01*
Y331500D01*
X128700D01*
Y336891D01*
D02*
G37*
G36*
X39200Y336957D02*
X38117Y336814D01*
X37107Y336396D01*
X36241Y335731D01*
X35575Y334864D01*
X35157Y333855D01*
X35015Y332772D01*
Y330637D01*
X33885Y329508D01*
X33385Y329715D01*
Y332772D01*
X33243Y333855D01*
X32825Y334864D01*
X32160Y335731D01*
X31293Y336396D01*
X30283Y336814D01*
X29200Y336957D01*
X28117Y336814D01*
X27107Y336396D01*
X26241Y335731D01*
X25575Y334864D01*
X25157Y333855D01*
X25015Y332772D01*
Y329715D01*
X24515Y329508D01*
X23385Y330637D01*
Y332772D01*
X23243Y333855D01*
X22825Y334864D01*
X22160Y335731D01*
X21293Y336396D01*
X20283Y336814D01*
X19200Y336957D01*
X18117Y336814D01*
X17107Y336396D01*
X16240Y335731D01*
X15575Y334864D01*
X15157Y333855D01*
X15015Y332772D01*
Y329228D01*
X15157Y328145D01*
X15575Y327136D01*
X16240Y326269D01*
X17107Y325604D01*
X17167Y325579D01*
X23439Y319307D01*
X23439Y319307D01*
X24265Y318673D01*
X25226Y318275D01*
X26258Y318139D01*
X32142D01*
X32142Y318139D01*
X33174Y318275D01*
X34135Y318673D01*
X34961Y319307D01*
X41233Y325579D01*
X41293Y325604D01*
X42160Y326269D01*
X42825Y327136D01*
X43243Y328145D01*
X43385Y329228D01*
Y332772D01*
X43243Y333855D01*
X42825Y334864D01*
X42160Y335731D01*
X41293Y336396D01*
X40283Y336814D01*
X39200Y336957D01*
D02*
G37*
G36*
X213385Y330500D02*
X209700D01*
Y325109D01*
X210283Y325185D01*
X211293Y325604D01*
X212159Y326269D01*
X212825Y327136D01*
X213243Y328145D01*
X213385Y329228D01*
Y330500D01*
D02*
G37*
G36*
X208700D02*
X205015D01*
Y329228D01*
X205157Y328145D01*
X205575Y327136D01*
X206241Y326269D01*
X207107Y325604D01*
X208117Y325185D01*
X208700Y325109D01*
Y330500D01*
D02*
G37*
G36*
X203385D02*
X199700D01*
Y325109D01*
X200283Y325185D01*
X201293Y325604D01*
X202160Y326269D01*
X202825Y327136D01*
X203243Y328145D01*
X203385Y329228D01*
Y330500D01*
D02*
G37*
G36*
X198700D02*
X195015D01*
Y329228D01*
X195157Y328145D01*
X195575Y327136D01*
X196240Y326269D01*
X197107Y325604D01*
X198117Y325185D01*
X198700Y325109D01*
Y330500D01*
D02*
G37*
G36*
X193385D02*
X189700D01*
Y325109D01*
X190283Y325185D01*
X191293Y325604D01*
X192159Y326269D01*
X192825Y327136D01*
X193243Y328145D01*
X193385Y329228D01*
Y330500D01*
D02*
G37*
G36*
X188700D02*
X185015D01*
Y329228D01*
X185157Y328145D01*
X185575Y327136D01*
X186240Y326269D01*
X187107Y325604D01*
X188117Y325185D01*
X188700Y325109D01*
Y330500D01*
D02*
G37*
G36*
X183385D02*
X179700D01*
Y325109D01*
X180283Y325185D01*
X181293Y325604D01*
X182159Y326269D01*
X182825Y327136D01*
X183243Y328145D01*
X183385Y329228D01*
Y330500D01*
D02*
G37*
G36*
X178700D02*
X175015D01*
Y329228D01*
X175157Y328145D01*
X175575Y327136D01*
X176241Y326269D01*
X177107Y325604D01*
X178117Y325185D01*
X178700Y325109D01*
Y330500D01*
D02*
G37*
G36*
X173385D02*
X169700D01*
Y325109D01*
X170283Y325185D01*
X171293Y325604D01*
X172160Y326269D01*
X172825Y327136D01*
X173243Y328145D01*
X173385Y329228D01*
Y330500D01*
D02*
G37*
G36*
X168700D02*
X165015D01*
Y329228D01*
X165157Y328145D01*
X165575Y327136D01*
X166241Y326269D01*
X167107Y325604D01*
X168117Y325185D01*
X168700Y325109D01*
Y330500D01*
D02*
G37*
G36*
X163385D02*
X159700D01*
Y325109D01*
X160283Y325185D01*
X161293Y325604D01*
X162160Y326269D01*
X162825Y327136D01*
X163243Y328145D01*
X163385Y329228D01*
Y330500D01*
D02*
G37*
G36*
X158700D02*
X155015D01*
Y329228D01*
X155157Y328145D01*
X155575Y327136D01*
X156240Y326269D01*
X157107Y325604D01*
X158117Y325185D01*
X158700Y325109D01*
Y330500D01*
D02*
G37*
G36*
X153385D02*
X149700D01*
Y325109D01*
X150283Y325185D01*
X151293Y325604D01*
X152160Y326269D01*
X152825Y327136D01*
X153243Y328145D01*
X153385Y329228D01*
Y330500D01*
D02*
G37*
G36*
X148700D02*
X145015D01*
Y329228D01*
X145157Y328145D01*
X145575Y327136D01*
X146240Y326269D01*
X147107Y325604D01*
X148117Y325185D01*
X148700Y325109D01*
Y330500D01*
D02*
G37*
G36*
X143385D02*
X139700D01*
Y325109D01*
X140283Y325185D01*
X141293Y325604D01*
X142159Y326269D01*
X142825Y327136D01*
X143243Y328145D01*
X143385Y329228D01*
Y330500D01*
D02*
G37*
G36*
X138700D02*
X135015D01*
Y329228D01*
X135157Y328145D01*
X135575Y327136D01*
X136240Y326269D01*
X137107Y325604D01*
X138117Y325185D01*
X138700Y325109D01*
Y330500D01*
D02*
G37*
G36*
X133385D02*
X129700D01*
Y325109D01*
X130283Y325185D01*
X131293Y325604D01*
X132159Y326269D01*
X132825Y327136D01*
X133243Y328145D01*
X133385Y329228D01*
Y330500D01*
D02*
G37*
G36*
X128700D02*
X125015D01*
Y329228D01*
X125157Y328145D01*
X125575Y327136D01*
X126241Y326269D01*
X127107Y325604D01*
X128117Y325185D01*
X128700Y325109D01*
Y330500D01*
D02*
G37*
G36*
X49200Y336957D02*
X48117Y336814D01*
X47107Y336396D01*
X46240Y335731D01*
X45575Y334864D01*
X45157Y333855D01*
X45015Y332772D01*
Y329228D01*
X45157Y328145D01*
X45575Y327136D01*
X46240Y326269D01*
X47107Y325604D01*
X48117Y325185D01*
X49200Y325043D01*
X50283Y325185D01*
X51293Y325604D01*
X52160Y326269D01*
X52825Y327136D01*
X53243Y328145D01*
X53385Y329228D01*
Y332772D01*
X53243Y333855D01*
X52825Y334864D01*
X52160Y335731D01*
X51293Y336396D01*
X50283Y336814D01*
X49200Y336957D01*
D02*
G37*
G36*
X113806Y331792D02*
X112645Y331678D01*
X111529Y331340D01*
X110501Y330790D01*
X109599Y330050D01*
X108859Y329148D01*
X108309Y328119D01*
X107971Y327003D01*
X107856Y325842D01*
X107971Y324682D01*
X108309Y323566D01*
X108859Y322537D01*
X109599Y321635D01*
X110501Y320895D01*
X111529Y320345D01*
X112645Y320007D01*
X113806Y319893D01*
X114967Y320007D01*
X116083Y320345D01*
X117112Y320895D01*
X118014Y321635D01*
X118754Y322537D01*
X119303Y323566D01*
X119642Y324682D01*
X119756Y325842D01*
X119642Y327003D01*
X119303Y328119D01*
X118754Y329148D01*
X118014Y330050D01*
X117112Y330790D01*
X116083Y331340D01*
X114967Y331678D01*
X113806Y331792D01*
D02*
G37*
G36*
X64594D02*
X63433Y331678D01*
X62317Y331340D01*
X61288Y330790D01*
X60387Y330050D01*
X59646Y329148D01*
X59097Y328119D01*
X58758Y327003D01*
X58644Y325842D01*
X58758Y324682D01*
X59097Y323566D01*
X59646Y322537D01*
X60387Y321635D01*
X61288Y320895D01*
X62317Y320345D01*
X63433Y320007D01*
X64594Y319893D01*
X65754Y320007D01*
X66871Y320345D01*
X67899Y320895D01*
X68801Y321635D01*
X69541Y322537D01*
X70091Y323566D01*
X70429Y324682D01*
X70544Y325842D01*
X70429Y327003D01*
X70091Y328119D01*
X69541Y329148D01*
X68801Y330050D01*
X67899Y330790D01*
X66871Y331340D01*
X65754Y331678D01*
X64594Y331792D01*
D02*
G37*
G36*
X19700Y314904D02*
Y313280D01*
X21324D01*
X21255Y313631D01*
X20773Y314353D01*
X20051Y314835D01*
X19700Y314904D01*
D02*
G37*
G36*
X18700D02*
X18349Y314835D01*
X17627Y314353D01*
X17145Y313631D01*
X17076Y313280D01*
X18700D01*
Y314904D01*
D02*
G37*
G36*
X21324Y312280D02*
X19700D01*
Y310656D01*
X20051Y310726D01*
X20773Y311208D01*
X21255Y311929D01*
X21324Y312280D01*
D02*
G37*
G36*
X18700D02*
X17076D01*
X17145Y311929D01*
X17627Y311208D01*
X18349Y310726D01*
X18700Y310656D01*
Y312280D01*
D02*
G37*
G36*
X53555Y309531D02*
X53555Y309531D01*
X34137D01*
X34137Y309531D01*
X33440Y309392D01*
X32848Y308997D01*
X32848Y308997D01*
X30554Y306702D01*
X30283Y306815D01*
X29200Y306957D01*
X28117Y306815D01*
X27107Y306396D01*
X26241Y305731D01*
X25575Y304864D01*
X25157Y303855D01*
X25021Y302822D01*
X23350D01*
Y306921D01*
X15050D01*
Y295079D01*
X23350D01*
Y299178D01*
X25021D01*
X25157Y298145D01*
X25575Y297136D01*
X26241Y296269D01*
X27107Y295604D01*
X28117Y295185D01*
X29200Y295043D01*
X30283Y295185D01*
X31293Y295604D01*
X32160Y296269D01*
X32825Y297136D01*
X33243Y298145D01*
X33385Y299228D01*
Y302772D01*
X33243Y303855D01*
X33131Y304125D01*
X34892Y305886D01*
X35729D01*
X35976Y305386D01*
X35575Y304864D01*
X35157Y303855D01*
X35015Y302772D01*
Y299228D01*
X35157Y298145D01*
X35575Y297136D01*
X36241Y296269D01*
X37107Y295604D01*
X38117Y295185D01*
X39200Y295043D01*
X40283Y295185D01*
X41293Y295604D01*
X42160Y296269D01*
X42825Y297136D01*
X43243Y298145D01*
X43379Y299178D01*
X45021D01*
X45157Y298145D01*
X45575Y297136D01*
X46240Y296269D01*
X47107Y295604D01*
X48117Y295185D01*
X49200Y295043D01*
X50283Y295185D01*
X51293Y295604D01*
X52160Y296269D01*
X52825Y297136D01*
X53243Y298145D01*
X53385Y299228D01*
Y302772D01*
X53243Y303855D01*
X52825Y304864D01*
X52699Y305029D01*
X52913Y305571D01*
X53087Y305599D01*
X65871Y292816D01*
X65871Y292816D01*
X66462Y292421D01*
X67159Y292282D01*
X86841D01*
X98813Y280309D01*
X98960Y279572D01*
X99486Y278786D01*
X100272Y278260D01*
X101200Y278076D01*
X102128Y278260D01*
X102914Y278786D01*
X103440Y279572D01*
X103624Y280500D01*
X103440Y281428D01*
X102914Y282214D01*
X102128Y282740D01*
X101391Y282887D01*
X88884Y295393D01*
X88293Y295788D01*
X87596Y295927D01*
X87596Y295927D01*
X67914D01*
X64053Y299788D01*
X64094Y299873D01*
Y305658D01*
X58310D01*
X58224Y305617D01*
X54844Y308997D01*
X54252Y309392D01*
X53555Y309531D01*
D02*
G37*
G36*
X114306Y312058D02*
Y306658D01*
X119707D01*
X119642Y307318D01*
X119303Y308434D01*
X118754Y309463D01*
X118014Y310365D01*
X117112Y311105D01*
X116083Y311654D01*
X114967Y311993D01*
X114306Y312058D01*
D02*
G37*
G36*
X113306D02*
X112645Y311993D01*
X111529Y311654D01*
X110501Y311105D01*
X109599Y310365D01*
X108859Y309463D01*
X108309Y308434D01*
X107971Y307318D01*
X107906Y306658D01*
X113306D01*
Y312058D01*
D02*
G37*
G36*
X65094D02*
Y306658D01*
X70494D01*
X70429Y307318D01*
X70091Y308434D01*
X69541Y309463D01*
X68801Y310365D01*
X67899Y311105D01*
X66871Y311654D01*
X65754Y311993D01*
X65094Y312058D01*
D02*
G37*
G36*
X64094D02*
X63433Y311993D01*
X62317Y311654D01*
X61288Y311105D01*
X60387Y310365D01*
X59646Y309463D01*
X59097Y308434D01*
X58758Y307318D01*
X58693Y306658D01*
X64094D01*
Y312058D01*
D02*
G37*
G36*
X219200Y336957D02*
X218117Y336814D01*
X217107Y336396D01*
X216241Y335731D01*
X215575Y334864D01*
X215157Y333855D01*
X215015Y332772D01*
Y329228D01*
X215157Y328145D01*
X215575Y327136D01*
X216241Y326269D01*
X217107Y325604D01*
X217378Y325492D01*
Y321778D01*
X202911Y307312D01*
X202516Y306720D01*
X202407Y306171D01*
X202048Y305973D01*
X201878Y305947D01*
X201293Y306396D01*
X200283Y306815D01*
X199200Y306957D01*
X198117Y306815D01*
X197107Y306396D01*
X196240Y305731D01*
X195575Y304864D01*
X195157Y303855D01*
X195015Y302772D01*
Y299228D01*
X195157Y298145D01*
X195575Y297136D01*
X196240Y296269D01*
X197107Y295604D01*
X198117Y295185D01*
X199200Y295043D01*
X200283Y295185D01*
X201293Y295604D01*
X201878Y296053D01*
X202378Y295806D01*
Y286921D01*
X195050D01*
Y275079D01*
X203350D01*
Y279620D01*
X203812Y279811D01*
X204813Y278809D01*
X204960Y278072D01*
X205486Y277286D01*
X206272Y276760D01*
X207200Y276575D01*
X208128Y276760D01*
X208914Y277286D01*
X209440Y278072D01*
X209625Y279000D01*
X209440Y279928D01*
X208914Y280714D01*
X208128Y281240D01*
X207391Y281387D01*
X206022Y282755D01*
Y295806D01*
X206522Y296053D01*
X207107Y295604D01*
X208117Y295185D01*
X209200Y295043D01*
X210283Y295185D01*
X211293Y295604D01*
X212159Y296269D01*
X212825Y297136D01*
X213243Y298145D01*
X213385Y299228D01*
Y302772D01*
X213243Y303855D01*
X212825Y304864D01*
X212159Y305731D01*
X211293Y306396D01*
X210283Y306815D01*
X209200Y306957D01*
X208300Y306839D01*
X208067Y307312D01*
X220489Y319734D01*
X220489Y319734D01*
X220884Y320326D01*
X221022Y321023D01*
Y325492D01*
X221293Y325604D01*
X222160Y326269D01*
X222825Y327136D01*
X223243Y328145D01*
X223385Y329228D01*
Y332772D01*
X223243Y333855D01*
X222825Y334864D01*
X222160Y335731D01*
X221293Y336396D01*
X220283Y336814D01*
X219200Y336957D01*
D02*
G37*
G36*
X119707Y305658D02*
X114306D01*
Y300257D01*
X114967Y300322D01*
X116083Y300660D01*
X117112Y301210D01*
X118014Y301950D01*
X118754Y302852D01*
X119303Y303881D01*
X119642Y304997D01*
X119707Y305658D01*
D02*
G37*
G36*
X113306D02*
X107906D01*
X107971Y304997D01*
X108309Y303881D01*
X108859Y302852D01*
X109599Y301950D01*
X110501Y301210D01*
X111529Y300660D01*
X112645Y300322D01*
X113306Y300257D01*
Y305658D01*
D02*
G37*
G36*
X70494D02*
X65094D01*
Y300257D01*
X65754Y300322D01*
X66871Y300660D01*
X67899Y301210D01*
X68801Y301950D01*
X69541Y302852D01*
X70091Y303881D01*
X70429Y304997D01*
X70494Y305658D01*
D02*
G37*
G36*
X133350Y306921D02*
X125050D01*
Y295079D01*
X133350D01*
Y306921D01*
D02*
G37*
G36*
X219200Y306957D02*
X218117Y306815D01*
X217107Y306396D01*
X216241Y305731D01*
X215575Y304864D01*
X215157Y303855D01*
X215015Y302772D01*
Y299228D01*
X215157Y298145D01*
X215575Y297136D01*
X216241Y296269D01*
X217107Y295604D01*
X218117Y295185D01*
X219200Y295043D01*
X220283Y295185D01*
X221293Y295604D01*
X222160Y296269D01*
X222825Y297136D01*
X223243Y298145D01*
X223385Y299228D01*
Y302772D01*
X223243Y303855D01*
X222825Y304864D01*
X222160Y305731D01*
X221293Y306396D01*
X220283Y306815D01*
X219200Y306957D01*
D02*
G37*
G36*
X189200D02*
X188117Y306815D01*
X187107Y306396D01*
X186240Y305731D01*
X185575Y304864D01*
X185157Y303855D01*
X185015Y302772D01*
Y299228D01*
X185157Y298145D01*
X185575Y297136D01*
X186240Y296269D01*
X187107Y295604D01*
X188117Y295185D01*
X189200Y295043D01*
X190283Y295185D01*
X191293Y295604D01*
X192159Y296269D01*
X192825Y297136D01*
X193243Y298145D01*
X193385Y299228D01*
Y302772D01*
X193243Y303855D01*
X192825Y304864D01*
X192159Y305731D01*
X191293Y306396D01*
X190283Y306815D01*
X189200Y306957D01*
D02*
G37*
G36*
X179200D02*
X178117Y306815D01*
X177107Y306396D01*
X176241Y305731D01*
X175575Y304864D01*
X175157Y303855D01*
X175015Y302772D01*
Y299228D01*
X175157Y298145D01*
X175575Y297136D01*
X176241Y296269D01*
X177107Y295604D01*
X178117Y295185D01*
X179200Y295043D01*
X180283Y295185D01*
X181293Y295604D01*
X182159Y296269D01*
X182825Y297136D01*
X183243Y298145D01*
X183385Y299228D01*
Y302772D01*
X183243Y303855D01*
X182825Y304864D01*
X182159Y305731D01*
X181293Y306396D01*
X180283Y306815D01*
X179200Y306957D01*
D02*
G37*
G36*
X169200D02*
X168117Y306815D01*
X167107Y306396D01*
X166241Y305731D01*
X165575Y304864D01*
X165157Y303855D01*
X165015Y302772D01*
Y299228D01*
X165157Y298145D01*
X165575Y297136D01*
X166241Y296269D01*
X167107Y295604D01*
X168117Y295185D01*
X169200Y295043D01*
X170283Y295185D01*
X171293Y295604D01*
X172160Y296269D01*
X172825Y297136D01*
X173243Y298145D01*
X173385Y299228D01*
Y302772D01*
X173243Y303855D01*
X172825Y304864D01*
X172160Y305731D01*
X171293Y306396D01*
X170283Y306815D01*
X169200Y306957D01*
D02*
G37*
G36*
X159200D02*
X158117Y306815D01*
X157107Y306396D01*
X156240Y305731D01*
X155575Y304864D01*
X155157Y303855D01*
X155015Y302772D01*
Y299228D01*
X155157Y298145D01*
X155575Y297136D01*
X156240Y296269D01*
X157107Y295604D01*
X158117Y295185D01*
X159200Y295043D01*
X160283Y295185D01*
X161293Y295604D01*
X162160Y296269D01*
X162825Y297136D01*
X163243Y298145D01*
X163385Y299228D01*
Y302772D01*
X163243Y303855D01*
X162825Y304864D01*
X162160Y305731D01*
X161293Y306396D01*
X160283Y306815D01*
X159200Y306957D01*
D02*
G37*
G36*
X149200D02*
X148117Y306815D01*
X147107Y306396D01*
X146240Y305731D01*
X145575Y304864D01*
X145157Y303855D01*
X145015Y302772D01*
Y299228D01*
X145157Y298145D01*
X145575Y297136D01*
X146240Y296269D01*
X147107Y295604D01*
X148117Y295185D01*
X149200Y295043D01*
X150283Y295185D01*
X151293Y295604D01*
X152160Y296269D01*
X152825Y297136D01*
X153243Y298145D01*
X153385Y299228D01*
Y302772D01*
X153243Y303855D01*
X152825Y304864D01*
X152160Y305731D01*
X151293Y306396D01*
X150283Y306815D01*
X149200Y306957D01*
D02*
G37*
G36*
X139200D02*
X138117Y306815D01*
X137107Y306396D01*
X136240Y305731D01*
X135575Y304864D01*
X135157Y303855D01*
X135015Y302772D01*
Y299228D01*
X135157Y298145D01*
X135575Y297136D01*
X136240Y296269D01*
X137107Y295604D01*
X138117Y295185D01*
X139200Y295043D01*
X140283Y295185D01*
X141293Y295604D01*
X142159Y296269D01*
X142825Y297136D01*
X143243Y298145D01*
X143385Y299228D01*
Y302772D01*
X143243Y303855D01*
X142825Y304864D01*
X142159Y305731D01*
X141293Y306396D01*
X140283Y306815D01*
X139200Y306957D01*
D02*
G37*
G36*
X74263Y289531D02*
X74263Y289531D01*
X54137D01*
X54137Y289531D01*
X53440Y289392D01*
X52848Y288997D01*
X52848Y288997D01*
X50554Y286702D01*
X50283Y286814D01*
X49200Y286957D01*
X48117Y286814D01*
X47107Y286396D01*
X46240Y285731D01*
X45575Y284864D01*
X45157Y283855D01*
X45015Y282772D01*
Y279228D01*
X45157Y278145D01*
X45575Y277136D01*
X46240Y276269D01*
X47107Y275604D01*
X48117Y275185D01*
X49200Y275043D01*
X50283Y275185D01*
X51293Y275604D01*
X52160Y276269D01*
X52825Y277136D01*
X53243Y278145D01*
X53385Y279228D01*
Y282772D01*
X53243Y283855D01*
X53131Y284125D01*
X54892Y285886D01*
X55729D01*
X55976Y285386D01*
X55575Y284864D01*
X55157Y283855D01*
X55015Y282772D01*
Y279228D01*
X55157Y278145D01*
X55575Y277136D01*
X56240Y276269D01*
X57107Y275604D01*
X58117Y275185D01*
X59200Y275043D01*
X60283Y275185D01*
X61293Y275604D01*
X62160Y276269D01*
X62825Y277136D01*
X63243Y278145D01*
X63379Y279178D01*
X65021D01*
X65157Y278145D01*
X65575Y277136D01*
X66241Y276269D01*
X67107Y275604D01*
X68117Y275185D01*
X69200Y275043D01*
X70283Y275185D01*
X71293Y275604D01*
X72159Y276269D01*
X72825Y277136D01*
X73243Y278145D01*
X73385Y279228D01*
Y282772D01*
X73243Y283855D01*
X72825Y284864D01*
X72424Y285386D01*
X72671Y285886D01*
X73508D01*
X75050Y284344D01*
Y275079D01*
X83350D01*
Y286921D01*
X77628D01*
X75552Y288997D01*
X74960Y289392D01*
X74263Y289531D01*
D02*
G37*
G36*
X159700Y286891D02*
Y281500D01*
X163385D01*
Y282772D01*
X163243Y283855D01*
X162825Y284864D01*
X162160Y285731D01*
X161293Y286396D01*
X160283Y286814D01*
X159700Y286891D01*
D02*
G37*
G36*
X129700D02*
Y281500D01*
X133385D01*
Y282772D01*
X133243Y283855D01*
X132825Y284864D01*
X132159Y285731D01*
X131293Y286396D01*
X130283Y286814D01*
X129700Y286891D01*
D02*
G37*
G36*
X19700D02*
Y281500D01*
X23385D01*
Y282772D01*
X23243Y283855D01*
X22825Y284864D01*
X22160Y285731D01*
X21293Y286396D01*
X20283Y286814D01*
X19700Y286891D01*
D02*
G37*
G36*
X158700D02*
X158117Y286814D01*
X157107Y286396D01*
X156240Y285731D01*
X155575Y284864D01*
X155157Y283855D01*
X155015Y282772D01*
Y281500D01*
X158700D01*
Y286891D01*
D02*
G37*
G36*
X128700D02*
X128117Y286814D01*
X127107Y286396D01*
X126241Y285731D01*
X125575Y284864D01*
X125157Y283855D01*
X125015Y282772D01*
Y281500D01*
X128700D01*
Y286891D01*
D02*
G37*
G36*
X18700D02*
X18117Y286814D01*
X17107Y286396D01*
X16240Y285731D01*
X15575Y284864D01*
X15157Y283855D01*
X15015Y282772D01*
Y281500D01*
X18700D01*
Y286891D01*
D02*
G37*
G36*
X163385Y280500D02*
X159700D01*
Y275109D01*
X160283Y275185D01*
X161293Y275604D01*
X162160Y276269D01*
X162825Y277136D01*
X163243Y278145D01*
X163385Y279228D01*
Y280500D01*
D02*
G37*
G36*
X133385D02*
X129700D01*
Y275109D01*
X130283Y275185D01*
X131293Y275604D01*
X132159Y276269D01*
X132825Y277136D01*
X133243Y278145D01*
X133385Y279228D01*
Y280500D01*
D02*
G37*
G36*
X23385D02*
X19700D01*
Y275109D01*
X20283Y275185D01*
X21293Y275604D01*
X22160Y276269D01*
X22825Y277136D01*
X23243Y278145D01*
X23385Y279228D01*
Y280500D01*
D02*
G37*
G36*
X158700D02*
X155015D01*
Y279228D01*
X155157Y278145D01*
X155575Y277136D01*
X156240Y276269D01*
X157107Y275604D01*
X158117Y275185D01*
X158700Y275109D01*
Y280500D01*
D02*
G37*
G36*
X128700D02*
X125015D01*
Y279228D01*
X125157Y278145D01*
X125575Y277136D01*
X126241Y276269D01*
X127107Y275604D01*
X128117Y275185D01*
X128700Y275109D01*
Y280500D01*
D02*
G37*
G36*
X18700D02*
X15015D01*
Y279228D01*
X15157Y278145D01*
X15575Y277136D01*
X16240Y276269D01*
X17107Y275604D01*
X18117Y275185D01*
X18700Y275109D01*
Y280500D01*
D02*
G37*
G36*
X189200Y286957D02*
X188117Y286814D01*
X187107Y286396D01*
X186240Y285731D01*
X185575Y284864D01*
X185157Y283855D01*
X185015Y282772D01*
Y279228D01*
X185157Y278145D01*
X185575Y277136D01*
X186240Y276269D01*
X187107Y275604D01*
X188117Y275185D01*
X189200Y275043D01*
X190283Y275185D01*
X191293Y275604D01*
X192159Y276269D01*
X192825Y277136D01*
X193243Y278145D01*
X193385Y279228D01*
Y282772D01*
X193243Y283855D01*
X192825Y284864D01*
X192159Y285731D01*
X191293Y286396D01*
X190283Y286814D01*
X189200Y286957D01*
D02*
G37*
G36*
X179200D02*
X178117Y286814D01*
X177107Y286396D01*
X176241Y285731D01*
X175575Y284864D01*
X175157Y283855D01*
X175015Y282772D01*
Y279228D01*
X175157Y278145D01*
X175575Y277136D01*
X176241Y276269D01*
X177107Y275604D01*
X178117Y275185D01*
X179200Y275043D01*
X180283Y275185D01*
X181293Y275604D01*
X182159Y276269D01*
X182825Y277136D01*
X183243Y278145D01*
X183385Y279228D01*
Y282772D01*
X183243Y283855D01*
X182825Y284864D01*
X182159Y285731D01*
X181293Y286396D01*
X180283Y286814D01*
X179200Y286957D01*
D02*
G37*
G36*
X169200D02*
X168117Y286814D01*
X167107Y286396D01*
X166241Y285731D01*
X165575Y284864D01*
X165157Y283855D01*
X165015Y282772D01*
Y279228D01*
X165157Y278145D01*
X165575Y277136D01*
X166241Y276269D01*
X167107Y275604D01*
X168117Y275185D01*
X169200Y275043D01*
X170283Y275185D01*
X171293Y275604D01*
X172160Y276269D01*
X172825Y277136D01*
X173243Y278145D01*
X173385Y279228D01*
Y282772D01*
X173243Y283855D01*
X172825Y284864D01*
X172160Y285731D01*
X171293Y286396D01*
X170283Y286814D01*
X169200Y286957D01*
D02*
G37*
G36*
X149200D02*
X148117Y286814D01*
X147107Y286396D01*
X146240Y285731D01*
X145575Y284864D01*
X145157Y283855D01*
X145015Y282772D01*
Y279228D01*
X145157Y278145D01*
X145575Y277136D01*
X146240Y276269D01*
X147107Y275604D01*
X148117Y275185D01*
X149200Y275043D01*
X150283Y275185D01*
X151293Y275604D01*
X152160Y276269D01*
X152825Y277136D01*
X153243Y278145D01*
X153385Y279228D01*
Y282772D01*
X153243Y283855D01*
X152825Y284864D01*
X152160Y285731D01*
X151293Y286396D01*
X150283Y286814D01*
X149200Y286957D01*
D02*
G37*
G36*
X139200D02*
X138117Y286814D01*
X137107Y286396D01*
X136240Y285731D01*
X135575Y284864D01*
X135157Y283855D01*
X135015Y282772D01*
Y279228D01*
X135157Y278145D01*
X135575Y277136D01*
X136240Y276269D01*
X137107Y275604D01*
X138117Y275185D01*
X139200Y275043D01*
X140283Y275185D01*
X141293Y275604D01*
X142159Y276269D01*
X142825Y277136D01*
X143243Y278145D01*
X143385Y279228D01*
Y282772D01*
X143243Y283855D01*
X142825Y284864D01*
X142159Y285731D01*
X141293Y286396D01*
X140283Y286814D01*
X139200Y286957D01*
D02*
G37*
G36*
X39200D02*
X38117Y286814D01*
X37107Y286396D01*
X36241Y285731D01*
X35575Y284864D01*
X35157Y283855D01*
X35015Y282772D01*
Y279228D01*
X35157Y278145D01*
X35575Y277136D01*
X36241Y276269D01*
X37107Y275604D01*
X38117Y275185D01*
X39200Y275043D01*
X40283Y275185D01*
X41293Y275604D01*
X42160Y276269D01*
X42825Y277136D01*
X43243Y278145D01*
X43385Y279228D01*
Y282772D01*
X43243Y283855D01*
X42825Y284864D01*
X42160Y285731D01*
X41293Y286396D01*
X40283Y286814D01*
X39200Y286957D01*
D02*
G37*
G36*
X29200D02*
X28117Y286814D01*
X27107Y286396D01*
X26241Y285731D01*
X25575Y284864D01*
X25157Y283855D01*
X25015Y282772D01*
Y279228D01*
X25157Y278145D01*
X25575Y277136D01*
X26241Y276269D01*
X27107Y275604D01*
X28117Y275185D01*
X29200Y275043D01*
X30283Y275185D01*
X31293Y275604D01*
X32160Y276269D01*
X32825Y277136D01*
X33243Y278145D01*
X33385Y279228D01*
Y282772D01*
X33243Y283855D01*
X32825Y284864D01*
X32160Y285731D01*
X31293Y286396D01*
X30283Y286814D01*
X29200Y286957D01*
D02*
G37*
G36*
X214700Y275120D02*
Y271500D01*
X218320D01*
X218243Y272083D01*
X217825Y273093D01*
X217160Y273959D01*
X216293Y274625D01*
X215283Y275043D01*
X214700Y275120D01*
D02*
G37*
G36*
X94700D02*
Y271500D01*
X98320D01*
X98243Y272083D01*
X97825Y273093D01*
X97159Y273959D01*
X96293Y274625D01*
X95283Y275043D01*
X94700Y275120D01*
D02*
G37*
G36*
X213700D02*
X213117Y275043D01*
X212107Y274625D01*
X211241Y273959D01*
X210575Y273093D01*
X210157Y272083D01*
X210080Y271500D01*
X213700D01*
Y275120D01*
D02*
G37*
G36*
X93700D02*
X93117Y275043D01*
X92107Y274625D01*
X91241Y273959D01*
X90575Y273093D01*
X90157Y272083D01*
X90080Y271500D01*
X93700D01*
Y275120D01*
D02*
G37*
G36*
X218320Y270500D02*
X214700D01*
Y266880D01*
X215283Y266957D01*
X216293Y267375D01*
X217160Y268040D01*
X217825Y268907D01*
X218243Y269917D01*
X218320Y270500D01*
D02*
G37*
G36*
X98320D02*
X94700D01*
Y266880D01*
X95283Y266957D01*
X96293Y267375D01*
X97159Y268040D01*
X97825Y268907D01*
X98243Y269917D01*
X98320Y270500D01*
D02*
G37*
G36*
X93700D02*
X90080D01*
X90157Y269917D01*
X90575Y268907D01*
X91241Y268040D01*
X92107Y267375D01*
X93117Y266957D01*
X93700Y266880D01*
Y270500D01*
D02*
G37*
G36*
X213700D02*
X210080D01*
X210157Y269917D01*
X210575Y268907D01*
X211241Y268040D01*
X212107Y267375D01*
X213117Y266957D01*
X213700Y266880D01*
Y270500D01*
D02*
G37*
G36*
X45700Y267624D02*
Y266000D01*
X47324D01*
X47255Y266351D01*
X46773Y267073D01*
X46051Y267555D01*
X45700Y267624D01*
D02*
G37*
G36*
X44700D02*
X44349Y267555D01*
X43628Y267073D01*
X43145Y266351D01*
X43076Y266000D01*
X44700D01*
Y267624D01*
D02*
G37*
G36*
X47324Y265000D02*
X45700D01*
Y263376D01*
X46051Y263445D01*
X46773Y263928D01*
X47255Y264649D01*
X47324Y265000D01*
D02*
G37*
G36*
X44700D02*
X43076D01*
X43145Y264649D01*
X43628Y263928D01*
X44349Y263445D01*
X44700Y263376D01*
Y265000D01*
D02*
G37*
G36*
X69200Y256957D02*
X68117Y256815D01*
X67107Y256396D01*
X66241Y255731D01*
X65575Y254864D01*
X65157Y253855D01*
X65015Y252772D01*
Y249228D01*
X65157Y248145D01*
X65269Y247875D01*
X63508Y246114D01*
X62671D01*
X62424Y246614D01*
X62825Y247136D01*
X63243Y248145D01*
X63385Y249228D01*
Y252772D01*
X63243Y253855D01*
X62825Y254864D01*
X62160Y255731D01*
X61293Y256396D01*
X60283Y256815D01*
X59200Y256957D01*
X58117Y256815D01*
X57107Y256396D01*
X56240Y255731D01*
X55575Y254864D01*
X55157Y253855D01*
X55021Y252822D01*
X53379D01*
X53243Y253855D01*
X52825Y254864D01*
X52160Y255731D01*
X51293Y256396D01*
X50283Y256815D01*
X49200Y256957D01*
X48117Y256815D01*
X47107Y256396D01*
X46240Y255731D01*
X45575Y254864D01*
X45157Y253855D01*
X45015Y252772D01*
Y249228D01*
X45157Y248145D01*
X45575Y247136D01*
X45976Y246614D01*
X45729Y246114D01*
X44892D01*
X43131Y247875D01*
X43243Y248145D01*
X43385Y249228D01*
Y252772D01*
X43243Y253855D01*
X42825Y254864D01*
X42160Y255731D01*
X41293Y256396D01*
X40283Y256815D01*
X39200Y256957D01*
X38117Y256815D01*
X37107Y256396D01*
X36241Y255731D01*
X35575Y254864D01*
X35157Y253855D01*
X35015Y252772D01*
Y249228D01*
X35157Y248145D01*
X35575Y247136D01*
X36241Y246269D01*
X37107Y245604D01*
X38117Y245185D01*
X39200Y245043D01*
X40283Y245185D01*
X40554Y245298D01*
X42848Y243003D01*
X42848Y243003D01*
X43440Y242608D01*
X44137Y242469D01*
X44137Y242469D01*
X64263D01*
X64263Y242469D01*
X64960Y242608D01*
X65552Y243003D01*
X67847Y245298D01*
X68117Y245185D01*
X69200Y245043D01*
X70283Y245185D01*
X71293Y245604D01*
X72159Y246269D01*
X72825Y247136D01*
X73243Y248145D01*
X73385Y249228D01*
Y252772D01*
X73243Y253855D01*
X72825Y254864D01*
X72159Y255731D01*
X71293Y256396D01*
X70283Y256815D01*
X69200Y256957D01*
D02*
G37*
G36*
X29200D02*
X28117Y256815D01*
X27107Y256396D01*
X26241Y255731D01*
X25575Y254864D01*
X25157Y253855D01*
X25015Y252772D01*
Y249228D01*
X25157Y248145D01*
X25575Y247136D01*
X26241Y246269D01*
X27107Y245604D01*
X28117Y245185D01*
X29200Y245043D01*
X30283Y245185D01*
X31293Y245604D01*
X32160Y246269D01*
X32825Y247136D01*
X33243Y248145D01*
X33385Y249228D01*
Y252772D01*
X33243Y253855D01*
X32825Y254864D01*
X32160Y255731D01*
X31293Y256396D01*
X30283Y256815D01*
X29200Y256957D01*
D02*
G37*
G36*
X19200D02*
X18117Y256815D01*
X17107Y256396D01*
X16240Y255731D01*
X15575Y254864D01*
X15157Y253855D01*
X15015Y252772D01*
Y249228D01*
X15157Y248145D01*
X15575Y247136D01*
X16240Y246269D01*
X17107Y245604D01*
X18117Y245185D01*
X19200Y245043D01*
X20283Y245185D01*
X21293Y245604D01*
X22160Y246269D01*
X22825Y247136D01*
X23243Y248145D01*
X23385Y249228D01*
Y252772D01*
X23243Y253855D01*
X22825Y254864D01*
X22160Y255731D01*
X21293Y256396D01*
X20283Y256815D01*
X19200Y256957D01*
D02*
G37*
G36*
X29700Y240120D02*
Y236500D01*
X33320D01*
X33243Y237083D01*
X32825Y238093D01*
X32160Y238960D01*
X31293Y239625D01*
X30283Y240043D01*
X29700Y240120D01*
D02*
G37*
G36*
X28700D02*
X28117Y240043D01*
X27107Y239625D01*
X26241Y238960D01*
X25575Y238093D01*
X25157Y237083D01*
X25080Y236500D01*
X28700D01*
Y240120D01*
D02*
G37*
G36*
X33320Y235500D02*
X29700D01*
Y231880D01*
X30283Y231957D01*
X31293Y232375D01*
X32160Y233040D01*
X32825Y233907D01*
X33243Y234917D01*
X33320Y235500D01*
D02*
G37*
G36*
X28700D02*
X25080D01*
X25157Y234917D01*
X25575Y233907D01*
X26241Y233040D01*
X27107Y232375D01*
X28117Y231957D01*
X28700Y231880D01*
Y235500D01*
D02*
G37*
G36*
X58617Y231124D02*
Y229500D01*
X60241D01*
X60171Y229851D01*
X59689Y230573D01*
X58968Y231055D01*
X58617Y231124D01*
D02*
G37*
G36*
X57617D02*
X57266Y231055D01*
X56544Y230573D01*
X56062Y229851D01*
X55992Y229500D01*
X57617D01*
Y231124D01*
D02*
G37*
G36*
X60241Y228500D02*
X58617D01*
Y226876D01*
X58968Y226945D01*
X59689Y227428D01*
X60171Y228149D01*
X60241Y228500D01*
D02*
G37*
G36*
X57617D02*
X55992D01*
X56062Y228149D01*
X56544Y227428D01*
X57266Y226945D01*
X57617Y226876D01*
Y228500D01*
D02*
G37*
G36*
X25121Y225150D02*
X13279D01*
Y216850D01*
X25121D01*
Y225150D01*
D02*
G37*
G36*
X194200Y221957D02*
X193117Y221814D01*
X192107Y221396D01*
X191241Y220731D01*
X190575Y219864D01*
X190157Y218855D01*
X190015Y217772D01*
Y214228D01*
X190157Y213145D01*
X190575Y212136D01*
X191241Y211269D01*
X192107Y210604D01*
X193117Y210186D01*
X194200Y210043D01*
X195283Y210186D01*
X196293Y210604D01*
X197160Y211269D01*
X197825Y212136D01*
X198243Y213145D01*
X198385Y214228D01*
Y217772D01*
X198243Y218855D01*
X197825Y219864D01*
X197160Y220731D01*
X196293Y221396D01*
X195283Y221814D01*
X194200Y221957D01*
D02*
G37*
G36*
X184200D02*
X183117Y221814D01*
X182107Y221396D01*
X181240Y220731D01*
X180575Y219864D01*
X180157Y218855D01*
X180015Y217772D01*
Y214228D01*
X180157Y213145D01*
X180575Y212136D01*
X181240Y211269D01*
X182107Y210604D01*
X183117Y210186D01*
X184200Y210043D01*
X185283Y210186D01*
X186293Y210604D01*
X187160Y211269D01*
X187825Y212136D01*
X188243Y213145D01*
X188385Y214228D01*
Y217772D01*
X188243Y218855D01*
X187825Y219864D01*
X187160Y220731D01*
X186293Y221396D01*
X185283Y221814D01*
X184200Y221957D01*
D02*
G37*
G36*
X174200D02*
X173117Y221814D01*
X172107Y221396D01*
X171240Y220731D01*
X170575Y219864D01*
X170157Y218855D01*
X170015Y217772D01*
Y214228D01*
X170157Y213145D01*
X170575Y212136D01*
X171240Y211269D01*
X172107Y210604D01*
X173117Y210186D01*
X174200Y210043D01*
X175283Y210186D01*
X176293Y210604D01*
X177160Y211269D01*
X177825Y212136D01*
X178243Y213145D01*
X178385Y214228D01*
Y217772D01*
X178243Y218855D01*
X177825Y219864D01*
X177160Y220731D01*
X176293Y221396D01*
X175283Y221814D01*
X174200Y221957D01*
D02*
G37*
G36*
X164200D02*
X163117Y221814D01*
X162107Y221396D01*
X161240Y220731D01*
X160575Y219864D01*
X160157Y218855D01*
X160015Y217772D01*
Y214228D01*
X160157Y213145D01*
X160575Y212136D01*
X161240Y211269D01*
X162107Y210604D01*
X163117Y210186D01*
X164200Y210043D01*
X165283Y210186D01*
X166293Y210604D01*
X167159Y211269D01*
X167825Y212136D01*
X168243Y213145D01*
X168385Y214228D01*
Y217772D01*
X168243Y218855D01*
X167825Y219864D01*
X167159Y220731D01*
X166293Y221396D01*
X165283Y221814D01*
X164200Y221957D01*
D02*
G37*
G36*
X154200D02*
X153117Y221814D01*
X152107Y221396D01*
X151241Y220731D01*
X150575Y219864D01*
X150157Y218855D01*
X150015Y217772D01*
Y214228D01*
X150157Y213145D01*
X150575Y212136D01*
X151241Y211269D01*
X152107Y210604D01*
X153117Y210186D01*
X154200Y210043D01*
X155283Y210186D01*
X156293Y210604D01*
X157159Y211269D01*
X157825Y212136D01*
X158243Y213145D01*
X158385Y214228D01*
Y217772D01*
X158243Y218855D01*
X157825Y219864D01*
X157159Y220731D01*
X156293Y221396D01*
X155283Y221814D01*
X154200Y221957D01*
D02*
G37*
G36*
X144200D02*
X143117Y221814D01*
X142107Y221396D01*
X141241Y220731D01*
X140575Y219864D01*
X140157Y218855D01*
X140015Y217772D01*
Y214228D01*
X140157Y213145D01*
X140575Y212136D01*
X141241Y211269D01*
X142107Y210604D01*
X143117Y210186D01*
X144200Y210043D01*
X145283Y210186D01*
X146293Y210604D01*
X147160Y211269D01*
X147825Y212136D01*
X148243Y213145D01*
X148385Y214228D01*
Y217772D01*
X148243Y218855D01*
X147825Y219864D01*
X147160Y220731D01*
X146293Y221396D01*
X145283Y221814D01*
X144200Y221957D01*
D02*
G37*
G36*
X134200D02*
X133117Y221814D01*
X132107Y221396D01*
X131240Y220731D01*
X130575Y219864D01*
X130157Y218855D01*
X130015Y217772D01*
Y214228D01*
X130157Y213145D01*
X130575Y212136D01*
X131240Y211269D01*
X132107Y210604D01*
X133117Y210186D01*
X134200Y210043D01*
X135283Y210186D01*
X136293Y210604D01*
X137160Y211269D01*
X137825Y212136D01*
X138243Y213145D01*
X138385Y214228D01*
Y217772D01*
X138243Y218855D01*
X137825Y219864D01*
X137160Y220731D01*
X136293Y221396D01*
X135283Y221814D01*
X134200Y221957D01*
D02*
G37*
G36*
X124200D02*
X123117Y221814D01*
X122107Y221396D01*
X121240Y220731D01*
X120575Y219864D01*
X120157Y218855D01*
X120015Y217772D01*
Y214228D01*
X120157Y213145D01*
X120575Y212136D01*
X121240Y211269D01*
X122107Y210604D01*
X123117Y210186D01*
X124200Y210043D01*
X125283Y210186D01*
X126293Y210604D01*
X127160Y211269D01*
X127825Y212136D01*
X128243Y213145D01*
X128385Y214228D01*
Y217772D01*
X128243Y218855D01*
X127825Y219864D01*
X127160Y220731D01*
X126293Y221396D01*
X125283Y221814D01*
X124200Y221957D01*
D02*
G37*
G36*
X114200D02*
X113117Y221814D01*
X112107Y221396D01*
X111240Y220731D01*
X110575Y219864D01*
X110157Y218855D01*
X110015Y217772D01*
Y214228D01*
X110157Y213145D01*
X110575Y212136D01*
X111240Y211269D01*
X112107Y210604D01*
X113117Y210186D01*
X114200Y210043D01*
X115283Y210186D01*
X116293Y210604D01*
X117159Y211269D01*
X117825Y212136D01*
X118243Y213145D01*
X118385Y214228D01*
Y217772D01*
X118243Y218855D01*
X117825Y219864D01*
X117159Y220731D01*
X116293Y221396D01*
X115283Y221814D01*
X114200Y221957D01*
D02*
G37*
G36*
X104200D02*
X103117Y221814D01*
X102107Y221396D01*
X101241Y220731D01*
X100575Y219864D01*
X100157Y218855D01*
X100015Y217772D01*
Y214228D01*
X100157Y213145D01*
X100575Y212136D01*
X101241Y211269D01*
X102107Y210604D01*
X103117Y210186D01*
X104200Y210043D01*
X105283Y210186D01*
X106293Y210604D01*
X107159Y211269D01*
X107825Y212136D01*
X108243Y213145D01*
X108385Y214228D01*
Y217772D01*
X108243Y218855D01*
X107825Y219864D01*
X107159Y220731D01*
X106293Y221396D01*
X105283Y221814D01*
X104200Y221957D01*
D02*
G37*
G36*
X94200D02*
X93117Y221814D01*
X92107Y221396D01*
X91241Y220731D01*
X90575Y219864D01*
X90157Y218855D01*
X90015Y217772D01*
Y214228D01*
X90157Y213145D01*
X90575Y212136D01*
X91241Y211269D01*
X92107Y210604D01*
X93117Y210186D01*
X94200Y210043D01*
X95283Y210186D01*
X96293Y210604D01*
X97159Y211269D01*
X97825Y212136D01*
X98243Y213145D01*
X98385Y214228D01*
Y217772D01*
X98243Y218855D01*
X97825Y219864D01*
X97159Y220731D01*
X96293Y221396D01*
X95283Y221814D01*
X94200Y221957D01*
D02*
G37*
G36*
X20972Y215185D02*
X17428D01*
X16345Y215043D01*
X15336Y214625D01*
X14469Y213960D01*
X13804Y213093D01*
X13386Y212083D01*
X13243Y211000D01*
X13386Y209917D01*
X13804Y208907D01*
X14469Y208040D01*
X15336Y207375D01*
X16345Y206957D01*
X17428Y206815D01*
X20972D01*
X22055Y206957D01*
X23064Y207375D01*
X23931Y208040D01*
X24596Y208907D01*
X25014Y209917D01*
X25157Y211000D01*
X25014Y212083D01*
X24596Y213093D01*
X23931Y213960D01*
X23064Y214625D01*
X22055Y215043D01*
X20972Y215185D01*
D02*
G37*
G36*
X30200Y202124D02*
Y200500D01*
X31824D01*
X31755Y200851D01*
X31273Y201572D01*
X30551Y202055D01*
X30200Y202124D01*
D02*
G37*
G36*
X29200D02*
X28849Y202055D01*
X28128Y201572D01*
X27645Y200851D01*
X27576Y200500D01*
X29200D01*
Y202124D01*
D02*
G37*
G36*
X31824Y199500D02*
X30200D01*
Y197876D01*
X30551Y197945D01*
X31273Y198427D01*
X31755Y199149D01*
X31824Y199500D01*
D02*
G37*
G36*
X29200D02*
X27576D01*
X27645Y199149D01*
X28128Y198427D01*
X28849Y197945D01*
X29200Y197876D01*
Y199500D01*
D02*
G37*
G36*
X50972Y205185D02*
X47428D01*
X46345Y205043D01*
X45336Y204625D01*
X44469Y203959D01*
X43804Y203093D01*
X43385Y202083D01*
X43243Y201000D01*
X43385Y199917D01*
X43804Y198907D01*
X44469Y198040D01*
X45336Y197375D01*
X46345Y196957D01*
X47428Y196815D01*
X50972D01*
X52055Y196957D01*
X53064Y197375D01*
X53931Y198040D01*
X54596Y198907D01*
X55014Y199917D01*
X55157Y201000D01*
X55014Y202083D01*
X54596Y203093D01*
X53931Y203959D01*
X53064Y204625D01*
X52055Y205043D01*
X50972Y205185D01*
D02*
G37*
G36*
X20972D02*
X17428D01*
X16345Y205043D01*
X15336Y204625D01*
X14469Y203959D01*
X13804Y203093D01*
X13386Y202083D01*
X13243Y201000D01*
X13386Y199917D01*
X13804Y198907D01*
X14469Y198040D01*
X15336Y197375D01*
X16345Y196957D01*
X17428Y196815D01*
X20972D01*
X22055Y196957D01*
X23064Y197375D01*
X23931Y198040D01*
X24596Y198907D01*
X25014Y199917D01*
X25157Y201000D01*
X25014Y202083D01*
X24596Y203093D01*
X23931Y203959D01*
X23064Y204625D01*
X22055Y205043D01*
X20972Y205185D01*
D02*
G37*
G36*
X178385Y200500D02*
X174700D01*
Y195109D01*
X175283Y195185D01*
X176293Y195604D01*
X177160Y196269D01*
X177825Y197136D01*
X178243Y198145D01*
X178385Y199228D01*
Y200500D01*
D02*
G37*
G36*
X168385D02*
X164700D01*
Y195109D01*
X165283Y195185D01*
X166293Y195604D01*
X167159Y196269D01*
X167825Y197136D01*
X168243Y198145D01*
X168385Y199228D01*
Y200500D01*
D02*
G37*
G36*
X148385D02*
X144700D01*
Y195109D01*
X145283Y195185D01*
X146293Y195604D01*
X147160Y196269D01*
X147825Y197136D01*
X148243Y198145D01*
X148385Y199228D01*
Y200500D01*
D02*
G37*
G36*
X138385D02*
X134700D01*
Y195109D01*
X135283Y195185D01*
X136293Y195604D01*
X137160Y196269D01*
X137825Y197136D01*
X138243Y198145D01*
X138385Y199228D01*
Y200500D01*
D02*
G37*
G36*
X173700D02*
X170015D01*
Y199228D01*
X170157Y198145D01*
X170575Y197136D01*
X171240Y196269D01*
X172107Y195604D01*
X173117Y195185D01*
X173700Y195109D01*
Y200500D01*
D02*
G37*
G36*
X163700D02*
X160015D01*
Y199228D01*
X160157Y198145D01*
X160575Y197136D01*
X161240Y196269D01*
X162107Y195604D01*
X163117Y195185D01*
X163700Y195109D01*
Y200500D01*
D02*
G37*
G36*
X143700D02*
X140015D01*
Y199228D01*
X140157Y198145D01*
X140575Y197136D01*
X141241Y196269D01*
X142107Y195604D01*
X143117Y195185D01*
X143700Y195109D01*
Y200500D01*
D02*
G37*
G36*
X133700D02*
X130015D01*
Y199228D01*
X130157Y198145D01*
X130575Y197136D01*
X131240Y196269D01*
X132107Y195604D01*
X133117Y195185D01*
X133700Y195109D01*
Y200500D01*
D02*
G37*
G36*
X214700Y196624D02*
Y195000D01*
X216324D01*
X216255Y195351D01*
X215773Y196072D01*
X215051Y196555D01*
X214700Y196624D01*
D02*
G37*
G36*
X213700D02*
X213349Y196555D01*
X212628Y196072D01*
X212145Y195351D01*
X212076Y195000D01*
X213700D01*
Y196624D01*
D02*
G37*
G36*
X216324Y194000D02*
X214700D01*
Y192376D01*
X215051Y192446D01*
X215773Y192928D01*
X216255Y193649D01*
X216324Y194000D01*
D02*
G37*
G36*
X213700D02*
X212076D01*
X212145Y193649D01*
X212628Y192928D01*
X213349Y192446D01*
X213700Y192376D01*
Y194000D01*
D02*
G37*
G36*
X128200Y189541D02*
Y187917D01*
X129824D01*
X129754Y188268D01*
X129272Y188989D01*
X128551Y189471D01*
X128200Y189541D01*
D02*
G37*
G36*
X127200D02*
X126849Y189471D01*
X126128Y188989D01*
X125645Y188268D01*
X125576Y187917D01*
X127200D01*
Y189541D01*
D02*
G37*
G36*
X20972Y195185D02*
X17428D01*
X16345Y195043D01*
X15336Y194625D01*
X14469Y193959D01*
X13804Y193093D01*
X13386Y192083D01*
X13243Y191000D01*
X13386Y189917D01*
X13804Y188907D01*
X14469Y188040D01*
X15336Y187375D01*
X16345Y186957D01*
X17428Y186815D01*
X20972D01*
X22055Y186957D01*
X23064Y187375D01*
X23931Y188040D01*
X24596Y188907D01*
X25014Y189917D01*
X25157Y191000D01*
X25014Y192083D01*
X24596Y193093D01*
X23931Y193959D01*
X23064Y194625D01*
X22055Y195043D01*
X20972Y195185D01*
D02*
G37*
G36*
X158200Y187624D02*
Y186000D01*
X159824D01*
X159755Y186351D01*
X159273Y187073D01*
X158551Y187555D01*
X158200Y187624D01*
D02*
G37*
G36*
X157200D02*
X156849Y187555D01*
X156128Y187073D01*
X155646Y186351D01*
X155576Y186000D01*
X157200D01*
Y187624D01*
D02*
G37*
G36*
X129824Y186917D02*
X128200D01*
Y185292D01*
X128551Y185362D01*
X129272Y185844D01*
X129754Y186566D01*
X129824Y186917D01*
D02*
G37*
G36*
X127200D02*
X125576D01*
X125645Y186566D01*
X126128Y185844D01*
X126849Y185362D01*
X127200Y185292D01*
Y186917D01*
D02*
G37*
G36*
X159824Y185000D02*
X158200D01*
Y183376D01*
X158551Y183446D01*
X159273Y183928D01*
X159755Y184649D01*
X159824Y185000D01*
D02*
G37*
G36*
X157200D02*
X155576D01*
X155646Y184649D01*
X156128Y183928D01*
X156849Y183446D01*
X157200Y183376D01*
Y185000D01*
D02*
G37*
G36*
X139700Y184624D02*
Y183000D01*
X141324D01*
X141254Y183351D01*
X140772Y184072D01*
X140051Y184555D01*
X139700Y184624D01*
D02*
G37*
G36*
X138700D02*
X138349Y184555D01*
X137627Y184072D01*
X137145Y183351D01*
X137076Y183000D01*
X138700D01*
Y184624D01*
D02*
G37*
G36*
X104700Y185120D02*
Y181500D01*
X108320D01*
X108243Y182083D01*
X107825Y183093D01*
X107159Y183959D01*
X106293Y184625D01*
X105283Y185043D01*
X104700Y185120D01*
D02*
G37*
G36*
X69700D02*
Y181500D01*
X73320D01*
X73243Y182083D01*
X72825Y183093D01*
X72159Y183959D01*
X71293Y184625D01*
X70283Y185043D01*
X69700Y185120D01*
D02*
G37*
G36*
X50972Y185185D02*
X49700D01*
Y181500D01*
X55091D01*
X55014Y182083D01*
X54596Y183093D01*
X53931Y183959D01*
X53064Y184625D01*
X52055Y185043D01*
X50972Y185185D01*
D02*
G37*
G36*
X103700Y185120D02*
X103117Y185043D01*
X102107Y184625D01*
X101241Y183959D01*
X100575Y183093D01*
X100157Y182083D01*
X100080Y181500D01*
X103700D01*
Y185120D01*
D02*
G37*
G36*
X68700D02*
X68117Y185043D01*
X67107Y184625D01*
X66241Y183959D01*
X65575Y183093D01*
X65157Y182083D01*
X65080Y181500D01*
X68700D01*
Y185120D01*
D02*
G37*
G36*
X141324Y182000D02*
X139700D01*
Y180376D01*
X140051Y180446D01*
X140772Y180928D01*
X141254Y181649D01*
X141324Y182000D01*
D02*
G37*
G36*
X138700D02*
X137076D01*
X137145Y181649D01*
X137627Y180928D01*
X138349Y180446D01*
X138700Y180376D01*
Y182000D01*
D02*
G37*
G36*
X108320Y180500D02*
X104700D01*
Y176880D01*
X105283Y176957D01*
X106293Y177375D01*
X107159Y178041D01*
X107825Y178907D01*
X108243Y179917D01*
X108320Y180500D01*
D02*
G37*
G36*
X73320D02*
X69700D01*
Y176880D01*
X70283Y176957D01*
X71293Y177375D01*
X72159Y178041D01*
X72825Y178907D01*
X73243Y179917D01*
X73320Y180500D01*
D02*
G37*
G36*
X103700D02*
X100080D01*
X100157Y179917D01*
X100575Y178907D01*
X101241Y178041D01*
X102107Y177375D01*
X103117Y176957D01*
X103700Y176880D01*
Y180500D01*
D02*
G37*
G36*
X68700D02*
X65080D01*
X65157Y179917D01*
X65575Y178907D01*
X66241Y178041D01*
X67107Y177375D01*
X68117Y176957D01*
X68700Y176880D01*
Y180500D01*
D02*
G37*
G36*
X55091D02*
X49700D01*
Y176815D01*
X50972D01*
X52055Y176957D01*
X53064Y177375D01*
X53931Y178041D01*
X54596Y178907D01*
X55014Y179917D01*
X55091Y180500D01*
D02*
G37*
G36*
X20972Y185185D02*
X17428D01*
X16345Y185043D01*
X15336Y184625D01*
X14469Y183959D01*
X13804Y183093D01*
X13386Y182083D01*
X13243Y181000D01*
X13386Y179917D01*
X13804Y178907D01*
X14469Y178041D01*
X15336Y177375D01*
X16345Y176957D01*
X17428Y176815D01*
X20972D01*
X22055Y176957D01*
X23064Y177375D01*
X23931Y178041D01*
X24596Y178907D01*
X25014Y179917D01*
X25157Y181000D01*
X25014Y182083D01*
X24596Y183093D01*
X23931Y183959D01*
X23064Y184625D01*
X22055Y185043D01*
X20972Y185185D01*
D02*
G37*
G36*
X94700Y175624D02*
Y174000D01*
X96324D01*
X96254Y174351D01*
X95772Y175073D01*
X95051Y175555D01*
X94700Y175624D01*
D02*
G37*
G36*
X93700D02*
X93349Y175555D01*
X92628Y175073D01*
X92146Y174351D01*
X92076Y174000D01*
X93700D01*
Y175624D01*
D02*
G37*
G36*
X184700Y176891D02*
Y171500D01*
X188385D01*
Y172772D01*
X188243Y173855D01*
X187825Y174864D01*
X187160Y175731D01*
X186293Y176396D01*
X185283Y176814D01*
X184700Y176891D01*
D02*
G37*
G36*
X50972Y175185D02*
X49700D01*
Y171500D01*
X55091D01*
X55014Y172083D01*
X54596Y173093D01*
X53931Y173960D01*
X53064Y174625D01*
X52055Y175043D01*
X50972Y175185D01*
D02*
G37*
G36*
X183700Y176891D02*
X183117Y176814D01*
X182107Y176396D01*
X181240Y175731D01*
X180575Y174864D01*
X180157Y173855D01*
X180015Y172772D01*
Y171500D01*
X183700D01*
Y176891D01*
D02*
G37*
G36*
X96324Y173000D02*
X94700D01*
Y171376D01*
X95051Y171446D01*
X95772Y171927D01*
X96254Y172649D01*
X96324Y173000D01*
D02*
G37*
G36*
X93700D02*
X92076D01*
X92146Y172649D01*
X92628Y171927D01*
X93349Y171446D01*
X93700Y171376D01*
Y173000D01*
D02*
G37*
G36*
X20972Y175185D02*
X17428D01*
X16345Y175043D01*
X15336Y174625D01*
X14469Y173960D01*
X13804Y173093D01*
X13386Y172083D01*
X13243Y171000D01*
X13386Y169917D01*
X13804Y168907D01*
X14469Y168041D01*
X15336Y167375D01*
X16345Y166957D01*
X17428Y166815D01*
X20972D01*
X22055Y166957D01*
X23064Y167375D01*
X23931Y168041D01*
X24596Y168907D01*
X25014Y169917D01*
X25157Y171000D01*
X25014Y172083D01*
X24596Y173093D01*
X23931Y173960D01*
X23064Y174625D01*
X22055Y175043D01*
X20972Y175185D01*
D02*
G37*
G36*
X188385Y170500D02*
X184700D01*
Y165109D01*
X185283Y165185D01*
X186293Y165604D01*
X187160Y166269D01*
X187825Y167136D01*
X188243Y168145D01*
X188385Y169228D01*
Y170500D01*
D02*
G37*
G36*
X183700D02*
X180015D01*
Y169228D01*
X180157Y168145D01*
X180575Y167136D01*
X181240Y166269D01*
X182107Y165604D01*
X183117Y165185D01*
X183700Y165109D01*
Y170500D01*
D02*
G37*
G36*
X174200Y176957D02*
X173117Y176814D01*
X172107Y176396D01*
X171240Y175731D01*
X170575Y174864D01*
X170157Y173855D01*
X170015Y172772D01*
Y169228D01*
X170157Y168145D01*
X170269Y167875D01*
X167848Y165454D01*
X167453Y164863D01*
X167315Y164165D01*
X167315Y164165D01*
Y161242D01*
X166815Y160996D01*
X166293Y161396D01*
X165283Y161814D01*
X164200Y161957D01*
X163117Y161814D01*
X162107Y161396D01*
X161240Y160731D01*
X160575Y159864D01*
X160157Y158855D01*
X160015Y157772D01*
Y154228D01*
X160157Y153145D01*
X160575Y152136D01*
X161240Y151269D01*
X162107Y150604D01*
X163117Y150186D01*
X164200Y150043D01*
X165283Y150186D01*
X166293Y150604D01*
X166815Y151004D01*
X167315Y150758D01*
Y138463D01*
X165553Y136703D01*
X165283Y136814D01*
X164200Y136957D01*
X163117Y136814D01*
X162107Y136396D01*
X161240Y135731D01*
X160575Y134864D01*
X160157Y133855D01*
X160015Y132772D01*
Y129228D01*
X160157Y128145D01*
X160575Y127136D01*
X161240Y126269D01*
X162107Y125604D01*
X163117Y125186D01*
X164200Y125043D01*
X165283Y125186D01*
X166293Y125604D01*
X167159Y126269D01*
X167825Y127136D01*
X168243Y128145D01*
X168385Y129228D01*
Y132772D01*
X168243Y133855D01*
X168131Y134125D01*
X170426Y136420D01*
X170426Y136420D01*
X170821Y137011D01*
X170959Y137709D01*
X170959Y137709D01*
Y150854D01*
X171459Y151101D01*
X172107Y150604D01*
X173117Y150186D01*
X174200Y150043D01*
X175283Y150186D01*
X176293Y150604D01*
X177160Y151269D01*
X177825Y152136D01*
X178243Y153145D01*
X178385Y154228D01*
Y157772D01*
X178243Y158855D01*
X177825Y159864D01*
X177160Y160731D01*
X176293Y161396D01*
X175283Y161814D01*
X174200Y161957D01*
X173117Y161814D01*
X172107Y161396D01*
X171459Y160899D01*
X170959Y161146D01*
Y163410D01*
X172846Y165297D01*
X173117Y165185D01*
X174200Y165043D01*
X175283Y165185D01*
X176293Y165604D01*
X177160Y166269D01*
X177825Y167136D01*
X178243Y168145D01*
X178385Y169228D01*
Y172772D01*
X178243Y173855D01*
X177825Y174864D01*
X177160Y175731D01*
X176293Y176396D01*
X175283Y176814D01*
X174200Y176957D01*
D02*
G37*
G36*
X20972Y165185D02*
X19700D01*
Y161500D01*
X25091D01*
X25014Y162083D01*
X24596Y163093D01*
X23931Y163960D01*
X23064Y164625D01*
X22055Y165043D01*
X20972Y165185D01*
D02*
G37*
G36*
X18700D02*
X17428D01*
X16345Y165043D01*
X15336Y164625D01*
X14469Y163960D01*
X13804Y163093D01*
X13386Y162083D01*
X13309Y161500D01*
X18700D01*
Y165185D01*
D02*
G37*
G36*
X25091Y160500D02*
X19700D01*
Y156815D01*
X20972D01*
X22055Y156957D01*
X23064Y157375D01*
X23931Y158040D01*
X24596Y158907D01*
X25014Y159917D01*
X25091Y160500D01*
D02*
G37*
G36*
X18700D02*
X13309D01*
X13386Y159917D01*
X13804Y158907D01*
X14469Y158040D01*
X15336Y157375D01*
X16345Y156957D01*
X17428Y156815D01*
X18700D01*
Y160500D01*
D02*
G37*
G36*
X214700Y161891D02*
Y156500D01*
X218385D01*
Y157772D01*
X218243Y158855D01*
X217825Y159864D01*
X217160Y160731D01*
X216293Y161396D01*
X215283Y161814D01*
X214700Y161891D01*
D02*
G37*
G36*
X218385Y155500D02*
X214700D01*
Y150109D01*
X215283Y150186D01*
X216293Y150604D01*
X217160Y151269D01*
X217825Y152136D01*
X218243Y153145D01*
X218385Y154228D01*
Y155500D01*
D02*
G37*
G36*
X88350Y161921D02*
X80050D01*
Y150079D01*
X88350D01*
Y161921D01*
D02*
G37*
G36*
X184200Y161957D02*
X183117Y161814D01*
X182107Y161396D01*
X181240Y160731D01*
X180575Y159864D01*
X180157Y158855D01*
X180015Y157772D01*
Y154228D01*
X180157Y153145D01*
X180575Y152136D01*
X181240Y151269D01*
X182107Y150604D01*
X183117Y150186D01*
X184200Y150043D01*
X185283Y150186D01*
X186293Y150604D01*
X187160Y151269D01*
X187825Y152136D01*
X188243Y153145D01*
X188385Y154228D01*
Y157772D01*
X188243Y158855D01*
X187825Y159864D01*
X187160Y160731D01*
X186293Y161396D01*
X185283Y161814D01*
X184200Y161957D01*
D02*
G37*
G36*
X154200D02*
X153117Y161814D01*
X152107Y161396D01*
X151241Y160731D01*
X150575Y159864D01*
X150157Y158855D01*
X150015Y157772D01*
Y154228D01*
X150157Y153145D01*
X150575Y152136D01*
X151241Y151269D01*
X152107Y150604D01*
X153117Y150186D01*
X154200Y150043D01*
X155283Y150186D01*
X156293Y150604D01*
X157159Y151269D01*
X157825Y152136D01*
X158243Y153145D01*
X158385Y154228D01*
Y157772D01*
X158243Y158855D01*
X157825Y159864D01*
X157159Y160731D01*
X156293Y161396D01*
X155283Y161814D01*
X154200Y161957D01*
D02*
G37*
G36*
X144200D02*
X143117Y161814D01*
X142107Y161396D01*
X141241Y160731D01*
X140575Y159864D01*
X140157Y158855D01*
X140015Y157772D01*
Y154228D01*
X140157Y153145D01*
X140575Y152136D01*
X141241Y151269D01*
X142107Y150604D01*
X143117Y150186D01*
X144200Y150043D01*
X145283Y150186D01*
X146293Y150604D01*
X147160Y151269D01*
X147825Y152136D01*
X148243Y153145D01*
X148385Y154228D01*
Y157772D01*
X148243Y158855D01*
X147825Y159864D01*
X147160Y160731D01*
X146293Y161396D01*
X145283Y161814D01*
X144200Y161957D01*
D02*
G37*
G36*
X134200D02*
X133117Y161814D01*
X132107Y161396D01*
X131240Y160731D01*
X130575Y159864D01*
X130157Y158855D01*
X130015Y157772D01*
Y154228D01*
X130157Y153145D01*
X130575Y152136D01*
X131240Y151269D01*
X132107Y150604D01*
X133117Y150186D01*
X134200Y150043D01*
X135283Y150186D01*
X136293Y150604D01*
X137160Y151269D01*
X137825Y152136D01*
X138243Y153145D01*
X138385Y154228D01*
Y157772D01*
X138243Y158855D01*
X137825Y159864D01*
X137160Y160731D01*
X136293Y161396D01*
X135283Y161814D01*
X134200Y161957D01*
D02*
G37*
G36*
X124200D02*
X123117Y161814D01*
X122107Y161396D01*
X121240Y160731D01*
X120575Y159864D01*
X120157Y158855D01*
X120015Y157772D01*
Y154228D01*
X120157Y153145D01*
X120575Y152136D01*
X121240Y151269D01*
X122107Y150604D01*
X123117Y150186D01*
X124200Y150043D01*
X125283Y150186D01*
X126293Y150604D01*
X127160Y151269D01*
X127825Y152136D01*
X128243Y153145D01*
X128385Y154228D01*
Y157772D01*
X128243Y158855D01*
X127825Y159864D01*
X127160Y160731D01*
X126293Y161396D01*
X125283Y161814D01*
X124200Y161957D01*
D02*
G37*
G36*
X114200D02*
X113117Y161814D01*
X112107Y161396D01*
X111240Y160731D01*
X110575Y159864D01*
X110157Y158855D01*
X110015Y157772D01*
Y154228D01*
X110157Y153145D01*
X110575Y152136D01*
X111240Y151269D01*
X112107Y150604D01*
X113117Y150186D01*
X114200Y150043D01*
X115283Y150186D01*
X116293Y150604D01*
X117159Y151269D01*
X117825Y152136D01*
X118243Y153145D01*
X118385Y154228D01*
Y157772D01*
X118243Y158855D01*
X117825Y159864D01*
X117159Y160731D01*
X116293Y161396D01*
X115283Y161814D01*
X114200Y161957D01*
D02*
G37*
G36*
X104200D02*
X103117Y161814D01*
X102107Y161396D01*
X101241Y160731D01*
X100575Y159864D01*
X100157Y158855D01*
X100015Y157772D01*
Y154228D01*
X100157Y153145D01*
X100575Y152136D01*
X101241Y151269D01*
X102107Y150604D01*
X103117Y150186D01*
X104200Y150043D01*
X105283Y150186D01*
X106293Y150604D01*
X107159Y151269D01*
X107825Y152136D01*
X108243Y153145D01*
X108385Y154228D01*
Y157772D01*
X108243Y158855D01*
X107825Y159864D01*
X107159Y160731D01*
X106293Y161396D01*
X105283Y161814D01*
X104200Y161957D01*
D02*
G37*
G36*
X94200D02*
X93117Y161814D01*
X92107Y161396D01*
X91241Y160731D01*
X90575Y159864D01*
X90157Y158855D01*
X90015Y157772D01*
Y154228D01*
X90157Y153145D01*
X90575Y152136D01*
X91241Y151269D01*
X92107Y150604D01*
X93117Y150186D01*
X94200Y150043D01*
X95283Y150186D01*
X96293Y150604D01*
X97159Y151269D01*
X97825Y152136D01*
X98243Y153145D01*
X98385Y154228D01*
Y157772D01*
X98243Y158855D01*
X97825Y159864D01*
X97159Y160731D01*
X96293Y161396D01*
X95283Y161814D01*
X94200Y161957D01*
D02*
G37*
G36*
X29700Y150120D02*
Y146500D01*
X33320D01*
X33243Y147083D01*
X32825Y148093D01*
X32160Y148960D01*
X31293Y149625D01*
X30283Y150043D01*
X29700Y150120D01*
D02*
G37*
G36*
X28700D02*
X28117Y150043D01*
X27107Y149625D01*
X26241Y148960D01*
X25575Y148093D01*
X25157Y147083D01*
X25080Y146500D01*
X28700D01*
Y150120D01*
D02*
G37*
G36*
X94700Y145624D02*
Y144000D01*
X96324D01*
X96254Y144351D01*
X95772Y145072D01*
X95051Y145554D01*
X94700Y145624D01*
D02*
G37*
G36*
X93700D02*
X93349Y145554D01*
X92628Y145072D01*
X92146Y144351D01*
X92076Y144000D01*
X93700D01*
Y145624D01*
D02*
G37*
G36*
X33320Y145500D02*
X29700D01*
Y141880D01*
X30283Y141957D01*
X31293Y142375D01*
X32160Y143041D01*
X32825Y143907D01*
X33243Y144917D01*
X33320Y145500D01*
D02*
G37*
G36*
X28700D02*
X25080D01*
X25157Y144917D01*
X25575Y143907D01*
X26241Y143041D01*
X27107Y142375D01*
X28117Y141957D01*
X28700Y141880D01*
Y145500D01*
D02*
G37*
G36*
X96324Y143000D02*
X94700D01*
Y141376D01*
X95051Y141446D01*
X95772Y141928D01*
X96254Y142649D01*
X96324Y143000D01*
D02*
G37*
G36*
X93700D02*
X92076D01*
X92146Y142649D01*
X92628Y141928D01*
X93349Y141446D01*
X93700Y141376D01*
Y143000D01*
D02*
G37*
G36*
X25121Y135150D02*
X13279D01*
Y126850D01*
X25121D01*
Y135150D01*
D02*
G37*
G36*
X184200Y136957D02*
X183117Y136814D01*
X182107Y136396D01*
X181240Y135731D01*
X180575Y134864D01*
X180157Y133855D01*
X180015Y132772D01*
Y129228D01*
X180157Y128145D01*
X180575Y127136D01*
X181240Y126269D01*
X182107Y125604D01*
X183117Y125186D01*
X184200Y125043D01*
X185283Y125186D01*
X186293Y125604D01*
X187160Y126269D01*
X187825Y127136D01*
X188243Y128145D01*
X188385Y129228D01*
Y132772D01*
X188243Y133855D01*
X187825Y134864D01*
X187160Y135731D01*
X186293Y136396D01*
X185283Y136814D01*
X184200Y136957D01*
D02*
G37*
G36*
X174200D02*
X173117Y136814D01*
X172107Y136396D01*
X171240Y135731D01*
X170575Y134864D01*
X170157Y133855D01*
X170015Y132772D01*
Y129228D01*
X170157Y128145D01*
X170575Y127136D01*
X171240Y126269D01*
X172107Y125604D01*
X173117Y125186D01*
X174200Y125043D01*
X175283Y125186D01*
X176293Y125604D01*
X177160Y126269D01*
X177825Y127136D01*
X178243Y128145D01*
X178385Y129228D01*
Y132772D01*
X178243Y133855D01*
X177825Y134864D01*
X177160Y135731D01*
X176293Y136396D01*
X175283Y136814D01*
X174200Y136957D01*
D02*
G37*
G36*
X154200D02*
X153117Y136814D01*
X152107Y136396D01*
X151241Y135731D01*
X150575Y134864D01*
X150157Y133855D01*
X150015Y132772D01*
Y129228D01*
X150157Y128145D01*
X150575Y127136D01*
X151241Y126269D01*
X152107Y125604D01*
X153117Y125186D01*
X154200Y125043D01*
X155283Y125186D01*
X156293Y125604D01*
X157159Y126269D01*
X157825Y127136D01*
X158243Y128145D01*
X158385Y129228D01*
Y132772D01*
X158243Y133855D01*
X157825Y134864D01*
X157159Y135731D01*
X156293Y136396D01*
X155283Y136814D01*
X154200Y136957D01*
D02*
G37*
G36*
X144200D02*
X143117Y136814D01*
X142107Y136396D01*
X141241Y135731D01*
X140575Y134864D01*
X140157Y133855D01*
X140015Y132772D01*
Y129228D01*
X140157Y128145D01*
X140575Y127136D01*
X141241Y126269D01*
X142107Y125604D01*
X143117Y125186D01*
X144200Y125043D01*
X145283Y125186D01*
X146293Y125604D01*
X147160Y126269D01*
X147825Y127136D01*
X148243Y128145D01*
X148385Y129228D01*
Y132772D01*
X148243Y133855D01*
X147825Y134864D01*
X147160Y135731D01*
X146293Y136396D01*
X145283Y136814D01*
X144200Y136957D01*
D02*
G37*
G36*
X134200D02*
X133117Y136814D01*
X132107Y136396D01*
X131240Y135731D01*
X130575Y134864D01*
X130157Y133855D01*
X130015Y132772D01*
Y129228D01*
X130157Y128145D01*
X130575Y127136D01*
X131240Y126269D01*
X132107Y125604D01*
X133117Y125186D01*
X134200Y125043D01*
X135283Y125186D01*
X136293Y125604D01*
X137160Y126269D01*
X137825Y127136D01*
X138243Y128145D01*
X138385Y129228D01*
Y132772D01*
X138243Y133855D01*
X137825Y134864D01*
X137160Y135731D01*
X136293Y136396D01*
X135283Y136814D01*
X134200Y136957D01*
D02*
G37*
G36*
X124200D02*
X123117Y136814D01*
X122107Y136396D01*
X121240Y135731D01*
X120575Y134864D01*
X120157Y133855D01*
X120015Y132772D01*
Y129228D01*
X120157Y128145D01*
X120575Y127136D01*
X121240Y126269D01*
X122107Y125604D01*
X123117Y125186D01*
X124200Y125043D01*
X125283Y125186D01*
X126293Y125604D01*
X127160Y126269D01*
X127825Y127136D01*
X128243Y128145D01*
X128385Y129228D01*
Y132772D01*
X128243Y133855D01*
X127825Y134864D01*
X127160Y135731D01*
X126293Y136396D01*
X125283Y136814D01*
X124200Y136957D01*
D02*
G37*
G36*
X114200D02*
X113117Y136814D01*
X112107Y136396D01*
X111240Y135731D01*
X110575Y134864D01*
X110157Y133855D01*
X110015Y132772D01*
Y129228D01*
X110157Y128145D01*
X110575Y127136D01*
X111240Y126269D01*
X112107Y125604D01*
X113117Y125186D01*
X114200Y125043D01*
X115283Y125186D01*
X116293Y125604D01*
X117159Y126269D01*
X117825Y127136D01*
X118243Y128145D01*
X118385Y129228D01*
Y132772D01*
X118243Y133855D01*
X117825Y134864D01*
X117159Y135731D01*
X116293Y136396D01*
X115283Y136814D01*
X114200Y136957D01*
D02*
G37*
G36*
X104200D02*
X103117Y136814D01*
X102107Y136396D01*
X101241Y135731D01*
X100575Y134864D01*
X100157Y133855D01*
X100015Y132772D01*
Y129228D01*
X100157Y128145D01*
X100575Y127136D01*
X101241Y126269D01*
X102107Y125604D01*
X103117Y125186D01*
X104200Y125043D01*
X105283Y125186D01*
X106293Y125604D01*
X107159Y126269D01*
X107825Y127136D01*
X108243Y128145D01*
X108385Y129228D01*
Y132772D01*
X108243Y133855D01*
X107825Y134864D01*
X107159Y135731D01*
X106293Y136396D01*
X105283Y136814D01*
X104200Y136957D01*
D02*
G37*
G36*
X94200D02*
X93117Y136814D01*
X92107Y136396D01*
X91241Y135731D01*
X90575Y134864D01*
X90157Y133855D01*
X90015Y132772D01*
Y129228D01*
X90157Y128145D01*
X90575Y127136D01*
X91241Y126269D01*
X92107Y125604D01*
X93117Y125186D01*
X94200Y125043D01*
X95283Y125186D01*
X96293Y125604D01*
X97159Y126269D01*
X97825Y127136D01*
X98243Y128145D01*
X98385Y129228D01*
Y132772D01*
X98243Y133855D01*
X97825Y134864D01*
X97159Y135731D01*
X96293Y136396D01*
X95283Y136814D01*
X94200Y136957D01*
D02*
G37*
G36*
X20972Y125185D02*
X17428D01*
X16345Y125043D01*
X15336Y124625D01*
X14469Y123960D01*
X13804Y123093D01*
X13386Y122083D01*
X13243Y121000D01*
X13386Y119917D01*
X13804Y118907D01*
X14469Y118041D01*
X15336Y117375D01*
X16345Y116957D01*
X17428Y116815D01*
X20972D01*
X22055Y116957D01*
X23064Y117375D01*
X23931Y118041D01*
X24596Y118907D01*
X25014Y119917D01*
X25157Y121000D01*
X25014Y122083D01*
X24596Y123093D01*
X23931Y123960D01*
X23064Y124625D01*
X22055Y125043D01*
X20972Y125185D01*
D02*
G37*
G36*
X93700Y117124D02*
Y115500D01*
X95324D01*
X95254Y115851D01*
X94772Y116572D01*
X94051Y117054D01*
X93700Y117124D01*
D02*
G37*
G36*
X92700D02*
X92349Y117054D01*
X91628Y116572D01*
X91145Y115851D01*
X91076Y115500D01*
X92700D01*
Y117124D01*
D02*
G37*
G36*
X95324Y114500D02*
X93700D01*
Y112876D01*
X94051Y112945D01*
X94772Y113427D01*
X95254Y114149D01*
X95324Y114500D01*
D02*
G37*
G36*
X92700D02*
X91076D01*
X91145Y114149D01*
X91628Y113427D01*
X92349Y112945D01*
X92700Y112876D01*
Y114500D01*
D02*
G37*
G36*
X20972Y115185D02*
X17428D01*
X16345Y115043D01*
X15336Y114625D01*
X14469Y113960D01*
X13804Y113093D01*
X13386Y112083D01*
X13243Y111000D01*
X13386Y109917D01*
X13804Y108907D01*
X14469Y108040D01*
X15336Y107375D01*
X16345Y106957D01*
X17428Y106815D01*
X20972D01*
X22055Y106957D01*
X23064Y107375D01*
X23931Y108040D01*
X24596Y108907D01*
X25014Y109917D01*
X25157Y111000D01*
X25014Y112083D01*
X24596Y113093D01*
X23931Y113960D01*
X23064Y114625D01*
X22055Y115043D01*
X20972Y115185D01*
D02*
G37*
G36*
Y105185D02*
X17428D01*
X16345Y105043D01*
X15336Y104625D01*
X14469Y103960D01*
X13804Y103093D01*
X13386Y102083D01*
X13243Y101000D01*
X13386Y99917D01*
X13804Y98907D01*
X14469Y98040D01*
X15336Y97375D01*
X16345Y96957D01*
X17428Y96815D01*
X20972D01*
X22055Y96957D01*
X23064Y97375D01*
X23931Y98040D01*
X24596Y98907D01*
X25014Y99917D01*
X25157Y101000D01*
X25014Y102083D01*
X24596Y103093D01*
X23931Y103960D01*
X23064Y104625D01*
X22055Y105043D01*
X20972Y105185D01*
D02*
G37*
G36*
X10700Y97971D02*
Y96346D01*
X12324D01*
X12255Y96697D01*
X11772Y97419D01*
X11051Y97901D01*
X10700Y97971D01*
D02*
G37*
G36*
X9700D02*
X9349Y97901D01*
X8627Y97419D01*
X8145Y96697D01*
X8076Y96346D01*
X9700D01*
Y97971D01*
D02*
G37*
G36*
X12324Y95346D02*
X10700D01*
Y93722D01*
X11051Y93792D01*
X11772Y94274D01*
X12255Y94995D01*
X12324Y95346D01*
D02*
G37*
G36*
X9700D02*
X8076D01*
X8145Y94995D01*
X8627Y94274D01*
X9349Y93792D01*
X9700Y93722D01*
Y95346D01*
D02*
G37*
G36*
X73320Y95500D02*
X69700D01*
Y91880D01*
X70283Y91957D01*
X71293Y92375D01*
X72159Y93041D01*
X72825Y93907D01*
X73243Y94917D01*
X73320Y95500D01*
D02*
G37*
G36*
X20972Y95185D02*
X17428D01*
X16345Y95043D01*
X15336Y94625D01*
X14469Y93959D01*
X13804Y93093D01*
X13386Y92083D01*
X13243Y91000D01*
X13386Y89917D01*
X13804Y88907D01*
X14469Y88041D01*
X15336Y87375D01*
X16345Y86957D01*
X17428Y86815D01*
X20972D01*
X22055Y86957D01*
X23064Y87375D01*
X23931Y88041D01*
X24596Y88907D01*
X25014Y89917D01*
X25157Y91000D01*
X25014Y92083D01*
X24596Y93093D01*
X23931Y93959D01*
X23064Y94625D01*
X22055Y95043D01*
X20972Y95185D01*
D02*
G37*
G36*
X159200Y88124D02*
Y86500D01*
X160824D01*
X160755Y86851D01*
X160273Y87572D01*
X159551Y88055D01*
X159200Y88124D01*
D02*
G37*
G36*
X158200D02*
X157849Y88055D01*
X157127Y87572D01*
X156646Y86851D01*
X156576Y86500D01*
X158200D01*
Y88124D01*
D02*
G37*
G36*
X160824Y85500D02*
X159200D01*
Y83876D01*
X159551Y83946D01*
X160273Y84427D01*
X160755Y85149D01*
X160824Y85500D01*
D02*
G37*
G36*
X158200D02*
X156576D01*
X156646Y85149D01*
X157127Y84427D01*
X157849Y83946D01*
X158200Y83876D01*
Y85500D01*
D02*
G37*
G36*
X20972Y85185D02*
X17428D01*
X16345Y85043D01*
X15336Y84625D01*
X14469Y83960D01*
X13804Y83093D01*
X13386Y82083D01*
X13243Y81000D01*
X13386Y79917D01*
X13804Y78907D01*
X14469Y78040D01*
X15336Y77375D01*
X16345Y76957D01*
X17428Y76815D01*
X20972D01*
X22055Y76957D01*
X23064Y77375D01*
X23931Y78040D01*
X24596Y78907D01*
X25014Y79917D01*
X25157Y81000D01*
X25014Y82083D01*
X24596Y83093D01*
X23931Y83960D01*
X23064Y84625D01*
X22055Y85043D01*
X20972Y85185D01*
D02*
G37*
G36*
X214700Y76891D02*
Y71500D01*
X218385D01*
Y72772D01*
X218243Y73855D01*
X217825Y74864D01*
X217160Y75731D01*
X216293Y76396D01*
X215283Y76815D01*
X214700Y76891D01*
D02*
G37*
G36*
X20972Y75185D02*
X19700D01*
Y71500D01*
X25091D01*
X25014Y72083D01*
X24596Y73093D01*
X23931Y73959D01*
X23064Y74625D01*
X22055Y75043D01*
X20972Y75185D01*
D02*
G37*
G36*
X18700D02*
X17428D01*
X16345Y75043D01*
X15336Y74625D01*
X14469Y73959D01*
X13804Y73093D01*
X13386Y72083D01*
X13309Y71500D01*
X18700D01*
Y75185D01*
D02*
G37*
G36*
X213700Y76891D02*
X213117Y76815D01*
X212107Y76396D01*
X211241Y75731D01*
X210575Y74864D01*
X210157Y73855D01*
X210015Y72772D01*
Y71500D01*
X213700D01*
Y76891D01*
D02*
G37*
G36*
X25091Y70500D02*
X19700D01*
Y66815D01*
X20972D01*
X22055Y66957D01*
X23064Y67375D01*
X23931Y68041D01*
X24596Y68907D01*
X25014Y69917D01*
X25091Y70500D01*
D02*
G37*
G36*
X18700D02*
X13309D01*
X13386Y69917D01*
X13804Y68907D01*
X14469Y68041D01*
X15336Y67375D01*
X16345Y66957D01*
X17428Y66815D01*
X18700D01*
Y70500D01*
D02*
G37*
G36*
X218385D02*
X214700D01*
Y65109D01*
X215283Y65185D01*
X216293Y65604D01*
X217160Y66269D01*
X217825Y67136D01*
X218243Y68145D01*
X218385Y69228D01*
Y70500D01*
D02*
G37*
G36*
X213700D02*
X210015D01*
Y69228D01*
X210157Y68145D01*
X210575Y67136D01*
X211241Y66269D01*
X212107Y65604D01*
X213117Y65185D01*
X213700Y65109D01*
Y70500D01*
D02*
G37*
G36*
X88350Y76921D02*
X80050D01*
Y65079D01*
X88350D01*
Y76921D01*
D02*
G37*
G36*
X204200Y76957D02*
X203117Y76815D01*
X202107Y76396D01*
X201240Y75731D01*
X200575Y74864D01*
X200157Y73855D01*
X200015Y72772D01*
Y69228D01*
X200157Y68145D01*
X200575Y67136D01*
X201240Y66269D01*
X202107Y65604D01*
X203117Y65185D01*
X204200Y65043D01*
X204818Y65124D01*
X206918Y63024D01*
X206891Y62885D01*
X207075Y61957D01*
X207601Y61171D01*
X208387Y60645D01*
X209315Y60460D01*
X210243Y60645D01*
X211030Y61171D01*
X211555Y61957D01*
X211740Y62885D01*
X211555Y63813D01*
X211030Y64599D01*
X210243Y65125D01*
X209905Y65192D01*
X207865Y67232D01*
X208243Y68145D01*
X208385Y69228D01*
Y72772D01*
X208243Y73855D01*
X207825Y74864D01*
X207159Y75731D01*
X206293Y76396D01*
X205283Y76815D01*
X204200Y76957D01*
D02*
G37*
G36*
X194200D02*
X193117Y76815D01*
X192107Y76396D01*
X191241Y75731D01*
X190575Y74864D01*
X190157Y73855D01*
X190015Y72772D01*
Y69228D01*
X190157Y68145D01*
X190575Y67136D01*
X191241Y66269D01*
X192107Y65604D01*
X193117Y65185D01*
X194200Y65043D01*
X195283Y65185D01*
X195746Y65377D01*
X206813Y54309D01*
X206960Y53572D01*
X207486Y52786D01*
X208272Y52260D01*
X209200Y52075D01*
X210128Y52260D01*
X210914Y52786D01*
X211440Y53572D01*
X211625Y54500D01*
X211440Y55428D01*
X210914Y56214D01*
X210128Y56740D01*
X209391Y56887D01*
X198210Y68067D01*
X198243Y68145D01*
X198385Y69228D01*
Y72772D01*
X198243Y73855D01*
X197825Y74864D01*
X197160Y75731D01*
X196293Y76396D01*
X195283Y76815D01*
X194200Y76957D01*
D02*
G37*
G36*
X222200Y52818D02*
X221565Y52735D01*
X220508Y52297D01*
X219600Y51600D01*
X218903Y50692D01*
X218465Y49635D01*
X218382Y49000D01*
X222200D01*
Y52818D01*
D02*
G37*
G36*
X6700D02*
Y49000D01*
X10518D01*
X10435Y49635D01*
X9997Y50692D01*
X9300Y51600D01*
X8392Y52297D01*
X7335Y52735D01*
X6700Y52818D01*
D02*
G37*
G36*
X5700D02*
X5065Y52735D01*
X4008Y52297D01*
X3100Y51600D01*
X2403Y50692D01*
X1965Y49635D01*
X1882Y49000D01*
X5700D01*
Y52818D01*
D02*
G37*
G36*
X222200Y48000D02*
X218382D01*
X218465Y47365D01*
X218903Y46308D01*
X219600Y45400D01*
X220508Y44703D01*
X221565Y44265D01*
X222200Y44182D01*
Y48000D01*
D02*
G37*
G36*
X10518D02*
X6700D01*
Y44182D01*
X7335Y44265D01*
X8392Y44703D01*
X9300Y45400D01*
X9997Y46308D01*
X10435Y47365D01*
X10518Y48000D01*
D02*
G37*
G36*
X5700D02*
X1882D01*
X1965Y47365D01*
X2403Y46308D01*
X3100Y45400D01*
X4008Y44703D01*
X5065Y44265D01*
X5700Y44182D01*
Y48000D01*
D02*
G37*
G36*
X184200Y76957D02*
X183117Y76815D01*
X182107Y76396D01*
X181240Y75731D01*
X180575Y74864D01*
X180157Y73855D01*
X180015Y72772D01*
Y69228D01*
X180157Y68145D01*
X180575Y67136D01*
X181240Y66269D01*
X182107Y65604D01*
X183117Y65185D01*
X184200Y65043D01*
X185283Y65185D01*
X185949Y65461D01*
X206813Y44596D01*
X206960Y43859D01*
X207486Y43073D01*
X208272Y42547D01*
X209200Y42362D01*
X210128Y42547D01*
X210914Y43073D01*
X211440Y43859D01*
X211625Y44787D01*
X211440Y45715D01*
X210914Y46501D01*
X210128Y47027D01*
X209391Y47174D01*
X188263Y68301D01*
X188385Y69228D01*
Y72772D01*
X188243Y73855D01*
X187825Y74864D01*
X187160Y75731D01*
X186293Y76396D01*
X185283Y76815D01*
X184200Y76957D01*
D02*
G37*
G36*
X183700Y35124D02*
X183349Y35055D01*
X182627Y34572D01*
X182146Y33851D01*
X182076Y33500D01*
X183700D01*
Y35124D01*
D02*
G37*
G36*
X174200D02*
Y33500D01*
X175824D01*
X175754Y33851D01*
X175273Y34572D01*
X174551Y35055D01*
X174200Y35124D01*
D02*
G37*
G36*
X163700D02*
X163349Y35055D01*
X162627Y34572D01*
X162145Y33851D01*
X162076Y33500D01*
X163700D01*
Y35124D01*
D02*
G37*
G36*
X153700D02*
X153349Y35055D01*
X152628Y34572D01*
X152146Y33851D01*
X152076Y33500D01*
X153700D01*
Y35124D01*
D02*
G37*
G36*
X143700D02*
X143349Y35055D01*
X142628Y34572D01*
X142146Y33851D01*
X142076Y33500D01*
X143700D01*
Y35124D01*
D02*
G37*
G36*
X186324Y32500D02*
X184700D01*
Y30876D01*
X185051Y30945D01*
X185773Y31427D01*
X186255Y32149D01*
X186324Y32500D01*
D02*
G37*
G36*
X183700D02*
X182076D01*
X182146Y32149D01*
X182627Y31427D01*
X183349Y30945D01*
X183700Y30876D01*
Y32500D01*
D02*
G37*
G36*
X175824D02*
X174200D01*
Y30876D01*
X174551Y30945D01*
X175273Y31427D01*
X175754Y32149D01*
X175824Y32500D01*
D02*
G37*
G36*
X166324D02*
X164700D01*
Y30876D01*
X165051Y30945D01*
X165772Y31427D01*
X166254Y32149D01*
X166324Y32500D01*
D02*
G37*
G36*
X163700D02*
X162076D01*
X162145Y32149D01*
X162627Y31427D01*
X163349Y30945D01*
X163700Y30876D01*
Y32500D01*
D02*
G37*
G36*
X156324D02*
X154700D01*
Y30876D01*
X155051Y30945D01*
X155772Y31427D01*
X156254Y32149D01*
X156324Y32500D01*
D02*
G37*
G36*
X153700D02*
X152076D01*
X152146Y32149D01*
X152628Y31427D01*
X153349Y30945D01*
X153700Y30876D01*
Y32500D01*
D02*
G37*
G36*
X146324D02*
X144700D01*
Y30876D01*
X145051Y30945D01*
X145773Y31427D01*
X146255Y32149D01*
X146324Y32500D01*
D02*
G37*
G36*
X143700D02*
X142076D01*
X142146Y32149D01*
X142628Y31427D01*
X143349Y30945D01*
X143700Y30876D01*
Y32500D01*
D02*
G37*
G36*
X221168Y30805D02*
X219700D01*
Y16500D01*
X224163D01*
Y27811D01*
X224061Y28586D01*
X223762Y29308D01*
X223286Y29928D01*
X222666Y30404D01*
X221943Y30703D01*
X221168Y30805D01*
D02*
G37*
G36*
X8700D02*
X7231D01*
X6457Y30703D01*
X5734Y30404D01*
X5114Y29928D01*
X4639Y29308D01*
X4339Y28586D01*
X4237Y27811D01*
Y16500D01*
X8700D01*
Y30805D01*
D02*
G37*
G36*
X59625Y67790D02*
Y66166D01*
X61250D01*
X61180Y66517D01*
X60698Y67238D01*
X59976Y67721D01*
X59625Y67790D01*
D02*
G37*
G36*
X58625D02*
X58274Y67721D01*
X57553Y67238D01*
X57071Y66517D01*
X57001Y66166D01*
X58625D01*
Y67790D01*
D02*
G37*
G36*
X61250Y65166D02*
X59625D01*
Y63542D01*
X59976Y63611D01*
X60698Y64094D01*
X61180Y64815D01*
X61250Y65166D01*
D02*
G37*
G36*
X58625D02*
X57001D01*
X57071Y64815D01*
X57553Y64094D01*
X58274Y63611D01*
X58625Y63542D01*
Y65166D01*
D02*
G37*
G36*
X73200Y48887D02*
Y47263D01*
X74824D01*
X74755Y47614D01*
X74273Y48335D01*
X73551Y48817D01*
X73200Y48887D01*
D02*
G37*
G36*
X72200D02*
X71849Y48817D01*
X71127Y48335D01*
X70645Y47614D01*
X70576Y47263D01*
X72200D01*
Y48887D01*
D02*
G37*
G36*
X74824Y46263D02*
X73200D01*
Y44638D01*
X73551Y44708D01*
X74273Y45190D01*
X74755Y45912D01*
X74824Y46263D01*
D02*
G37*
G36*
X72200D02*
X70576D01*
X70645Y45912D01*
X71127Y45190D01*
X71849Y44708D01*
X72200Y44638D01*
Y46263D01*
D02*
G37*
G36*
X36700Y45632D02*
Y44008D01*
X38324D01*
X38255Y44359D01*
X37773Y45081D01*
X37051Y45562D01*
X36700Y45632D01*
D02*
G37*
G36*
X35700Y43008D02*
X34076D01*
X34145Y42657D01*
X34628Y41936D01*
X35349Y41453D01*
X35700Y41384D01*
Y43008D01*
D02*
G37*
G36*
X54200Y42000D02*
X52576D01*
X52645Y41649D01*
X53127Y40927D01*
X53849Y40445D01*
X54200Y40376D01*
Y42000D01*
D02*
G37*
G36*
X54317Y34624D02*
Y33000D01*
X55942D01*
X55872Y33351D01*
X55390Y34073D01*
X54668Y34555D01*
X54317Y34624D01*
D02*
G37*
G36*
X53317D02*
X52966Y34555D01*
X52245Y34073D01*
X51763Y33351D01*
X51693Y33000D01*
X53317D01*
Y34624D01*
D02*
G37*
%LPD*%
D25*
X29200Y16000D02*
D03*
X19200D02*
D03*
X69200D02*
D03*
X59200D02*
D03*
X49200D02*
D03*
X99200D02*
D03*
X89200D02*
D03*
X129200D02*
D03*
X119200D02*
D03*
X159200D02*
D03*
X149200D02*
D03*
X189200D02*
D03*
X179200D02*
D03*
X219200D02*
D03*
X209200D02*
D03*
X79200D02*
D03*
X39200D02*
D03*
X9200D02*
D03*
X199200D02*
D03*
X169200D02*
D03*
X139200D02*
D03*
X109200D02*
D03*
D26*
X39200Y40500D02*
X40200D01*
X50066Y50366D01*
X20848Y51165D02*
X37013Y35000D01*
X45700D01*
X49200Y31500D01*
X113958Y35109D02*
X114184Y35335D01*
X109200Y16000D02*
Y32142D01*
X112167Y35109D01*
X113958D01*
X83700Y32760D02*
Y45474D01*
X66200Y39500D02*
Y49500D01*
X64535Y51165D02*
X66200Y49500D01*
X62974Y36515D02*
Y48000D01*
X66200Y39500D02*
X70147Y35553D01*
X77092D01*
X79200Y16000D02*
Y33444D01*
X77092Y35553D02*
X79200Y33444D01*
X57855Y51165D02*
X64535D01*
X62974Y36515D02*
X68270Y31219D01*
X53414Y50366D02*
X57048Y54000D01*
X50066Y50366D02*
X53414D01*
X53817Y47128D02*
X57855Y51165D01*
X58700Y16500D02*
Y47500D01*
Y16500D02*
X59200Y16000D01*
X57048Y54000D02*
X69200D01*
X68270Y16930D02*
Y31219D01*
Y16930D02*
X69200Y16000D01*
X97554Y164291D02*
X149263D01*
X117940Y45760D02*
Y47375D01*
Y45760D02*
X129200Y34500D01*
X100575Y17375D02*
Y48928D01*
X99200Y16000D02*
X100575Y17375D01*
X20035Y51165D02*
X20848D01*
X16700Y54500D02*
X20035Y51165D01*
X88200Y233500D02*
X118700D01*
X19200Y48000D02*
X29200Y38000D01*
X13200Y49000D02*
X19200Y43000D01*
Y16000D02*
Y43000D01*
X13200Y49000D02*
Y56500D01*
X29200Y16000D02*
Y38000D01*
X209200Y165000D02*
X212700Y168500D01*
X209200Y106000D02*
Y165000D01*
X74200Y229000D02*
X116200D01*
X68962Y225238D02*
X68962D01*
X69200Y225000D01*
X113200D01*
X149263Y164291D02*
X154200Y169228D01*
X45446Y166000D02*
X95846D01*
X97554Y164291D01*
X42491Y168955D02*
X45446Y166000D01*
X42491Y168955D02*
Y186063D01*
X47428Y191000D02*
X49200D01*
X42491Y186063D02*
X47428Y191000D01*
X154200Y169228D02*
Y171000D01*
X164200D01*
X204200Y282000D02*
X207200Y279000D01*
X204200Y282000D02*
Y306023D01*
X219200Y321023D02*
Y331000D01*
X204200Y306023D02*
X219200Y321023D01*
X199200Y161500D02*
X212700Y175000D01*
X108893Y207709D02*
X204662D01*
X209263Y212309D01*
Y223000D01*
X84719Y198981D02*
X100164D01*
X108893Y207709D01*
X91200Y103575D02*
X193200D01*
X199200Y109575D01*
Y161500D01*
X204200Y101000D02*
X209200Y106000D01*
X67218Y101000D02*
X204200D01*
X64263Y64911D02*
X83700Y45474D01*
X64263Y64911D02*
Y98045D01*
X67218Y101000D01*
X94200Y50474D02*
Y71000D01*
X89200Y16000D02*
Y45474D01*
X94200Y50474D01*
X101021Y249886D02*
X102134Y251000D01*
X129200D01*
X99035Y245254D02*
Y245574D01*
X101021Y247560D01*
Y249886D01*
X124200Y171000D02*
X134200D01*
X87596Y294104D02*
X101200Y280500D01*
X67159Y294104D02*
X87596D01*
X53555Y307709D02*
X67159Y294104D01*
X74263Y287709D02*
X79200Y282772D01*
X54137Y287709D02*
X74263D01*
X79200Y281000D02*
Y282772D01*
X34137Y307709D02*
X53555D01*
X29200Y302772D02*
X34137Y307709D01*
X29200Y301000D02*
Y302772D01*
X18200Y61500D02*
X27200D01*
X55909Y68955D02*
Y96063D01*
X49200Y101000D02*
X50972D01*
X49200Y62246D02*
X55909Y68955D01*
X49200Y55500D02*
Y62246D01*
X50972Y101000D02*
X55909Y96063D01*
X13200Y56500D02*
X18200Y61500D01*
X49200Y16000D02*
Y31500D01*
X39200Y301000D02*
X49200D01*
X19200D02*
X29200D01*
X49200Y251000D02*
X59200D01*
X64263Y244291D02*
X69200Y249228D01*
X39200D02*
X44137Y244291D01*
X64263D01*
X39200Y249228D02*
Y251000D01*
X69200Y249228D02*
Y251000D01*
X59200Y281000D02*
X69200D01*
X49200Y282772D02*
X54137Y287709D01*
X49200Y281000D02*
Y282772D01*
X174200Y169228D02*
Y171000D01*
X169137Y164165D02*
X174200Y169228D01*
X169137Y137709D02*
Y164165D01*
X164200Y131000D02*
Y132772D01*
X169137Y137709D01*
X129200Y16000D02*
Y34500D01*
X112535Y46689D02*
Y54835D01*
X112700Y55000D01*
X112535Y46689D02*
X119319Y39904D01*
Y16119D02*
Y39904D01*
X104200Y69228D02*
X139200Y34228D01*
Y16000D02*
Y34228D01*
X119200Y16000D02*
X119319Y16119D01*
X184200Y69787D02*
Y71000D01*
X174200Y69228D02*
X209200Y34228D01*
X184200Y69787D02*
X209200Y44787D01*
Y16000D02*
Y34228D01*
X164200Y69228D02*
X199200Y34228D01*
Y16000D02*
Y34228D01*
X204200Y68320D02*
Y71000D01*
Y68320D02*
X209315Y63204D01*
Y62885D02*
Y63204D01*
X194200Y69500D02*
Y71000D01*
Y69500D02*
X209200Y54500D01*
X174200Y69228D02*
Y71000D01*
X164200Y69228D02*
Y71000D01*
X189200Y16000D02*
Y34228D01*
X154200Y69228D02*
X189200Y34228D01*
X154200Y69228D02*
Y71000D01*
X179200Y16000D02*
Y34228D01*
X144200Y69228D02*
X179200Y34228D01*
X144200Y69228D02*
Y71000D01*
X169200Y16000D02*
Y34228D01*
X134200Y69228D02*
X169200Y34228D01*
X134200Y69228D02*
Y71000D01*
X159200Y16000D02*
Y34228D01*
X124200Y69228D02*
X159200Y34228D01*
X124200Y69228D02*
Y71000D01*
X149200Y16000D02*
Y34228D01*
X114200Y69228D02*
X149200Y34228D01*
X114200Y69228D02*
Y71000D01*
X104200Y69228D02*
Y71000D01*
D27*
X84200Y121000D02*
Y131000D01*
X69200Y106000D02*
X84200Y121000D01*
X39200Y56000D02*
Y146000D01*
Y165543D01*
X37751Y166992D02*
X39200Y165543D01*
X31537Y48337D02*
X39200Y56000D01*
X37751Y166992D02*
Y227811D01*
X31208Y48337D02*
X31537D01*
X134200Y181000D02*
X144200D01*
X104200D02*
X134200D01*
X21016Y161000D02*
X29200Y169184D01*
X134200Y181000D02*
Y201000D01*
X129200Y341000D02*
X159200D01*
X69200Y181000D02*
X104200D01*
X37751Y227811D02*
X39200Y229260D01*
X222200Y181000D02*
X222700Y181500D01*
X184200Y181000D02*
X222200D01*
X94200Y261000D02*
X207460D01*
X49200Y171000D02*
Y181000D01*
X94200Y247500D02*
Y261000D01*
X82700Y236000D02*
X94200Y247500D01*
X39200Y236000D02*
X82700D01*
X49200Y221000D02*
X51016D01*
X69125Y202891D01*
Y191075D02*
Y202891D01*
Y191075D02*
X69200Y191000D01*
X47535Y221000D02*
X49200D01*
X39275Y229260D02*
X47535Y221000D01*
X39275Y229260D02*
Y235925D01*
X39200Y236000D02*
X39275Y235925D01*
X49200Y131000D02*
X51016D01*
X69125Y112891D01*
Y106075D02*
Y112891D01*
Y106075D02*
X69200Y106000D01*
X47535Y131000D02*
X49200D01*
X39275Y139260D02*
X47535Y131000D01*
X19200Y329184D02*
Y331000D01*
Y329184D02*
X26258Y322126D01*
X32142D01*
X39200Y329184D01*
Y331000D01*
X79200Y251000D02*
Y252665D01*
X87460Y260925D01*
X94125D01*
X94200Y261000D01*
X199200Y251000D02*
Y252665D01*
X207460Y260925D01*
X214125D01*
X214200Y261000D01*
X124200Y199335D02*
Y201000D01*
X124018Y199153D02*
X124200Y199335D01*
X122353Y199153D02*
X124018D01*
X114275Y191075D02*
X122353Y199153D01*
X104275Y191075D02*
X114275D01*
X104200Y191000D02*
X104275Y191075D01*
X69200Y191000D02*
X104200D01*
X69200D02*
X84125Y205925D01*
Y215925D01*
X84200Y216000D01*
X129200Y281000D02*
Y281318D01*
X129018Y281500D02*
X129200Y281318D01*
X122700Y281500D02*
X129018D01*
X113806Y290394D02*
Y306157D01*
Y290394D02*
X122700Y281500D01*
X69200Y96000D02*
X191016D01*
X214200Y72816D01*
Y71000D02*
Y72816D01*
X29200Y79184D02*
Y146000D01*
X21016Y71000D02*
X29200Y79184D01*
X19200Y71000D02*
X21016D01*
X6200Y161000D02*
Y281000D01*
Y72000D02*
Y161000D01*
Y48500D02*
Y72000D01*
X7200Y71000D02*
X19200D01*
X6200Y72000D02*
X7200Y71000D01*
X6200Y161000D02*
X19200D01*
X49200Y181000D02*
X69200D01*
X29200Y169184D02*
Y236000D01*
X6200Y281000D02*
Y336500D01*
Y281000D02*
X19200D01*
X27384Y271000D02*
X94200D01*
X19200Y279184D02*
X27384Y271000D01*
X19200Y279184D02*
Y281000D01*
X64594Y306157D02*
X113806D01*
X129200Y271000D02*
X159200D01*
X94200D02*
X129200D01*
Y281000D01*
X159200Y271000D02*
X214200D01*
X159200D02*
Y281000D01*
X144200Y181000D02*
X164200D01*
X144200D02*
Y201000D01*
X164200Y181000D02*
X174200D01*
X164200D02*
Y201000D01*
X174200Y181000D02*
X184200D01*
X174200D02*
Y201000D01*
X184200Y171000D02*
Y181000D01*
X222700Y181500D02*
Y262544D01*
Y156000D02*
Y181500D01*
X149275Y340575D02*
X149700Y341000D01*
X139275Y340575D02*
X139700Y341000D01*
X29200Y146000D02*
Y169184D01*
X219200Y16000D02*
Y44787D01*
X222700Y48287D01*
Y48500D01*
Y72000D01*
X214382D02*
X222700D01*
X214200Y156000D02*
X222700D01*
Y72000D02*
Y156000D01*
X214244Y271000D02*
X222700Y262544D01*
X129200Y331000D02*
Y341000D01*
X139275Y331075D02*
Y340575D01*
X149275Y331075D02*
Y340575D01*
X159200Y331000D02*
Y341000D01*
X169200Y331000D02*
Y341000D01*
X179200Y331000D02*
Y341000D01*
X189200Y331000D02*
Y341000D01*
X199200Y331000D02*
Y341000D01*
X205741D02*
X209200Y337541D01*
Y331000D02*
Y337541D01*
X199200Y341000D02*
X205741D01*
X189200D02*
X199200D01*
X169200D02*
X179200D01*
X159200D02*
X169200D01*
X179200D02*
X189200D01*
X6200Y336500D02*
X10700Y341000D01*
X129200D01*
X9200Y16000D02*
Y45287D01*
X6200Y48287D02*
X9200Y45287D01*
X6200Y48287D02*
Y48500D01*
D28*
X84200Y156000D02*
D03*
Y71000D02*
D03*
X79200Y281000D02*
D03*
X199200D02*
D03*
X124200Y171000D02*
D03*
D29*
X94200Y156000D02*
D03*
X104200D02*
D03*
X114200D02*
D03*
X124200D02*
D03*
X134200D02*
D03*
X144200D02*
D03*
X154200D02*
D03*
X164200D02*
D03*
X174200D02*
D03*
X184200D02*
D03*
X194200D02*
D03*
X204200D02*
D03*
X214200D02*
D03*
X84200Y216000D02*
D03*
X94200D02*
D03*
X104200D02*
D03*
X114200D02*
D03*
X124200D02*
D03*
X134200D02*
D03*
X144200D02*
D03*
X154200D02*
D03*
X164200D02*
D03*
X174200D02*
D03*
X184200D02*
D03*
X194200D02*
D03*
X204200D02*
D03*
X214200D02*
D03*
X94200Y71000D02*
D03*
X104200D02*
D03*
X114200D02*
D03*
X124200D02*
D03*
X134200D02*
D03*
X144200D02*
D03*
X154200D02*
D03*
X164200D02*
D03*
X174200D02*
D03*
X184200D02*
D03*
X194200D02*
D03*
X204200D02*
D03*
X214200D02*
D03*
X84200Y131000D02*
D03*
X94200D02*
D03*
X104200D02*
D03*
X114200D02*
D03*
X124200D02*
D03*
X134200D02*
D03*
X144200D02*
D03*
X154200D02*
D03*
X164200D02*
D03*
X174200D02*
D03*
X184200D02*
D03*
X194200D02*
D03*
X204200D02*
D03*
X214200D02*
D03*
X69200Y281000D02*
D03*
X59200D02*
D03*
X49200D02*
D03*
X39200D02*
D03*
X29200D02*
D03*
X19200D02*
D03*
X79200Y251000D02*
D03*
X69200D02*
D03*
X59200D02*
D03*
X49200D02*
D03*
X39200D02*
D03*
X29200D02*
D03*
X19200D02*
D03*
X199200D02*
D03*
X189200D02*
D03*
Y281000D02*
D03*
X179200D02*
D03*
X169200D02*
D03*
X159200D02*
D03*
X149200D02*
D03*
X139200D02*
D03*
X179200Y251000D02*
D03*
X169200D02*
D03*
X159200D02*
D03*
X149200D02*
D03*
X139200D02*
D03*
X129200D02*
D03*
Y281000D02*
D03*
X134200Y171000D02*
D03*
X144200D02*
D03*
X154200D02*
D03*
X164200D02*
D03*
X174200D02*
D03*
X184200D02*
D03*
X124200Y201000D02*
D03*
X134200D02*
D03*
X144200D02*
D03*
X154200D02*
D03*
X164200D02*
D03*
X174200D02*
D03*
X184200D02*
D03*
D30*
X49200Y55500D02*
D03*
D31*
X19200Y301000D02*
D03*
X129200D02*
D03*
D32*
X29200D02*
D03*
X39200D02*
D03*
X49200D02*
D03*
Y331000D02*
D03*
X39200D02*
D03*
X29200D02*
D03*
X19200D02*
D03*
X129200D02*
D03*
X139200D02*
D03*
X149200D02*
D03*
X159200D02*
D03*
X169200D02*
D03*
X179200D02*
D03*
X189200D02*
D03*
X199200D02*
D03*
X209200D02*
D03*
X219200D02*
D03*
Y301000D02*
D03*
X209200D02*
D03*
X199200D02*
D03*
X189200D02*
D03*
X179200D02*
D03*
X169200D02*
D03*
X159200D02*
D03*
X149200D02*
D03*
X139200D02*
D03*
D33*
X64594Y325842D02*
D03*
X113806D02*
D03*
X64594Y306157D02*
D03*
X113806D02*
D03*
D34*
X214200Y271000D02*
D03*
Y261000D02*
D03*
X94200Y271000D02*
D03*
Y261000D02*
D03*
X29200Y236000D02*
D03*
X39200D02*
D03*
X29200Y146000D02*
D03*
X39200D02*
D03*
X69200Y96000D02*
D03*
Y106000D02*
D03*
Y181000D02*
D03*
Y191000D02*
D03*
X104200Y181000D02*
D03*
Y191000D02*
D03*
D35*
X19200Y221000D02*
D03*
Y131000D02*
D03*
D36*
Y211000D02*
D03*
Y201000D02*
D03*
Y191000D02*
D03*
Y181000D02*
D03*
Y171000D02*
D03*
Y161000D02*
D03*
X49200Y221000D02*
D03*
Y211000D02*
D03*
Y201000D02*
D03*
Y191000D02*
D03*
Y181000D02*
D03*
Y171000D02*
D03*
Y161000D02*
D03*
X19200Y121000D02*
D03*
Y111000D02*
D03*
Y101000D02*
D03*
Y91000D02*
D03*
Y81000D02*
D03*
Y71000D02*
D03*
X49200Y131000D02*
D03*
Y121000D02*
D03*
Y111000D02*
D03*
Y101000D02*
D03*
Y91000D02*
D03*
Y81000D02*
D03*
Y71000D02*
D03*
D37*
X53817Y32500D02*
D03*
X36200Y43508D02*
D03*
X54700Y42500D02*
D03*
X72700Y46763D02*
D03*
X115700Y254500D02*
D03*
X94200Y143500D02*
D03*
X93200Y115000D02*
D03*
X133700Y33474D02*
D03*
X59125Y65666D02*
D03*
X29700Y200000D02*
D03*
X10200Y95846D02*
D03*
X184200Y33000D02*
D03*
X173700D02*
D03*
X164200D02*
D03*
X154200D02*
D03*
X144200D02*
D03*
X158700Y86000D02*
D03*
X214200Y194500D02*
D03*
X139200Y182500D02*
D03*
X157700Y185500D02*
D03*
X127700Y187417D02*
D03*
X94200Y173500D02*
D03*
X58117Y229000D02*
D03*
X19200Y312780D02*
D03*
X45200Y265500D02*
D03*
D38*
X39200Y40500D02*
D03*
X83700Y32760D02*
D03*
X114184Y35335D02*
D03*
X62974Y48000D02*
D03*
X58700Y47500D02*
D03*
X117940Y47375D02*
D03*
X100575Y48928D02*
D03*
X118700Y233500D02*
D03*
X19200Y48000D02*
D03*
X16700Y54500D02*
D03*
X212700Y168500D02*
D03*
X116200Y229000D02*
D03*
X74200D02*
D03*
X68962Y225238D02*
D03*
X113200Y225000D02*
D03*
X209263Y223000D02*
D03*
X207200Y279000D02*
D03*
X212700Y175000D02*
D03*
X84719Y198981D02*
D03*
X91200Y104165D02*
D03*
X69200Y54000D02*
D03*
X53817Y47128D02*
D03*
X88200Y233500D02*
D03*
X99035Y245254D02*
D03*
X101200Y280500D02*
D03*
X27200Y61500D02*
D03*
X112700Y55000D02*
D03*
X209200Y44787D02*
D03*
Y54500D02*
D03*
X209315Y62885D02*
D03*
D39*
X31208Y48337D02*
D03*
X222700Y48500D02*
D03*
X6200D02*
D03*
M02*
