M48
;Layer_Color=9474304
;FILE_FORMAT=2:5
INCH,LZ
;TYPE=PLATED
T1F00S00C0.01181
T2F00S00C0.01968
T3F00S00C0.03000
T4F00S00C0.03150
T5F00S00C0.03937
T6F00S00C0.04724
%
T01
X02025Y0168
X0110407Y01725
X00905Y0177
X00885Y0148
X00705Y0135815
X0065898Y0117907
X00655Y00735
X0073597Y0065685
X0055Y0055
X0094471Y00332
X01445Y0032946
X01545Y0032946
X01645Y0032552
X0173286Y0035774
X0180413Y0058994
X01755Y0064
X0187437Y0052
X01435Y00665
X00135Y00545
X00265Y0041
X0019722Y0148
X001Y014
Y0166776
X0016Y02875
X00525Y02925
X00505Y02585
X0095Y0301236
X0115Y0297
X01234Y0278
X0172025Y0285268
X0086Y0324
X00905Y02015
X0107452Y0205153
X0211417Y0232
X02115Y02905
T02
X02125Y0043
Y0048
Y00535
X0122365Y0045165
Y0034312
X0127525Y003428
X0127563Y0038763
X0051512Y0039988
X00925Y0125528
X00765Y0174
X00595Y0175063
X0013291Y0163153
X0042Y02345
X0072499Y023539
X0066666Y0223284
X0076972Y0218869
X0095138Y023024
X0100906Y0238126
X01185Y0237995
X0121665Y0234723
Y0230967
X0161863Y0228
X01605Y02245
X00975Y02065
T03
X0012Y03045
X0022
Y03345
X0012
X0032
X0042
Y03045
X0032
X01265
X01365
X01465
X01565
X01665
X01765
X01865
Y03345
X01765
X01665
X01565
X01465
X01365
X01265
X01965
X02065
X02165
Y03045
X02065
X01965
T04
X01925Y0075
X02025
X02125
Y0135
X02025
X01925
Y01575
X02025
X02125
X01825
X01725
X01625
X01525
X01425
X01325
X01225
X01125
X01025
X00925
X00825
Y0135
X00925
X01025
X01125
X01225
X01325
X01425
X01525
X01625
X01725
X01825
X0185Y01725
X0175
X0165
X0155
X0145
X0135
X0125
X011Y01825
X00675
X005Y018
Y017
X004Y0155
X005Y014
Y013
Y012
Y011
Y01
Y009
Y008
X004Y0065
X00825Y0075
X00925
X01025
X01125
X01225
X01325
X01425
X01525
X01625
X01725
X01825
X00675Y01
Y011
X002
Y01
Y009
Y008
X003Y0065
X002Y012
Y013
Y014
X003Y0155
X002Y017
Y018
Y019
Y02
Y021
Y022
Y023
X00265Y0248
X00115Y0258
Y0268
X00265Y0278
X00365
X00465
X00565
X00665
X00765
X00865
Y0248
X00765
X00665
X00565
X00465
X00365
X005Y023
Y022
Y021
Y02
Y019
X00675Y01925
X00825Y02175
X00925
X01025
X01125
X01225
X01325
X01425
X01525
X01625
X01725
X01825
X0185Y02025
X0175
X0165
X0155
X0145
X0135
X0125
X011Y01925
X01234Y02581
Y02681
X01384Y0278
X01484
X01584
X01684
X01784
Y0248
X01684
X01584
X01484
X01384
X01884
X01984
X02084
Y0278
X01984
X01884
X01925Y02175
X02025
X02125
T05
X0224Y00385
X004Y00525
X005Y0162
X00055Y00387
X00825Y01925
T06
X0059394Y0307658
Y0327343
X0108606
Y0307658
M30
